<svg xmlns="http://www.w3.org/2000/svg" xmlns:xlink="http://www.w3.org/1999/xlink" xmlns:lucid="lucid" width="1488.18" height="952.72"><g transform="translate(0 0)" lucid:page-tab-id="FDQc8L-t--qg"><path d="M0 0h1488.18v952.72H0z" fill="#fff"/><path d="M435.3 224.7v5.03m0 5.03v10.08m0 5.04v10.08m0 5.04v10.08m0 5.04v10.07m0 5.03v10.08m0 5.05v10.08m0 5.04v10.07m0 5.04v10.08m0 5.04v10.08m0 5.04v10.07m0 5.03V396m0 5.05v10.08m0 5.04v10.07m0 5.04v10.08m0 5.04v10.08m0 5.04v10.08m0 5.03v10.08m0 5.05v10.08m0 5.04v10.08m0 5.04v10.06m0 5.04v10.08m0 5.04v10.08m0 5.04v10.07m0 5.05v10.08m0 5.04v10.08m0 5.04v10.07m0 5.03v10.08m0 5.04V653m0 5.04v10.08m0 5.04v10.07m0 5.04v10.08m0 5.04v10.07m0 5.04v10.08m0 5.04v10.08m0 5.04v10.08m0 5.04v10.07m0 5.04v10.08m0 5.04v10.07m0 5.04v10.1m0 5.03v10.07m0 5.04v10.08m0 5.04v10.08m0 5.04v10.07m0 5.04v10.07m0 5.04V910m0 5.03v5.04M435.3 224.7v-3.5M435.3 920.05v.52" stroke="#333" fill="none"/><path d="M415.3 365.7a8 8 0 0 1 8-8h24a8 8 0 0 1 8 8v482.64a8 8 0 0 1-8 8h-24a8 8 0 0 1-8-8z" stroke="#f2f2f2" fill="#d2d3d5"/><path d="M908.14 280.95v4.95m0 4.96v9.9m0 4.96v9.9m0 4.97v9.9m0 4.95v9.9m0 4.96v9.92m0 4.95v9.9m0 4.97v9.9m0 4.96v9.9m0 4.96v9.9m0 4.97v9.9m0 4.96v9.9m0 4.95v9.9m0 4.97v9.9m0 4.96v9.9m0 4.96v9.9m0 4.97v9.92m0 4.95v9.9m0 4.96v9.9m0 4.97v9.9m0 4.96v9.9m0 4.96v9.9m0 4.97v9.9m0 4.95v9.9m0 4.96v9.92m0 4.96v9.9m0 4.96v9.9m0 4.96v9.9m0 4.96v9.9m0 4.97v9.9m0 4.96v9.9m0 4.95v9.9m0 4.97v9.9m0 4.96v9.9m0 4.96v9.9m0 4.97v9.9m0 4.97v9.9m0 4.96v9.9m0 4.97v9.9m0 4.96v9.9m0 4.96v9.9m0 4.97v9.9m0 4.95v9.9m0 4.96v4.97" stroke="#333" fill="none"/><path d="M908.6 280.96h-.94v-.5h.95z" stroke="#333" stroke-width=".05" fill="#333"/><path d="M908.14 920.05v.52" stroke="#333" fill="none"/><path d="M888.14 365.7a8 8 0 0 1 8-8h24a8 8 0 0 1 8 8v482.64a8 8 0 0 1-8 8h-24a8 8 0 0 1-8-8z" stroke="#f2f2f2" fill="#d2d3d5"/><path d="M813.1 164.45a8 8 0 0 1 8-8h174.08a8 8 0 0 1 8 8v108a8 8 0 0 1-8 8H821.1a8 8 0 0 1-8-8z" stroke="#000" stroke-opacity="0" fill="#e3fae3"/><use xlink:href="#a" transform="matrix(1,0,0,1,821.1016380750646,164.45097180190717) translate(39.50265168308205 57.80595713526222)"/><path d="M321.13 31.97a8 8 0 0 1 8-8h836.75a8 8 0 0 1 8 8V60.9a8 8 0 0 1-8 8H329.13a8 8 0 0 1-8-8z" stroke="#000" stroke-opacity="0" stroke-width="2" fill="#fff" fill-opacity="0"/><use xlink:href="#b" transform="matrix(1,0,0,1,325.1276332877494,27.972160215174114) translate(206.45207469368916 27.828242811573297)"/><use xlink:href="#c" transform="matrix(1,0,0,1,325.1276332877494,27.972160215174114) translate(344.25943929964194 27.828242811573297)"/><use xlink:href="#d" transform="matrix(1,0,0,1,325.1276332877494,27.972160215174114) translate(385.4113508246646 27.828242811573297)"/><use xlink:href="#e" transform="matrix(1,0,0,1,325.1276332877494,27.972160215174114) translate(531.1477927957469 27.828242811573297)"/><use xlink:href="#f" transform="matrix(1,0,0,1,325.1276332877494,27.972160215174114) translate(629.3097705760516 27.828242811573297)"/><path d="M496.68 67.44h510.47M496.7 67.44h-1.02M1007.12 67.44h1.03" stroke="#b2b2b2" stroke-width="2" fill="none"/><path d="M321.13 75.02a8 8 0 0 1 8-8h837.7a8 8 0 0 1 8 8v2.84a8 8 0 0 1-8 8h-837.7a8 8 0 0 1-8-8z" stroke="#000" stroke-opacity="0" stroke-width="2" fill="#fff" fill-opacity="0"/><use xlink:href="#g" transform="matrix(1,0,0,1,325.1276332877494,71.01657930230354) translate(306.7692473739646 16.000849973417758)"/><use xlink:href="#h" transform="matrix(1,0,0,1,325.1276332877494,71.01657930230354) translate(377.027480393484 16.000849973417758)"/><use xlink:href="#i" transform="matrix(1,0,0,1,325.1276332877494,71.01657930230354) translate(431.5134570208663 16.000849973417758)"/><use xlink:href="#j" transform="matrix(1,0,0,1,325.1276332877494,71.01657930230354) translate(445.06557175076705 16.000849973417758)"/><use xlink:href="#k" transform="matrix(1,0,0,1,325.1276332877494,71.01657930230354) translate(481.0966208108102 16.000849973417758)"/><use xlink:href="#l" transform="matrix(1,0,0,1,325.1276332877494,71.01657930230354) translate(508.84839158876383 16.000849973417758)"/><path d="M188.2 148.2c0 10.9-8.84 19.75-19.75 19.75-10.9 0-19.75-8.84-19.75-19.75 0-10.9 8.84-19.75 19.75-19.75 10.9 0 19.75 8.84 19.75 19.75z" stroke="#333" fill="#fff"/><path d="M168.45 167.95v47.3a27.6 27.6 0 0 0 4.28 14.76l35.72 56.45m-40-63.2l-40 63.2m0-98.75h80" stroke="#333" fill="none"/><path d="M128.45 136.45a8 8 0 0 1 8-8h64a8 8 0 0 1 8 8v164a8 8 0 0 1-8 8h-64a8 8 0 0 1-8-8z" fill="none"/><use xlink:href="#m" transform="matrix(1,0,0,1,48.451053315099784,286.45097180190794) translate(92.075 14.6)"/><path d="M170.06 280.95v4.95m0 4.96v9.9m0 4.96v9.9m0 4.97v9.9m0 4.95v9.9m0 4.96v9.92m0 4.95v9.9m0 4.97v9.9m0 4.96v9.9m0 4.96v9.9m0 4.97v9.9m0 4.96v9.9m0 4.95v9.9m0 4.97v9.9m0 4.96v9.9m0 4.96v9.9m0 4.97v9.92m0 4.95v9.9m0 4.96v9.9m0 4.97v9.9m0 4.96v9.9m0 4.96v9.9m0 4.97v9.9m0 4.95v9.9m0 4.96v9.92m0 4.96v9.9m0 4.96v9.9m0 4.96v9.9m0 4.96v9.9m0 4.97v9.9m0 4.96v9.9m0 4.95v9.9m0 4.97v9.9m0 4.96v9.9m0 4.96v9.9m0 4.97v9.9m0 4.97v9.9m0 4.96v9.9m0 4.97v9.9m0 4.96v9.9m0 4.96v9.9m0 4.97v9.9m0 4.95v9.9m0 4.96v4.97M170.06 280.96v-.5M170.06 920.05v.52" stroke="#333" fill="none"/><path d="M148.45 365.7a8 8 0 0 1 8-8h24a8 8 0 0 1 8 8v482.64a8 8 0 0 1-8 8h-24a8 8 0 0 1-8-8z" stroke="#f2f2f2" fill="#d2d3d5"/><path d="M189.45 399.8h681.79" stroke="#333" fill="none"/><path d="M189.46 400.26h-.5v-.95h.5z" stroke="#333" stroke-width=".05" fill="#333"/><path d="M886.02 399.8l-14.27 4.62v-9.27z" stroke="#333" fill="#333"/><path d="M148.45 365.7a8 8 0 0 1 8-8h500.83a8 8 0 0 1 8 8v44a8 8 0 0 1-8 8H156.45a8 8 0 0 1-8-8z" fill="none"/><use xlink:href="#n" transform="matrix(1,0,0,1,148.45105331509978,357.68740990205913) translate(61.150000000000006 33.6)"/><use xlink:href="#o" transform="matrix(1,0,0,1,148.45105331509978,357.68740990205913) translate(132.10000000000002 33.6)"/><use xlink:href="#p" transform="matrix(1,0,0,1,148.45105331509978,357.68740990205913) translate(147.10000000000002 33.6)"/><use xlink:href="#q" transform="matrix(1,0,0,1,148.45105331509978,357.68740990205913) translate(166.05 33.6)"/><use xlink:href="#r" transform="matrix(1,0,0,1,148.45105331509978,357.68740990205913) translate(224.00000000000003 33.6)"/><use xlink:href="#s" transform="matrix(1,0,0,1,148.45105331509978,357.68740990205913) translate(249.00000000000003 33.6)"/><use xlink:href="#t" transform="matrix(1,0,0,1,148.45105331509978,357.68740990205913) translate(302.90000000000003 33.6)"/><use xlink:href="#u" transform="matrix(1,0,0,1,148.45105331509978,357.68740990205913) translate(361.9 33.6)"/><use xlink:href="#v" transform="matrix(1,0,0,1,148.45105331509978,357.68740990205913) translate(390.85 33.6)"/><path d="M455.04 148.2c0 10.9-8.84 19.75-19.75 19.75-10.92 0-19.76-8.84-19.76-19.75 0-10.9 8.84-19.75 19.75-19.75 10.9 0 19.74 8.84 19.74 19.75z" stroke="#333" fill="#fff"/><path d="M435.3 167.95v47.3a27.6 27.6 0 0 0 4.27 14.76l35.72 56.45m-40-63.2l-40 63.2m0-98.75h80" stroke="#333" fill="none"/><path d="M395.3 136.45a8 8 0 0 1 8-8h64a8 8 0 0 1 8 8v164a8 8 0 0 1-8 8h-64a8 8 0 0 1-8-8z" fill="none"/><use xlink:href="#w" transform="matrix(1,0,0,1,315.28924989806876,286.45097180190794) translate(78.07499999999999 14.6)"/><path d="M454.74 485.65h416.5M454.75 485.65h-.5" stroke="#333" fill="none"/><path d="M886.02 485.65l-14.27 4.64V481z" stroke="#333" fill="#333"/><path d="M438.56 451.56a8 8 0 0 1 8-8h433.58a8 8 0 0 1 8 8v44a8 8 0 0 1-8 8H446.56a8 8 0 0 1-8-8z" fill="none"/><g><use xlink:href="#n" transform="matrix(1,0,0,1,438.56057053713874,443.55541621548105) translate(27.650000000000006 33.6)"/><use xlink:href="#o" transform="matrix(1,0,0,1,438.56057053713874,443.55541621548105) translate(98.60000000000001 33.6)"/><use xlink:href="#p" transform="matrix(1,0,0,1,438.56057053713874,443.55541621548105) translate(113.60000000000001 33.6)"/><use xlink:href="#q" transform="matrix(1,0,0,1,438.56057053713874,443.55541621548105) translate(132.55 33.6)"/><use xlink:href="#r" transform="matrix(1,0,0,1,438.56057053713874,443.55541621548105) translate(190.50000000000003 33.6)"/><use xlink:href="#s" transform="matrix(1,0,0,1,438.56057053713874,443.55541621548105) translate(215.50000000000003 33.6)"/><use xlink:href="#t" transform="matrix(1,0,0,1,438.56057053713874,443.55541621548105) translate(269.40000000000003 33.6)"/><use xlink:href="#u" transform="matrix(1,0,0,1,438.56057053713874,443.55541621548105) translate(328.4 33.6)"/><use xlink:href="#v" transform="matrix(1,0,0,1,438.56057053713874,443.55541621548105) translate(357.35 33.6)"/></g><path d="M929.14 550.28h53.15a12 12 0 0 1 12 12v20.1a12 12 0 0 1-12 12H945" stroke="#333" fill="none"/><path d="M929.15 549.8v.95h-.5v-.95z" stroke="#333" stroke-width=".05" fill="#333"/><path d="M930.26 594.37l14.26-4.64V599z" stroke="#333" fill="#333"/><g><use xlink:href="#x" transform="matrix(1,0,0,1,932.3720438280402,526.939079996176) translate(0.0049999999999954525 14.4)"/><use xlink:href="#y" transform="matrix(1,0,0,1,932.3720438280402,526.939079996176) translate(69.955 14.4)"/><use xlink:href="#z" transform="matrix(1,0,0,1,932.3720438280402,526.939079996176) translate(167.755 14.4)"/><use xlink:href="#A" transform="matrix(1,0,0,1,932.3720438280402,526.939079996176) translate(192.755 14.4)"/><use xlink:href="#B" transform="matrix(1,0,0,1,932.3720438280402,526.939079996176) translate(294.605 14.4)"/><use xlink:href="#C" transform="matrix(1,0,0,1,932.3720438280402,526.939079996176) translate(323.555 14.4)"/><use xlink:href="#D" transform="matrix(1,0,0,1,932.3720438280402,526.939079996176) translate(393.555 14.4)"/><use xlink:href="#E" transform="matrix(1,0,0,1,932.3720438280402,526.939079996176) translate(418.555 14.4)"/><use xlink:href="#F" transform="matrix(1,0,0,1,932.3720438280402,526.939079996176) translate(477.455 14.4)"/></g><path d="M196.32 662.95h691.31" stroke="#333" fill="none"/><path d="M190.43 662.95l12.9-7.64v15.28z" stroke="#333" fill="#333"/><path d="M887.63 662.95h.5" stroke="#333" fill="none"/><path d="M148.95 628.85a8 8 0 0 1 8-8h500.83a8 8 0 0 1 8 8v44a8 8 0 0 1-8 8H156.95a8 8 0 0 1-8-8z" fill="none"/><g><use xlink:href="#G" transform="matrix(1,0,0,1,148.95105016399032,620.8466761764571) translate(75.17499999999998 33.6)"/><use xlink:href="#t" transform="matrix(1,0,0,1,148.95105016399032,620.8466761764571) translate(141.02499999999998 33.6)"/><use xlink:href="#H" transform="matrix(1,0,0,1,148.95105016399032,620.8466761764571) translate(200.02499999999998 33.6)"/><use xlink:href="#I" transform="matrix(1,0,0,1,148.95105016399032,620.8466761764571) translate(252.975 33.6)"/><use xlink:href="#J" transform="matrix(1,0,0,1,148.95105016399032,620.8466761764571) translate(266.975 33.6)"/><use xlink:href="#u" transform="matrix(1,0,0,1,148.95105016399032,620.8466761764571) translate(347.875 33.6)"/><use xlink:href="#v" transform="matrix(1,0,0,1,148.95105016399032,620.8466761764571) translate(376.82500000000005 33.6)"/></g><path d="M461.12 748.58h426.02" stroke="#333" fill="none"/><path d="M455.23 748.58l12.9-7.64v15.27z" stroke="#333" fill="#333"/><path d="M887.13 748.58h.5" stroke="#333" fill="none"/><path d="M438.56 714.48a8 8 0 0 1 8-8h433.58a8 8 0 0 1 8 8v44a8 8 0 0 1-8 8H446.56a8 8 0 0 1-8-8z" fill="none"/><g><use xlink:href="#G" transform="matrix(1,0,0,1,438.56057053713874,706.480711719857) translate(41.67499999999998 33.6)"/><use xlink:href="#t" transform="matrix(1,0,0,1,438.56057053713874,706.480711719857) translate(107.52499999999999 33.6)"/><use xlink:href="#H" transform="matrix(1,0,0,1,438.56057053713874,706.480711719857) translate(166.52499999999998 33.6)"/><use xlink:href="#I" transform="matrix(1,0,0,1,438.56057053713874,706.480711719857) translate(219.475 33.6)"/><use xlink:href="#J" transform="matrix(1,0,0,1,438.56057053713874,706.480711719857) translate(233.475 33.6)"/><use xlink:href="#u" transform="matrix(1,0,0,1,438.56057053713874,706.480711719857) translate(314.375 33.6)"/><use xlink:href="#v" transform="matrix(1,0,0,1,438.56057053713874,706.480711719857) translate(343.32500000000005 33.6)"/></g><defs><path fill="#333" d="M199 0l-22-63H83L61 0H9l90-248h61L250 0h-51zm-33-102l-36-108c-10 38-24 72-36 108h72" id="K"/><path fill="#333" d="M135-194c53 0 70 44 70 98 0 56-19 98-73 100-31 1-45-17-59-34 3 33 2 69 2 105H25l-1-265h48c2 10 0 23 3 31 11-24 29-35 60-35zM114-30c33 0 39-31 40-66 0-38-9-64-40-64-56 0-55 130 0 130" id="L"/><path fill="#333" d="M25 0v-261h50V0H25" id="M"/><path fill="#333" d="M25-224v-37h50v37H25zM25 0v-190h50V0H25" id="N"/><path fill="#333" d="M190-63c-7 42-38 67-86 67-59 0-84-38-90-98-12-110 154-137 174-36l-49 2c-2-19-15-32-35-32-30 0-35 28-38 64-6 74 65 87 74 30" id="O"/><path fill="#333" d="M133-34C117-15 103 5 69 4 32 3 11-16 11-54c-1-60 55-63 116-61 1-26-3-47-28-47-18 1-26 9-28 27l-52-2c7-38 36-58 82-57s74 22 75 68l1 82c-1 14 12 18 25 15v27c-30 8-71 5-69-32zm-48 3c29 0 43-24 42-57-32 0-66-3-65 30 0 17 8 27 23 27" id="P"/><path fill="#333" d="M110-194c64 0 96 36 96 99 0 64-35 99-97 99-61 0-95-36-95-99 0-62 34-99 96-99zm-1 164c35 0 45-28 45-65 0-40-10-65-43-65-34 0-45 26-45 65 0 36 10 65 43 65" id="Q"/><path fill="#333" d="M135-194c87-1 58 113 63 194h-50c-7-57 23-157-34-157-59 0-34 97-39 157H25l-1-190h47c2 12-1 28 3 38 12-26 28-41 61-42" id="R"/><g id="a"><use transform="matrix(0.05286051576753077,0,0,0.05286051576753077,0,0)" xlink:href="#K"/><use transform="matrix(0.05286051576753077,0,0,0.05286051576753077,13.69087358379047,0)" xlink:href="#L"/><use transform="matrix(0.05286051576753077,0,0,0.05286051576753077,25.267326536879708,0)" xlink:href="#M"/><use transform="matrix(0.05286051576753077,0,0,0.05286051576753077,30.553378113632785,0)" xlink:href="#N"/><use transform="matrix(0.05286051576753077,0,0,0.05286051576753077,35.83942969038586,0)" xlink:href="#O"/><use transform="matrix(0.05286051576753077,0,0,0.05286051576753077,46.41153284389202,0)" xlink:href="#P"/><use transform="matrix(0.05286051576753077,0,0,0.05286051576753077,56.983635997398174,0)" xlink:href="#O"/><use transform="matrix(0.05286051576753077,0,0,0.05286051576753077,67.55573915090433,0)" xlink:href="#N"/><use transform="matrix(0.05286051576753077,0,0,0.05286051576753077,72.84179072765741,0)" xlink:href="#Q"/><use transform="matrix(0.05286051576753077,0,0,0.05286051576753077,84.41824368074666,0)" xlink:href="#R"/></g><path fill="#b2b2b2" d="M24-248c120-7 223 5 221 122C244-46 201 0 124 0H24v-248zM76-40c74 7 117-18 117-86 0-67-45-88-117-82v168" id="S"/><path fill="#b2b2b2" d="M25-224v-37h50v37H25zM25 0v-190h50V0H25" id="T"/><path fill="#b2b2b2" d="M133-34C117-15 103 5 69 4 32 3 11-16 11-54c-1-60 55-63 116-61 1-26-3-47-28-47-18 1-26 9-28 27l-52-2c7-38 36-58 82-57s74 22 75 68l1 82c-1 14 12 18 25 15v27c-30 8-71 5-69-32zm-48 3c29 0 43-24 42-57-32 0-66-3-65 30 0 17 8 27 23 27" id="U"/><path fill="#b2b2b2" d="M195-6C206 82 75 100 31 46c-4-6-6-13-8-21l49-6c3 16 16 24 34 25 40 0 42-37 40-79-11 22-30 35-61 35-53 0-70-43-70-97 0-56 18-96 73-97 30 0 46 14 59 34l2-30h47zm-90-29c32 0 41-27 41-63 0-35-9-62-40-62-32 0-39 29-40 63 0 36 9 62 39 62" id="V"/><path fill="#b2b2b2" d="M135-150c-39-12-60 13-60 57V0H25l-1-190h47c2 13-1 29 3 40 6-28 27-53 61-41v41" id="W"/><path fill="#b2b2b2" d="M220-157c-53 9-28 100-34 157h-49v-107c1-27-5-49-29-50C55-147 81-57 75 0H25l-1-190h47c2 12-1 28 3 38 10-53 101-56 108 0 13-22 24-43 59-42 82 1 51 116 57 194h-49v-107c-1-25-5-48-29-50" id="X"/><g id="b"><use transform="matrix(0.07929077365129616,0,0,0.07929077365129616,0,0)" xlink:href="#S"/><use transform="matrix(0.07929077365129616,0,0,0.07929077365129616,20.536310375685705,0)" xlink:href="#T"/><use transform="matrix(0.07929077365129616,0,0,0.07929077365129616,28.465387740815324,0)" xlink:href="#U"/><use transform="matrix(0.07929077365129616,0,0,0.07929077365129616,44.32354247107455,0)" xlink:href="#V"/><use transform="matrix(0.07929077365129616,0,0,0.07929077365129616,61.68822190070841,0)" xlink:href="#W"/><use transform="matrix(0.07929077365129616,0,0,0.07929077365129616,72.78893021188989,0)" xlink:href="#U"/><use transform="matrix(0.07929077365129616,0,0,0.07929077365129616,88.6470849421491,0)" xlink:href="#X"/><use transform="matrix(0.07929077365129616,0,0,0.07929077365129616,114.0201325105639,0)" xlink:href="#U"/></g><path fill="#b2b2b2" d="M88-194c31-1 46 15 58 34l-1-101h50l1 261h-48c-2-10 0-23-3-31C134-8 116 4 84 4 32 4 16-41 15-95c0-56 19-97 73-99zm17 164c33 0 40-30 41-66 1-37-9-64-41-64s-38 30-39 65c0 43 13 65 39 65" id="Y"/><path fill="#b2b2b2" d="M185-48c-13 30-37 53-82 52C43 2 14-33 14-96s30-98 90-98c62 0 83 45 84 108H66c0 31 8 55 39 56 18 0 30-7 34-22zm-45-69c5-46-57-63-70-21-2 6-4 13-4 21h74" id="Z"/><g id="c"><use transform="matrix(0.07929077365129616,0,0,0.07929077365129616,0,0)" xlink:href="#Y"/><use transform="matrix(0.07929077365129616,0,0,0.07929077365129616,17.36467942963386,0)" xlink:href="#Z"/></g><path fill="#b2b2b2" d="M137-138c1-29-70-34-71-4 15 46 118 7 119 86 1 83-164 76-172 9l43-7c4 19 20 25 44 25 33 8 57-30 24-41C81-84 22-81 20-136c-2-80 154-74 161-7" id="aa"/><path fill="#b2b2b2" d="M190-63c-7 42-38 67-86 67-59 0-84-38-90-98-12-110 154-137 174-36l-49 2c-2-19-15-32-35-32-30 0-35 28-38 64-6 74 65 87 74 30" id="ab"/><path fill="#b2b2b2" d="M85 4C-2 5 27-109 22-190h50c7 57-23 150 33 157 60-5 35-97 40-157h50l1 190h-47c-2-12 1-28-3-38-12 25-28 42-61 42" id="ac"/><path fill="#b2b2b2" d="M135-194c87-1 58 113 63 194h-50c-7-57 23-157-34-157-59 0-34 97-39 157H25l-1-190h47c2 12-1 28 3 38 12-26 28-41 61-42" id="ad"/><g id="d"><use transform="matrix(0.07929077365129616,0,0,0.07929077365129616,0,0)" xlink:href="#aa"/><use transform="matrix(0.07929077365129616,0,0,0.07929077365129616,15.858154730259233,0)" xlink:href="#Z"/><use transform="matrix(0.07929077365129616,0,0,0.07929077365129616,31.716309460518467,0)" xlink:href="#ab"/><use transform="matrix(0.07929077365129616,0,0,0.07929077365129616,47.57446419077771,0)" xlink:href="#ac"/><use transform="matrix(0.07929077365129616,0,0,0.07929077365129616,64.93914362041156,0)" xlink:href="#Z"/><use transform="matrix(0.07929077365129616,0,0,0.07929077365129616,80.79729835067079,0)" xlink:href="#ad"/><use transform="matrix(0.07929077365129616,0,0,0.07929077365129616,98.16197778030465,0)" xlink:href="#ab"/><use transform="matrix(0.07929077365129616,0,0,0.07929077365129616,114.02013251056388,0)" xlink:href="#T"/><use transform="matrix(0.07929077365129616,0,0,0.07929077365129616,121.9492098756935,0)" xlink:href="#U"/></g><path fill="#b2b2b2" d="M135-194c52 0 70 43 70 98 0 56-19 99-73 100-30 1-46-15-58-35L72 0H24l1-261h50v104c11-23 29-37 60-37zM114-30c31 0 40-27 40-66 0-37-7-63-39-63s-41 28-41 65c0 36 8 64 40 64" id="ae"/><path fill="#b2b2b2" d="M132-34C116-15 102 5 68 4 31 3 10-16 10-54c-1-60 55-63 116-61 1-26-3-47-28-47-18 1-26 9-28 27l-52-2c7-38 36-58 82-57s74 22 75 68l1 82c-1 14 12 18 25 15v27c-30 8-71 5-69-32zm-48 3c29 0 43-24 42-57-32 0-66-3-65 30 0 17 8 27 23 27zM66-208v-5l45-51h45v8l-60 48H66" id="af"/><path fill="#b2b2b2" d="M110-194c64 0 96 36 96 99 0 64-35 99-97 99-61 0-95-36-95-99 0-62 34-99 96-99zm-1 164c35 0 45-28 45-65 0-40-10-65-43-65-34 0-45 26-45 65 0 36 10 65 43 65" id="ag"/><g id="e"><use transform="matrix(0.07929077365129616,0,0,0.07929077365129616,0,0)" xlink:href="#ae"/><use transform="matrix(0.07929077365129616,0,0,0.07929077365129616,17.36467942963386,0)" xlink:href="#af"/><use transform="matrix(0.07929077365129616,0,0,0.07929077365129616,33.2228341598931,0)" xlink:href="#aa"/><use transform="matrix(0.07929077365129616,0,0,0.07929077365129616,49.08098889015233,0)" xlink:href="#T"/><use transform="matrix(0.07929077365129616,0,0,0.07929077365129616,57.01006625528194,0)" xlink:href="#ab"/><use transform="matrix(0.07929077365129616,0,0,0.07929077365129616,72.86822098554117,0)" xlink:href="#ag"/></g><path fill="#b2b2b2" d="M128-127c34 4 56 21 59 58 7 91-148 94-172 28-4-9-6-17-7-26l51-5c1 24 16 35 40 36 23 0 39-12 38-36-1-31-31-36-65-34v-40c32 2 59-3 59-33 0-20-13-33-34-33s-33 13-35 32l-50-3c6-44 37-68 86-68 50 0 83 20 83 66 0 35-22 52-53 58" id="ah"/><use transform="matrix(0.07929077365129616,0,0,0.07929077365129616,0,0)" xlink:href="#ah" id="f"/><path fill="#b2b2b2" d="M185-189c-5-48-123-54-124 2 14 75 158 14 163 119 3 78-121 87-175 55-17-10-28-26-33-46l33-7c5 56 141 63 141-1 0-78-155-14-162-118-5-82 145-84 179-34 5 7 8 16 11 25" id="ai"/><path fill="#b2b2b2" d="M141-36C126-15 110 5 73 4 37 3 15-17 15-53c-1-64 63-63 125-63 3-35-9-54-41-54-24 1-41 7-42 31l-33-3c5-37 33-52 76-52 45 0 72 20 72 64v82c-1 20 7 32 28 27v20c-31 9-61-2-59-35zM48-53c0 20 12 33 32 33 41-3 63-29 60-74-43 2-92-5-92 41" id="aj"/><path fill="#b2b2b2" d="M117-194c89-4 53 116 60 194h-32v-121c0-31-8-49-39-48C34-167 62-67 57 0H25l-1-190h30c1 10-1 24 2 32 11-22 29-35 61-36" id="ak"/><path fill="#b2b2b2" d="M59-47c-2 24 18 29 38 22v24C64 9 27 4 27-40v-127H5v-23h24l9-43h21v43h35v23H59v120" id="al"/><path fill="#b2b2b2" d="M24-231v-30h32v30H24zM24 0v-190h32V0H24" id="am"/><path fill="#b2b2b2" d="M177-190C167-65 218 103 67 71c-23-6-38-20-44-43l32-5c15 47 100 32 89-28v-30C133-14 115 1 83 1 29 1 15-40 15-95c0-56 16-97 71-98 29-1 48 16 59 35 1-10 0-23 2-32h30zM94-22c36 0 50-32 50-73 0-42-14-75-50-75-39 0-46 34-46 75s6 73 46 73" id="an"/><path fill="#b2b2b2" d="M100-194c62-1 85 37 85 99 1 63-27 99-86 99S16-35 15-95c0-66 28-99 85-99zM99-20c44 1 53-31 53-75 0-43-8-75-51-75s-53 32-53 75 10 74 51 75" id="ao"/><g id="g"><use transform="matrix(0.046252951296589434,0,0,0.046252951296589434,0,0)" xlink:href="#ai"/><use transform="matrix(0.046252951296589434,0,0,0.046252951296589434,11.100708311181464,0)" xlink:href="#aj"/><use transform="matrix(0.046252951296589434,0,0,0.046252951296589434,20.351298570499353,0)" xlink:href="#ak"/><use transform="matrix(0.046252951296589434,0,0,0.046252951296589434,29.60188882981724,0)" xlink:href="#al"/><use transform="matrix(0.046252951296589434,0,0,0.046252951296589434,34.227183959476186,0)" xlink:href="#am"/><use transform="matrix(0.046252951296589434,0,0,0.046252951296589434,37.88116711190675,0)" xlink:href="#aj"/><use transform="matrix(0.046252951296589434,0,0,0.046252951296589434,47.13175737122464,0)" xlink:href="#an"/><use transform="matrix(0.046252951296589434,0,0,0.046252951296589434,56.38234763054253,0)" xlink:href="#ao"/></g><path fill="#b2b2b2" d="M30-248c118-7 216 8 213 122C240-48 200 0 122 0H30v-248zM63-27c89 8 146-16 146-99s-60-101-146-95v194" id="ap"/><path fill="#b2b2b2" d="M84 4C-5 8 30-112 23-190h32v120c0 31 7 50 39 49 72-2 45-101 50-169h31l1 190h-30c-1-10 1-25-2-33-11 22-28 36-60 37" id="aq"/><path fill="#b2b2b2" d="M114-163C36-179 61-72 57 0H25l-1-190h30c1 12-1 29 2 39 6-27 23-49 58-41v29" id="ar"/><path fill="#b2b2b2" d="M141-36C126-15 110 5 73 4 37 3 15-17 15-53c-1-64 63-63 125-63 3-35-9-54-41-54-24 1-41 7-42 31l-33-3c5-37 33-52 76-52 45 0 72 20 72 64v82c-1 20 7 32 28 27v20c-31 9-61-2-59-35zM48-53c0 20 12 33 32 33 41-3 63-29 60-74-43 2-92-5-92 41zm25-158c8-23 27-35 38-54h36v5l-58 49H73" id="as"/><g id="h"><use transform="matrix(0.046252951296589434,0,0,0.046252951296589434,0,0)" xlink:href="#ap"/><use transform="matrix(0.046252951296589434,0,0,0.046252951296589434,11.979514385816664,0)" xlink:href="#aq"/><use transform="matrix(0.046252951296589434,0,0,0.046252951296589434,21.230104645134553,0)" xlink:href="#ar"/><use transform="matrix(0.046252951296589434,0,0,0.046252951296589434,26.734205849428697,0)" xlink:href="#as"/><use transform="matrix(0.046252951296589434,0,0,0.046252951296589434,35.984796108746586,0)" xlink:href="#ak"/></g><path fill="#b2b2b2" d="M32 76v-337h29V76H32" id="at"/><use transform="matrix(0.046252951296589434,0,0,0.046252951296589434,0,0)" xlink:href="#at" id="i"/><path fill="#b2b2b2" d="M240 0l2-218c-23 76-54 145-80 218h-23L58-218 59 0H30v-248h44l77 211c21-75 51-140 76-211h43V0h-30" id="au"/><path fill="#b2b2b2" d="M179-190L93 31C79 59 56 82 12 73V49c39 6 53-20 64-50L1-190h34L92-34l54-156h33" id="av"/><g id="j"><use transform="matrix(0.046252951296589434,0,0,0.046252951296589434,0,0)" xlink:href="#au"/><use transform="matrix(0.046252951296589434,0,0,0.046252951296589434,13.82963243768024,0)" xlink:href="#aj"/><use transform="matrix(0.046252951296589434,0,0,0.046252951296589434,23.080222696998128,0)" xlink:href="#av"/></g><path fill="#b2b2b2" d="M101-251c82-7 93 87 43 132L82-64C71-53 59-42 53-27h129V0H18c2-99 128-94 128-182 0-28-16-43-45-43s-46 15-49 41l-32-3c6-41 34-60 81-64" id="aw"/><path fill="#b2b2b2" d="M134-131c28 9 52 24 51 62-1 50-34 73-85 73S17-19 16-69c0-36 21-54 49-61-75-25-45-126 34-121 46 3 78 18 79 63 0 33-17 51-44 57zm-34-11c31 1 46-15 46-44 0-28-17-43-47-42-29 0-46 13-45 42 1 28 16 44 46 44zm1 122c35 0 51-18 51-52 0-30-18-46-53-46-33 0-51 17-51 47 0 34 19 51 53 51" id="ax"/><path fill="#b2b2b2" d="M68-38c1 34 0 65-14 84H32c9-13 17-26 17-46H33v-38h35" id="ay"/><g id="k"><use transform="matrix(0.046252951296589434,0,0,0.046252951296589434,0,0)" xlink:href="#aw"/><use transform="matrix(0.046252951296589434,0,0,0.046252951296589434,9.250590259317887,0)" xlink:href="#ax"/><use transform="matrix(0.046252951296589434,0,0,0.046252951296589434,18.501180518635774,0)" xlink:href="#ay"/></g><path fill="#b2b2b2" d="M101-251c68 0 85 55 85 127S166 4 100 4C33 4 14-52 14-124c0-73 17-127 87-127zm-1 229c47 0 54-49 54-102s-4-102-53-102c-51 0-55 48-55 102 0 53 5 102 54 102" id="az"/><path fill="#b2b2b2" d="M155-56V0h-30v-56H8v-25l114-167h33v167h35v25h-35zm-30-156c-27 46-58 90-88 131h88v-131" id="aA"/><g id="l"><use transform="matrix(0.046252951296589434,0,0,0.046252951296589434,0,0)" xlink:href="#aw"/><use transform="matrix(0.046252951296589434,0,0,0.046252951296589434,9.250590259317887,0)" xlink:href="#az"/><use transform="matrix(0.046252951296589434,0,0,0.046252951296589434,18.501180518635774,0)" xlink:href="#aw"/><use transform="matrix(0.046252951296589434,0,0,0.046252951296589434,27.75177077795366,0)" xlink:href="#aA"/></g><path fill="#333" d="M212-179c-10-28-35-45-73-45-59 0-87 40-87 99 0 60 29 101 89 101 43 0 62-24 78-52l27 14C228-24 195 4 139 4 59 4 22-46 18-125c-6-104 99-153 187-111 19 9 31 26 39 46" id="aB"/><path fill="#333" d="M24 0v-261h32V0H24" id="aC"/><path fill="#333" d="M24-231v-30h32v30H24zM24 0v-190h32V0H24" id="aD"/><path fill="#333" d="M100-194c63 0 86 42 84 106H49c0 40 14 67 53 68 26 1 43-12 49-29l28 8c-11 28-37 45-77 45C44 4 14-33 15-96c1-61 26-98 85-98zm52 81c6-60-76-77-97-28-3 7-6 17-6 28h103" id="aE"/><path fill="#333" d="M117-194c89-4 53 116 60 194h-32v-121c0-31-8-49-39-48C34-167 62-67 57 0H25l-1-190h30c1 10-1 24 2 32 11-22 29-35 61-36" id="aF"/><path fill="#333" d="M59-47c-2 24 18 29 38 22v24C64 9 27 4 27-40v-127H5v-23h24l9-43h21v43h35v23H59v120" id="aG"/><g id="m"><use transform="matrix(0.05,0,0,0.05,0,0)" xlink:href="#aB"/><use transform="matrix(0.05,0,0,0.05,12.950000000000001,0)" xlink:href="#aC"/><use transform="matrix(0.05,0,0,0.05,16.900000000000002,0)" xlink:href="#aD"/><use transform="matrix(0.05,0,0,0.05,20.85,0)" xlink:href="#aE"/><use transform="matrix(0.05,0,0,0.05,30.85,0)" xlink:href="#aF"/><use transform="matrix(0.05,0,0,0.05,40.85,0)" xlink:href="#aG"/><use transform="matrix(0.05,0,0,0.05,45.85,0)" xlink:href="#aE"/></g><path fill="#333" d="M205 0l-28-72H64L36 0H1l101-248h38L239 0h-34zm-38-99l-47-123c-12 45-31 82-46 123h93" id="aH"/><path fill="#333" d="M96-169c-40 0-48 33-48 73s9 75 48 75c24 0 41-14 43-38l32 2c-6 37-31 61-74 61-59 0-76-41-82-99-10-93 101-131 147-64 4 7 5 14 7 22l-32 3c-4-21-16-35-41-35" id="aI"/><path fill="#333" d="M85-194c31 0 48 13 60 33l-1-100h32l1 261h-30c-2-10 0-23-3-31C134-8 116 4 85 4 32 4 16-35 15-94c0-66 23-100 70-100zm9 24c-40 0-46 34-46 75 0 40 6 74 45 74 42 0 51-32 51-76 0-42-9-74-50-73" id="aJ"/><path fill="#333" d="M114-163C36-179 61-72 57 0H25l-1-190h30c1 12-1 29 2 39 6-27 23-49 58-41v29" id="aK"/><g id="n"><use transform="matrix(0.05,0,0,0.05,0,0)" xlink:href="#aH"/><use transform="matrix(0.05,0,0,0.05,12,0)" xlink:href="#aI"/><use transform="matrix(0.05,0,0,0.05,21,0)" xlink:href="#aI"/><use transform="matrix(0.05,0,0,0.05,30,0)" xlink:href="#aE"/><use transform="matrix(0.05,0,0,0.05,40,0)" xlink:href="#aJ"/><use transform="matrix(0.05,0,0,0.05,50,0)" xlink:href="#aE"/><use transform="matrix(0.05,0,0,0.05,60,0)" xlink:href="#aK"/></g><path fill="#333" d="M141-36C126-15 110 5 73 4 37 3 15-17 15-53c-1-64 63-63 125-63 3-35-9-54-41-54-24 1-41 7-42 31l-33-3c5-37 33-52 76-52 45 0 72 20 72 64v82c-1 20 7 32 28 27v20c-31 9-61-2-59-35zM48-53c0 20 12 33 32 33 41-3 63-29 60-74-43 2-92-5-92 41" id="aL"/><use transform="matrix(0.05,0,0,0.05,0,0)" xlink:href="#aL" id="o"/><g id="p"><use transform="matrix(0.05,0,0,0.05,0,0)" xlink:href="#aC"/><use transform="matrix(0.05,0,0,0.05,3.95,0)" xlink:href="#aL"/></g><path fill="#333" d="M100-194c62-1 85 37 85 99 1 63-27 99-86 99S16-35 15-95c0-66 28-99 85-99zM99-20c44 1 53-31 53-75 0-43-8-75-51-75s-53 32-53 75 10 74 51 75" id="aM"/><path fill="#333" d="M115-194c55 1 70 41 70 98S169 2 115 4C84 4 66-9 55-30l1 105H24l-1-265h31l2 30c10-21 28-34 59-34zm-8 174c40 0 45-34 45-75s-6-73-45-74c-42 0-51 32-51 76 0 43 10 73 51 73" id="aN"/><g id="q"><use transform="matrix(0.05,0,0,0.05,0,0)" xlink:href="#aM"/><use transform="matrix(0.05,0,0,0.05,10,0)" xlink:href="#aN"/><use transform="matrix(0.05,0,0,0.05,20,0)" xlink:href="#aI"/><use transform="matrix(0.05,0,0,0.05,29,0)" xlink:href="#aD"/><use transform="matrix(0.05,0,0,0.05,32.95,0)" xlink:href="#aM"/><use transform="matrix(0.05,0,0,0.05,42.95,0)" xlink:href="#aF"/></g><g id="r"><use transform="matrix(0.05,0,0,0.05,0,0)" xlink:href="#aJ"/><use transform="matrix(0.05,0,0,0.05,10,0)" xlink:href="#aE"/></g><path fill="#333" d="M135-143c-3-34-86-38-87 0 15 53 115 12 119 90S17 21 10-45l28-5c4 36 97 45 98 0-10-56-113-15-118-90-4-57 82-63 122-42 12 7 21 19 24 35" id="aO"/><path fill="#333" d="M177-190C167-65 218 103 67 71c-23-6-38-20-44-43l32-5c15 47 100 32 89-28v-30C133-14 115 1 83 1 29 1 15-40 15-95c0-56 16-97 71-98 29-1 48 16 59 35 1-10 0-23 2-32h30zM94-22c36 0 50-32 50-73 0-42-14-75-50-75-39 0-46 34-46 75s6 73 46 73" id="aP"/><path fill="#333" d="M84 4C-5 8 30-112 23-190h32v120c0 31 7 50 39 49 72-2 45-101 50-169h31l1 190h-30c-1-10 1-25-2-33-11 22-28 36-60 37" id="aQ"/><g id="s"><use transform="matrix(0.05,0,0,0.05,0,0)" xlink:href="#aO"/><use transform="matrix(0.05,0,0,0.05,9,0)" xlink:href="#aE"/><use transform="matrix(0.05,0,0,0.05,19,0)" xlink:href="#aP"/><use transform="matrix(0.05,0,0,0.05,29,0)" xlink:href="#aQ"/><use transform="matrix(0.05,0,0,0.05,39,0)" xlink:href="#aD"/><use transform="matrix(0.05,0,0,0.05,42.95,0)" xlink:href="#aK"/></g><g id="t"><use transform="matrix(0.05,0,0,0.05,0,0)" xlink:href="#aE"/><use transform="matrix(0.05,0,0,0.05,10,0)" xlink:href="#aO"/><use transform="matrix(0.05,0,0,0.05,19,0)" xlink:href="#aG"/><use transform="matrix(0.05,0,0,0.05,24,0)" xlink:href="#aL"/><use transform="matrix(0.05,0,0,0.05,34,0)" xlink:href="#aJ"/><use transform="matrix(0.05,0,0,0.05,44,0)" xlink:href="#aM"/></g><g id="u"><use transform="matrix(0.05,0,0,0.05,0,0)" xlink:href="#aJ"/><use transform="matrix(0.05,0,0,0.05,10,0)" xlink:href="#aE"/><use transform="matrix(0.05,0,0,0.05,20,0)" xlink:href="#aC"/></g><path fill="#333" d="M145-31C134-9 116 4 85 4 32 4 16-35 15-94c0-59 17-99 70-100 32-1 48 14 60 33 0-11-1-24 2-32h30l-1 268h-32zM93-21c41 0 51-33 51-76s-8-73-50-73c-40 0-46 35-46 75s5 74 45 74" id="aR"/><g id="v"><use transform="matrix(0.05,0,0,0.05,0,0)" xlink:href="#aN"/><use transform="matrix(0.05,0,0,0.05,10,0)" xlink:href="#aL"/><use transform="matrix(0.05,0,0,0.05,20,0)" xlink:href="#aR"/><use transform="matrix(0.05,0,0,0.05,30,0)" xlink:href="#aQ"/><use transform="matrix(0.05,0,0,0.05,40,0)" xlink:href="#aE"/><use transform="matrix(0.05,0,0,0.05,50,0)" xlink:href="#aG"/><use transform="matrix(0.05,0,0,0.05,55,0)" xlink:href="#aE"/></g><path fill="#333" d="M240 0l2-218c-23 76-54 145-80 218h-23L58-218 59 0H30v-248h44l77 211c21-75 51-140 76-211h43V0h-30" id="aS"/><path fill="#333" d="M24-231v-30h32v30H24zM-9 49c24 4 33-6 33-30v-209h32V24c2 40-23 58-65 49V49" id="aT"/><g id="w"><use transform="matrix(0.05,0,0,0.05,0,0)" xlink:href="#aS"/><use transform="matrix(0.05,0,0,0.05,14.950000000000001,0)" xlink:href="#aE"/><use transform="matrix(0.05,0,0,0.05,24.950000000000003,0)" xlink:href="#aF"/><use transform="matrix(0.05,0,0,0.05,34.95,0)" xlink:href="#aO"/><use transform="matrix(0.05,0,0,0.05,43.95,0)" xlink:href="#aL"/><use transform="matrix(0.05,0,0,0.05,53.95,0)" xlink:href="#aT"/><use transform="matrix(0.05,0,0,0.05,57.900000000000006,0)" xlink:href="#aE"/><use transform="matrix(0.05,0,0,0.05,67.9,0)" xlink:href="#aK"/><use transform="matrix(0.05,0,0,0.05,73.85000000000001,0)" xlink:href="#aM"/></g><path fill="#333" d="M140-251c81 0 123 46 123 126C263-46 219 4 140 4 59 4 17-45 17-125s42-126 123-126zm0 227c63 0 89-41 89-101s-29-99-89-99c-61 0-89 39-89 99S79-25 140-24" id="aU"/><path fill="#333" d="M115-194c53 0 69 39 70 98 0 66-23 100-70 100C84 3 66-7 56-30L54 0H23l1-261h32v101c10-23 28-34 59-34zm-8 174c40 0 45-34 45-75 0-40-5-75-45-74-42 0-51 32-51 76 0 43 10 73 51 73" id="aV"/><g id="x"><use transform="matrix(0.05,0,0,0.05,0,0)" xlink:href="#aU"/><use transform="matrix(0.05,0,0,0.05,14,0)" xlink:href="#aV"/><use transform="matrix(0.05,0,0,0.05,24,0)" xlink:href="#aG"/><use transform="matrix(0.05,0,0,0.05,29,0)" xlink:href="#aE"/><use transform="matrix(0.05,0,0,0.05,39,0)" xlink:href="#aF"/><use transform="matrix(0.05,0,0,0.05,49,0)" xlink:href="#aE"/><use transform="matrix(0.05,0,0,0.05,59,0)" xlink:href="#aK"/></g><path fill="#333" d="M101-234c-31-9-42 10-38 44h38v23H63V0H32v-167H5v-23h27c-7-52 17-82 69-68v24" id="aW"/><path fill="#333" d="M210-169c-67 3-38 105-44 169h-31v-121c0-29-5-50-35-48C34-165 62-65 56 0H25l-1-190h30c1 10-1 24 2 32 10-44 99-50 107 0 11-21 27-35 58-36 85-2 47 119 55 194h-31v-121c0-29-5-49-35-48" id="aX"/><g id="y"><use transform="matrix(0.05,0,0,0.05,0,0)" xlink:href="#aD"/><use transform="matrix(0.05,0,0,0.05,3.95,0)" xlink:href="#aF"/><use transform="matrix(0.05,0,0,0.05,13.949999999999998,0)" xlink:href="#aW"/><use transform="matrix(0.05,0,0,0.05,18.95,0)" xlink:href="#aM"/><use transform="matrix(0.05,0,0,0.05,28.950000000000003,0)" xlink:href="#aK"/><use transform="matrix(0.05,0,0,0.05,34.9,0)" xlink:href="#aX"/><use transform="matrix(0.05,0,0,0.05,49.85,0)" xlink:href="#aL"/><use transform="matrix(0.05,0,0,0.05,59.85,0)" xlink:href="#aI"/><use transform="matrix(0.05,0,0,0.05,68.85,0)" xlink:href="#aD"/><use transform="matrix(0.05,0,0,0.05,72.8,0)" xlink:href="#aM"/><use transform="matrix(0.05,0,0,0.05,82.8,0)" xlink:href="#aF"/></g><g id="z"><use transform="matrix(0.05,0,0,0.05,0,0)" xlink:href="#aJ"/><use transform="matrix(0.05,0,0,0.05,10,0)" xlink:href="#aE"/></g><g id="A"><use transform="matrix(0.05,0,0,0.05,0,0)" xlink:href="#aO"/><use transform="matrix(0.05,0,0,0.05,9,0)" xlink:href="#aE"/><use transform="matrix(0.05,0,0,0.05,19,0)" xlink:href="#aP"/><use transform="matrix(0.05,0,0,0.05,29,0)" xlink:href="#aQ"/><use transform="matrix(0.05,0,0,0.05,39,0)" xlink:href="#aD"/><use transform="matrix(0.05,0,0,0.05,42.95,0)" xlink:href="#aX"/><use transform="matrix(0.05,0,0,0.05,57.900000000000006,0)" xlink:href="#aD"/><use transform="matrix(0.05,0,0,0.05,61.85,0)" xlink:href="#aE"/><use transform="matrix(0.05,0,0,0.05,71.85000000000001,0)" xlink:href="#aF"/><use transform="matrix(0.05,0,0,0.05,81.85000000000001,0)" xlink:href="#aG"/><use transform="matrix(0.05,0,0,0.05,86.85000000000001,0)" xlink:href="#aM"/></g><g id="B"><use transform="matrix(0.05,0,0,0.05,0,0)" xlink:href="#aJ"/><use transform="matrix(0.05,0,0,0.05,10,0)" xlink:href="#aE"/><use transform="matrix(0.05,0,0,0.05,20,0)" xlink:href="#aC"/></g><g id="C"><use transform="matrix(0.05,0,0,0.05,0,0)" xlink:href="#aN"/><use transform="matrix(0.05,0,0,0.05,10,0)" xlink:href="#aL"/><use transform="matrix(0.05,0,0,0.05,20,0)" xlink:href="#aR"/><use transform="matrix(0.05,0,0,0.05,30,0)" xlink:href="#aQ"/><use transform="matrix(0.05,0,0,0.05,40,0)" xlink:href="#aE"/><use transform="matrix(0.05,0,0,0.05,50,0)" xlink:href="#aG"/><use transform="matrix(0.05,0,0,0.05,55,0)" xlink:href="#aE"/></g><g id="D"><use transform="matrix(0.05,0,0,0.05,0,0)" xlink:href="#aE"/><use transform="matrix(0.05,0,0,0.05,10,0)" xlink:href="#aF"/></g><g id="E"><use transform="matrix(0.05,0,0,0.05,0,0)" xlink:href="#aG"/><use transform="matrix(0.05,0,0,0.05,5,0)" xlink:href="#aD"/><use transform="matrix(0.05,0,0,0.05,8.95,0)" xlink:href="#aE"/><use transform="matrix(0.05,0,0,0.05,18.95,0)" xlink:href="#aX"/><use transform="matrix(0.05,0,0,0.05,33.9,0)" xlink:href="#aN"/><use transform="matrix(0.05,0,0,0.05,43.9,0)" xlink:href="#aM"/></g><g id="F"><use transform="matrix(0.05,0,0,0.05,0,0)" xlink:href="#aK"/><use transform="matrix(0.05,0,0,0.05,5.95,0)" xlink:href="#aE"/><use transform="matrix(0.05,0,0,0.05,15.949999999999998,0)" xlink:href="#aL"/><use transform="matrix(0.05,0,0,0.05,25.950000000000003,0)" xlink:href="#aC"/></g><g id="G"><use transform="matrix(0.05,0,0,0.05,0,0)" xlink:href="#aS"/><use transform="matrix(0.05,0,0,0.05,14.950000000000001,0)" xlink:href="#aM"/><use transform="matrix(0.05,0,0,0.05,24.950000000000003,0)" xlink:href="#aO"/><use transform="matrix(0.05,0,0,0.05,33.95,0)" xlink:href="#aG"/><use transform="matrix(0.05,0,0,0.05,38.95,0)" xlink:href="#aK"/><use transform="matrix(0.05,0,0,0.05,44.900000000000006,0)" xlink:href="#aL"/><use transform="matrix(0.05,0,0,0.05,54.900000000000006,0)" xlink:href="#aK"/></g><g id="H"><use transform="matrix(0.05,0,0,0.05,0,0)" xlink:href="#aL"/><use transform="matrix(0.05,0,0,0.05,10,0)" xlink:href="#aI"/><use transform="matrix(0.05,0,0,0.05,19,0)" xlink:href="#aG"/><use transform="matrix(0.05,0,0,0.05,24,0)" xlink:href="#aQ"/><use transform="matrix(0.05,0,0,0.05,34,0)" xlink:href="#aL"/><use transform="matrix(0.05,0,0,0.05,44,0)" xlink:href="#aC"/></g><path fill="#333" d="M179-190L93 31C79 59 56 82 12 73V49c39 6 53-20 64-50L1-190h34L92-34l54-156h33" id="aY"/><use transform="matrix(0.05,0,0,0.05,0,0)" xlink:href="#aY" id="I"/><g id="J"><use transform="matrix(0.05,0,0,0.05,0,0)" xlink:href="#aQ"/><use transform="matrix(0.05,0,0,0.05,10,0)" xlink:href="#aV"/><use transform="matrix(0.05,0,0,0.05,20,0)" xlink:href="#aD"/><use transform="matrix(0.05,0,0,0.05,23.95,0)" xlink:href="#aI"/><use transform="matrix(0.05,0,0,0.05,32.95,0)" xlink:href="#aL"/><use transform="matrix(0.05,0,0,0.05,42.95,0)" xlink:href="#aI"/><use transform="matrix(0.05,0,0,0.05,51.95,0)" xlink:href="#aD"/><use transform="matrix(0.05,0,0,0.05,55.900000000000006,0)" xlink:href="#aM"/><use transform="matrix(0.05,0,0,0.05,65.9,0)" xlink:href="#aF"/></g></defs></g></svg>