<svg xmlns="http://www.w3.org/2000/svg" xmlns:xlink="http://www.w3.org/1999/xlink" xmlns:lucid="lucid" width="1432.84" height="1647.65"><g transform="translate(-1635.2692383194806 -2346.289163149525)" lucid:page-tab-id="0_0"><path d="M1500 2000h2000v2000H1500z" fill="#f2f3f5"/><path d="M2026.86 2601.03a5 5 0 0 1 5-5H3015a5 5 0 0 1 5 5v1252.8a5 5 0 0 1-5 5h-983.14a5 5 0 0 1-5-5z" stroke="#333" fill-opacity="0"/><use xlink:href="#a" transform="matrix(1,0,0,1,2034.8582527484205,2604.030356371416) translate(356.77777777777777 11.199999999999996)"/><use xlink:href="#b" transform="matrix(1,0,0,1,2034.8582527484205,2604.030356371416) translate(479.26666666666665 11.199999999999996)"/><path d="M1731.7 2909c0 10.9-8.83 19.74-19.74 19.74-10.9 0-19.75-8.84-19.75-19.75 0-10.92 8.85-19.76 19.76-19.76 10.9 0 19.75 8.84 19.75 19.75z" stroke="#333" fill="#fff"/><path d="M1711.96 2928.74v50.3a17.25 17.25 0 0 0 2.67 9.22l37.33 58.98m-40-63.2l-40 63.2m0-98.75h80" stroke="#333" fill="none"/><path d="M1671.96 2894.24a5 5 0 0 1 5-5h70a5 5 0 0 1 5 5v170a5 5 0 0 1-5 5h-70a5 5 0 0 1-5-5z" fill="none"/><use xlink:href="#c" transform="matrix(1,0,0,1,1591.960596344172,3047.238715154508) translate(88.91358024691357 14.888888888888888)"/><path d="M1731.7 2429.38c0 10.9-8.83 19.75-19.74 19.75-10.9 0-19.75-8.84-19.75-19.75 0-10.9 8.85-19.75 19.76-19.75 10.9 0 19.75 8.84 19.75 19.75z" stroke="#333" fill="#fff"/><path d="M1711.96 2449.13v50.3a17.25 17.25 0 0 0 2.67 9.23l37.33 58.97m-40-63.2l-40 63.2m0-98.75h80" stroke="#333" fill="none"/><path d="M1671.96 2414.63a5 5 0 0 1 5-5h70a5 5 0 0 1 5 5v170a5 5 0 0 1-5 5h-70a5 5 0 0 1-5-5z" fill="none"/><use xlink:href="#d" transform="matrix(1,0,0,1,1591.960596344172,2567.630356371416) translate(65.30864197530863 14.888888888888888)"/><path d="M2229.72 2684.04c0 33.14-35.82 60-80 60s-80-26.86-80-60 35.82-60 80-60 80 26.86 80 60z" stroke="#fff" fill="#979ea8"/><use xlink:href="#e" transform="matrix(1,0,0,1,2069.7211235482782,2624.0385887632747) translate(5.066728395061725 62.97222222222222)"/><use xlink:href="#f" transform="matrix(1,0,0,1,2069.7211235482782,2624.0385887632747) translate(78.10376543209877 62.97222222222222)"/><path d="M2229.72 2835.24c0 33.14-35.82 60-80 60s-80-26.86-80-60 35.82-60 80-60 80 26.86 80 60z" stroke="#fff" fill="#979ea8"/><use xlink:href="#g" transform="matrix(1,0,0,1,2069.7211235482782,2775.238588763275) translate(32.17783950617283 51.72222222222222)"/><use xlink:href="#h" transform="matrix(1,0,0,1,2069.7211235482782,2775.238588763275) translate(108.07907407407407 51.72222222222222)"/><use xlink:href="#i" transform="matrix(1,0,0,1,2069.7211235482782,2775.238588763275) translate(47.90623456790122 73.05555555555556)"/><path d="M2575.72 2804.04c0 33.14-35.82 60-80 60s-80-26.86-80-60 35.82-60 80-60 80 26.86 80 60z" stroke="#fff" fill="#979ea8"/><use xlink:href="#j" transform="matrix(1,0,0,1,2415.7211235482782,2744.0385887632747) translate(12.918580246913573 62.97222222222222)"/><use xlink:href="#k" transform="matrix(1,0,0,1,2415.7211235482782,2744.0385887632747) translate(94.79512345679014 62.97222222222222)"/><path d="M2575.72 3018.94c0 33.14-35.82 60-80 60s-80-26.86-80-60 35.82-60 80-60 80 26.86 80 60z" stroke="#fff" fill="#979ea8"/><use xlink:href="#l" transform="matrix(1,0,0,1,2415.7211235482782,2958.939107100533) translate(30.22722222222222 62.97222222222222)"/><use xlink:href="#m" transform="matrix(1,0,0,1,2415.7211235482782,2958.939107100533) translate(90.2766049382716 62.97222222222222)"/><path d="M1712.93 2979.05l349.92-141.24M1712.94 2979.05l-3.26 1.3" stroke="#333" fill="none"/><path d="M2068.3 2835.6l-9.1 11.92-5.72-14.16z" stroke="#333" fill="#333"/><path d="M1711.9 2499.85l352 172.4M1711.93 2499.86l-3.16-1.55" stroke="#333" fill="none"/><path d="M2069.18 2674.83l-14.95 1.18 6.72-13.7z" stroke="#333" fill="#333"/><path d="M2408.44 2805.18l-177.73 29.98" stroke="#333" fill="none"/><path d="M2414.25 2804.2l-11.46 9.68-2.55-15.06z" stroke="#333" fill="#333"/><path d="M2230.8 2835.62l-.6.1.02-.47v-.5l.43-.07z" stroke="#333" stroke-width=".05" fill="#333"/><use xlink:href="#n" transform="matrix(1,0,0,1,2258.6183392929784,2794.02461766201) translate(0 14.222222222222223)"/><path d="M2206.4 3109.44l234.57-40.76" stroke="#333" fill="none"/><path d="M2206.5 3109.9l-.08.02-.95-.73-.08-.07.93-.16z" stroke="#333" stroke-width=".05" fill="#333"/><path d="M2446.77 3067.67l-11.4 9.74-2.63-15.04z" stroke="#333" fill="#333"/><use xlink:href="#n" transform="matrix(1,0,0,1,2231.0414873696996,3068.3218529964515) translate(0 14.222222222222223)"/><path d="M1731.7 3248.55c0 10.9-8.83 19.75-19.74 19.75-10.9 0-19.75-8.84-19.75-19.75 0-10.9 8.85-19.75 19.76-19.75 10.9 0 19.75 8.84 19.75 19.75z" stroke="#333" fill="#fff"/><path d="M1711.96 3268.3v50.3a17.25 17.25 0 0 0 2.67 9.22l37.33 58.98m-40-63.2l-40 63.2m0-98.75h80" stroke="#333" fill="none"/><path d="M1671.96 3233.8a5 5 0 0 1 5-5h70a5 5 0 0 1 5 5v170a5 5 0 0 1-5 5h-70a5 5 0 0 1-5-5z" fill="none"/><use xlink:href="#o" transform="matrix(1,0,0,1,1591.960596344172,3386.8) translate(92.41975308641975 14.888888888888888)"/><path d="M1731.7 3664.95c0 10.9-8.83 19.75-19.74 19.75-10.9 0-19.75-8.84-19.75-19.75 0-10.9 8.85-19.75 19.76-19.75 10.9 0 19.75 8.84 19.75 19.75z" stroke="#333" fill="#fff"/><path d="M1711.96 3684.7v50.3a17.25 17.25 0 0 0 2.67 9.22l37.33 58.98m-40-63.2l-40 63.2m0-98.75h80" stroke="#333" fill="none"/><path d="M1671.96 3650.2a5 5 0 0 1 5-5h70a5 5 0 0 1 5 5v170a5 5 0 0 1-5 5h-70a5 5 0 0 1-5-5z" fill="none"/><use xlink:href="#p" transform="matrix(1,0,0,1,1591.960596344172,3803.2) translate(78.5925925925926 14.888888888888888)"/><path d="M2229.72 2986.44c0 33.14-35.82 60-80 60s-80-26.86-80-60 35.82-60 80-60 80 26.86 80 60z" stroke="#fff" fill="#979ea8"/><use xlink:href="#q" transform="matrix(1,0,0,1,2069.7211235482782,2926.438588763275) translate(14.918580246913573 62.97222222222222)"/><use xlink:href="#r" transform="matrix(1,0,0,1,2069.7211235482782,2926.438588763275) translate(91.7580864197531 62.97222222222222)"/><path d="M2229.72 3152.84c0 33.14-35.82 60-80 60s-80-26.86-80-60 35.82-60 80-60 80 26.86 80 60z" stroke="#fff" fill="#979ea8"/><use xlink:href="#s" transform="matrix(1,0,0,1,2069.7211235482782,3092.8385887632744) translate(36.153148148148134 51.72222222222222)"/><use xlink:href="#h" transform="matrix(1,0,0,1,2069.7211235482782,3092.8385887632744) translate(104.10376543209878 51.72222222222222)"/><use xlink:href="#i" transform="matrix(1,0,0,1,2069.7211235482782,3092.8385887632744) translate(47.90623456790122 73.05555555555556)"/><path d="M2229.72 3319.24c0 33.14-35.82 60-80 60s-80-26.86-80-60 35.82-60 80-60 80 26.86 80 60z" stroke="#fff" fill="#979ea8"/><use xlink:href="#t" transform="matrix(1,0,0,1,2069.7211235482782,3259.2385887632736) translate(28.25191358024691 62.97222222222222)"/><use xlink:href="#u" transform="matrix(1,0,0,1,2069.7211235482782,3259.2385887632736) translate(80.44944444444445 62.97222222222222)"/><path d="M2229.72 3468.8c0 33.14-35.82 60-80 60s-80-26.86-80-60 35.82-60 80-60 80 26.86 80 60z" stroke="#fff" fill="#979ea8"/><use xlink:href="#v" transform="matrix(1,0,0,1,2069.7211235482782,3408.8) translate(15.511172839506168 62.97222222222222)"/><use xlink:href="#w" transform="matrix(1,0,0,1,2069.7211235482782,3408.8) translate(84.40006172839506 62.97222222222222)"/><path d="M2229.72 3618.36c0 33.14-35.82 60-80 60s-80-26.86-80-60 35.82-60 80-60 80 26.86 80 60z" stroke="#fff" fill="#979ea8"/><use xlink:href="#x" transform="matrix(1,0,0,1,2069.7211235482782,3558.361411236727) translate(9.066728395061725 51.72222222222222)"/><use xlink:href="#y" transform="matrix(1,0,0,1,2069.7211235482782,3558.361411236727) translate(89.90623456790125 51.72222222222222)"/><use xlink:href="#z" transform="matrix(1,0,0,1,2069.7211235482782,3558.361411236727) translate(42.004999999999995 73.05555555555556)"/><use xlink:href="#A" transform="matrix(1,0,0,1,2069.7211235482782,3558.361411236727) translate(66.69635802469136 73.05555555555556)"/><path d="M2229.72 3781.6c0 33.14-35.82 60-80 60s-80-26.86-80-60 35.82-60 80-60 80 26.86 80 60z" stroke="#fff" fill="#979ea8"/><use xlink:href="#q" transform="matrix(1,0,0,1,2069.7211235482782,3721.6000000000004) translate(9.042037037037014 62.97222222222222)"/><use xlink:href="#B" transform="matrix(1,0,0,1,2069.7211235482782,3721.6000000000004) translate(85.88154320987654 62.97222222222222)"/><path d="M2575.72 3233.84c0 33.14-35.82 60-80 60s-80-26.86-80-60 35.82-60 80-60 80 26.86 80 60z" stroke="#fff" fill="#979ea8"/><use xlink:href="#C" transform="matrix(1,0,0,1,2415.7211235482782,3173.8396254377913) translate(15.363024691358001 62.97222222222222)"/><use xlink:href="#D" transform="matrix(1,0,0,1,2415.7211235482782,3173.8396254377913) translate(80.44944444444444 62.97222222222222)"/><path d="M2940 3233.84c0 33.14-35.82 60-80 60s-80-26.86-80-60 35.82-60 80-60 80 26.86 80 60z" stroke="#fff" fill="#979ea8"/><use xlink:href="#E" transform="matrix(1,0,0,1,2780,3173.8396254377913) translate(10.943271604938255 51.72222222222222)"/><use xlink:href="#F" transform="matrix(1,0,0,1,2780,3173.8396254377913) translate(67.14080246913579 51.72222222222222)"/><use xlink:href="#G" transform="matrix(1,0,0,1,2780,3173.8396254377913) translate(125.41240740740741 51.72222222222222)"/><use xlink:href="#i" transform="matrix(1,0,0,1,2780,3173.8396254377913) translate(47.90623456790122 73.05555555555556)"/><path d="M2999.75 2386.54c0 10.9-8.84 19.75-19.75 19.75-10.9 0-19.75-8.85-19.75-19.76 0-10.9 8.84-19.75 19.75-19.75 10.9 0 19.75 8.83 19.75 19.74z" stroke="#333" fill="#fff"/><path d="M2980 2406.3v50.3a17.25 17.25 0 0 0 2.67 9.2l37.33 59m-40-63.2l-40 63.2m0-98.76h80" stroke="#333" fill="none"/><path d="M2940 2371.8a5 5 0 0 1 5-5h70a5 5 0 0 1 5 5v170a5 5 0 0 1-5 5h-70a5 5 0 0 1-5-5z" fill="none"/><use xlink:href="#H" transform="matrix(1,0,0,1,2860,2524.789163149525) translate(53.38271604938271 14.888888888888888)"/><use xlink:href="#I" transform="matrix(1,0,0,1,2860,2524.789163149525) translate(122.41975308641975 14.888888888888888)"/><use xlink:href="#J" transform="matrix(1,0,0,1,2860,2524.789163149525) translate(147.11111111111111 14.888888888888888)"/><path d="M1712.4 2505.63l4.17 2.5 4.87 2.67 5.2 2.56 5.54 2.45 5.98 2.36 6.5 2.24 7.1 2.13 7.88 2 8.8 1.83 10 1.66 11.58 1.43 13.76 1.1 16.98.66 22.38-.07 34.4-1.6 186.86-14 32.94-.1 27.02 1.04 23.35 1.9 2.97.3 22.2 2.87 23.47 4.05 24.98 5.4 26.76 6.96 28.84 8.8 31.33 11.04 34.4 13.76 38.22 17.18 43.33 21.7 50.8 28.18 65.33 39.95 53 34.77 11.92 8.34 11.55 8.83 11.18 9.33 10.84 9.83 10.48 10.33 10.1 10.83 9.74 11.36 9.35 11.87 8.92 12.38 8.5 12.88 8 13.35 7.54 13.82 7 14.23 6.45 14.6 5.85 14.93 5.23 15.17 4.57 15.34 3.9 15.43 3.23 15.44 2.54 15.33 1.86 15.15 1.2 14.87.55 14.5-.04 14.07-.63 13.58-1.14 13.04-1.62 12.46-2.03 11.87-2.44 11.27-2.78 10.67-3.08 10.07-3.34 9.5-3.57 8.94-3.78 8.4-3.95 7.9-4.12 7.43-4.24 6.97-4.37 6.54-4.5 6.15-4.6 5.76-4.7 5.42-4.8 5.07-4.9 4.75-5 4.47-5.08 4.18-5.2 3.92-5.3 3.66-5.43 3.4-5.56 3.2-5.7 2.94-5.83 2.72-6 2.5-6.17 2.27-6.37 2.06-6.6 1.8-6.8 1.6-7.1 1.3-7.38 1.07-7.7.8-8.04.46h-.85" stroke="#3a414a" stroke-linejoin="round" fill="none"/><path d="M1712.4 2505.63l-3-1.8" stroke="#3a414a" fill="none"/><path d="M2577.2 3233.8l12.6-8.13.6 15.26z" stroke="#3a414a" fill="#3a414a"/><path d="M1712.4 2505.63l5.05 3.04 5.57 3.04 5.68 2.8 5.8 2.58 5.98 2.35 6.16 2.13 6.4 1.9 6.65 1.7 6.96 1.46 7.34 1.22 7.78.96 8.3.67 8.9.35 9.66-.03 10.58-.5 11.7-1 13.2-1.7 15.1-2.62 17.83-3.85 21.95-5.72 29.43-9 53-18.8 122.22-45.18 29.13-8.92 21.67-5.65 17.56-3.8 14.87-2.55 12.94-1.68 11.5-1 10.36-.47 1-.02 9.7.02 9.55.4 9.4.82 9.3 1.2 9.17 1.55 9.1 1.95 9.02 2.34 8.96 2.73 8.92 3.13 8.9 3.53 8.85 3.95 8.83 4.4 8.82 4.87 8.8 5.35 8.78 5.86 8.75 6.38 8.74 6.96 8.7 7.52 8.6 8.13 8.55 8.76 8.43 9.4 8.3 10.07 8.12 10.73 7.9 11.4 7.63 12.08 7.3 12.72 6.94 13.32 6.5 13.9 6.04 14.4 5.5 14.83 4.9 15.2 4.3 15.47 3.63 15.64 2.96 15.74 2.3 15.73 1.62 15.64.95 15.5.15 7.77" stroke="#3a414a" stroke-linejoin="round" fill="none"/><path d="M1712.4 2505.63l-3-1.8" stroke="#3a414a" fill="none"/><path d="M2495.7 2742.56l-7.9-12.75 15.26-.3z" stroke="#3a414a" fill="#3a414a"/><path d="M2438.53 2753.06l-1.34-1.86-6.14-7.72-6.96-8.06-7.9-8.4-8.9-8.73-10.07-9.06-11.3-9.34-12.63-9.58-14-9.72-15.4-9.77-16.77-9.67-18-9.4-19.08-8.98-19.85-8.34-20.34-7.56-20.46-6.65-20.27-5.66-19.78-4.64-19.04-3.64-18.12-2.7-17.12-1.8-16.05-1-14.97-.32-13.93.3-12.93.8-12 1.26-11.12 1.64-10.32 1.97-9.58 2.25-8.92 2.5-8.3 2.7-7.76 2.87-7.25 3.05-6.8 3.2-6.38 3.33-6 3.47-5.67 3.6-3.52 2.4-5.3 3.9-5.3 4.26-5.34 4.68-5.4 5.14-5.5 5.7-5.65 6.36-5.83 7.14-6.08 8.13-6.42 9.37-6.9 11.03-7.6 13.37-8.74 17.05-11.2 24.32-52.43 125.12-7.63 14.87-6.46 11.37-5.74 9.18-5.24 7.67-4.9 6.53-4.62 5.66-4.4 4.96-4.27 4.4-4.14 3.94-4.03 3.53-3.96 3.18-3.92 2.9-3.9 2.62-3.87 2.38-3.88 2.17-3.92 1.97-3.95 1.8-4.02 1.62-4.08 1.45-4.2 1.3-4.3 1.14-4.47.98-4.63.82-4.82.63-5.06.46-5.32.26-3.15.03" stroke="#3a414a" stroke-linejoin="round" fill="none"/><path d="M2442 2757.83l-13.88-5.73 12.2-9.18z" stroke="#3a414a" fill="#3a414a"/><path d="M1712.98 2979.23l-3.5.05" stroke="#3a414a" fill="none"/><path d="M2859.86 3166.46l-.13-6.4-.72-11.45-1.03-10-1.3-8.8-1.5-7.8-1.63-7-1.75-6.3-1.87-5.72-1.94-5.22-2.02-4.78-2.07-4.4-2.13-4.1-2.2-3.8-2.24-3.54-2.3-3.32-2.38-3.12-2.43-2.95-2.5-2.78-2.6-2.64-2.65-2.5-2.76-2.38-2.86-2.27-2.98-2.17-3.1-2.05-3.26-1.97-3.42-1.88-3.6-1.8-3.8-1.68-4.05-1.6-4.32-1.5-4.62-1.4-4.98-1.28-5.4-1.15-5.9-1-6.44-.8-7.14-.6-7.94-.34h-8.93l-10.15.43-11.67.98-13.62 1.73-16.17 2.76-19.67 4.2-24.7 6.36-32.57 9.87-47.1 16.48-94.3 37.75-72.34 30.8-103.38 41.68-95.23 33.83-89.57 27.64-85.73 22.56-83.33 18.23-82.13 14.4-82.04 10.84-60.2 5.75" stroke="#3a414a" stroke-linejoin="round" fill="none"/><path d="M2859.97 3172.35l-7.95-12.7 15.26-.4z" stroke="#3a414a" fill="#3a414a"/><path d="M1713.06 3320.25l-3.5.33" stroke="#3a414a" fill="none"/><path d="M2408.34 3037.36l-5.18 2.2-7.5 2.8-5.36 1.72-4.07 1.1-3.23.73-2.66.5-2.25.28-1.97.16-1.73.07h-1.56l-1.43-.07-1.32-.13-1.26-.18-1.2-.23-1.2-.3-1.17-.32-1.2-.4-1.25-.5-1.37-.6-1.58-.77-2.12-1.16-11.97-7.1-2.72-1.36-2.65-1.16-2.72-1.04-2.88-.96-3.1-.9-3.45-.8-3.9-.74-4.44-.63-5.2-.5-6.25-.32-4.45-.06-8.66.18-12.63.8-18.93 2-28.5 4.2-40.18 7.66-47.15 11-42.2 11.7-30.46 9.8-20.08 7.4-13.1 5.47-8.73 4.1-6.04 3.12-3.36 1.9-7.6 4.7-8.06 5.48-8.76 6.5-9.75 7.88-11.34 10-14.35 13.74-24.34 25.5-58.34 62.7-16 15.34-13.03 11.47-11.47 9.3-10.5 7.8-9.87 6.68-9.44 5.83-9.12 5.14-8.92 4.54-8.8 4.02-8.77 3.57-8.77 3.15-8.85 2.76-8.96 2.4-9.15 2.02-9.38 1.68-9.7 1.32-7.7.75" stroke="#3a414a" stroke-linejoin="round" fill="none"/><path d="M2413.76 3035.05l-9 12-5.86-14.1z" stroke="#3a414a" fill="#3a414a"/><path d="M1713.06 3320.24l-3.5.35" stroke="#3a414a" fill="none"/><path d="M2083.43 2878.2l-19.12 11.4-22.84 12.34-22.8 11.1-31.2 13.52-42.83 18-11.68 5.7-9.43 5.07-8.48 5.06-8.12 5.3-8.12 5.8-8.4 6.56-8.98 7.65-9.95 9.22-11.4 11.5-13.68 15-9.07 10.58-5.18 6.47-4.68 6.38-4.24 6.3-3.84 6.28-3.5 6.28-3.2 6.35-2.9 6.42-2.63 6.57-2.4 6.77-2.16 7.04-1.93 7.4-1.72 7.92-1.5 8.6-1.26 9.67-1.02 11.4-.7 15.1-.8 64.58-.76 8.63-.9 6.9-1.02 5.85-1.12 5.15-1.22 4.63-1.3 4.25-1.4 3.95-1.48 3.7-1.58 3.52-1.7 3.35-1.8 3.23-1.9 3.13-2.05 3.05-2.2 3-2.36 2.93-2.55 2.93-2.76 2.9-3.02 2.9-3.28 2.93-3.6 2.96-4 2.98-4.45 3.06-4.98 3.13-5.64 3.2-6.44 3.33-7.44 3.45-8.67 3.6-.14.04" stroke="#3a414a" stroke-linejoin="round" fill="none"/><path d="M2088.5 2875.17l-7.2 13.17-7.8-13.1z" stroke="#3a414a" fill="#3a414a"/><path d="M1713.97 3324.2l-3.28 1.26" stroke="#3a414a" fill="none"/><path d="M2075.06 3021.5l-1.2.9-6.43 4.43-6.22 3.9-6.07 3.48-6 3.1-6.02 2.8-6.1 2.53-6.27 2.3-6.64 2.13-7.27 1.98-8.45 1.94-11.73 2.16-35.2 5.65-6.37 1.45-5.1 1.4-4.42 1.4-3.95 1.45-3.64 1.5-3.44 1.6-3.28 1.7-3.18 1.82-3.1 1.95-3.1 2.12-3.05 2.3-3.08 2.52-3.13 2.8-3.2 3.1-3.3 3.48-3.43 3.93-3.84 4.8-4.66 6.37-6.02 9-8.78 14.38-61.14 108.84-9.62 14.34-8.05 11-7.06 8.84-6.36 7.28-5.8 6.12-5.36 5.2-5.03 4.5-4.73 3.87-4.5 3.4-4.3 2.95-4.15 2.6-4 2.3-3.9 2-3.8 1.77-3.73 1.53-3.67 1.35-3.63 1.16-3.6 1-3.6.8-3.6.68-3.62.52-3.07.3" stroke="#3a414a" stroke-linejoin="round" fill="none"/><path d="M2079.75 3017.95l-5.98 13.75-8.95-12.37z" stroke="#3a414a" fill="#3a414a"/><path d="M1713.06 3320.24l-3.5.36M2072.26 3179.8l-359.33 138.82" stroke="#3a414a" fill="none"/><path d="M2077.75 3177.7l-9.3 11.76-5.5-14.24z" stroke="#3a414a" fill="#3a414a"/><path d="M1712.94 3318.6l-3.27 1.28" stroke="#3a414a" fill="none"/><path d="M2059.8 3317.43l-2.77.04-7.73.44-6.47.65-5.6.8-5.02.92-4.63 1.06-4.45 1.2-4.46 1.43-4.76 1.75-5.77 2.4-35.86 16.3-8.58 3.15-9.2 2.93-10.47 2.84h-.03l-12.84 2.94-15.33 2.82-16.4 2.33-16.04 1.6-14.73.85-13.02.2-11.3-.3-9.72-.66-8.36-.93-7.2-1.1-6.22-1.23-5.42-1.3-4.74-1.35-4.17-1.4-3.68-1.38-3.28-1.4-2.93-1.4-2.63-1.4-2.36-1.38-2.15-1.38-1.96-1.37-1.78-1.38-1.64-1.37-1.5-1.36-1.38-1.38-1.27-1.37-1.17-1.37-1.1-1.4-1-1.4-.92-1.4-.86-1.44-.8-1.46-.72-1.5-.67-1.52-.6-1.57-.56-1.62-.5-1.66-.42-1.73-.38-1.8-.3-1.88-.17-1.42" stroke="#3a414a" stroke-linejoin="round" fill="none"/><path d="M2065.68 3317.36l-12.68 8-.45-15.25z" stroke="#3a414a" fill="#3a414a"/><path d="M1761.8 3316.1l-.06-.5" stroke="#3a414a" fill="none"/><path d="M2062.35 3469.02l-3.3.2-5 .53-5.04.74-5.1.97-5.24 1.23-5.5 1.54-5.95 1.93-6.7 2.5-8.5 3.6-33.84 15.62-4.46 1.65-3.62 1.17-3.12.88-2.8.66-2.55.48-2.37.36-2.26.23-2.16.14-2.08.04-2.04-.03-2-.12-2-.2-1.97-.3-1.98-.4-2-.46-2.06-.58-2.1-.68-2.17-.8-2.26-.96-2.35-1.1-2.5-1.3-2.63-1.52-2.82-1.8-1.85-1.26-3.38-2.48-4.12-3.3-5.27-4.6-7.22-6.88-11.66-12.1-60.63-66.36-9.8-9.32-7.58-6.63-6.22-4.98-5.27-3.88-4.58-3.08-4.05-2.5-3.62-2-3.3-1.66-3-1.35-2.76-1.13-2.58-.9-2.4-.75-2.28-.6-2.15-.47-2.04-.35-1.96-.26-1.88-.17-1.82-.08-1.77-.02-1.72.06-1.67.13-1.65.2-1.63.27-1.6.34-1.6.4-1.6.47-1.6.54-1.6.62-1.6.7-1.63.8-1.65.9-1.35.8" stroke="#3a414a" stroke-linejoin="round" fill="none"/><path d="M2068.24 3468.86l-12.4 8.42-.96-15.24z" stroke="#3a414a" fill="#3a414a"/><path d="M1737.73 3362.42l-2.97 1.87" stroke="#3a414a" fill="none"/><path d="M2072.73 3589.86l-2-1.1-4.5-2.22-4.98-2.2-5.57-2.2-6.3-2.2-7.28-2.2-8.64-2.2-10.7-2.25-14.42-2.43-26.72-3.26-55.33-6.1-13.53-2.26-9.85-2.08-7.85-2-6.54-1.97-5.6-1.96-4.9-1.94-4.37-1.93-3.92-1.94-3.55-1.95-3.26-1.97-3-1.97-2.77-2.02-2.6-2.04-2.4-2.08-2.3-2.14-1.87-1.9-2.12-2.33-2.14-2.55-2.18-2.84-2.23-3.16-2.3-3.57-2.36-4.06-2.48-4.66-2.63-5.48-2.8-6.58-3.1-8.2-3.64-11.03-5.47-19.4-10.52-39.38-2.5-7.55-1.92-5.1-1.62-3.82-1.43-3-1.28-2.4-1.18-2-1.1-1.7-1-1.45-.97-1.26-.9-1.1-.9-.96-.84-.86-.8-.76-.8-.68-.78-.6-.76-.56-.76-.5-.75-.44-.74-.4-.73-.36-.74-.33-.75-.3-.76-.25-.76-.22-.78-.2-.8-.16-.8-.13-.85-.12-.87-.06-.9-.04h-.95l-.98.06-1.05.1-1.1.14-1.18.2-1.28.28-1.36.36-1.48.46-1.62.57-1.8.73-1.98.9-2.24 1.13-2.55 1.43-1.9 1.14" stroke="#3a414a" stroke-linejoin="round" fill="none"/><path d="M2077.8 3592.86l-15 .58 7.27-13.43z" stroke="#3a414a" fill="#3a414a"/><path d="M1753.07 3386.67l-3 1.83-.5-.8 1.7-1.05.27.42.84-.54-.25-.4.44-.27z" stroke="#3a414a" stroke-width=".05" fill="#3a414a"/><path d="M2072.37 3351.43l-8.4 8.03-14.87 13.12-16.97 13.73-20.03 14.87-25.33 17.17-39.66 24.47-103.17 61.07-19.37 13.13-14.32 10.6-11.48 9.3-9.6 8.45-8.24 7.9-7.2 7.5-6.4 7.26-5.7 7.07-5.18 6.94-4.68 6.9-4.27 6.88-3.9 6.92-3.57 7-3.26 7.13-2.98 7.3-2.7 7.5-2.44 7.76-2.17 8.07-1.9 8.47-1.6 8.92-1.3 9.45-.95 10.1-.57 10.84-.12 8.2" stroke="#3a414a" stroke-linejoin="round" fill="none"/><path d="M2076.62 3347.35l-4.04 14.45-10.57-11.03z" stroke="#3a414a" fill="#3a414a"/><path d="M1720.06 3703.44l-.06 3.5" stroke="#3a414a" fill="none"/><path d="M2066.6 3497.6l-8.05 6.36-13.88 11.93-14.73 13.78-16.53 16.83-21.23 23.57-74.62 87.6-12.2 12.44-10.17 9.53-9.04 7.78-8.34 6.6-7.87 5.7-7.56 5-7.36 4.43-7.25 3.97-7.22 3.57-7.24 3.2-7.34 2.9-7.47 2.57-7.67 2.3-7.9 2-8.25 1.74-8.63 1.44-9.1 1.13-9.7.8-10.36.4-4.44.05" stroke="#3a414a" stroke-linejoin="round" fill="none"/><path d="M2071.22 3493.95l-5.4 14-9.46-12z" stroke="#3a414a" fill="#3a414a"/><path d="M1752.48 3735.67l-3.52.03v-.95l3.5-.03z" stroke="#3a414a" stroke-width=".05" fill="#3a414a"/><path d="M2075.1 3653.6l-1.47.74-3.5 1.94-3.3 2.02-3.1 2.1-3 2.2-2.87 2.3-2.77 2.4-2.7 2.57-2.64 2.72-2.6 2.9-2.58 3.17-2.6 3.47-2.66 3.87-2.8 4.46-3.03 5.34-3.64 7.05-17.4 37.36-2.45 4.3-2.14 3.43-2 2.9-1.87 2.5-1.82 2.22-1.77 2-1.75 1.8-1.75 1.66-1.76 1.55-1.78 1.43-1.8 1.33-1.88 1.26-1.9 1.17-2 1.1-2.07 1.05-2.16.98-2.3.92-.58.22-2.54.87-2.92.87-3.4.85-3.98.8-4.8.8-5.96.7-7.68.6-10.65.4-17.5-.14-88.54-2.96-14.78.53-11.37.9-9.3 1.1-7.82 1.3-6.76 1.38-5.92 1.5-5.26 1.56-4.74 1.62-4.28 1.66-3.9 1.72-3.58 1.75-3.3 1.8-2.83 1.7" stroke="#3a414a" stroke-linejoin="round" fill="none"/><path d="M2080.46 3651.12l-7.94 12.72-7.04-13.55z" stroke="#3a414a" fill="#3a414a"/><path d="M1746.88 3793.28l-2.97 1.87" stroke="#3a414a" fill="none"/><path d="M2070.47 3812.24l-.36.03-2.82.34-3.1.5-3.46.72-3.86.97-4.37 1.28-5.04 1.7-5.88 2.3-7.05 3.08-8.72 4.27-11.38 6.18-16.63 9.96-91.46 59.47-9.7 5.26-7.25 3.53-5.73 2.5-4.7 1.84-3.95 1.34-3.4 1.02-2.96.74-2.6.53-2.35.38-2.1.25-1.92.14-1.75.07h-1.63l-1.5-.1-1.4-.1-1.34-.2-1.25-.2-.13-.04-1.23-.28-1.2-.32-1.2-.38-1.17-.43-1.18-.5-1.18-.55-1.2-.6-1.18-.7-1.2-.76-1.24-.86-1.25-.95-1.3-1.08-1.32-1.2-1.38-1.36-1.45-1.55-1.5-1.76-1.6-2.04-1.73-2.4-1.85-2.82-2.03-3.4-2.3-4.24-2.63-5.45-3.27-7.57-5-13.15-13.35-37.12-2.74-6.33-2.1-4.38-1.78-3.3-1.54-2.58-1.38-2.1-1.24-1.74-1.15-1.46-1.05-1.24-1-1.07-.95-.93-.9-.8-.86-.73-.83-.63-.8-.55-.77-.5-.77-.44-.74-.4-.75-.33-.73-.3-.73-.27-.72-.23-.73-.2-.73-.17-.75-.13-.75-.1-.77-.08-.8-.04h-.8l-.84.03-.85.06-.9.1-.95.17-1 .2-1.05.26-1.12.34-1.2.4-1.3.52-1.4.63-1.53.76-1.7.95-1.2.72" stroke="#3a414a" stroke-linejoin="round" fill="none"/><path d="M2076.35 3812.1l-12.1 8.86-1.5-15.2z" stroke="#3a414a" fill="#3a414a"/><path d="M1753.07 3803.07l-3 1.82-.5-.82 1.7-1.03.27.42.84-.54-.25-.4.45-.27z" stroke="#3a414a" stroke-width=".05" fill="#3a414a"/><path d="M2482.07 3297.64l-2.17 1.33-7.38 4.98-6.83 5.03-6.35 5.1-5.93 5.2-5.56 5.28-5.23 5.42-4.96 5.58-4.7 5.77-4.48 6-4.3 6.27-4.13 6.6-3.98 7-3.87 7.52-3.76 8.14-3.68 8.94-3.66 10.05-3.67 11.6-3.82 14.08-4.3 19.02-18.73 99.65-3.5 12.88-3.3 10.44-3.23 8.9-3.23 7.84-3.25 7.04-3.3 6.43-3.38 5.94-3.46 5.54-3.57 5.23-3.68 4.94-3.85 4.7-4 4.53-4.2 4.35-4.44 4.22-4.68 4.1-.9.73-5.4 4.3-6.13 4.43-6.95 4.6-7.95 4.8-9.14 5.02-10.6 5.25-12.4 5.5-14.66 5.8-17.53 6.07-21.23 6.37-26.1 6.66-32.7 6.9-41.83 7-55.1 6.88-75.67 6.2-114.38 4.53-104.44.9" stroke="#3a414a" stroke-linejoin="round" fill="none"/><path d="M2487.1 3294.56l-6.8 13.38-8.2-12.88z" stroke="#3a414a" fill="#3a414a"/><path d="M1752.48 3735.67l-3.52.03v-.95l3.5-.03z" stroke="#3a414a" stroke-width=".05" fill="#3a414a"/><path d="M2855.15 3295l-2.8 1.38-9.43 5.08-9.95 5.92-10.55 6.9-11.3 8.07-12.17 9.5-13.25 11.26-14.58 13.5-16.28 16.37-18.5 20.24-21.54 25.67-26.1 33.9-34.1 48.34-56.78 88.5-137.16 221.58-27.17 38.56-19.74 25.63-15.65 18.63-12.97 14.22-11.12 11.18-9.7 9-8.65 7.34-7.8 6.08-7.1 5.07-6.52 4.26-6.06 3.6-5.66 3.06-5.32 2.6-5.04 2.2-.14.05-10.45 4.02-10.87 3.66-11.27 3.3-11.63 2.87-11.97 2.42-12.25 1.96-12.5 1.47-12.7.95-12.87.42-12.97-.12-13-.67-13.05-1.2-13.02-1.78-12.95-2.32-12.87-2.86-12.73-3.4-12.6-3.93-12.44-4.46-12.26-4.98-12.06-5.5-11.85-6.03-11.65-6.56-11.44-7.07-9.23-6.2-12.24-8.95-15.72-12.53-27.6-24.07-54.66-48.8-13.98-11.15-10.56-7.72-8.72-5.82-7.54-4.6-6.7-3.7-6.1-3.03-5.6-2.5-5.2-2.08-4.92-1.72-4.67-1.42-4.47-1.16-4.3-.92-4.18-.72-4.07-.52-3.97-.34-3.94-.17h-3.9l-3.87.15-3.88.32-3.88.48-3.93.66-3.98.84-4.05 1.03-4.13 1.24-4.26 1.48-4.4 1.73-4.56 2.03-4.77 2.37-5 2.74-4.76 2.87" stroke="#3a414a" stroke-linejoin="round" fill="none"/><path d="M2860.45 3292.45l-8.1 12.63-6.87-13.64z" stroke="#3a414a" fill="#3a414a"/><path d="M1753.07 3803.07l-3 1.82-.5-.83 1.7-1.02.27.42.84-.54-.25-.4.45-.27z" stroke="#3a414a" stroke-width=".05" fill="#3a414a"/><path d="M1790.33 2730.33a6 6 0 0 1 6-6h78.83a6 6 0 0 1 6 6v29.2a6 6 0 0 1-6 6h-78.83a6 6 0 0 1-6-6z" fill="none"/><use xlink:href="#K" transform="matrix(1,0,0,1,1795.3333333333335,2729.3333333333335) translate(0 21.2)"/><path d="M1891.92 3253.4a6 6 0 0 1 6-6h65.83a6 6 0 0 1 6 6v29.2a6 6 0 0 1-6 6h-65.83a6 6 0 0 1-6-6z" fill="none"/><use xlink:href="#L" transform="matrix(1,0,0,1,1896.92,3252.395) translate(0 21.2)"/><path d="M1721.25 3108.82a6 6 0 0 1 6-6h64.24a6 6 0 0 1 6 6v29.2a6 6 0 0 1-6 6h-64.25a6 6 0 0 1-6-6z" fill="none"/><use xlink:href="#M" transform="matrix(1,0,0,1,1726.2533333333333,3107.8157737672) translate(0 21.2)"/><path d="M1935.4 3177.63a6 6 0 0 1 6-6h64.24a6 6 0 0 1 6 6v29.2a6 6 0 0 1-6 6h-64.24a6 6 0 0 1-6-6z" fill="none"/><use xlink:href="#M" transform="matrix(1,0,0,1,1940.4005555555557,3176.6285887632744) translate(0 21.2)"/><path d="M1891.92 3034.03a6 6 0 0 1 6-6h64.24a6 6 0 0 1 6 6v29.2a6 6 0 0 1-6 6h-64.24a6 6 0 0 1-6-6z" fill="none"/><use xlink:href="#M" transform="matrix(1,0,0,1,1896.92,3033.028715154508) translate(0 21.2)"/><path d="M1854.14 3329.16a6 6 0 0 1 6-6h64.24a6 6 0 0 1 6 6v29.2a6 6 0 0 1-6 6h-64.24a6 6 0 0 1-6-6z" fill="none"/><use xlink:href="#M" transform="matrix(1,0,0,1,1859.143313435185,3328.1614112367256) translate(0 21.2)"/><path d="M1876.9 3136.42a6 6 0 0 1 6-6h64.25a6 6 0 0 1 6 6v29.2a6 6 0 0 1-6 6h-64.24a6 6 0 0 1-6-6z" fill="none"/><use xlink:href="#M" transform="matrix(1,0,0,1,1881.9085708186549,3135.4185887632743) translate(0 21.2)"/><path d="M1935.2 3457.4a6 6 0 0 1 6-6h64.25a6 6 0 0 1 6 6v29.2a6 6 0 0 1-6 6h-64.24a6 6 0 0 1-6-6z" fill="none"/><use xlink:href="#M" transform="matrix(1,0,0,1,1940.2144444444443,3456.395) translate(0 21.2)"/><path d="M1864.55 3514.73a6 6 0 0 1 6-6h64.24a6 6 0 0 1 6 6v29.2a6 6 0 0 1-6 6h-64.25a6 6 0 0 1-6-6z" fill="none"/><use xlink:href="#M" transform="matrix(1,0,0,1,1869.5477777777778,3513.728333333333) translate(0 21.2)"/><path d="M1702.24 3523.15a6 6 0 0 1 6-6h64.23a6 6 0 0 1 6 6v29.2a6 6 0 0 1-6 6h-64.23a6 6 0 0 1-6-6z" fill="none"/><use xlink:href="#M" transform="matrix(1,0,0,1,1707.2373028071352,3522.1514112367267) translate(0 21.2)"/><path d="M1790.33 3632.06a6 6 0 0 1 6-6h202.7a6 6 0 0 1 6 6v29.2a6 6 0 0 1-6 6h-202.7a6 6 0 0 1-6-6z" fill="none"/><use xlink:href="#N" transform="matrix(1,0,0,1,1795.3333333333335,3631.061666666667) translate(0 21.2)"/><use xlink:href="#O" transform="matrix(1,0,0,1,1795.3333333333335,3631.061666666667) translate(77.85555555555555 21.2)"/><path d="M1832.55 3874.73a6 6 0 0 1 6-6h64.24a6 6 0 0 1 6 6v29.2a6 6 0 0 1-6 6h-64.25a6 6 0 0 1-6-6z" fill="none"/><use xlink:href="#M" transform="matrix(1,0,0,1,1837.5477777777778,3873.728333333333) translate(0 21.2)"/><path d="M1851.3 3753.4a6 6 0 0 1 6-6h64.23a6 6 0 0 1 6 6v29.2a6 6 0 0 1-6 6h-64.24a6 6 0 0 1-6-6z" fill="none"/><use xlink:href="#M" transform="matrix(1,0,0,1,1856.2905356574074,3752.395) translate(0 21.2)"/><path d="M2301.88 3509.4a6 6 0 0 1 6-6h64.24a6 6 0 0 1 6 6v29.2a6 6 0 0 1-6 6h-64.24a6 6 0 0 1-6-6z" fill="none"/><use xlink:href="#M" transform="matrix(1,0,0,1,2306.881111111111,3508.395) translate(0 21.2)"/><path d="M2121.88 3938.73a6 6 0 0 1 6-6h187.16a6 6 0 0 1 6 6v29.2a6 6 0 0 1-6 6h-187.16a6 6 0 0 1-6-6z" fill="none"/><use xlink:href="#P" transform="matrix(1,0,0,1,2126.881111111111,3937.728333333333) translate(0 21.2)"/><use xlink:href="#Q" transform="matrix(1,0,0,1,2126.881111111111,3937.728333333333) translate(95.26111111111109 21.2)"/><path d="M2133.88 2485.03a6 6 0 0 1 6-6h96.16a6 6 0 0 1 6 6v29.2a6 6 0 0 1-6 6h-96.16a6 6 0 0 1-6-6z" fill="none"/><g><use xlink:href="#R" transform="matrix(1,0,0,1,2138.8811111111113,2484.025356371416) translate(0 21.2)"/></g><path d="M2193.72 2372.8a6 6 0 0 1 6-6h96.16a6 6 0 0 1 6 6v29.2a6 6 0 0 1-6 6h-96.16a6 6 0 0 1-6-6z" fill="none"/><g><use xlink:href="#R" transform="matrix(1,0,0,1,2198.721111111111,2371.789163149525) translate(0 21.2)"/></g><path d="M2020.6 2569.4a6 6 0 0 1 6-6h96.15a6 6 0 0 1 6 6v29.2a6 6 0 0 1-6 6h-96.16a6 6 0 0 1-6-6z" fill="none"/><g><use xlink:href="#R" transform="matrix(1,0,0,1,2025.5866666666666,2568.395) translate(0 21.2)"/></g><path d="M2301.88 3121.27a6 6 0 0 1 6-6h64.24a6 6 0 0 1 6 6v29.2a6 6 0 0 1-6 6h-64.24a6 6 0 0 1-6-6z" fill="none"/><g><use xlink:href="#M" transform="matrix(1,0,0,1,2306.881111111111,3120.271666666667) translate(0 21.2)"/></g><path d="M2408.7 3231.66L2227.06 3171" stroke="#3a414a" fill="none"/><path d="M2414.3 3233.53l-14.68 3.15 4.84-14.48z" stroke="#3a414a" fill="#3a414a"/><path d="M2227.22 3170.54l-.3.9-.53-.17.37-.88z" stroke="#3a414a" stroke-width=".05" fill="#3a414a"/><path d="M2259.33 3217.76a6 6 0 0 1 6-6h95.7a6 6 0 0 1 6 6v19.34a6 6 0 0 1-6 6h-95.7a6 6 0 0 1-6-6z" fill="none"/><g><use xlink:href="#n" transform="matrix(1,0,0,1,2264.3333333333335,3216.75868970475) translate(0 14.222222222222223)"/></g><path d="M2576.5 3018.53l399-556.16" stroke="#3a414a" fill="none"/><path d="M2576.9 3018.8l-.7 1 .02-.85v-.65z" stroke="#3a414a" stroke-width=".05" fill="#3a414a"/><path d="M2978.93 2457.6l-1.32 14.93-12.4-8.9z" stroke="#3a414a" fill="#3a414a"/><path d="M2714.14 2660.02a6 6 0 0 1 6-6h95.68a6 6 0 0 1 6 6v19.34a6 6 0 0 1-6 6h-95.68a6 6 0 0 1-6-6z" fill="none"/><g><use xlink:href="#n" transform="matrix(1,0,0,1,2719.1351165353753,2659.0169703486504) translate(0 14.222222222222223)"/></g><path d="M2550.8 3276.03l10.1-.24 11.32.2 12.48.77 14.6 1.5 20.16 2.97 63.4 10.87 10.85 1.14 8.66.52 7.4.14 6.58-.15 6.02-.4 5.6-.6 5.3-.8 5.1-.97 4.9-1.16 4.8-1.36 4.74-1.55 4.7-1.75 4.68-1.98 4.72-2.24 4.8-2.52 4.88-2.83 5.03-3.2 4.17-2.92" stroke="#3a414a" stroke-linejoin="round" fill="none"/><path d="M2550.8 3276.03h-.5" stroke="#3a414a" fill="none"/><path d="M2790.48 3265.9l-6.13 13.7-8.82-12.47z" stroke="#3a414a" fill="#3a414a"/><path d="M2624.02 3268.5a6 6 0 0 1 6-6h95.68a6 6 0 0 1 6 6v19.34a6 6 0 0 1-6 6h-95.68a6 6 0 0 1-6-6z" fill="none"/><g><use xlink:href="#n" transform="matrix(1,0,0,1,2629.0160556012997,3267.496292104458) translate(0 14.222222222222223)"/></g><defs><path d="M195 0l-88-114-31 24V0H24v-248h52v113l112-113h60L142-143 257 0h-62" id="S"/><path d="M133-34C117-15 103 5 69 4 32 3 11-16 11-54c-1-60 55-63 116-61 1-26-3-47-28-47-18 1-26 9-28 27l-52-2c7-38 36-58 82-57s74 22 75 68l1 82c-1 14 12 18 25 15v27c-30 8-71 5-69-32zm-48 3c29 0 43-24 42-57-32 0-66-3-65 30 0 17 8 27 23 27" id="T"/><path d="M76-248c1 41 0 81-20 102H24c12-14 23-31 23-56H25v-46h51" id="U"/><path d="M85 4C-2 5 27-109 22-190h50c7 57-23 150 33 157 60-5 35-97 40-157h50l1 190h-47c-2-12 1-28-3-38-12 25-28 42-61 42" id="V"/><path d="M25 0v-261h50V0H25" id="W"/><g id="a"><use transform="matrix(0.08888888888888889,0,0,0.08888888888888889,0,0)" xlink:href="#S"/><use transform="matrix(0.08888888888888889,0,0,0.08888888888888889,23.022222222222222,0)" xlink:href="#T"/><use transform="matrix(0.08888888888888889,0,0,0.08888888888888889,40.8,0)" xlink:href="#T"/><use transform="matrix(0.08888888888888889,0,0,0.08888888888888889,58.57777777777778,0)" xlink:href="#U"/><use transform="matrix(0.08888888888888889,0,0,0.08888888888888889,67.46666666666667,0)" xlink:href="#V"/><use transform="matrix(0.08888888888888889,0,0,0.08888888888888889,86.93333333333334,0)" xlink:href="#W"/><use transform="matrix(0.08888888888888889,0,0,0.08888888888888889,95.82222222222222,0)" xlink:href="#T"/></g><path d="M24-248c93 1 206-16 204 79-1 75-69 88-152 82V0H24v-248zm52 121c47 0 100 7 100-41 0-47-54-39-100-39v80" id="X"/><path d="M84 4C32 4 15-41 15-95c0-55 18-99 73-99 29 0 47 12 58 34l2-30h48l-1 265h-49V-32C136-9 114 4 84 4zm21-34c32 0 41-29 41-66 0-36-9-64-40-64-33 0-39 30-40 65 0 43 13 65 39 65" id="Y"/><path d="M185-48c-13 30-37 53-82 52C43 2 14-33 14-96s30-98 90-98c62 0 83 45 84 108H66c0 31 8 55 39 56 18 0 30-7 34-22zm-45-69c5-46-57-63-70-21-2 6-4 13-4 21h74" id="Z"/><path d="M115-3C79 11 28 4 28-45v-112H4v-33h27l15-45h31v45h36v33H77v99c-1 23 16 31 38 25v30" id="aa"/><path d="M137-138c1-29-70-34-71-4 15 46 118 7 119 86 1 83-164 76-172 9l43-7c4 19 20 25 44 25 33 8 57-30 24-41C81-84 22-81 20-136c-2-80 154-74 161-7" id="ab"/><g id="b"><use transform="matrix(0.08888888888888889,0,0,0.08888888888888889,0,0)" xlink:href="#X"/><use transform="matrix(0.08888888888888889,0,0,0.08888888888888889,21.333333333333336,0)" xlink:href="#T"/><use transform="matrix(0.08888888888888889,0,0,0.08888888888888889,39.111111111111114,0)" xlink:href="#Y"/><use transform="matrix(0.08888888888888889,0,0,0.08888888888888889,58.57777777777778,0)" xlink:href="#V"/><use transform="matrix(0.08888888888888889,0,0,0.08888888888888889,78.04444444444445,0)" xlink:href="#Z"/><use transform="matrix(0.08888888888888889,0,0,0.08888888888888889,95.82222222222222,0)" xlink:href="#aa"/><use transform="matrix(0.08888888888888889,0,0,0.08888888888888889,106.4,0)" xlink:href="#Z"/><use transform="matrix(0.08888888888888889,0,0,0.08888888888888889,124.17777777777778,0)" xlink:href="#ab"/></g><path fill="#333" d="M185-189c-5-48-123-54-124 2 14 75 158 14 163 119 3 78-121 87-175 55-17-10-28-26-33-46l33-7c5 56 141 63 141-1 0-78-155-14-162-118-5-82 145-84 179-34 5 7 8 16 11 25" id="ac"/><path fill="#333" d="M100-194c62-1 85 37 85 99 1 63-27 99-86 99S16-35 15-95c0-66 28-99 85-99zM99-20c44 1 53-31 53-75 0-43-8-75-51-75s-53 32-53 75 10 74 51 75" id="ad"/><path fill="#333" d="M115-194c55 1 70 41 70 98S169 2 115 4C84 4 66-9 55-30l1 105H24l-1-265h31l2 30c10-21 28-34 59-34zm-8 174c40 0 45-34 45-75s-6-73-45-74c-42 0-51 32-51 76 0 43 10 73 51 73" id="ae"/><path fill="#333" d="M114-163C36-179 61-72 57 0H25l-1-190h30c1 12-1 29 2 39 6-27 23-49 58-41v29" id="af"/><path fill="#333" d="M59-47c-2 24 18 29 38 22v24C64 9 27 4 27-40v-127H5v-23h24l9-43h21v43h35v23H59v120" id="ag"/><path fill="#333" d="M100-194c63 0 86 42 84 106H49c0 40 14 67 53 68 26 1 43-12 49-29l28 8c-11 28-37 45-77 45C44 4 14-33 15-96c1-61 26-98 85-98zm52 81c6-60-76-77-97-28-3 7-6 17-6 28h103" id="ah"/><g id="c"><use transform="matrix(0.04938271604938272,0,0,0.04938271604938272,0,0)" xlink:href="#ac"/><use transform="matrix(0.04938271604938272,0,0,0.04938271604938272,11.851851851851853,0)" xlink:href="#ad"/><use transform="matrix(0.04938271604938272,0,0,0.04938271604938272,21.7283950617284,0)" xlink:href="#ae"/><use transform="matrix(0.04938271604938272,0,0,0.04938271604938272,31.60493827160494,0)" xlink:href="#ad"/><use transform="matrix(0.04938271604938272,0,0,0.04938271604938272,41.48148148148149,0)" xlink:href="#af"/><use transform="matrix(0.04938271604938272,0,0,0.04938271604938272,47.35802469135803,0)" xlink:href="#ag"/><use transform="matrix(0.04938271604938272,0,0,0.04938271604938272,52.2962962962963,0)" xlink:href="#ah"/></g><path fill="#333" d="M205 0l-28-72H64L36 0H1l101-248h38L239 0h-34zm-38-99l-47-123c-12 45-31 82-46 123h93" id="ai"/><path fill="#333" d="M85-194c31 0 48 13 60 33l-1-100h32l1 261h-30c-2-10 0-23-3-31C134-8 116 4 85 4 32 4 16-35 15-94c0-66 23-100 70-100zm9 24c-40 0-46 34-46 75 0 40 6 74 45 74 42 0 51-32 51-76 0-42-9-74-50-73" id="aj"/><path fill="#333" d="M210-169c-67 3-38 105-44 169h-31v-121c0-29-5-50-35-48C34-165 62-65 56 0H25l-1-190h30c1 10-1 24 2 32 10-44 99-50 107 0 11-21 27-35 58-36 85-2 47 119 55 194h-31v-121c0-29-5-49-35-48" id="ak"/><path fill="#333" d="M24-231v-30h32v30H24zM24 0v-190h32V0H24" id="al"/><path fill="#333" d="M117-194c89-4 53 116 60 194h-32v-121c0-31-8-49-39-48C34-167 62-67 57 0H25l-1-190h30c1 10-1 24 2 32 11-22 29-35 61-36" id="am"/><path fill="#333" d="M135-143c-3-34-86-38-87 0 15 53 115 12 119 90S17 21 10-45l28-5c4 36 97 45 98 0-10-56-113-15-118-90-4-57 82-63 122-42 12 7 21 19 24 35" id="an"/><path fill="#333" d="M141-36C126-15 110 5 73 4 37 3 15-17 15-53c-1-64 63-63 125-63 3-35-9-54-41-54-24 1-41 7-42 31l-33-3c5-37 33-52 76-52 45 0 72 20 72 64v82c-1 20 7 32 28 27v20c-31 9-61-2-59-35zM48-53c0 20 12 33 32 33 41-3 63-29 60-74-43 2-92-5-92 41" id="ao"/><g id="d"><use transform="matrix(0.04938271604938272,0,0,0.04938271604938272,0,0)" xlink:href="#ai"/><use transform="matrix(0.04938271604938272,0,0,0.04938271604938272,11.851851851851853,0)" xlink:href="#aj"/><use transform="matrix(0.04938271604938272,0,0,0.04938271604938272,21.7283950617284,0)" xlink:href="#ak"/><use transform="matrix(0.04938271604938272,0,0,0.04938271604938272,36.49382716049384,0)" xlink:href="#al"/><use transform="matrix(0.04938271604938272,0,0,0.04938271604938272,40.39506172839507,0)" xlink:href="#am"/><use transform="matrix(0.04938271604938272,0,0,0.04938271604938272,50.271604938271615,0)" xlink:href="#al"/><use transform="matrix(0.04938271604938272,0,0,0.04938271604938272,54.17283950617284,0)" xlink:href="#an"/><use transform="matrix(0.04938271604938272,0,0,0.04938271604938272,63.061728395061735,0)" xlink:href="#ag"/><use transform="matrix(0.04938271604938272,0,0,0.04938271604938272,68,0)" xlink:href="#af"/><use transform="matrix(0.04938271604938272,0,0,0.04938271604938272,73.87654320987654,0)" xlink:href="#ao"/><use transform="matrix(0.04938271604938272,0,0,0.04938271604938272,83.75308641975309,0)" xlink:href="#aj"/><use transform="matrix(0.04938271604938272,0,0,0.04938271604938272,93.62962962962963,0)" xlink:href="#ad"/><use transform="matrix(0.04938271604938272,0,0,0.04938271604938272,103.50617283950618,0)" xlink:href="#af"/></g><path fill="#fff" d="M70-104c-4 71 81 81 132 50l8-40h-60l7-37h108L246-31C216-10 181 3 130 3 60 2 18-32 18-102c-1-106 79-169 188-144 33 8 53 31 63 63l-50 14c-6-26-25-42-56-42-62 0-89 43-93 107" id="ap"/><path fill="#fff" d="M114-194c63-2 87 48 72 110H63c-3 28 1 55 31 54 21-1 32-13 37-29l44 13C160-14 137 4 91 4 41 4 11-22 11-73c0-71 33-119 103-121zm30 77c14-47-50-61-67-22-3 6-6 13-8 22h75" id="aq"/><path fill="#fff" d="M151-194c95 0 34 128 28 194h-49l25-134c0-29-45-25-59-9C67-111 69-48 56 0H6l36-190h47l-4 32c15-20 33-36 66-36" id="ar"/><path fill="#fff" d="M84-151c13-25 34-51 72-40l-8 41C67-170 71-64 56 0H6l36-190h47" id="as"/><path fill="#fff" d="M166-52c-4 17 5 29 24 23l-3 27c-30 11-74 1-67-34C105-15 91 4 56 4 23 4 3-15 2-49c0-64 63-67 128-67 10-22 3-53-29-45-13 3-22 10-25 24l-46-5c5-64 156-77 153 0-1 33-11 60-17 90zM97-88c-44-9-64 57-19 57 31 0 42-28 47-57H97" id="at"/><g id="e"><use transform="matrix(0.04938271604938272,0,0,0.04938271604938272,0,0)" xlink:href="#ap"/><use transform="matrix(0.04938271604938272,0,0,0.04938271604938272,13.827160493827162,0)" xlink:href="#aq"/><use transform="matrix(0.04938271604938272,0,0,0.04938271604938272,23.703703703703706,0)" xlink:href="#ar"/><use transform="matrix(0.04938271604938272,0,0,0.04938271604938272,34.51851851851852,0)" xlink:href="#aq"/><use transform="matrix(0.04938271604938272,0,0,0.04938271604938272,44.39506172839506,0)" xlink:href="#as"/><use transform="matrix(0.04938271604938272,0,0,0.04938271604938272,51.308641975308646,0)" xlink:href="#at"/><use transform="matrix(0.04938271604938272,0,0,0.04938271604938272,61.18518518518519,0)" xlink:href="#as"/></g><path fill="#fff" d="M258-177c0 46-32 67-71 75L235 0h-57l-41-94H76L58 0H6l48-248c89 2 204-19 204 71zm-53 3c0-46-63-30-107-33l-14 73c51-2 120 13 121-40" id="au"/><path fill="#fff" d="M156-122c2-23-7-37-28-37-47 0-58 44-58 89 0 24 12 40 36 40 43 0 47-49 50-92zM-8 75l50-265h48c0 10-3 24-3 30 22-50 127-45 121 29-6 73-21 135-92 135-29 0-46-14-55-35L41 75H-8" id="av"/><path fill="#fff" d="M124-194c51 0 84 22 84 74C207-44 167 4 94 4 43 4 11-23 11-74c0-74 41-120 113-120zM99-30c46 0 58-42 58-86 0-27-11-44-37-44-44 0-55 40-57 84-1 27 10 45 36 46" id="aw"/><path fill="#fff" d="M72-63c-8 23 5 39 32 30L98-1C54 14 12-6 23-64l18-93H15l7-33h28l24-45h31l-8 45h35l-6 33H90" id="ax"/><path fill="#fff" d="M144-137c-1-29-70-35-71-2 16 41 103 10 103 80C176 9 79 16 32-9 18-17 9-31 4-48l44-6c3 32 80 36 82 1-15-42-103-11-103-82 0-77 157-79 161-8" id="ay"/><g id="f"><use transform="matrix(0.04938271604938272,0,0,0.04938271604938272,0,0)" xlink:href="#au"/><use transform="matrix(0.04938271604938272,0,0,0.04938271604938272,12.790123456790125,0)" xlink:href="#aq"/><use transform="matrix(0.04938271604938272,0,0,0.04938271604938272,22.66666666666667,0)" xlink:href="#av"/><use transform="matrix(0.04938271604938272,0,0,0.04938271604938272,33.48148148148149,0)" xlink:href="#aw"/><use transform="matrix(0.04938271604938272,0,0,0.04938271604938272,44.296296296296305,0)" xlink:href="#as"/><use transform="matrix(0.04938271604938272,0,0,0.04938271604938272,51.209876543209894,0)" xlink:href="#ax"/><use transform="matrix(0.04938271604938272,0,0,0.04938271604938272,57.08641975308644,0)" xlink:href="#aq"/><use transform="matrix(0.04938271604938272,0,0,0.04938271604938272,66.96296296296298,0)" xlink:href="#ay"/></g><path fill="#fff" d="M125-24c46 0 70-25 89-51l25 16C214-24 183 4 123 4 8 4-5-146 60-208c32-50 158-61 191-5 5 7 9 14 11 22l-32 10c-9-28-33-43-69-43-74 0-108 51-108 125 0 46 24 75 72 75" id="az"/><path fill="#fff" d="M165-48c-4 18 1 34 23 27l-3 20c-29 8-62 0-52-35h-2C116-14 99 4 63 4 30 4 8-16 8-49c0-68 71-67 138-67 10-26 0-56-31-54-26 1-42 9-47 31l-32-5c8-67 160-71 144 15-5 28-9 54-15 81zM42-50c3 52 80 24 89-6 7-12 7-24 11-38-47 1-103-4-100 44" id="aA"/><path fill="#fff" d="M67-158c22-48 132-52 116 29L158 0h-32l25-140c3-38-53-32-70-12C52-117 51-52 38 0H6l36-190h30" id="aB"/><path fill="#fff" d="M44-68c0 29 11 47 38 47 30 0 42-19 51-41l28 9C148-21 126 4 82 4 31 4 10-29 12-85c3-77 74-140 146-93 12 8 15 23 18 40l-31 5c-1-22-13-36-36-36-52 0-65 49-65 101" id="aC"/><path fill="#fff" d="M111-194c62-3 86 47 72 106H45c-7 38 6 69 45 68 27-1 43-14 53-32l24 11C152-15 129 4 87 4 38 3 12-23 12-71c0-70 32-119 99-123zm44 81c14-66-71-72-95-28-4 8-8 17-11 28h106" id="aD"/><path fill="#fff" d="M6 0l50-261h32L37 0H6" id="aE"/><path fill="#fff" d="M66-151c12-25 30-51 66-40l-6 26C45-176 58-65 38 0H6l36-190h30" id="aF"/><g id="g"><use transform="matrix(0.04938271604938272,0,0,0.04938271604938272,0,0)" xlink:href="#az"/><use transform="matrix(0.04938271604938272,0,0,0.04938271604938272,12.790123456790125,0)" xlink:href="#aA"/><use transform="matrix(0.04938271604938272,0,0,0.04938271604938272,22.66666666666667,0)" xlink:href="#aB"/><use transform="matrix(0.04938271604938272,0,0,0.04938271604938272,32.543209876543216,0)" xlink:href="#aC"/><use transform="matrix(0.04938271604938272,0,0,0.04938271604938272,41.4320987654321,0)" xlink:href="#aD"/><use transform="matrix(0.04938271604938272,0,0,0.04938271604938272,51.308641975308646,0)" xlink:href="#aE"/><use transform="matrix(0.04938271604938272,0,0,0.04938271604938272,55.20987654320988,0)" xlink:href="#aA"/><use transform="matrix(0.04938271604938272,0,0,0.04938271604938272,65.08641975308643,0)" xlink:href="#aF"/></g><path fill="#fff" d="M67 3c-93-2-31-127-26-193h32L48-50c-3 39 53 32 70 12 30-34 30-101 43-152h32L157 0h-30c1-10 6-24 4-33-14 20-29 37-64 36" id="aG"/><g id="h"><use transform="matrix(0.04938271604938272,0,0,0.04938271604938272,0,0)" xlink:href="#aG"/><use transform="matrix(0.04938271604938272,0,0,0.04938271604938272,9.876543209876544,0)" xlink:href="#aB"/></g><path fill="#fff" d="M67-162c32-53 139-36 121 50C175-51 163 2 97 4 68 4 52-11 42-31 38 6 28 39 22 75H-9l50-265h29c-1 10 0 20-3 28zm89 36c0-26-10-43-35-43-54 0-67 50-69 103-1 29 14 45 42 46 53 0 62-58 62-106" id="aH"/><path fill="#fff" d="M133-28C103 26-5 8 13-77c13-62 24-115 90-117 29-1 46 15 56 35 2-12 6-24 8-34h31L144 75h-31zM45-64c-2 27 10 43 35 43 54-1 69-50 69-103 0-29-15-46-42-46-53-1-58 58-62 106" id="aI"/><path fill="#fff" d="M51-54c-9 22 5 41 31 30L79-1C43 14 10-4 19-52l22-115H19l5-23h22l19-43h21l-9 43h35l-4 23H73" id="aJ"/><g id="i"><use transform="matrix(0.04938271604938272,0,0,0.04938271604938272,0,0)" xlink:href="#aH"/><use transform="matrix(0.04938271604938272,0,0,0.04938271604938272,9.876543209876544,0)" xlink:href="#aA"/><use transform="matrix(0.04938271604938272,0,0,0.04938271604938272,19.75308641975309,0)" xlink:href="#aI"/><use transform="matrix(0.04938271604938272,0,0,0.04938271604938272,29.629629629629633,0)" xlink:href="#aG"/><use transform="matrix(0.04938271604938272,0,0,0.04938271604938272,39.50617283950618,0)" xlink:href="#aD"/><use transform="matrix(0.04938271604938272,0,0,0.04938271604938272,49.38271604938272,0)" xlink:href="#aJ"/><use transform="matrix(0.04938271604938272,0,0,0.04938271604938272,54.320987654320994,0)" xlink:href="#aD"/></g><path fill="#fff" d="M52-101C46-14 166-7 216-51l9-45h-74l6-28h105l-18 87C217-12 181 4 130 4 60 4 18-31 18-101c0-106 78-167 188-146 30 6 48 27 59 54l-34 9c-10-26-31-41-67-40-75 1-107 50-112 123" id="aK"/><path fill="#fff" d="M55-144c13 50 104 24 104 88C159 21 15 23 1-39l26-10c6 40 102 42 102-4-13-50-104-23-104-87 0-71 143-71 148-8l-29 4c-5-35-85-37-89 0" id="aL"/><path fill="#fff" d="M50-231l6-30h32l-6 30H50zM6 0l37-190h31L37 0H6" id="aM"/><path fill="#fff" d="M30-147c31-64 166-65 159 27C183-49 158 1 86 4 9 8 1-88 30-147zM88-20c53 0 68-48 68-100 0-31-11-51-44-50-52 1-68 46-68 97 0 32 13 53 44 53" id="aN"/><g id="j"><use transform="matrix(0.04938271604938272,0,0,0.04938271604938272,0,0)" xlink:href="#aK"/><use transform="matrix(0.04938271604938272,0,0,0.04938271604938272,13.827160493827162,0)" xlink:href="#aD"/><use transform="matrix(0.04938271604938272,0,0,0.04938271604938272,23.703703703703706,0)" xlink:href="#aL"/><use transform="matrix(0.04938271604938272,0,0,0.04938271604938272,32.592592592592595,0)" xlink:href="#aJ"/><use transform="matrix(0.04938271604938272,0,0,0.04938271604938272,37.53086419753087,0)" xlink:href="#aM"/><use transform="matrix(0.04938271604938272,0,0,0.04938271604938272,41.4320987654321,0)" xlink:href="#aN"/><use transform="matrix(0.04938271604938272,0,0,0.04938271604938272,51.308641975308646,0)" xlink:href="#aB"/><use transform="matrix(0.04938271604938272,0,0,0.04938271604938272,61.18518518518519,0)" xlink:href="#aA"/><use transform="matrix(0.04938271604938272,0,0,0.04938271604938272,71.06172839506173,0)" xlink:href="#aF"/></g><path fill="#fff" d="M51-231l6-30h31l-6 30H51zM33 24C28 60 2 84-40 72c3-12-1-29 18-22C-5 49-1 37 2 19l41-209h32" id="aO"/><g id="k"><use transform="matrix(0.04938271604938272,0,0,0.04938271604938272,0,0)" xlink:href="#aI"/><use transform="matrix(0.04938271604938272,0,0,0.04938271604938272,9.876543209876544,0)" xlink:href="#aG"/><use transform="matrix(0.04938271604938272,0,0,0.04938271604938272,19.75308641975309,0)" xlink:href="#aD"/><use transform="matrix(0.04938271604938272,0,0,0.04938271604938272,29.629629629629633,0)" xlink:href="#aO"/><use transform="matrix(0.04938271604938272,0,0,0.04938271604938272,33.53086419753087,0)" xlink:href="#aA"/><use transform="matrix(0.04938271604938272,0,0,0.04938271604938272,43.40740740740741,0)" xlink:href="#aL"/></g><path fill="#fff" d="M233-177c-1 41-23 64-60 70L243 0h-38l-65-103H63V0H30v-248c88 3 205-21 203 71zM63-129c60-2 137 13 137-47 0-61-80-42-137-45v92" id="aP"/><path fill="#fff" d="M100-194c63 0 86 42 84 106H49c0 40 14 67 53 68 26 1 43-12 49-29l28 8c-11 28-37 45-77 45C44 4 14-33 15-96c1-61 26-98 85-98zm52 81c6-60-76-77-97-28-3 7-6 17-6 28h103" id="aQ"/><path fill="#fff" d="M24 0v-261h32V0H24" id="aR"/><path fill="#fff" d="M24-231v-30h32v30H24zM24 0v-190h32V0H24" id="aS"/><path fill="#fff" d="M9 0v-24l116-142H16v-24h144v24L44-24h123V0H9" id="aT"/><path fill="#fff" d="M141-36C126-15 110 5 73 4 37 3 15-17 15-53c-1-64 63-63 125-63 3-35-9-54-41-54-24 1-41 7-42 31l-33-3c5-37 33-52 76-52 45 0 72 20 72 64v82c-1 20 7 32 28 27v20c-31 9-61-2-59-35zM48-53c0 20 12 33 32 33 41-3 63-29 60-74-43 2-92-5-92 41" id="aU"/><path fill="#fff" d="M114-163C36-179 61-72 57 0H25l-1-190h30c1 12-1 29 2 39 6-27 23-49 58-41v29" id="aV"/><g id="l"><use transform="matrix(0.04938271604938272,0,0,0.04938271604938272,0,0)" xlink:href="#aP"/><use transform="matrix(0.04938271604938272,0,0,0.04938271604938272,12.790123456790125,0)" xlink:href="#aQ"/><use transform="matrix(0.04938271604938272,0,0,0.04938271604938272,22.66666666666667,0)" xlink:href="#aR"/><use transform="matrix(0.04938271604938272,0,0,0.04938271604938272,26.567901234567902,0)" xlink:href="#aS"/><use transform="matrix(0.04938271604938272,0,0,0.04938271604938272,30.46913580246914,0)" xlink:href="#aT"/><use transform="matrix(0.04938271604938272,0,0,0.04938271604938272,39.358024691358025,0)" xlink:href="#aU"/><use transform="matrix(0.04938271604938272,0,0,0.04938271604938272,49.23456790123457,0)" xlink:href="#aV"/></g><path fill="#fff" d="M115-194c55 1 70 41 70 98S169 2 115 4C84 4 66-9 55-30l1 105H24l-1-265h31l2 30c10-21 28-34 59-34zm-8 174c40 0 45-34 45-75s-6-73-45-74c-42 0-51 32-51 76 0 43 10 73 51 73" id="aW"/><path fill="#fff" d="M177-190C167-65 218 103 67 71c-23-6-38-20-44-43l32-5c15 47 100 32 89-28v-30C133-14 115 1 83 1 29 1 15-40 15-95c0-56 16-97 71-98 29-1 48 16 59 35 1-10 0-23 2-32h30zM94-22c36 0 50-32 50-73 0-42-14-75-50-75-39 0-46 34-46 75s6 73 46 73" id="aX"/><path fill="#fff" d="M100-194c62-1 85 37 85 99 1 63-27 99-86 99S16-35 15-95c0-66 28-99 85-99zM99-20c44 1 53-31 53-75 0-43-8-75-51-75s-53 32-53 75 10 74 51 75" id="aY"/><g id="m"><use transform="matrix(0.04938271604938272,0,0,0.04938271604938272,0,0)" xlink:href="#aW"/><use transform="matrix(0.04938271604938272,0,0,0.04938271604938272,9.876543209876544,0)" xlink:href="#aU"/><use transform="matrix(0.04938271604938272,0,0,0.04938271604938272,19.75308641975309,0)" xlink:href="#aX"/><use transform="matrix(0.04938271604938272,0,0,0.04938271604938272,29.629629629629633,0)" xlink:href="#aY"/></g><path fill="#333" d="M18-100v-36l175-74v27L42-118l151 64v27" id="aZ"/><path fill="#333" d="M96-169c-40 0-48 33-48 73s9 75 48 75c24 0 41-14 43-38l32 2c-6 37-31 61-74 61-59 0-76-41-82-99-10-93 101-131 147-64 4 7 5 14 7 22l-32 3c-4-21-16-35-41-35" id="ba"/><path fill="#333" d="M24 0v-261h32V0H24" id="bb"/><path fill="#333" d="M84 4C-5 8 30-112 23-190h32v120c0 31 7 50 39 49 72-2 45-101 50-169h31l1 190h-30c-1-10 1-25-2-33-11 22-28 36-60 37" id="bc"/><path fill="#333" d="M18-27v-27l151-64-151-65v-27l175 74v36" id="bd"/><g id="n"><use transform="matrix(0.04938271604938272,0,0,0.04938271604938272,0,0)" xlink:href="#aZ"/><use transform="matrix(0.04938271604938272,0,0,0.04938271604938272,10.370370370370372,0)" xlink:href="#aZ"/><use transform="matrix(0.04938271604938272,0,0,0.04938271604938272,20.740740740740744,0)" xlink:href="#al"/><use transform="matrix(0.04938271604938272,0,0,0.04938271604938272,24.641975308641978,0)" xlink:href="#am"/><use transform="matrix(0.04938271604938272,0,0,0.04938271604938272,34.51851851851852,0)" xlink:href="#ba"/><use transform="matrix(0.04938271604938272,0,0,0.04938271604938272,43.407407407407405,0)" xlink:href="#bb"/><use transform="matrix(0.04938271604938272,0,0,0.04938271604938272,47.30864197530864,0)" xlink:href="#bc"/><use transform="matrix(0.04938271604938272,0,0,0.04938271604938272,57.185185185185176,0)" xlink:href="#aj"/><use transform="matrix(0.04938271604938272,0,0,0.04938271604938272,67.06172839506172,0)" xlink:href="#ah"/><use transform="matrix(0.04938271604938272,0,0,0.04938271604938272,76.93827160493827,0)" xlink:href="#bd"/><use transform="matrix(0.04938271604938272,0,0,0.04938271604938272,87.30864197530863,0)" xlink:href="#bd"/></g><path fill="#333" d="M212-179c-10-28-35-45-73-45-59 0-87 40-87 99 0 60 29 101 89 101 43 0 62-24 78-52l27 14C228-24 195 4 139 4 59 4 22-46 18-125c-6-104 99-153 187-111 19 9 31 26 39 46" id="be"/><g id="o"><use transform="matrix(0.04938271604938272,0,0,0.04938271604938272,0,0)" xlink:href="#be"/><use transform="matrix(0.04938271604938272,0,0,0.04938271604938272,12.790123456790125,0)" xlink:href="#bb"/><use transform="matrix(0.04938271604938272,0,0,0.04938271604938272,16.69135802469136,0)" xlink:href="#al"/><use transform="matrix(0.04938271604938272,0,0,0.04938271604938272,20.592592592592595,0)" xlink:href="#ah"/><use transform="matrix(0.04938271604938272,0,0,0.04938271604938272,30.46913580246914,0)" xlink:href="#am"/><use transform="matrix(0.04938271604938272,0,0,0.04938271604938272,40.345679012345684,0)" xlink:href="#ag"/><use transform="matrix(0.04938271604938272,0,0,0.04938271604938272,45.283950617283956,0)" xlink:href="#ah"/></g><path fill="#333" d="M240 0l2-218c-23 76-54 145-80 218h-23L58-218 59 0H30v-248h44l77 211c21-75 51-140 76-211h43V0h-30" id="bf"/><path fill="#333" d="M24-231v-30h32v30H24zM-9 49c24 4 33-6 33-30v-209h32V24c2 40-23 58-65 49V49" id="bg"/><g id="p"><use transform="matrix(0.04938271604938272,0,0,0.04938271604938272,0,0)" xlink:href="#bf"/><use transform="matrix(0.04938271604938272,0,0,0.04938271604938272,14.765432098765434,0)" xlink:href="#ah"/><use transform="matrix(0.04938271604938272,0,0,0.04938271604938272,24.641975308641978,0)" xlink:href="#am"/><use transform="matrix(0.04938271604938272,0,0,0.04938271604938272,34.51851851851852,0)" xlink:href="#an"/><use transform="matrix(0.04938271604938272,0,0,0.04938271604938272,43.407407407407405,0)" xlink:href="#ao"/><use transform="matrix(0.04938271604938272,0,0,0.04938271604938272,53.28395061728394,0)" xlink:href="#bg"/><use transform="matrix(0.04938271604938272,0,0,0.04938271604938272,57.185185185185176,0)" xlink:href="#ah"/><use transform="matrix(0.04938271604938272,0,0,0.04938271604938272,67.06172839506172,0)" xlink:href="#af"/><use transform="matrix(0.04938271604938272,0,0,0.04938271604938272,72.93827160493827,0)" xlink:href="#ad"/></g><path fill="#fff" d="M249-183c0 48-29 72-75 77L221 0h-36l-43-103H65L45 0H11l48-248c83 2 190-17 190 65zm-34 3c0-55-74-39-127-41l-18 92c63-1 145 13 145-51" id="bh"/><path fill="#fff" d="M103-194c29 0 47 14 56 36 2-11 5-23 8-32h30L160-5C157 61 82 97 21 62 9 55 4 45 1 30l28-7c7 42 83 31 92-3 4-16 9-38 13-55-13 20-29 36-62 36-40 0-60-25-60-64 0-71 23-131 91-131zm4 24c-53 0-58 54-61 104-2 27 10 44 36 44 49 0 65-50 67-102 1-29-15-46-42-46" id="bi"/><g id="q"><use transform="matrix(0.04938271604938272,0,0,0.04938271604938272,0,0)" xlink:href="#bh"/><use transform="matrix(0.04938271604938272,0,0,0.04938271604938272,12.790123456790125,0)" xlink:href="#aD"/><use transform="matrix(0.04938271604938272,0,0,0.04938271604938272,22.66666666666667,0)" xlink:href="#bi"/><use transform="matrix(0.04938271604938272,0,0,0.04938271604938272,32.543209876543216,0)" xlink:href="#aM"/><use transform="matrix(0.04938271604938272,0,0,0.04938271604938272,36.44444444444445,0)" xlink:href="#aL"/><use transform="matrix(0.04938271604938272,0,0,0.04938271604938272,45.33333333333334,0)" xlink:href="#aJ"/><use transform="matrix(0.04938271604938272,0,0,0.04938271604938272,50.271604938271615,0)" xlink:href="#aF"/><use transform="matrix(0.04938271604938272,0,0,0.04938271604938272,56.14814814814817,0)" xlink:href="#aA"/><use transform="matrix(0.04938271604938272,0,0,0.04938271604938272,66.02469135802471,0)" xlink:href="#aF"/></g><g id="r"><use transform="matrix(0.04938271604938272,0,0,0.04938271604938272,0,0)" xlink:href="#aC"/><use transform="matrix(0.04938271604938272,0,0,0.04938271604938272,8.88888888888889,0)" xlink:href="#aG"/><use transform="matrix(0.04938271604938272,0,0,0.04938271604938272,18.765432098765434,0)" xlink:href="#aD"/><use transform="matrix(0.04938271604938272,0,0,0.04938271604938272,28.641975308641978,0)" xlink:href="#aB"/><use transform="matrix(0.04938271604938272,0,0,0.04938271604938272,38.51851851851852,0)" xlink:href="#aJ"/><use transform="matrix(0.04938271604938272,0,0,0.04938271604938272,43.45679012345679,0)" xlink:href="#aA"/></g><path fill="#fff" d="M194-120c59 52 2 134-86 124-53-6-90-18-98-63l31-7c8 30 29 43 70 43 46 0 84-17 71-62-32-43-135-20-137-98-3-89 178-90 191-16l-30 9c-8-48-127-53-127 5 0 53 81 35 115 65" id="bj"/><g id="s"><use transform="matrix(0.04938271604938272,0,0,0.04938271604938272,0,0)" xlink:href="#bj"/><use transform="matrix(0.04938271604938272,0,0,0.04938271604938272,11.851851851851853,0)" xlink:href="#aN"/><use transform="matrix(0.04938271604938272,0,0,0.04938271604938272,21.7283950617284,0)" xlink:href="#aE"/><use transform="matrix(0.04938271604938272,0,0,0.04938271604938272,25.629629629629633,0)" xlink:href="#aM"/><use transform="matrix(0.04938271604938272,0,0,0.04938271604938272,29.530864197530867,0)" xlink:href="#aC"/><use transform="matrix(0.04938271604938272,0,0,0.04938271604938272,38.41975308641976,0)" xlink:href="#aM"/><use transform="matrix(0.04938271604938272,0,0,0.04938271604938272,42.320987654320994,0)" xlink:href="#aJ"/><use transform="matrix(0.04938271604938272,0,0,0.04938271604938272,47.25925925925927,0)" xlink:href="#aA"/><use transform="matrix(0.04938271604938272,0,0,0.04938271604938272,57.135802469135804,0)" xlink:href="#aF"/></g><path fill="#fff" d="M14 0l48-248h34L48 0H14" id="bk"/><g id="t"><use transform="matrix(0.04938271604938272,0,0,0.04938271604938272,0,0)" xlink:href="#bk"/><use transform="matrix(0.04938271604938272,0,0,0.04938271604938272,4.938271604938272,0)" xlink:href="#aB"/><use transform="matrix(0.04938271604938272,0,0,0.04938271604938272,14.814814814814817,0)" xlink:href="#aM"/><use transform="matrix(0.04938271604938272,0,0,0.04938271604938272,18.71604938271605,0)" xlink:href="#aC"/><use transform="matrix(0.04938271604938272,0,0,0.04938271604938272,27.60493827160494,0)" xlink:href="#aM"/><use transform="matrix(0.04938271604938272,0,0,0.04938271604938272,31.506172839506174,0)" xlink:href="#aA"/><use transform="matrix(0.04938271604938272,0,0,0.04938271604938272,41.38271604938272,0)" xlink:href="#aF"/></g><g id="u"><use transform="matrix(0.04938271604938272,0,0,0.04938271604938272,0,0)" xlink:href="#aL"/><use transform="matrix(0.04938271604938272,0,0,0.04938271604938272,8.88888888888889,0)" xlink:href="#aD"/><use transform="matrix(0.04938271604938272,0,0,0.04938271604938272,18.765432098765434,0)" xlink:href="#aL"/><use transform="matrix(0.04938271604938272,0,0,0.04938271604938272,27.654320987654323,0)" xlink:href="#aM"/><use transform="matrix(0.04938271604938272,0,0,0.04938271604938272,31.555555555555557,0)" xlink:href="#aN"/><use transform="matrix(0.04938271604938272,0,0,0.04938271604938272,41.4320987654321,0)" xlink:href="#aB"/></g><path fill="#fff" d="M76-167L44 0H12l33-167H18l4-23h27c3-47 25-81 82-69l-4 24c-35-8-44 15-46 45h37l-5 23H76" id="bl"/><g id="v"><use transform="matrix(0.04938271604938272,0,0,0.04938271604938272,0,0)" xlink:href="#az"/><use transform="matrix(0.04938271604938272,0,0,0.04938271604938272,12.790123456790125,0)" xlink:href="#aA"/><use transform="matrix(0.04938271604938272,0,0,0.04938271604938272,22.66666666666667,0)" xlink:href="#aE"/><use transform="matrix(0.04938271604938272,0,0,0.04938271604938272,26.567901234567902,0)" xlink:href="#aM"/><use transform="matrix(0.04938271604938272,0,0,0.04938271604938272,30.46913580246914,0)" xlink:href="#bl"/><use transform="matrix(0.04938271604938272,0,0,0.04938271604938272,35.40740740740741,0)" xlink:href="#aM"/><use transform="matrix(0.04938271604938272,0,0,0.04938271604938272,39.308641975308646,0)" xlink:href="#aC"/><use transform="matrix(0.04938271604938272,0,0,0.04938271604938272,48.19753086419753,0)" xlink:href="#aA"/><use transform="matrix(0.04938271604938272,0,0,0.04938271604938272,58.074074074074076,0)" xlink:href="#aF"/></g><path fill="#fff" d="M89 0H52L20-190h33L74-25l89-165h34" id="bm"/><g id="w"><use transform="matrix(0.04938271604938272,0,0,0.04938271604938272,0,0)" xlink:href="#aL"/><use transform="matrix(0.04938271604938272,0,0,0.04938271604938272,8.88888888888889,0)" xlink:href="#aD"/><use transform="matrix(0.04938271604938272,0,0,0.04938271604938272,18.765432098765434,0)" xlink:href="#aF"/><use transform="matrix(0.04938271604938272,0,0,0.04938271604938272,24.641975308641978,0)" xlink:href="#bm"/><use transform="matrix(0.04938271604938272,0,0,0.04938271604938272,33.53086419753087,0)" xlink:href="#aM"/><use transform="matrix(0.04938271604938272,0,0,0.04938271604938272,37.4320987654321,0)" xlink:href="#aC"/><use transform="matrix(0.04938271604938272,0,0,0.04938271604938272,46.32098765432099,0)" xlink:href="#aM"/><use transform="matrix(0.04938271604938272,0,0,0.04938271604938272,50.22222222222222,0)" xlink:href="#aN"/></g><g id="x"><use transform="matrix(0.04938271604938272,0,0,0.04938271604938272,0,0)" xlink:href="#az"/><use transform="matrix(0.04938271604938272,0,0,0.04938271604938272,12.790123456790125,0)" xlink:href="#aN"/><use transform="matrix(0.04938271604938272,0,0,0.04938271604938272,22.66666666666667,0)" xlink:href="#aB"/><use transform="matrix(0.04938271604938272,0,0,0.04938271604938272,32.543209876543216,0)" xlink:href="#aL"/><use transform="matrix(0.04938271604938272,0,0,0.04938271604938272,41.4320987654321,0)" xlink:href="#aG"/><use transform="matrix(0.04938271604938272,0,0,0.04938271604938272,51.308641975308646,0)" xlink:href="#aE"/><use transform="matrix(0.04938271604938272,0,0,0.04938271604938272,55.20987654320988,0)" xlink:href="#aJ"/><use transform="matrix(0.04938271604938272,0,0,0.04938271604938272,60.14814814814815,0)" xlink:href="#aA"/><use transform="matrix(0.04938271604938272,0,0,0.04938271604938272,70.0246913580247,0)" xlink:href="#aF"/></g><path fill="#fff" d="M67-158c15-20 31-36 64-36 94 0 33 127 27 194h-32l25-140c3-38-53-32-70-12C52-117 51-51 37 0H6l51-261h31" id="bn"/><g id="y"><use transform="matrix(0.04938271604938272,0,0,0.04938271604938272,0,0)" xlink:href="#bn"/><use transform="matrix(0.04938271604938272,0,0,0.04938271604938272,9.876543209876544,0)" xlink:href="#aM"/><use transform="matrix(0.04938271604938272,0,0,0.04938271604938272,13.777777777777779,0)" xlink:href="#aL"/><use transform="matrix(0.04938271604938272,0,0,0.04938271604938272,22.666666666666668,0)" xlink:href="#aJ"/><use transform="matrix(0.04938271604938272,0,0,0.04938271604938272,27.60493827160494,0)" xlink:href="#aN"/><use transform="matrix(0.04938271604938272,0,0,0.04938271604938272,37.48148148148148,0)" xlink:href="#aF"/><use transform="matrix(0.04938271604938272,0,0,0.04938271604938272,43.358024691358025,0)" xlink:href="#aM"/><use transform="matrix(0.04938271604938272,0,0,0.04938271604938272,47.25925925925926,0)" xlink:href="#aA"/><use transform="matrix(0.04938271604938272,0,0,0.04938271604938272,57.135802469135804,0)" xlink:href="#aE"/></g><path fill="#fff" d="M133-28C103 26-5 8 13-77c13-62 24-115 90-117 29-1 46 15 56 35l19-102h32L160 0h-30zM45-64c-2 27 10 43 35 43 54-1 69-50 69-103 0-29-15-46-42-46-53-1-58 58-62 106" id="bo"/><g id="z"><use transform="matrix(0.04938271604938272,0,0,0.04938271604938272,0,0)" xlink:href="#bo"/><use transform="matrix(0.04938271604938272,0,0,0.04938271604938272,9.876543209876544,0)" xlink:href="#aD"/></g><g id="A"><use transform="matrix(0.04938271604938272,0,0,0.04938271604938272,0,0)" xlink:href="#aD"/><use transform="matrix(0.04938271604938272,0,0,0.04938271604938272,9.876543209876544,0)" xlink:href="#aB"/><use transform="matrix(0.04938271604938272,0,0,0.04938271604938272,19.75308641975309,0)" xlink:href="#bm"/><use transform="matrix(0.04938271604938272,0,0,0.04938271604938272,28.641975308641978,0)" xlink:href="#aM"/><use transform="matrix(0.04938271604938272,0,0,0.04938271604938272,32.543209876543216,0)" xlink:href="#aN"/><use transform="matrix(0.04938271604938272,0,0,0.04938271604938272,42.41975308641976,0)" xlink:href="#aL"/></g><g id="B"><use transform="matrix(0.04938271604938272,0,0,0.04938271604938272,0,0)" xlink:href="#bm"/><use transform="matrix(0.04938271604938272,0,0,0.04938271604938272,8.88888888888889,0)" xlink:href="#aD"/><use transform="matrix(0.04938271604938272,0,0,0.04938271604938272,18.765432098765434,0)" xlink:href="#bn"/><use transform="matrix(0.04938271604938272,0,0,0.04938271604938272,28.641975308641978,0)" xlink:href="#aM"/><use transform="matrix(0.04938271604938272,0,0,0.04938271604938272,32.543209876543216,0)" xlink:href="#aC"/><use transform="matrix(0.04938271604938272,0,0,0.04938271604938272,41.4320987654321,0)" xlink:href="#aG"/><use transform="matrix(0.04938271604938272,0,0,0.04938271604938272,51.308641975308646,0)" xlink:href="#aE"/><use transform="matrix(0.04938271604938272,0,0,0.04938271604938272,55.20987654320988,0)" xlink:href="#aN"/></g><path fill="#fff" d="M187 0l-14-72H61L19 0h-37l149-248h38L221 0h-34zm-19-99l-22-123L76-99h92" id="bp"/><g id="C"><use transform="matrix(0.04938271604938272,0,0,0.04938271604938272,0,0)" xlink:href="#bp"/><use transform="matrix(0.04938271604938272,0,0,0.04938271604938272,11.851851851851853,0)" xlink:href="#aL"/><use transform="matrix(0.04938271604938272,0,0,0.04938271604938272,20.74074074074074,0)" xlink:href="#aM"/><use transform="matrix(0.04938271604938272,0,0,0.04938271604938272,24.641975308641975,0)" xlink:href="#bi"/><use transform="matrix(0.04938271604938272,0,0,0.04938271604938272,34.51851851851852,0)" xlink:href="#aB"/><use transform="matrix(0.04938271604938272,0,0,0.04938271604938272,44.39506172839506,0)" xlink:href="#aA"/><use transform="matrix(0.04938271604938272,0,0,0.04938271604938272,54.27160493827161,0)" xlink:href="#aF"/></g><g id="D"><use transform="matrix(0.04938271604938272,0,0,0.04938271604938272,0,0)" xlink:href="#aH"/><use transform="matrix(0.04938271604938272,0,0,0.04938271604938272,9.876543209876544,0)" xlink:href="#aA"/><use transform="matrix(0.04938271604938272,0,0,0.04938271604938272,19.75308641975309,0)" xlink:href="#aI"/><use transform="matrix(0.04938271604938272,0,0,0.04938271604938272,29.629629629629633,0)" xlink:href="#aG"/><use transform="matrix(0.04938271604938272,0,0,0.04938271604938272,39.50617283950618,0)" xlink:href="#aD"/><use transform="matrix(0.04938271604938272,0,0,0.04938271604938272,49.38271604938272,0)" xlink:href="#aJ"/><use transform="matrix(0.04938271604938272,0,0,0.04938271604938272,54.320987654320994,0)" xlink:href="#aD"/></g><g id="E"><use transform="matrix(0.04938271604938272,0,0,0.04938271604938272,0,0)" xlink:href="#bj"/><use transform="matrix(0.04938271604938272,0,0,0.04938271604938272,11.851851851851853,0)" xlink:href="#aD"/><use transform="matrix(0.04938271604938272,0,0,0.04938271604938272,21.7283950617284,0)" xlink:href="#bi"/><use transform="matrix(0.04938271604938272,0,0,0.04938271604938272,31.60493827160494,0)" xlink:href="#aG"/><use transform="matrix(0.04938271604938272,0,0,0.04938271604938272,41.48148148148149,0)" xlink:href="#aM"/><use transform="matrix(0.04938271604938272,0,0,0.04938271604938272,45.38271604938272,0)" xlink:href="#aF"/></g><g id="F"><use transform="matrix(0.04938271604938272,0,0,0.04938271604938272,0,0)" xlink:href="#aD"/><use transform="matrix(0.04938271604938272,0,0,0.04938271604938272,9.876543209876544,0)" xlink:href="#aL"/><use transform="matrix(0.04938271604938272,0,0,0.04938271604938272,18.765432098765434,0)" xlink:href="#aJ"/><use transform="matrix(0.04938271604938272,0,0,0.04938271604938272,23.703703703703706,0)" xlink:href="#aA"/><use transform="matrix(0.04938271604938272,0,0,0.04938271604938272,33.580246913580254,0)" xlink:href="#bo"/><use transform="matrix(0.04938271604938272,0,0,0.04938271604938272,43.4567901234568,0)" xlink:href="#aN"/></g><g id="G"><use transform="matrix(0.04938271604938272,0,0,0.04938271604938272,0,0)" xlink:href="#bo"/><use transform="matrix(0.04938271604938272,0,0,0.04938271604938272,9.876543209876544,0)" xlink:href="#aD"/><use transform="matrix(0.04938271604938272,0,0,0.04938271604938272,19.75308641975309,0)" xlink:href="#aE"/></g><g id="H"><use transform="matrix(0.04938271604938272,0,0,0.04938271604938272,0,0)" xlink:href="#ac"/><use transform="matrix(0.04938271604938272,0,0,0.04938271604938272,11.851851851851853,0)" xlink:href="#al"/><use transform="matrix(0.04938271604938272,0,0,0.04938271604938272,15.753086419753087,0)" xlink:href="#an"/><use transform="matrix(0.04938271604938272,0,0,0.04938271604938272,24.641975308641978,0)" xlink:href="#ag"/><use transform="matrix(0.04938271604938272,0,0,0.04938271604938272,29.58024691358025,0)" xlink:href="#ah"/><use transform="matrix(0.04938271604938272,0,0,0.04938271604938272,39.4567901234568,0)" xlink:href="#ak"/><use transform="matrix(0.04938271604938272,0,0,0.04938271604938272,54.22222222222223,0)" xlink:href="#ao"/></g><g id="I"><use transform="matrix(0.04938271604938272,0,0,0.04938271604938272,0,0)" xlink:href="#aj"/><use transform="matrix(0.04938271604938272,0,0,0.04938271604938272,9.876543209876544,0)" xlink:href="#ah"/></g><path fill="#333" d="M177-190C167-65 218 103 67 71c-23-6-38-20-44-43l32-5c15 47 100 32 89-28v-30C133-14 115 1 83 1 29 1 15-40 15-95c0-56 16-97 71-98 29-1 48 16 59 35 1-10 0-23 2-32h30zM94-22c36 0 50-32 50-73 0-42-14-75-50-75-39 0-46 34-46 75s6 73 46 73" id="bq"/><g id="J"><use transform="matrix(0.04938271604938272,0,0,0.04938271604938272,0,0)" xlink:href="#ae"/><use transform="matrix(0.04938271604938272,0,0,0.04938271604938272,9.876543209876544,0)" xlink:href="#ao"/><use transform="matrix(0.04938271604938272,0,0,0.04938271604938272,19.75308641975309,0)" xlink:href="#bq"/><use transform="matrix(0.04938271604938272,0,0,0.04938271604938272,29.629629629629633,0)" xlink:href="#ad"/></g><path d="M177-190C167-65 218 103 67 71c-23-6-38-20-44-43l32-5c15 47 100 32 89-28v-30C133-14 115 1 83 1 29 1 15-40 15-95c0-56 16-97 71-98 29-1 48 16 59 35 1-10 0-23 2-32h30zM94-22c36 0 50-32 50-73 0-42-14-75-50-75-39 0-46 34-46 75s6 73 46 73" id="br"/><path d="M100-194c63 0 86 42 84 106H49c0 40 14 67 53 68 26 1 43-12 49-29l28 8c-11 28-37 45-77 45C44 4 14-33 15-96c1-61 26-98 85-98zm52 81c6-60-76-77-97-28-3 7-6 17-6 28h103" id="bs"/><path d="M117-194c89-4 53 116 60 194h-32v-121c0-31-8-49-39-48C34-167 62-67 57 0H25l-1-190h30c1 10-1 24 2 32 11-22 29-35 61-36" id="bt"/><path d="M114-163C36-179 61-72 57 0H25l-1-190h30c1 12-1 29 2 39 6-27 23-49 58-41v29" id="bu"/><path d="M141-36C126-15 110 5 73 4 37 3 15-17 15-53c-1-64 63-63 125-63 3-35-9-54-41-54-24 1-41 7-42 31l-33-3c5-37 33-52 76-52 45 0 72 20 72 64v82c-1 20 7 32 28 27v20c-31 9-61-2-59-35zM48-53c0 20 12 33 32 33 41-3 63-29 60-74-43 2-92-5-92 41" id="bv"/><g id="K"><use transform="matrix(0.07222222222222222,0,0,0.07222222222222222,0,0)" xlink:href="#br"/><use transform="matrix(0.07222222222222222,0,0,0.07222222222222222,14.444444444444443,0)" xlink:href="#bs"/><use transform="matrix(0.07222222222222222,0,0,0.07222222222222222,28.888888888888886,0)" xlink:href="#bt"/><use transform="matrix(0.07222222222222222,0,0,0.07222222222222222,43.33333333333333,0)" xlink:href="#bs"/><use transform="matrix(0.07222222222222222,0,0,0.07222222222222222,57.77777777777777,0)" xlink:href="#bu"/><use transform="matrix(0.07222222222222222,0,0,0.07222222222222222,66.37222222222222,0)" xlink:href="#bv"/></g><path d="M135-143c-3-34-86-38-87 0 15 53 115 12 119 90S17 21 10-45l28-5c4 36 97 45 98 0-10-56-113-15-118-90-4-57 82-63 122-42 12 7 21 19 24 35" id="bw"/><path d="M24-231v-30h32v30H24zM24 0v-190h32V0H24" id="bx"/><path d="M59-47c-2 24 18 29 38 22v24C64 9 27 4 27-40v-127H5v-23h24l9-43h21v43h35v23H59v120" id="by"/><g id="L"><use transform="matrix(0.07222222222222222,0,0,0.07222222222222222,0,0)" xlink:href="#bv"/><use transform="matrix(0.07222222222222222,0,0,0.07222222222222222,14.444444444444443,0)" xlink:href="#bw"/><use transform="matrix(0.07222222222222222,0,0,0.07222222222222222,27.444444444444443,0)" xlink:href="#bx"/><use transform="matrix(0.07222222222222222,0,0,0.07222222222222222,33.15,0)" xlink:href="#bw"/><use transform="matrix(0.07222222222222222,0,0,0.07222222222222222,46.15,0)" xlink:href="#by"/><use transform="matrix(0.07222222222222222,0,0,0.07222222222222222,53.37222222222222,0)" xlink:href="#bs"/></g><path d="M84 4C-5 8 30-112 23-190h32v120c0 31 7 50 39 49 72-2 45-101 50-169h31l1 190h-30c-1-10 1-25-2-33-11 22-28 36-60 37" id="bz"/><path d="M24 0v-261h32V0H24" id="bA"/><path d="M9 0v-24l116-142H16v-24h144v24L44-24h123V0H9" id="bB"/><g id="M"><use transform="matrix(0.07222222222222222,0,0,0.07222222222222222,0,0)" xlink:href="#bz"/><use transform="matrix(0.07222222222222222,0,0,0.07222222222222222,14.444444444444443,0)" xlink:href="#by"/><use transform="matrix(0.07222222222222222,0,0,0.07222222222222222,21.666666666666664,0)" xlink:href="#bx"/><use transform="matrix(0.07222222222222222,0,0,0.07222222222222222,27.37222222222222,0)" xlink:href="#bA"/><use transform="matrix(0.07222222222222222,0,0,0.07222222222222222,33.077777777777776,0)" xlink:href="#bx"/><use transform="matrix(0.07222222222222222,0,0,0.07222222222222222,38.78333333333333,0)" xlink:href="#bB"/><use transform="matrix(0.07222222222222222,0,0,0.07222222222222222,51.78333333333333,0)" xlink:href="#bv"/></g><path d="M96-169c-40 0-48 33-48 73s9 75 48 75c24 0 41-14 43-38l32 2c-6 37-31 61-74 61-59 0-76-41-82-99-10-93 101-131 147-64 4 7 5 14 7 22l-32 3c-4-21-16-35-41-35" id="bC"/><path d="M115-194c53 0 69 39 70 98 0 66-23 100-70 100C84 3 66-7 56-30L54 0H23l1-261h32v101c10-23 28-34 59-34zm-8 174c40 0 45-34 45-75 0-40-5-75-45-74-42 0-51 32-51 76 0 43 10 73 51 73" id="bD"/><g id="N"><use transform="matrix(0.07222222222222222,0,0,0.07222222222222222,0,0)" xlink:href="#bu"/><use transform="matrix(0.07222222222222222,0,0,0.07222222222222222,8.594444444444443,0)" xlink:href="#bs"/><use transform="matrix(0.07222222222222222,0,0,0.07222222222222222,23.038888888888884,0)" xlink:href="#bC"/><use transform="matrix(0.07222222222222222,0,0,0.07222222222222222,36.038888888888884,0)" xlink:href="#bx"/><use transform="matrix(0.07222222222222222,0,0,0.07222222222222222,41.74444444444444,0)" xlink:href="#bD"/><use transform="matrix(0.07222222222222222,0,0,0.07222222222222222,56.18888888888888,0)" xlink:href="#bs"/></g><path d="M101-234c-31-9-42 10-38 44h38v23H63V0H32v-167H5v-23h27c-7-52 17-82 69-68v24" id="bE"/><path d="M100-194c62-1 85 37 85 99 1 63-27 99-86 99S16-35 15-95c0-66 28-99 85-99zM99-20c44 1 53-31 53-75 0-43-8-75-51-75s-53 32-53 75 10 74 51 75" id="bF"/><g id="O"><use transform="matrix(0.07222222222222222,0,0,0.07222222222222222,0,0)" xlink:href="#bC"/><use transform="matrix(0.07222222222222222,0,0,0.07222222222222222,12.999999999999998,0)" xlink:href="#bv"/><use transform="matrix(0.07222222222222222,0,0,0.07222222222222222,27.444444444444443,0)" xlink:href="#bA"/><use transform="matrix(0.07222222222222222,0,0,0.07222222222222222,33.15,0)" xlink:href="#bx"/><use transform="matrix(0.07222222222222222,0,0,0.07222222222222222,38.855555555555554,0)" xlink:href="#bE"/><use transform="matrix(0.07222222222222222,0,0,0.07222222222222222,46.077777777777776,0)" xlink:href="#bx"/><use transform="matrix(0.07222222222222222,0,0,0.07222222222222222,51.78333333333333,0)" xlink:href="#bC"/><use transform="matrix(0.07222222222222222,0,0,0.07222222222222222,64.78333333333333,0)" xlink:href="#bv"/><use transform="matrix(0.07222222222222222,0,0,0.07222222222222222,79.22777777777777,0)" xlink:href="#bC"/><use transform="matrix(0.07222222222222222,0,0,0.07222222222222222,92.22777777777777,0)" xlink:href="#bx"/><use transform="matrix(0.07222222222222222,0,0,0.07222222222222222,97.93333333333332,0)" xlink:href="#bF"/><use transform="matrix(0.07222222222222222,0,0,0.07222222222222222,112.37777777777777,0)" xlink:href="#bt"/></g><g id="P"><use transform="matrix(0.07222222222222222,0,0,0.07222222222222222,0,0)" xlink:href="#bs"/><use transform="matrix(0.07222222222222222,0,0,0.07222222222222222,14.444444444444443,0)" xlink:href="#bt"/><use transform="matrix(0.07222222222222222,0,0,0.07222222222222222,28.888888888888886,0)" xlink:href="#by"/><use transform="matrix(0.07222222222222222,0,0,0.07222222222222222,36.11111111111111,0)" xlink:href="#bu"/><use transform="matrix(0.07222222222222222,0,0,0.07222222222222222,44.70555555555555,0)" xlink:href="#bs"/><use transform="matrix(0.07222222222222222,0,0,0.07222222222222222,59.14999999999999,0)" xlink:href="#br"/><use transform="matrix(0.07222222222222222,0,0,0.07222222222222222,73.59444444444443,0)" xlink:href="#bv"/></g><path d="M115-194c55 1 70 41 70 98S169 2 115 4C84 4 66-9 55-30l1 105H24l-1-265h31l2 30c10-21 28-34 59-34zm-8 174c40 0 45-34 45-75s-6-73-45-74c-42 0-51 32-51 76 0 43 10 73 51 73" id="bG"/><path d="M145-31C134-9 116 4 85 4 32 4 16-35 15-94c0-59 17-99 70-100 32-1 48 14 60 33 0-11-1-24 2-32h30l-1 268h-32zM93-21c41 0 51-33 51-76s-8-73-50-73c-40 0-46 35-46 75s5 74 45 74" id="bH"/><g id="Q"><use transform="matrix(0.07222222222222222,0,0,0.07222222222222222,0,0)" xlink:href="#bG"/><use transform="matrix(0.07222222222222222,0,0,0.07222222222222222,14.444444444444443,0)" xlink:href="#bv"/><use transform="matrix(0.07222222222222222,0,0,0.07222222222222222,28.888888888888886,0)" xlink:href="#bH"/><use transform="matrix(0.07222222222222222,0,0,0.07222222222222222,43.33333333333333,0)" xlink:href="#bz"/><use transform="matrix(0.07222222222222222,0,0,0.07222222222222222,57.77777777777777,0)" xlink:href="#bs"/><use transform="matrix(0.07222222222222222,0,0,0.07222222222222222,72.22222222222221,0)" xlink:href="#by"/><use transform="matrix(0.07222222222222222,0,0,0.07222222222222222,79.44444444444441,0)" xlink:href="#bs"/></g><g id="R"><use transform="matrix(0.07222222222222222,0,0,0.07222222222222222,0,0)" xlink:href="#br"/><use transform="matrix(0.07222222222222222,0,0,0.07222222222222222,14.444444444444443,0)" xlink:href="#bs"/><use transform="matrix(0.07222222222222222,0,0,0.07222222222222222,28.888888888888886,0)" xlink:href="#bw"/><use transform="matrix(0.07222222222222222,0,0,0.07222222222222222,41.888888888888886,0)" xlink:href="#by"/><use transform="matrix(0.07222222222222222,0,0,0.07222222222222222,49.11111111111111,0)" xlink:href="#bx"/><use transform="matrix(0.07222222222222222,0,0,0.07222222222222222,54.81666666666666,0)" xlink:href="#bF"/><use transform="matrix(0.07222222222222222,0,0,0.07222222222222222,69.2611111111111,0)" xlink:href="#bt"/><use transform="matrix(0.07222222222222222,0,0,0.07222222222222222,83.70555555555555,0)" xlink:href="#bv"/></g></defs></g></svg>