<svg xmlns="http://www.w3.org/2000/svg" xmlns:xlink="http://www.w3.org/1999/xlink" xmlns:lucid="lucid" width="1794.18" height="1608.72"><g transform="translate(0 0)" lucid:page-tab-id="FDQc8L-t--qg"><path d="M0 0h1794.18v1608.72H0z" fill="#fff"/><path d="M866.95 280.95l-.02 5m0 5l-.03 10m0 5l-.04 10m0 5l-.03 10m0 5l-.04 10m-.02 5l-.02 10m0 5l-.04 10m0 5l-.03 10m-.02 5l-.03 10m0 5l-.03 10m0 5l-.04 10m0 5l-.03 10m0 5l-.04 10m0 5l-.02 10m0 5l-.04 10m0 5l-.03 10m0 5l-.03 10m0 5l-.03 10m0 5l-.04 10m0 5l-.03 10m0 5l-.04 10m0 5l-.03 10m-.02 5l-.02 10m0 5l-.03 10m0 5l-.04 10m-.02 5l-.02 10m0 5l-.04 10m0 5l-.03 10m-.02 5l-.03 10m0 5l-.03 10m-.02 5l-.02 10m0 5l-.03 10m-.02 5l-.02 10m0 5l-.02 10m-.02 5l-.02 9.98m0 5l-.03 10m0 5l-.03 10m0 5l-.03 10m-.02 5l-.02 10m0 5l-.03 10m-.02 5l-.02 10m0 5l-.03 10m-.02 5l-.02 10m0 5l-.04 10m0 5l-.03 10m-.02 5l-.02 10m-.02 5l-.02 10m0 5l-.04 10m0 5l-.03 10m0 5l-.04 10m0 5l-.02 10m0 5l-.04 10m0 5l-.03 10m0 5l-.03 10m0 5l-.03 10m0 5l-.04 10m0 5l-.03 10m0 5l-.04 10m0 5l-.03 10m0 5l-.04 10m0 5l-.03 10m0 5l-.04 10m-.02 5l-.02 10m0 5l-.04 10m0 5l-.03 10m-.02 5l-.03 10m0 5l-.03 10m0 5l-.04 10m0 5l-.03 10m0 5l-.04 10m0 5l-.02 10m0 5l-.04 10m0 5l-.03 10m0 5l-.03 10m0 5l-.03 10m0 5l-.04 10m0 5l-.03 10m0 5l-.04 10m0 5l-.03 9.98m-.02 5l-.02 10m0 5l-.03 10m0 5l-.04 10m-.02 5l-.02 10m0 5l-.04 10m0 5l-.02 5" stroke="#333" fill="none"/><path d="M867.42 280.96h-.95v-.5h.95z" stroke="#333" stroke-width=".05" fill="#333"/><path d="M864 1540.9v.5" stroke="#333" fill="none"/><path d="M846.95 365.7a8 8 0 0 1 8-8h24a8 8 0 0 1 8 8v1082.08a8 8 0 0 1-8 8h-24a8 8 0 0 1-8-8z" stroke="#f2f2f2" fill="#d2d3d5"/><path d="M1380.75 280.95v5m0 5v10m0 5v10m0 5v10m0 5v10m0 5v10m0 5v10m0 5v10m0 5v10m0 5v10m0 5v10m0 5v10m0 5v10m0 5v10m0 5v10m0 5v10m0 5v10m0 5v10m0 5v10m0 5v10m0 5v10m0 5v10m0 5v10m0 5v10m0 5v10m0 5v10m0 5v10m0 5v10m0 5v10m0 5v10m0 5v10m0 5v10m0 5v10m0 5v10m0 5v9.98m0 5v10m0 5v10m0 5v10m0 5v10m0 5v10m0 5v10m0 5v10m0 5v10m0 5v10m0 5v10m0 5v10m0 5v10m0 5v10m0 5v10m0 5v10m0 5v10m0 5v10m0 5v10m0 5v10m0 5v10m0 5v10m0 5v10m0 5v10m0 5v10m0 5v10m0 5v10m0 5v10m0 5v10m0 5v10m0 5v10m0 5v10m0 5v10m0 5v10m0 5v10m0 5v10m0 5v10m0 5v10m0 5v10m0 5v10m0 5v10m0 5v10m0 5v10m0 5v10m0 5v9.98m0 5v10m0 5v10m0 5v10m0 5v10m0 5v10m0 5v5" stroke="#333" fill="none"/><path d="M1381.23 280.96h-.95v-.5h.95z" stroke="#333" stroke-width=".05" fill="#333"/><path d="M1380.75 1540.9v.5" stroke="#333" fill="none"/><path d="M1360.75 365.7a8 8 0 0 1 8-8h24a8 8 0 0 1 8 8v1082.08a8 8 0 0 1-8 8h-24a8 8 0 0 1-8-8z" stroke="#f2f2f2" fill="#d2d3d5"/><path d="M771.9 164.45a8 8 0 0 1 8-8H954a8 8 0 0 1 8 8v108a8 8 0 0 1-8 8H779.9a8 8 0 0 1-8-8z" stroke="#000" stroke-opacity="0" fill="#e3fae3"/><use xlink:href="#a" transform="matrix(1,0,0,1,779.9089369708485,164.45105331509978) translate(39.50265168308205 57.80595713526222)"/><path d="M1285.7 164.45a8 8 0 0 1 8-8h174.1a8 8 0 0 1 8 8v108a8 8 0 0 1-8 8h-174.1a8 8 0 0 1-8-8z" stroke="#000" stroke-opacity="0" fill="#e3fae3"/><use xlink:href="#b" transform="matrix(1,0,0,1,1293.7131502312477,164.45105331509978) translate(51.66057030961414 57.80595713526222)"/><path d="M682.8 50.82a8 8 0 0 1 8-8h836.74a8 8 0 0 1 8 8v28.93a8 8 0 0 1-8 8H690.8a8 8 0 0 1-8-8z" stroke="#000" stroke-opacity="0" stroke-width="2" fill="#fff" fill-opacity="0"/><use xlink:href="#c" transform="matrix(1,0,0,1,686.7877730067448,46.81701777169994) translate(206.45207469368916 27.828242811573297)"/><use xlink:href="#d" transform="matrix(1,0,0,1,686.7877730067448,46.81701777169994) translate(344.25943929964194 27.828242811573297)"/><use xlink:href="#e" transform="matrix(1,0,0,1,686.7877730067448,46.81701777169994) translate(385.4113508246646 27.828242811573297)"/><use xlink:href="#f" transform="matrix(1,0,0,1,686.7877730067448,46.81701777169994) translate(531.1477927957469 27.828242811573297)"/><use xlink:href="#g" transform="matrix(1,0,0,1,686.7877730067448,46.81701777169994) translate(629.3097705760516 27.828242811573297)"/><path d="M858.34 86.28h510.47M858.36 86.28h-1.02M1368.78 86.28h1.03" stroke="#b2b2b2" stroke-width="2" fill="none"/><path d="M682.8 93.86a8 8 0 0 1 8-8h837.7a8 8 0 0 1 8 8v2.85a8 8 0 0 1-8 8H690.8a8 8 0 0 1-8-8z" stroke="#000" stroke-opacity="0" stroke-width="2" fill="#fff" fill-opacity="0"/><use xlink:href="#h" transform="matrix(1,0,0,1,686.7877730067448,89.86143685882936) translate(306.7692473739646 16.000849973417758)"/><use xlink:href="#i" transform="matrix(1,0,0,1,686.7877730067448,89.86143685882936) translate(377.027480393484 16.000849973417758)"/><use xlink:href="#j" transform="matrix(1,0,0,1,686.7877730067448,89.86143685882936) translate(431.5134570208663 16.000849973417758)"/><use xlink:href="#k" transform="matrix(1,0,0,1,686.7877730067448,89.86143685882936) translate(445.06557175076705 16.000849973417758)"/><use xlink:href="#l" transform="matrix(1,0,0,1,686.7877730067448,89.86143685882936) translate(481.0966208108102 16.000849973417758)"/><use xlink:href="#m" transform="matrix(1,0,0,1,686.7877730067448,89.86143685882936) translate(508.84839158876383 16.000849973417758)"/><path d="M339.26 148.2c0 10.9-8.84 19.75-19.75 19.75-10.9 0-19.74-8.84-19.74-19.75 0-10.9 8.85-19.75 19.75-19.75 10.92 0 19.76 8.84 19.76 19.75z" stroke="#333" fill="#fff"/><path d="M319.5 167.95v47.3a27.6 27.6 0 0 0 4.3 14.76l35.7 56.45m-40-63.2l-40 63.2m0-98.75h80" stroke="#333" fill="none"/><path d="M279.5 136.45a8 8 0 0 1 8-8h64a8 8 0 0 1 8 8v164a8 8 0 0 1-8 8h-64a8 8 0 0 1-8-8z" fill="none"/><use xlink:href="#n" transform="matrix(1,0,0,1,199.5132325962993,286.4510533150998) translate(92.075 14.6)"/><path d="M321.13 280.95v5m0 5v10m0 5v10m0 5v10m0 5v10m0 5v10m0 5v10m0 5v10m0 5v10m0 5v10m0 5v10m0 5v10m0 5v10m0 5v10m0 5v10m0 5v10m0 5v10m0 5v10m0 5v10m0 5v10m0 5v10m0 5v10m0 5v10m0 5v10m0 5v10m0 5v10m0 5v10m0 5v10m0 5v10m0 5v10m0 5v10m0 5v10m0 5v10m0 5v10m0 5v9.98m0 5v10m0 5v10m0 5v10m0 5v10m0 5v10m0 5v10m0 5v10m0 5v10m0 5v10m0 5v10m0 5v10m0 5v10m0 5v10m0 5v10m0 5v10m0 5v10m0 5v10m0 5v10m0 5v10m0 5v10m0 5v10m0 5v10m0 5v10m0 5v10m0 5v10m0 5v10m0 5v10m0 5v10m0 5v10m0 5v10m0 5v10m0 5v10m0 5v10m0 5v10m0 5v10m0 5v10m0 5v10m0 5v10m0 5v10m0 5v10m0 5v10m0 5v10m0 5v10m0 5v9.98m0 5v10m0 5v10m0 5v10m0 5v10m0 5v10m0 5v5M321.13 280.96v-.5M321.13 1540.9v.5" stroke="#333" fill="none"/><path d="M299.5 365.7a8 8 0 0 1 8-8h24a8 8 0 0 1 8 8v1082.08a8 8 0 0 1-8 8h-24a8 8 0 0 1-8-8z" stroke="#f2f2f2" fill="#d2d3d5"/><path d="M340.5 399.8h489.56" stroke="#333" fill="none"/><path d="M340.53 400.26H340v-.95h.53z" stroke="#333" stroke-width=".05" fill="#333"/><path d="M844.83 399.8l-14.27 4.62v-9.27z" stroke="#333" fill="#333"/><path d="M407.96 357.13a8 8 0 0 1 8-8h369.36a8 8 0 0 1 8 8v44a8 8 0 0 1-8 8H415.96a8 8 0 0 1-8-8z" fill="none"/><use xlink:href="#o" transform="matrix(1,0,0,1,407.96428591139903,349.12763328774946) translate(17.625 33.6)"/><use xlink:href="#p" transform="matrix(1,0,0,1,407.96428591139903,349.12763328774946) translate(88.575 33.6)"/><use xlink:href="#q" transform="matrix(1,0,0,1,407.96428591139903,349.12763328774946) translate(103.575 33.6)"/><use xlink:href="#r" transform="matrix(1,0,0,1,407.96428591139903,349.12763328774946) translate(122.525 33.6)"/><use xlink:href="#s" transform="matrix(1,0,0,1,407.96428591139903,349.12763328774946) translate(180.47500000000002 33.6)"/><use xlink:href="#t" transform="matrix(1,0,0,1,407.96428591139903,349.12763328774946) translate(205.47500000000002 33.6)"/><use xlink:href="#u" transform="matrix(1,0,0,1,407.96428591139903,349.12763328774946) translate(278.375 33.6)"/><use xlink:href="#v" transform="matrix(1,0,0,1,407.96428591139903,349.12763328774946) translate(303.375 33.6)"/><path d="M341 534.5h489.56M341.03 534.5h-.52" stroke="#333" fill="none"/><path d="M845.33 534.5l-14.27 4.63v-9.27z" stroke="#333" fill="#333"/><path d="M408.46 500.4a8 8 0 0 1 8-8h369.36a8 8 0 0 1 8 8v44a8 8 0 0 1-8 8H416.46a8 8 0 0 1-8-8z" fill="none"/><use xlink:href="#w" transform="matrix(1,0,0,1,408.464281773305,492.39570437454927) translate(57.724999999999994 33.6)"/><use xlink:href="#q" transform="matrix(1,0,0,1,408.464281773305,492.39570437454927) translate(156.575 33.6)"/><use xlink:href="#x" transform="matrix(1,0,0,1,408.464281773305,492.39570437454927) translate(175.525 33.6)"/><use xlink:href="#p" transform="matrix(1,0,0,1,408.464281773305,492.39570437454927) translate(245.375 33.6)"/><use xlink:href="#y" transform="matrix(1,0,0,1,408.464281773305,492.39570437454927) translate(260.375 33.6)"/><path d="M340 648.13h489.56M340.03 648.13h-.52" stroke="#333" fill="none"/><path d="M844.33 648.13l-14.27 4.63v-9.27z" stroke="#333" fill="#333"/><path d="M407.46 614.03a8 8 0 0 1 8-8h369.36a8 8 0 0 1 8 8v44a8 8 0 0 1-8 8H415.46a8 8 0 0 1-8-8z" fill="none"/><use xlink:href="#z" transform="matrix(1,0,0,1,407.4643817733111,606.029739917949) translate(103.67499999999998 33.6)"/><use xlink:href="#A" transform="matrix(1,0,0,1,407.4643817733111,606.029739917949) translate(187.425 33.6)"/><path d="M250.14 772.64a8 8 0 0 1 8-8H516.5a8 8 0 0 1 8 8v4.93a17.07 17.07 0 0 1-5 12.07 17.07 17.07 0 0 1-12.06 5h-249.3a8 8 0 0 1-8-8z" fill="#fff"/><path d="M524.5 764.64v20l-10 10H250.15" stroke="#333" stroke-width="3" fill="none"/><path d="M250.14 772.64a8 8 0 0 1 8-8h889.92a8 8 0 0 1 8 8V973.1a8 8 0 0 1-8 8H258.14a8 8 0 0 1-8-8z" stroke="#333" stroke-width="3" fill="none"/><use xlink:href="#B" transform="matrix(1,0,0,1,258.1409617459608,764.6403626953017) translate(8.174999999999997 18.6)"/><use xlink:href="#C" transform="matrix(1,0,0,1,258.1409617459608,764.6403626953017) translate(123.92500000000001 18.6)"/><use xlink:href="#D" transform="matrix(1,0,0,1,258.1409617459608,764.6403626953017) translate(148.925 18.6)"/><path d="M347.4 875.2h499.05" stroke="#333" fill="none"/><path d="M341.5 875.2l12.9-7.65v15.28z" stroke="#333" fill="#333"/><path d="M846.43 875.2h.52" stroke="#333" fill="none"/><path d="M408.46 841.1a8 8 0 0 1 8-8h369.36a8 8 0 0 1 8 8v44a8 8 0 0 1-8 8H416.46a8 8 0 0 1-8-8z" fill="none"/><use xlink:href="#E" transform="matrix(1,0,0,1,408.464281773305,833.0914160104015) translate(82.17499999999998 33.6)"/><use xlink:href="#s" transform="matrix(1,0,0,1,408.464281773305,833.0914160104015) translate(179.975 33.6)"/><use xlink:href="#F" transform="matrix(1,0,0,1,408.464281773305,833.0914160104015) translate(204.975 33.6)"/><path d="M341 935.2h489.56M341.03 935.2h-.52" stroke="#333" fill="none"/><path d="M845.33 935.2l-14.27 4.63v-9.28z" stroke="#333" fill="#333"/><path d="M408.46 901.1a8 8 0 0 1 8-8h369.36a8 8 0 0 1 8 8v44a8 8 0 0 1-8 8H416.46a8 8 0 0 1-8-8z" fill="none"/><g><use xlink:href="#G" transform="matrix(1,0,0,1,408.464281773305,893.0914160104015) translate(111.725 33.6)"/><use xlink:href="#H" transform="matrix(1,0,0,1,408.464281773305,893.0914160104015) translate(181.475 33.6)"/></g><path d="M235.5 1099.83a8 8 0 0 1 8-8h267.66a8 8 0 0 1 8 8v4.93a17.07 17.07 0 0 1-5 12.07 17.07 17.07 0 0 1-12.07 5h-258.6a8 8 0 0 1-8-8z" fill="#fff"/><path d="M519.16 1091.83v20l-10 10H235.5" stroke="#333" stroke-width="3" fill="none"/><path d="M235.5 1099.83a8 8 0 0 1 8-8h904.56a8 8 0 0 1 8 8v133.86a8 8 0 0 1-8 8H243.5a8 8 0 0 1-8-8z" stroke="#333" stroke-width="3" fill="none"/><g><use xlink:href="#I" transform="matrix(1,0,0,1,243.49359774434961,1091.8339531783483) translate(0.6750000000000114 18.6)"/><use xlink:href="#J" transform="matrix(1,0,0,1,243.49359774434961,1091.8339531783483) translate(33.625000000000014 18.6)"/><use xlink:href="#C" transform="matrix(1,0,0,1,243.49359774434961,1091.8339531783483) translate(140.425 18.6)"/><use xlink:href="#D" transform="matrix(1,0,0,1,243.49359774434961,1091.8339531783483) translate(165.425 18.6)"/></g><path d="M347.4 1176.75h499.05" stroke="#333" fill="none"/><path d="M341.5 1176.75l12.9-7.64v15.3z" stroke="#333" fill="#333"/><path d="M846.43 1176.75h.52" stroke="#333" fill="none"/><path d="M408.46 1142.65a8 8 0 0 1 8-8h369.36a8 8 0 0 1 8 8v44a8 8 0 0 1-8 8H416.46a8 8 0 0 1-8-8z" fill="none"/><g><use xlink:href="#K" transform="matrix(1,0,0,1,408.464281773305,1134.650970950048) translate(84.67500000000001 33.6)"/><use xlink:href="#q" transform="matrix(1,0,0,1,408.464281773305,1134.650970950048) translate(165.57500000000002 33.6)"/><use xlink:href="#x" transform="matrix(1,0,0,1,408.464281773305,1134.650970950048) translate(184.52500000000003 33.6)"/><use xlink:href="#L" transform="matrix(1,0,0,1,408.464281773305,1134.650970950048) translate(254.375 33.6)"/></g><path d="M887.95 437h63.43a12 12 0 0 1 12 12v20a12 12 0 0 1-12 12h-47.55" stroke="#333" fill="none"/><path d="M887.96 436.52v.96h-.5v-.96z" stroke="#333" stroke-width=".05" fill="#333"/><path d="M889.07 481l14.26-4.63v9.26z" stroke="#333" fill="#333"/><g><use xlink:href="#M" transform="matrix(1,0,0,1,887.1932313777141,411.3620071274813) translate(0.0049999999999954525 14.4)"/><use xlink:href="#N" transform="matrix(1,0,0,1,887.1932313777141,411.3620071274813) translate(65.855 14.4)"/><use xlink:href="#C" transform="matrix(1,0,0,1,887.1932313777141,411.3620071274813) translate(102.755 14.4)"/><use xlink:href="#O" transform="matrix(1,0,0,1,887.1932313777141,411.3620071274813) translate(127.755 14.4)"/><use xlink:href="#C" transform="matrix(1,0,0,1,887.1932313777141,411.3620071274813) translate(216.605 14.4)"/><use xlink:href="#P" transform="matrix(1,0,0,1,887.1932313777141,411.3620071274813) translate(241.605 14.4)"/><use xlink:href="#Q" transform="matrix(1,0,0,1,887.1932313777141,411.3620071274813) translate(320.605 14.4)"/></g><path d="M346.4 594.5h499.05" stroke="#333" fill="none"/><path d="M340.5 594.5l12.9-7.64v15.27z" stroke="#333" fill="#333"/><path d="M845.43 594.5h.52" stroke="#333" fill="none"/><path d="M407.46 560.4a8 8 0 0 1 8-8h369.36a8 8 0 0 1 8 8v44a8 8 0 0 1-8 8H415.46a8 8 0 0 1-8-8z" fill="none"/><g><use xlink:href="#R" transform="matrix(1,0,0,1,407.4643817733111,552.3957043745493) translate(45.25 33.6)"/><use xlink:href="#S" transform="matrix(1,0,0,1,407.4643817733111,552.3957043745493) translate(114.05000000000001 33.6)"/><use xlink:href="#s" transform="matrix(1,0,0,1,407.4643817733111,552.3957043745493) translate(220.85000000000002 33.6)"/><use xlink:href="#A" transform="matrix(1,0,0,1,407.4643817733111,552.3957043745493) translate(245.85000000000002 33.6)"/></g><path d="M887.95 802.62h74.14a12 12 0 0 1 12 12V820a12 12 0 0 1-12 12h-58.27" stroke="#333" fill="none"/><path d="M887.96 802.15v.95h-.5v-.95z" stroke="#333" stroke-width=".05" fill="#333"/><path d="M889.07 832l14.26-4.63v9.26z" stroke="#333" fill="#333"/><g><use xlink:href="#T" transform="matrix(1,0,0,1,887.4933104419962,778.5619508689466) translate(0.0049999999999954525 14.4)"/><use xlink:href="#U" transform="matrix(1,0,0,1,887.4933104419962,778.5619508689466) translate(76.855 14.4)"/><use xlink:href="#C" transform="matrix(1,0,0,1,887.4933104419962,778.5619508689466) translate(146.70499999999998 14.4)"/><use xlink:href="#V" transform="matrix(1,0,0,1,887.4933104419962,778.5619508689466) translate(171.70499999999998 14.4)"/></g><defs><path fill="#333" d="M199 0l-22-63H83L61 0H9l90-248h61L250 0h-51zm-33-102l-36-108c-10 38-24 72-36 108h72" id="W"/><path fill="#333" d="M135-194c53 0 70 44 70 98 0 56-19 98-73 100-31 1-45-17-59-34 3 33 2 69 2 105H25l-1-265h48c2 10 0 23 3 31 11-24 29-35 60-35zM114-30c33 0 39-31 40-66 0-38-9-64-40-64-56 0-55 130 0 130" id="X"/><path fill="#333" d="M25 0v-261h50V0H25" id="Y"/><path fill="#333" d="M25-224v-37h50v37H25zM25 0v-190h50V0H25" id="Z"/><path fill="#333" d="M190-63c-7 42-38 67-86 67-59 0-84-38-90-98-12-110 154-137 174-36l-49 2c-2-19-15-32-35-32-30 0-35 28-38 64-6 74 65 87 74 30" id="aa"/><path fill="#333" d="M133-34C117-15 103 5 69 4 32 3 11-16 11-54c-1-60 55-63 116-61 1-26-3-47-28-47-18 1-26 9-28 27l-52-2c7-38 36-58 82-57s74 22 75 68l1 82c-1 14 12 18 25 15v27c-30 8-71 5-69-32zm-48 3c29 0 43-24 42-57-32 0-66-3-65 30 0 17 8 27 23 27" id="ab"/><path fill="#333" d="M110-194c64 0 96 36 96 99 0 64-35 99-97 99-61 0-95-36-95-99 0-62 34-99 96-99zm-1 164c35 0 45-28 45-65 0-40-10-65-43-65-34 0-45 26-45 65 0 36 10 65 43 65" id="ac"/><path fill="#333" d="M135-194c87-1 58 113 63 194h-50c-7-57 23-157-34-157-59 0-34 97-39 157H25l-1-190h47c2 12-1 28 3 38 12-26 28-41 61-42" id="ad"/><g id="a"><use transform="matrix(0.05286051576753077,0,0,0.05286051576753077,0,0)" xlink:href="#W"/><use transform="matrix(0.05286051576753077,0,0,0.05286051576753077,13.69087358379047,0)" xlink:href="#X"/><use transform="matrix(0.05286051576753077,0,0,0.05286051576753077,25.267326536879708,0)" xlink:href="#Y"/><use transform="matrix(0.05286051576753077,0,0,0.05286051576753077,30.553378113632785,0)" xlink:href="#Z"/><use transform="matrix(0.05286051576753077,0,0,0.05286051576753077,35.83942969038586,0)" xlink:href="#aa"/><use transform="matrix(0.05286051576753077,0,0,0.05286051576753077,46.41153284389202,0)" xlink:href="#ab"/><use transform="matrix(0.05286051576753077,0,0,0.05286051576753077,56.983635997398174,0)" xlink:href="#aa"/><use transform="matrix(0.05286051576753077,0,0,0.05286051576753077,67.55573915090433,0)" xlink:href="#Z"/><use transform="matrix(0.05286051576753077,0,0,0.05286051576753077,72.84179072765741,0)" xlink:href="#ac"/><use transform="matrix(0.05286051576753077,0,0,0.05286051576753077,84.41824368074666,0)" xlink:href="#ad"/></g><path fill="#333" d="M169-182c-1-43-94-46-97-3 18 66 151 10 154 114 3 95-165 93-204 36-6-8-10-19-12-30l50-8c3 46 112 56 116 5-17-69-150-10-154-114-4-87 153-88 188-35 5 8 8 18 10 28" id="ae"/><path fill="#333" d="M135-150c-39-12-60 13-60 57V0H25l-1-190h47c2 13-1 29 3 40 6-28 27-53 61-41v41" id="af"/><path fill="#333" d="M115-3C79 11 28 4 28-45v-112H4v-33h27l15-45h31v45h36v33H77v99c-1 23 16 31 38 25v30" id="ag"/><path fill="#333" d="M185-48c-13 30-37 53-82 52C43 2 14-33 14-96s30-98 90-98c62 0 83 45 84 108H66c0 31 8 55 39 56 18 0 30-7 34-22zm-45-69c5-46-57-63-70-21-2 6-4 13-4 21h74" id="ah"/><g id="b"><use transform="matrix(0.05286051576753077,0,0,0.05286051576753077,0,0)" xlink:href="#ae"/><use transform="matrix(0.05286051576753077,0,0,0.05286051576753077,12.686523784207385,0)" xlink:href="#ac"/><use transform="matrix(0.05286051576753077,0,0,0.05286051576753077,24.262976737296626,0)" xlink:href="#X"/><use transform="matrix(0.05286051576753077,0,0,0.05286051576753077,35.83942969038586,0)" xlink:href="#ac"/><use transform="matrix(0.05286051576753077,0,0,0.05286051576753077,47.4158826434751,0)" xlink:href="#af"/><use transform="matrix(0.05286051576753077,0,0,0.05286051576753077,54.81635485092941,0)" xlink:href="#ag"/><use transform="matrix(0.05286051576753077,0,0,0.05286051576753077,61.10675622726557,0)" xlink:href="#ah"/></g><path fill="#b2b2b2" d="M24-248c120-7 223 5 221 122C244-46 201 0 124 0H24v-248zM76-40c74 7 117-18 117-86 0-67-45-88-117-82v168" id="ai"/><path fill="#b2b2b2" d="M25-224v-37h50v37H25zM25 0v-190h50V0H25" id="aj"/><path fill="#b2b2b2" d="M133-34C117-15 103 5 69 4 32 3 11-16 11-54c-1-60 55-63 116-61 1-26-3-47-28-47-18 1-26 9-28 27l-52-2c7-38 36-58 82-57s74 22 75 68l1 82c-1 14 12 18 25 15v27c-30 8-71 5-69-32zm-48 3c29 0 43-24 42-57-32 0-66-3-65 30 0 17 8 27 23 27" id="ak"/><path fill="#b2b2b2" d="M195-6C206 82 75 100 31 46c-4-6-6-13-8-21l49-6c3 16 16 24 34 25 40 0 42-37 40-79-11 22-30 35-61 35-53 0-70-43-70-97 0-56 18-96 73-97 30 0 46 14 59 34l2-30h47zm-90-29c32 0 41-27 41-63 0-35-9-62-40-62-32 0-39 29-40 63 0 36 9 62 39 62" id="al"/><path fill="#b2b2b2" d="M135-150c-39-12-60 13-60 57V0H25l-1-190h47c2 13-1 29 3 40 6-28 27-53 61-41v41" id="am"/><path fill="#b2b2b2" d="M220-157c-53 9-28 100-34 157h-49v-107c1-27-5-49-29-50C55-147 81-57 75 0H25l-1-190h47c2 12-1 28 3 38 10-53 101-56 108 0 13-22 24-43 59-42 82 1 51 116 57 194h-49v-107c-1-25-5-48-29-50" id="an"/><g id="c"><use transform="matrix(0.07929077365129616,0,0,0.07929077365129616,0,0)" xlink:href="#ai"/><use transform="matrix(0.07929077365129616,0,0,0.07929077365129616,20.536310375685705,0)" xlink:href="#aj"/><use transform="matrix(0.07929077365129616,0,0,0.07929077365129616,28.465387740815324,0)" xlink:href="#ak"/><use transform="matrix(0.07929077365129616,0,0,0.07929077365129616,44.32354247107455,0)" xlink:href="#al"/><use transform="matrix(0.07929077365129616,0,0,0.07929077365129616,61.68822190070841,0)" xlink:href="#am"/><use transform="matrix(0.07929077365129616,0,0,0.07929077365129616,72.78893021188989,0)" xlink:href="#ak"/><use transform="matrix(0.07929077365129616,0,0,0.07929077365129616,88.6470849421491,0)" xlink:href="#an"/><use transform="matrix(0.07929077365129616,0,0,0.07929077365129616,114.0201325105639,0)" xlink:href="#ak"/></g><path fill="#b2b2b2" d="M88-194c31-1 46 15 58 34l-1-101h50l1 261h-48c-2-10 0-23-3-31C134-8 116 4 84 4 32 4 16-41 15-95c0-56 19-97 73-99zm17 164c33 0 40-30 41-66 1-37-9-64-41-64s-38 30-39 65c0 43 13 65 39 65" id="ao"/><path fill="#b2b2b2" d="M185-48c-13 30-37 53-82 52C43 2 14-33 14-96s30-98 90-98c62 0 83 45 84 108H66c0 31 8 55 39 56 18 0 30-7 34-22zm-45-69c5-46-57-63-70-21-2 6-4 13-4 21h74" id="ap"/><g id="d"><use transform="matrix(0.07929077365129616,0,0,0.07929077365129616,0,0)" xlink:href="#ao"/><use transform="matrix(0.07929077365129616,0,0,0.07929077365129616,17.36467942963386,0)" xlink:href="#ap"/></g><path fill="#b2b2b2" d="M137-138c1-29-70-34-71-4 15 46 118 7 119 86 1 83-164 76-172 9l43-7c4 19 20 25 44 25 33 8 57-30 24-41C81-84 22-81 20-136c-2-80 154-74 161-7" id="aq"/><path fill="#b2b2b2" d="M190-63c-7 42-38 67-86 67-59 0-84-38-90-98-12-110 154-137 174-36l-49 2c-2-19-15-32-35-32-30 0-35 28-38 64-6 74 65 87 74 30" id="ar"/><path fill="#b2b2b2" d="M85 4C-2 5 27-109 22-190h50c7 57-23 150 33 157 60-5 35-97 40-157h50l1 190h-47c-2-12 1-28-3-38-12 25-28 42-61 42" id="as"/><path fill="#b2b2b2" d="M135-194c87-1 58 113 63 194h-50c-7-57 23-157-34-157-59 0-34 97-39 157H25l-1-190h47c2 12-1 28 3 38 12-26 28-41 61-42" id="at"/><g id="e"><use transform="matrix(0.07929077365129616,0,0,0.07929077365129616,0,0)" xlink:href="#aq"/><use transform="matrix(0.07929077365129616,0,0,0.07929077365129616,15.858154730259233,0)" xlink:href="#ap"/><use transform="matrix(0.07929077365129616,0,0,0.07929077365129616,31.716309460518467,0)" xlink:href="#ar"/><use transform="matrix(0.07929077365129616,0,0,0.07929077365129616,47.57446419077771,0)" xlink:href="#as"/><use transform="matrix(0.07929077365129616,0,0,0.07929077365129616,64.93914362041156,0)" xlink:href="#ap"/><use transform="matrix(0.07929077365129616,0,0,0.07929077365129616,80.79729835067079,0)" xlink:href="#at"/><use transform="matrix(0.07929077365129616,0,0,0.07929077365129616,98.16197778030465,0)" xlink:href="#ar"/><use transform="matrix(0.07929077365129616,0,0,0.07929077365129616,114.02013251056388,0)" xlink:href="#aj"/><use transform="matrix(0.07929077365129616,0,0,0.07929077365129616,121.9492098756935,0)" xlink:href="#ak"/></g><path fill="#b2b2b2" d="M135-194c52 0 70 43 70 98 0 56-19 99-73 100-30 1-46-15-58-35L72 0H24l1-261h50v104c11-23 29-37 60-37zM114-30c31 0 40-27 40-66 0-37-7-63-39-63s-41 28-41 65c0 36 8 64 40 64" id="au"/><path fill="#b2b2b2" d="M132-34C116-15 102 5 68 4 31 3 10-16 10-54c-1-60 55-63 116-61 1-26-3-47-28-47-18 1-26 9-28 27l-52-2c7-38 36-58 82-57s74 22 75 68l1 82c-1 14 12 18 25 15v27c-30 8-71 5-69-32zm-48 3c29 0 43-24 42-57-32 0-66-3-65 30 0 17 8 27 23 27zM66-208v-5l45-51h45v8l-60 48H66" id="av"/><path fill="#b2b2b2" d="M110-194c64 0 96 36 96 99 0 64-35 99-97 99-61 0-95-36-95-99 0-62 34-99 96-99zm-1 164c35 0 45-28 45-65 0-40-10-65-43-65-34 0-45 26-45 65 0 36 10 65 43 65" id="aw"/><g id="f"><use transform="matrix(0.07929077365129616,0,0,0.07929077365129616,0,0)" xlink:href="#au"/><use transform="matrix(0.07929077365129616,0,0,0.07929077365129616,17.36467942963386,0)" xlink:href="#av"/><use transform="matrix(0.07929077365129616,0,0,0.07929077365129616,33.2228341598931,0)" xlink:href="#aq"/><use transform="matrix(0.07929077365129616,0,0,0.07929077365129616,49.08098889015233,0)" xlink:href="#aj"/><use transform="matrix(0.07929077365129616,0,0,0.07929077365129616,57.01006625528194,0)" xlink:href="#ar"/><use transform="matrix(0.07929077365129616,0,0,0.07929077365129616,72.86822098554117,0)" xlink:href="#aw"/></g><path fill="#b2b2b2" d="M182-182c0 78-84 86-111 141h115V0H12c-6-101 99-100 120-180 1-22-12-31-33-32-23 0-32 14-35 34l-49-3c5-45 32-70 84-70 51 0 83 22 83 69" id="ax"/><use transform="matrix(0.07929077365129616,0,0,0.07929077365129616,0,0)" xlink:href="#ax" id="g"/><path fill="#b2b2b2" d="M185-189c-5-48-123-54-124 2 14 75 158 14 163 119 3 78-121 87-175 55-17-10-28-26-33-46l33-7c5 56 141 63 141-1 0-78-155-14-162-118-5-82 145-84 179-34 5 7 8 16 11 25" id="ay"/><path fill="#b2b2b2" d="M141-36C126-15 110 5 73 4 37 3 15-17 15-53c-1-64 63-63 125-63 3-35-9-54-41-54-24 1-41 7-42 31l-33-3c5-37 33-52 76-52 45 0 72 20 72 64v82c-1 20 7 32 28 27v20c-31 9-61-2-59-35zM48-53c0 20 12 33 32 33 41-3 63-29 60-74-43 2-92-5-92 41" id="az"/><path fill="#b2b2b2" d="M117-194c89-4 53 116 60 194h-32v-121c0-31-8-49-39-48C34-167 62-67 57 0H25l-1-190h30c1 10-1 24 2 32 11-22 29-35 61-36" id="aA"/><path fill="#b2b2b2" d="M59-47c-2 24 18 29 38 22v24C64 9 27 4 27-40v-127H5v-23h24l9-43h21v43h35v23H59v120" id="aB"/><path fill="#b2b2b2" d="M24-231v-30h32v30H24zM24 0v-190h32V0H24" id="aC"/><path fill="#b2b2b2" d="M177-190C167-65 218 103 67 71c-23-6-38-20-44-43l32-5c15 47 100 32 89-28v-30C133-14 115 1 83 1 29 1 15-40 15-95c0-56 16-97 71-98 29-1 48 16 59 35 1-10 0-23 2-32h30zM94-22c36 0 50-32 50-73 0-42-14-75-50-75-39 0-46 34-46 75s6 73 46 73" id="aD"/><path fill="#b2b2b2" d="M100-194c62-1 85 37 85 99 1 63-27 99-86 99S16-35 15-95c0-66 28-99 85-99zM99-20c44 1 53-31 53-75 0-43-8-75-51-75s-53 32-53 75 10 74 51 75" id="aE"/><g id="h"><use transform="matrix(0.046252951296589434,0,0,0.046252951296589434,0,0)" xlink:href="#ay"/><use transform="matrix(0.046252951296589434,0,0,0.046252951296589434,11.100708311181464,0)" xlink:href="#az"/><use transform="matrix(0.046252951296589434,0,0,0.046252951296589434,20.351298570499353,0)" xlink:href="#aA"/><use transform="matrix(0.046252951296589434,0,0,0.046252951296589434,29.60188882981724,0)" xlink:href="#aB"/><use transform="matrix(0.046252951296589434,0,0,0.046252951296589434,34.227183959476186,0)" xlink:href="#aC"/><use transform="matrix(0.046252951296589434,0,0,0.046252951296589434,37.88116711190675,0)" xlink:href="#az"/><use transform="matrix(0.046252951296589434,0,0,0.046252951296589434,47.13175737122464,0)" xlink:href="#aD"/><use transform="matrix(0.046252951296589434,0,0,0.046252951296589434,56.38234763054253,0)" xlink:href="#aE"/></g><path fill="#b2b2b2" d="M30-248c118-7 216 8 213 122C240-48 200 0 122 0H30v-248zM63-27c89 8 146-16 146-99s-60-101-146-95v194" id="aF"/><path fill="#b2b2b2" d="M84 4C-5 8 30-112 23-190h32v120c0 31 7 50 39 49 72-2 45-101 50-169h31l1 190h-30c-1-10 1-25-2-33-11 22-28 36-60 37" id="aG"/><path fill="#b2b2b2" d="M114-163C36-179 61-72 57 0H25l-1-190h30c1 12-1 29 2 39 6-27 23-49 58-41v29" id="aH"/><path fill="#b2b2b2" d="M141-36C126-15 110 5 73 4 37 3 15-17 15-53c-1-64 63-63 125-63 3-35-9-54-41-54-24 1-41 7-42 31l-33-3c5-37 33-52 76-52 45 0 72 20 72 64v82c-1 20 7 32 28 27v20c-31 9-61-2-59-35zM48-53c0 20 12 33 32 33 41-3 63-29 60-74-43 2-92-5-92 41zm25-158c8-23 27-35 38-54h36v5l-58 49H73" id="aI"/><g id="i"><use transform="matrix(0.046252951296589434,0,0,0.046252951296589434,0,0)" xlink:href="#aF"/><use transform="matrix(0.046252951296589434,0,0,0.046252951296589434,11.979514385816664,0)" xlink:href="#aG"/><use transform="matrix(0.046252951296589434,0,0,0.046252951296589434,21.230104645134553,0)" xlink:href="#aH"/><use transform="matrix(0.046252951296589434,0,0,0.046252951296589434,26.734205849428697,0)" xlink:href="#aI"/><use transform="matrix(0.046252951296589434,0,0,0.046252951296589434,35.984796108746586,0)" xlink:href="#aA"/></g><path fill="#b2b2b2" d="M32 76v-337h29V76H32" id="aJ"/><use transform="matrix(0.046252951296589434,0,0,0.046252951296589434,0,0)" xlink:href="#aJ" id="j"/><path fill="#b2b2b2" d="M240 0l2-218c-23 76-54 145-80 218h-23L58-218 59 0H30v-248h44l77 211c21-75 51-140 76-211h43V0h-30" id="aK"/><path fill="#b2b2b2" d="M179-190L93 31C79 59 56 82 12 73V49c39 6 53-20 64-50L1-190h34L92-34l54-156h33" id="aL"/><g id="k"><use transform="matrix(0.046252951296589434,0,0,0.046252951296589434,0,0)" xlink:href="#aK"/><use transform="matrix(0.046252951296589434,0,0,0.046252951296589434,13.82963243768024,0)" xlink:href="#az"/><use transform="matrix(0.046252951296589434,0,0,0.046252951296589434,23.080222696998128,0)" xlink:href="#aL"/></g><path fill="#b2b2b2" d="M101-251c82-7 93 87 43 132L82-64C71-53 59-42 53-27h129V0H18c2-99 128-94 128-182 0-28-16-43-45-43s-46 15-49 41l-32-3c6-41 34-60 81-64" id="aM"/><path fill="#b2b2b2" d="M134-131c28 9 52 24 51 62-1 50-34 73-85 73S17-19 16-69c0-36 21-54 49-61-75-25-45-126 34-121 46 3 78 18 79 63 0 33-17 51-44 57zm-34-11c31 1 46-15 46-44 0-28-17-43-47-42-29 0-46 13-45 42 1 28 16 44 46 44zm1 122c35 0 51-18 51-52 0-30-18-46-53-46-33 0-51 17-51 47 0 34 19 51 53 51" id="aN"/><path fill="#b2b2b2" d="M68-38c1 34 0 65-14 84H32c9-13 17-26 17-46H33v-38h35" id="aO"/><g id="l"><use transform="matrix(0.046252951296589434,0,0,0.046252951296589434,0,0)" xlink:href="#aM"/><use transform="matrix(0.046252951296589434,0,0,0.046252951296589434,9.250590259317887,0)" xlink:href="#aN"/><use transform="matrix(0.046252951296589434,0,0,0.046252951296589434,18.501180518635774,0)" xlink:href="#aO"/></g><path fill="#b2b2b2" d="M101-251c68 0 85 55 85 127S166 4 100 4C33 4 14-52 14-124c0-73 17-127 87-127zm-1 229c47 0 54-49 54-102s-4-102-53-102c-51 0-55 48-55 102 0 53 5 102 54 102" id="aP"/><path fill="#b2b2b2" d="M155-56V0h-30v-56H8v-25l114-167h33v167h35v25h-35zm-30-156c-27 46-58 90-88 131h88v-131" id="aQ"/><g id="m"><use transform="matrix(0.046252951296589434,0,0,0.046252951296589434,0,0)" xlink:href="#aM"/><use transform="matrix(0.046252951296589434,0,0,0.046252951296589434,9.250590259317887,0)" xlink:href="#aP"/><use transform="matrix(0.046252951296589434,0,0,0.046252951296589434,18.501180518635774,0)" xlink:href="#aM"/><use transform="matrix(0.046252951296589434,0,0,0.046252951296589434,27.75177077795366,0)" xlink:href="#aQ"/></g><path fill="#333" d="M212-179c-10-28-35-45-73-45-59 0-87 40-87 99 0 60 29 101 89 101 43 0 62-24 78-52l27 14C228-24 195 4 139 4 59 4 22-46 18-125c-6-104 99-153 187-111 19 9 31 26 39 46" id="aR"/><path fill="#333" d="M24 0v-261h32V0H24" id="aS"/><path fill="#333" d="M24-231v-30h32v30H24zM24 0v-190h32V0H24" id="aT"/><path fill="#333" d="M100-194c63 0 86 42 84 106H49c0 40 14 67 53 68 26 1 43-12 49-29l28 8c-11 28-37 45-77 45C44 4 14-33 15-96c1-61 26-98 85-98zm52 81c6-60-76-77-97-28-3 7-6 17-6 28h103" id="aU"/><path fill="#333" d="M117-194c89-4 53 116 60 194h-32v-121c0-31-8-49-39-48C34-167 62-67 57 0H25l-1-190h30c1 10-1 24 2 32 11-22 29-35 61-36" id="aV"/><path fill="#333" d="M59-47c-2 24 18 29 38 22v24C64 9 27 4 27-40v-127H5v-23h24l9-43h21v43h35v23H59v120" id="aW"/><g id="n"><use transform="matrix(0.05,0,0,0.05,0,0)" xlink:href="#aR"/><use transform="matrix(0.05,0,0,0.05,12.950000000000001,0)" xlink:href="#aS"/><use transform="matrix(0.05,0,0,0.05,16.900000000000002,0)" xlink:href="#aT"/><use transform="matrix(0.05,0,0,0.05,20.85,0)" xlink:href="#aU"/><use transform="matrix(0.05,0,0,0.05,30.85,0)" xlink:href="#aV"/><use transform="matrix(0.05,0,0,0.05,40.85,0)" xlink:href="#aW"/><use transform="matrix(0.05,0,0,0.05,45.85,0)" xlink:href="#aU"/></g><path fill="#333" d="M205 0l-28-72H64L36 0H1l101-248h38L239 0h-34zm-38-99l-47-123c-12 45-31 82-46 123h93" id="aX"/><path fill="#333" d="M96-169c-40 0-48 33-48 73s9 75 48 75c24 0 41-14 43-38l32 2c-6 37-31 61-74 61-59 0-76-41-82-99-10-93 101-131 147-64 4 7 5 14 7 22l-32 3c-4-21-16-35-41-35" id="aY"/><path fill="#333" d="M85-194c31 0 48 13 60 33l-1-100h32l1 261h-30c-2-10 0-23-3-31C134-8 116 4 85 4 32 4 16-35 15-94c0-66 23-100 70-100zm9 24c-40 0-46 34-46 75 0 40 6 74 45 74 42 0 51-32 51-76 0-42-9-74-50-73" id="aZ"/><path fill="#333" d="M114-163C36-179 61-72 57 0H25l-1-190h30c1 12-1 29 2 39 6-27 23-49 58-41v29" id="ba"/><g id="o"><use transform="matrix(0.05,0,0,0.05,0,0)" xlink:href="#aX"/><use transform="matrix(0.05,0,0,0.05,12,0)" xlink:href="#aY"/><use transform="matrix(0.05,0,0,0.05,21,0)" xlink:href="#aY"/><use transform="matrix(0.05,0,0,0.05,30,0)" xlink:href="#aU"/><use transform="matrix(0.05,0,0,0.05,40,0)" xlink:href="#aZ"/><use transform="matrix(0.05,0,0,0.05,50,0)" xlink:href="#aU"/><use transform="matrix(0.05,0,0,0.05,60,0)" xlink:href="#ba"/></g><path fill="#333" d="M141-36C126-15 110 5 73 4 37 3 15-17 15-53c-1-64 63-63 125-63 3-35-9-54-41-54-24 1-41 7-42 31l-33-3c5-37 33-52 76-52 45 0 72 20 72 64v82c-1 20 7 32 28 27v20c-31 9-61-2-59-35zM48-53c0 20 12 33 32 33 41-3 63-29 60-74-43 2-92-5-92 41" id="bb"/><use transform="matrix(0.05,0,0,0.05,0,0)" xlink:href="#bb" id="p"/><g id="q"><use transform="matrix(0.05,0,0,0.05,0,0)" xlink:href="#aS"/><use transform="matrix(0.05,0,0,0.05,3.95,0)" xlink:href="#bb"/></g><path fill="#333" d="M100-194c62-1 85 37 85 99 1 63-27 99-86 99S16-35 15-95c0-66 28-99 85-99zM99-20c44 1 53-31 53-75 0-43-8-75-51-75s-53 32-53 75 10 74 51 75" id="bc"/><path fill="#333" d="M115-194c55 1 70 41 70 98S169 2 115 4C84 4 66-9 55-30l1 105H24l-1-265h31l2 30c10-21 28-34 59-34zm-8 174c40 0 45-34 45-75s-6-73-45-74c-42 0-51 32-51 76 0 43 10 73 51 73" id="bd"/><g id="r"><use transform="matrix(0.05,0,0,0.05,0,0)" xlink:href="#bc"/><use transform="matrix(0.05,0,0,0.05,10,0)" xlink:href="#bd"/><use transform="matrix(0.05,0,0,0.05,20,0)" xlink:href="#aY"/><use transform="matrix(0.05,0,0,0.05,29,0)" xlink:href="#aT"/><use transform="matrix(0.05,0,0,0.05,32.95,0)" xlink:href="#bc"/><use transform="matrix(0.05,0,0,0.05,42.95,0)" xlink:href="#aV"/></g><g id="s"><use transform="matrix(0.05,0,0,0.05,0,0)" xlink:href="#aZ"/><use transform="matrix(0.05,0,0,0.05,10,0)" xlink:href="#aU"/></g><g id="t"><use transform="matrix(0.05,0,0,0.05,0,0)" xlink:href="#aY"/><use transform="matrix(0.05,0,0,0.05,9,0)" xlink:href="#bb"/><use transform="matrix(0.05,0,0,0.05,19,0)" xlink:href="#aV"/><use transform="matrix(0.05,0,0,0.05,29,0)" xlink:href="#aY"/><use transform="matrix(0.05,0,0,0.05,38,0)" xlink:href="#aU"/><use transform="matrix(0.05,0,0,0.05,48,0)" xlink:href="#aS"/><use transform="matrix(0.05,0,0,0.05,51.95,0)" xlink:href="#bb"/><use transform="matrix(0.05,0,0,0.05,61.95,0)" xlink:href="#ba"/></g><path fill="#333" d="M84 4C-5 8 30-112 23-190h32v120c0 31 7 50 39 49 72-2 45-101 50-169h31l1 190h-30c-1-10 1-25-2-33-11 22-28 36-60 37" id="be"/><g id="u"><use transform="matrix(0.05,0,0,0.05,0,0)" xlink:href="#be"/><use transform="matrix(0.05,0,0,0.05,10,0)" xlink:href="#aV"/></g><path fill="#333" d="M145-31C134-9 116 4 85 4 32 4 16-35 15-94c0-59 17-99 70-100 32-1 48 14 60 33 0-11-1-24 2-32h30l-1 268h-32zM93-21c41 0 51-33 51-76s-8-73-50-73c-40 0-46 35-46 75s5 74 45 74" id="bf"/><g id="v"><use transform="matrix(0.05,0,0,0.05,0,0)" xlink:href="#bd"/><use transform="matrix(0.05,0,0,0.05,10,0)" xlink:href="#bb"/><use transform="matrix(0.05,0,0,0.05,20,0)" xlink:href="#bf"/><use transform="matrix(0.05,0,0,0.05,30,0)" xlink:href="#be"/><use transform="matrix(0.05,0,0,0.05,40,0)" xlink:href="#aU"/><use transform="matrix(0.05,0,0,0.05,50,0)" xlink:href="#aW"/><use transform="matrix(0.05,0,0,0.05,55,0)" xlink:href="#aU"/></g><path fill="#333" d="M185-189c-5-48-123-54-124 2 14 75 158 14 163 119 3 78-121 87-175 55-17-10-28-26-33-46l33-7c5 56 141 63 141-1 0-78-155-14-162-118-5-82 145-84 179-34 5 7 8 16 11 25" id="bg"/><g id="w"><use transform="matrix(0.05,0,0,0.05,0,0)" xlink:href="#bg"/><use transform="matrix(0.05,0,0,0.05,12,0)" xlink:href="#aU"/><use transform="matrix(0.05,0,0,0.05,22,0)" xlink:href="#aS"/><use transform="matrix(0.05,0,0,0.05,25.950000000000003,0)" xlink:href="#aU"/><use transform="matrix(0.05,0,0,0.05,35.95,0)" xlink:href="#aY"/><use transform="matrix(0.05,0,0,0.05,44.95,0)" xlink:href="#aY"/><use transform="matrix(0.05,0,0,0.05,53.95,0)" xlink:href="#aT"/><use transform="matrix(0.05,0,0,0.05,57.900000000000006,0)" xlink:href="#bc"/><use transform="matrix(0.05,0,0,0.05,67.9,0)" xlink:href="#aV"/><use transform="matrix(0.05,0,0,0.05,77.9,0)" xlink:href="#bb"/><use transform="matrix(0.05,0,0,0.05,87.9,0)" xlink:href="#ba"/></g><path fill="#333" d="M135-143c-3-34-86-38-87 0 15 53 115 12 119 90S17 21 10-45l28-5c4 36 97 45 98 0-10-56-113-15-118-90-4-57 82-63 122-42 12 7 21 19 24 35" id="bh"/><g id="x"><use transform="matrix(0.05,0,0,0.05,0,0)" xlink:href="#bh"/><use transform="matrix(0.05,0,0,0.05,9,0)" xlink:href="#bc"/><use transform="matrix(0.05,0,0,0.05,19,0)" xlink:href="#aS"/><use transform="matrix(0.05,0,0,0.05,22.95,0)" xlink:href="#aT"/><use transform="matrix(0.05,0,0,0.05,26.899999999999995,0)" xlink:href="#aY"/><use transform="matrix(0.05,0,0,0.05,35.9,0)" xlink:href="#aT"/><use transform="matrix(0.05,0,0,0.05,39.85,0)" xlink:href="#aW"/><use transform="matrix(0.05,0,0,0.05,44.85,0)" xlink:href="#be"/><use transform="matrix(0.05,0,0,0.05,54.85,0)" xlink:href="#aZ"/></g><g id="y"><use transform="matrix(0.05,0,0,0.05,0,0)" xlink:href="#aY"/><use transform="matrix(0.05,0,0,0.05,9,0)" xlink:href="#bb"/><use transform="matrix(0.05,0,0,0.05,19,0)" xlink:href="#aV"/><use transform="matrix(0.05,0,0,0.05,29,0)" xlink:href="#aY"/><use transform="matrix(0.05,0,0,0.05,38,0)" xlink:href="#aU"/><use transform="matrix(0.05,0,0,0.05,48,0)" xlink:href="#aS"/><use transform="matrix(0.05,0,0,0.05,51.95,0)" xlink:href="#bb"/><use transform="matrix(0.05,0,0,0.05,61.95,0)" xlink:href="#ba"/></g><path fill="#333" d="M101-234c-31-9-42 10-38 44h38v23H63V0H32v-167H5v-23h27c-7-52 17-82 69-68v24" id="bi"/><path fill="#333" d="M210-169c-67 3-38 105-44 169h-31v-121c0-29-5-50-35-48C34-165 62-65 56 0H25l-1-190h30c1 10-1 24 2 32 10-44 99-50 107 0 11-21 27-35 58-36 85-2 47 119 55 194h-31v-121c0-29-5-49-35-48" id="bj"/><g id="z"><use transform="matrix(0.05,0,0,0.05,0,0)" xlink:href="#aR"/><use transform="matrix(0.05,0,0,0.05,12.950000000000001,0)" xlink:href="#bc"/><use transform="matrix(0.05,0,0,0.05,22.950000000000003,0)" xlink:href="#aV"/><use transform="matrix(0.05,0,0,0.05,32.95,0)" xlink:href="#bi"/><use transform="matrix(0.05,0,0,0.05,37.95,0)" xlink:href="#aT"/><use transform="matrix(0.05,0,0,0.05,41.900000000000006,0)" xlink:href="#ba"/><use transform="matrix(0.05,0,0,0.05,47.85000000000001,0)" xlink:href="#bj"/><use transform="matrix(0.05,0,0,0.05,62.80000000000001,0)" xlink:href="#bb"/><use transform="matrix(0.05,0,0,0.05,72.80000000000001,0)" xlink:href="#ba"/></g><g id="A"><use transform="matrix(0.05,0,0,0.05,0,0)" xlink:href="#aY"/><use transform="matrix(0.05,0,0,0.05,9,0)" xlink:href="#bb"/><use transform="matrix(0.05,0,0,0.05,19,0)" xlink:href="#aV"/><use transform="matrix(0.05,0,0,0.05,29,0)" xlink:href="#aY"/><use transform="matrix(0.05,0,0,0.05,38,0)" xlink:href="#aU"/><use transform="matrix(0.05,0,0,0.05,48,0)" xlink:href="#aS"/><use transform="matrix(0.05,0,0,0.05,51.95,0)" xlink:href="#bb"/><use transform="matrix(0.05,0,0,0.05,61.95,0)" xlink:href="#aY"/><use transform="matrix(0.05,0,0,0.05,70.95,0)" xlink:href="#aT"/><use transform="matrix(0.05,0,0,0.05,74.9,0)" xlink:href="#bc"/><use transform="matrix(0.05,0,0,0.05,84.9,0)" xlink:href="#aV"/></g><path fill="#333" d="M26 75v-336h71v23H56V52h41v23H26" id="bk"/><g id="B"><use transform="matrix(0.05,0,0,0.05,0,0)" xlink:href="#bk"/><use transform="matrix(0.05,0,0,0.05,5,0)" xlink:href="#aR"/><use transform="matrix(0.05,0,0,0.05,17.950000000000003,0)" xlink:href="#bc"/><use transform="matrix(0.05,0,0,0.05,27.950000000000003,0)" xlink:href="#aV"/><use transform="matrix(0.05,0,0,0.05,37.95,0)" xlink:href="#bi"/><use transform="matrix(0.05,0,0,0.05,42.95,0)" xlink:href="#aT"/><use transform="matrix(0.05,0,0,0.05,46.900000000000006,0)" xlink:href="#ba"/><use transform="matrix(0.05,0,0,0.05,52.85,0)" xlink:href="#bj"/><use transform="matrix(0.05,0,0,0.05,67.80000000000001,0)" xlink:href="#bb"/><use transform="matrix(0.05,0,0,0.05,77.80000000000001,0)" xlink:href="#aY"/><use transform="matrix(0.05,0,0,0.05,86.80000000000001,0)" xlink:href="#aT"/><use transform="matrix(0.05,0,0,0.05,90.75000000000001,0)" xlink:href="#bc"/><use transform="matrix(0.05,0,0,0.05,100.75000000000001,0)" xlink:href="#aV"/></g><g id="C"><use transform="matrix(0.05,0,0,0.05,0,0)" xlink:href="#aZ"/><use transform="matrix(0.05,0,0,0.05,10,0)" xlink:href="#aU"/></g><path fill="#333" d="M3 75V52h41v-290H3v-23h71V75H3" id="bl"/><g id="D"><use transform="matrix(0.05,0,0,0.05,0,0)" xlink:href="#aY"/><use transform="matrix(0.05,0,0,0.05,9,0)" xlink:href="#bb"/><use transform="matrix(0.05,0,0,0.05,19,0)" xlink:href="#aV"/><use transform="matrix(0.05,0,0,0.05,29,0)" xlink:href="#aY"/><use transform="matrix(0.05,0,0,0.05,38,0)" xlink:href="#aU"/><use transform="matrix(0.05,0,0,0.05,48,0)" xlink:href="#aS"/><use transform="matrix(0.05,0,0,0.05,51.95,0)" xlink:href="#bb"/><use transform="matrix(0.05,0,0,0.05,61.95,0)" xlink:href="#aY"/><use transform="matrix(0.05,0,0,0.05,70.95,0)" xlink:href="#aT"/><use transform="matrix(0.05,0,0,0.05,74.9,0)" xlink:href="#bc"/><use transform="matrix(0.05,0,0,0.05,84.9,0)" xlink:href="#aV"/><use transform="matrix(0.05,0,0,0.05,94.9,0)" xlink:href="#bl"/></g><path fill="#333" d="M190 0L58-211 59 0H30v-248h39L202-35l-2-213h31V0h-41" id="bm"/><g id="E"><use transform="matrix(0.05,0,0,0.05,0,0)" xlink:href="#bm"/><use transform="matrix(0.05,0,0,0.05,12.950000000000001,0)" xlink:href="#bc"/><use transform="matrix(0.05,0,0,0.05,22.950000000000003,0)" xlink:href="#aW"/><use transform="matrix(0.05,0,0,0.05,27.950000000000003,0)" xlink:href="#aT"/><use transform="matrix(0.05,0,0,0.05,31.900000000000002,0)" xlink:href="#bi"/><use transform="matrix(0.05,0,0,0.05,36.900000000000006,0)" xlink:href="#aT"/><use transform="matrix(0.05,0,0,0.05,40.85000000000001,0)" xlink:href="#aY"/><use transform="matrix(0.05,0,0,0.05,49.85000000000001,0)" xlink:href="#bb"/><use transform="matrix(0.05,0,0,0.05,59.85,0)" xlink:href="#aY"/><use transform="matrix(0.05,0,0,0.05,68.85000000000001,0)" xlink:href="#aT"/><use transform="matrix(0.05,0,0,0.05,72.80000000000001,0)" xlink:href="#bc"/><use transform="matrix(0.05,0,0,0.05,82.80000000000001,0)" xlink:href="#aV"/></g><g id="F"><use transform="matrix(0.05,0,0,0.05,0,0)" xlink:href="#aR"/><use transform="matrix(0.05,0,0,0.05,12.950000000000001,0)" xlink:href="#bb"/><use transform="matrix(0.05,0,0,0.05,22.950000000000003,0)" xlink:href="#aV"/><use transform="matrix(0.05,0,0,0.05,32.95,0)" xlink:href="#aY"/><use transform="matrix(0.05,0,0,0.05,41.95,0)" xlink:href="#aU"/><use transform="matrix(0.05,0,0,0.05,51.95,0)" xlink:href="#aS"/><use transform="matrix(0.05,0,0,0.05,55.900000000000006,0)" xlink:href="#bb"/><use transform="matrix(0.05,0,0,0.05,65.9,0)" xlink:href="#aY"/><use transform="matrix(0.05,0,0,0.05,74.9,0)" xlink:href="#aT"/><use transform="matrix(0.05,0,0,0.05,78.85000000000001,0)" xlink:href="#bc"/><use transform="matrix(0.05,0,0,0.05,88.85000000000001,0)" xlink:href="#aV"/></g><path fill="#333" d="M177-190C167-65 218 103 67 71c-23-6-38-20-44-43l32-5c15 47 100 32 89-28v-30C133-14 115 1 83 1 29 1 15-40 15-95c0-56 16-97 71-98 29-1 48 16 59 35 1-10 0-23 2-32h30zM94-22c36 0 50-32 50-73 0-42-14-75-50-75-39 0-46 34-46 75s6 73 46 73" id="bn"/><g id="G"><use transform="matrix(0.05,0,0,0.05,0,0)" xlink:href="#aR"/><use transform="matrix(0.05,0,0,0.05,12.950000000000001,0)" xlink:href="#bc"/><use transform="matrix(0.05,0,0,0.05,22.950000000000003,0)" xlink:href="#ba"/><use transform="matrix(0.05,0,0,0.05,28.900000000000002,0)" xlink:href="#ba"/><use transform="matrix(0.05,0,0,0.05,34.85,0)" xlink:href="#aU"/><use transform="matrix(0.05,0,0,0.05,44.85,0)" xlink:href="#bn"/><use transform="matrix(0.05,0,0,0.05,54.85,0)" xlink:href="#aT"/><use transform="matrix(0.05,0,0,0.05,58.800000000000004,0)" xlink:href="#ba"/></g><g id="H"><use transform="matrix(0.05,0,0,0.05,0,0)" xlink:href="#aT"/><use transform="matrix(0.05,0,0,0.05,3.95,0)" xlink:href="#aV"/><use transform="matrix(0.05,0,0,0.05,13.949999999999998,0)" xlink:href="#bi"/><use transform="matrix(0.05,0,0,0.05,18.95,0)" xlink:href="#bc"/><use transform="matrix(0.05,0,0,0.05,28.950000000000003,0)" xlink:href="#ba"/><use transform="matrix(0.05,0,0,0.05,34.9,0)" xlink:href="#bj"/><use transform="matrix(0.05,0,0,0.05,49.85,0)" xlink:href="#bb"/><use transform="matrix(0.05,0,0,0.05,59.85,0)" xlink:href="#aY"/><use transform="matrix(0.05,0,0,0.05,68.85,0)" xlink:href="#aT"/><use transform="matrix(0.05,0,0,0.05,72.8,0)" xlink:href="#bc"/><use transform="matrix(0.05,0,0,0.05,82.8,0)" xlink:href="#aV"/></g><g id="I"><use transform="matrix(0.05,0,0,0.05,0,0)" xlink:href="#bk"/><use transform="matrix(0.05,0,0,0.05,5,0)" xlink:href="#bm"/><use transform="matrix(0.05,0,0,0.05,17.950000000000003,0)" xlink:href="#bc"/></g><g id="J"><use transform="matrix(0.05,0,0,0.05,0,0)" xlink:href="#aY"/><use transform="matrix(0.05,0,0,0.05,9,0)" xlink:href="#bc"/><use transform="matrix(0.05,0,0,0.05,19,0)" xlink:href="#aV"/><use transform="matrix(0.05,0,0,0.05,29,0)" xlink:href="#bi"/><use transform="matrix(0.05,0,0,0.05,34,0)" xlink:href="#aT"/><use transform="matrix(0.05,0,0,0.05,37.95,0)" xlink:href="#ba"/><use transform="matrix(0.05,0,0,0.05,43.900000000000006,0)" xlink:href="#bj"/><use transform="matrix(0.05,0,0,0.05,58.85,0)" xlink:href="#bb"/><use transform="matrix(0.05,0,0,0.05,68.85000000000001,0)" xlink:href="#aY"/><use transform="matrix(0.05,0,0,0.05,77.85000000000001,0)" xlink:href="#aT"/><use transform="matrix(0.05,0,0,0.05,81.80000000000001,0)" xlink:href="#bc"/><use transform="matrix(0.05,0,0,0.05,91.80000000000001,0)" xlink:href="#aV"/></g><path fill="#333" d="M240 0l2-218c-23 76-54 145-80 218h-23L58-218 59 0H30v-248h44l77 211c21-75 51-140 76-211h43V0h-30" id="bo"/><g id="K"><use transform="matrix(0.05,0,0,0.05,0,0)" xlink:href="#bo"/><use transform="matrix(0.05,0,0,0.05,14.950000000000001,0)" xlink:href="#bb"/><use transform="matrix(0.05,0,0,0.05,24.950000000000003,0)" xlink:href="#aV"/><use transform="matrix(0.05,0,0,0.05,34.95,0)" xlink:href="#aW"/><use transform="matrix(0.05,0,0,0.05,39.95,0)" xlink:href="#aU"/><use transform="matrix(0.05,0,0,0.05,49.95,0)" xlink:href="#aV"/><use transform="matrix(0.05,0,0,0.05,59.95,0)" xlink:href="#aU"/><use transform="matrix(0.05,0,0,0.05,69.95,0)" xlink:href="#ba"/></g><path fill="#333" d="M108 0H70L1-190h34L89-25l56-165h34" id="bp"/><g id="L"><use transform="matrix(0.05,0,0,0.05,0,0)" xlink:href="#bb"/><use transform="matrix(0.05,0,0,0.05,10,0)" xlink:href="#aY"/><use transform="matrix(0.05,0,0,0.05,19,0)" xlink:href="#aW"/><use transform="matrix(0.05,0,0,0.05,24,0)" xlink:href="#aT"/><use transform="matrix(0.05,0,0,0.05,27.950000000000003,0)" xlink:href="#bp"/><use transform="matrix(0.05,0,0,0.05,36.95,0)" xlink:href="#bb"/></g><g id="M"><use transform="matrix(0.05,0,0,0.05,0,0)" xlink:href="#bo"/><use transform="matrix(0.05,0,0,0.05,14.950000000000001,0)" xlink:href="#bc"/><use transform="matrix(0.05,0,0,0.05,24.950000000000003,0)" xlink:href="#bh"/><use transform="matrix(0.05,0,0,0.05,33.95,0)" xlink:href="#aW"/><use transform="matrix(0.05,0,0,0.05,38.95,0)" xlink:href="#ba"/><use transform="matrix(0.05,0,0,0.05,44.900000000000006,0)" xlink:href="#bb"/><use transform="matrix(0.05,0,0,0.05,54.900000000000006,0)" xlink:href="#ba"/></g><g id="N"><use transform="matrix(0.05,0,0,0.05,0,0)" xlink:href="#aS"/><use transform="matrix(0.05,0,0,0.05,3.95,0)" xlink:href="#aT"/><use transform="matrix(0.05,0,0,0.05,7.9,0)" xlink:href="#bh"/><use transform="matrix(0.05,0,0,0.05,16.9,0)" xlink:href="#aW"/><use transform="matrix(0.05,0,0,0.05,21.9,0)" xlink:href="#bb"/></g><g id="O"><use transform="matrix(0.05,0,0,0.05,0,0)" xlink:href="#bh"/><use transform="matrix(0.05,0,0,0.05,9,0)" xlink:href="#bc"/><use transform="matrix(0.05,0,0,0.05,19,0)" xlink:href="#aS"/><use transform="matrix(0.05,0,0,0.05,22.95,0)" xlink:href="#aT"/><use transform="matrix(0.05,0,0,0.05,26.899999999999995,0)" xlink:href="#aY"/><use transform="matrix(0.05,0,0,0.05,35.9,0)" xlink:href="#aT"/><use transform="matrix(0.05,0,0,0.05,39.85,0)" xlink:href="#aW"/><use transform="matrix(0.05,0,0,0.05,44.85,0)" xlink:href="#be"/><use transform="matrix(0.05,0,0,0.05,54.85,0)" xlink:href="#aZ"/><use transform="matrix(0.05,0,0,0.05,64.85,0)" xlink:href="#aU"/><use transform="matrix(0.05,0,0,0.05,74.85,0)" xlink:href="#bh"/></g><g id="P"><use transform="matrix(0.05,0,0,0.05,0,0)" xlink:href="#bd"/><use transform="matrix(0.05,0,0,0.05,10,0)" xlink:href="#bb"/><use transform="matrix(0.05,0,0,0.05,20,0)" xlink:href="#bf"/><use transform="matrix(0.05,0,0,0.05,30,0)" xlink:href="#be"/><use transform="matrix(0.05,0,0,0.05,40,0)" xlink:href="#aU"/><use transform="matrix(0.05,0,0,0.05,50,0)" xlink:href="#aW"/><use transform="matrix(0.05,0,0,0.05,55,0)" xlink:href="#aU"/><use transform="matrix(0.05,0,0,0.05,65,0)" xlink:href="#bh"/></g><g id="Q"><use transform="matrix(0.05,0,0,0.05,0,0)" xlink:href="#bb"/><use transform="matrix(0.05,0,0,0.05,10,0)" xlink:href="#aY"/><use transform="matrix(0.05,0,0,0.05,19,0)" xlink:href="#aW"/><use transform="matrix(0.05,0,0,0.05,24,0)" xlink:href="#aT"/><use transform="matrix(0.05,0,0,0.05,27.950000000000003,0)" xlink:href="#bp"/><use transform="matrix(0.05,0,0,0.05,36.95,0)" xlink:href="#bb"/><use transform="matrix(0.05,0,0,0.05,46.95,0)" xlink:href="#bh"/></g><g id="R"><use transform="matrix(0.05,0,0,0.05,0,0)" xlink:href="#bg"/><use transform="matrix(0.05,0,0,0.05,12,0)" xlink:href="#bc"/><use transform="matrix(0.05,0,0,0.05,22,0)" xlink:href="#aS"/><use transform="matrix(0.05,0,0,0.05,25.950000000000003,0)" xlink:href="#aT"/><use transform="matrix(0.05,0,0,0.05,29.899999999999995,0)" xlink:href="#aY"/><use transform="matrix(0.05,0,0,0.05,38.9,0)" xlink:href="#aT"/><use transform="matrix(0.05,0,0,0.05,42.85,0)" xlink:href="#aW"/><use transform="matrix(0.05,0,0,0.05,47.85,0)" xlink:href="#bb"/><use transform="matrix(0.05,0,0,0.05,57.85,0)" xlink:href="#ba"/></g><g id="S"><use transform="matrix(0.05,0,0,0.05,0,0)" xlink:href="#aY"/><use transform="matrix(0.05,0,0,0.05,9,0)" xlink:href="#bc"/><use transform="matrix(0.05,0,0,0.05,19,0)" xlink:href="#aV"/><use transform="matrix(0.05,0,0,0.05,29,0)" xlink:href="#bi"/><use transform="matrix(0.05,0,0,0.05,34,0)" xlink:href="#aT"/><use transform="matrix(0.05,0,0,0.05,37.95,0)" xlink:href="#ba"/><use transform="matrix(0.05,0,0,0.05,43.900000000000006,0)" xlink:href="#bj"/><use transform="matrix(0.05,0,0,0.05,58.85,0)" xlink:href="#bb"/><use transform="matrix(0.05,0,0,0.05,68.85000000000001,0)" xlink:href="#aY"/><use transform="matrix(0.05,0,0,0.05,77.85000000000001,0)" xlink:href="#aT"/><use transform="matrix(0.05,0,0,0.05,81.80000000000001,0)" xlink:href="#bc"/><use transform="matrix(0.05,0,0,0.05,91.80000000000001,0)" xlink:href="#aV"/></g><g id="T"><use transform="matrix(0.05,0,0,0.05,0,0)" xlink:href="#aR"/><use transform="matrix(0.05,0,0,0.05,12.950000000000001,0)" xlink:href="#bb"/><use transform="matrix(0.05,0,0,0.05,22.950000000000003,0)" xlink:href="#aV"/><use transform="matrix(0.05,0,0,0.05,32.95,0)" xlink:href="#aY"/><use transform="matrix(0.05,0,0,0.05,41.95,0)" xlink:href="#aU"/><use transform="matrix(0.05,0,0,0.05,51.95,0)" xlink:href="#aS"/><use transform="matrix(0.05,0,0,0.05,55.900000000000006,0)" xlink:href="#bb"/><use transform="matrix(0.05,0,0,0.05,65.9,0)" xlink:href="#ba"/></g><g id="U"><use transform="matrix(0.05,0,0,0.05,0,0)" xlink:href="#bh"/><use transform="matrix(0.05,0,0,0.05,9,0)" xlink:href="#bc"/><use transform="matrix(0.05,0,0,0.05,19,0)" xlink:href="#aS"/><use transform="matrix(0.05,0,0,0.05,22.95,0)" xlink:href="#aT"/><use transform="matrix(0.05,0,0,0.05,26.899999999999995,0)" xlink:href="#aY"/><use transform="matrix(0.05,0,0,0.05,35.9,0)" xlink:href="#aT"/><use transform="matrix(0.05,0,0,0.05,39.85,0)" xlink:href="#aW"/><use transform="matrix(0.05,0,0,0.05,44.85,0)" xlink:href="#be"/><use transform="matrix(0.05,0,0,0.05,54.85,0)" xlink:href="#aZ"/></g><g id="V"><use transform="matrix(0.05,0,0,0.05,0,0)" xlink:href="#bd"/><use transform="matrix(0.05,0,0,0.05,10,0)" xlink:href="#bb"/><use transform="matrix(0.05,0,0,0.05,20,0)" xlink:href="#bf"/><use transform="matrix(0.05,0,0,0.05,30,0)" xlink:href="#be"/><use transform="matrix(0.05,0,0,0.05,40,0)" xlink:href="#aU"/><use transform="matrix(0.05,0,0,0.05,50,0)" xlink:href="#aW"/><use transform="matrix(0.05,0,0,0.05,55,0)" xlink:href="#aU"/></g></defs></g></svg>