<svg xmlns="http://www.w3.org/2000/svg" xmlns:xlink="http://www.w3.org/1999/xlink" xmlns:lucid="lucid" width="2004.85" height="1109.72"><g transform="translate(0 0)" lucid:page-tab-id="0_0"><path d="M0 0h2004.85v1109.72H0z" fill="#fff"/><path d="M1084.94 249.42c17.67 0 32 17.9 32 40s-14.33 40-32 40h-96c-17.67 0-32-17.9-32-40s14.33-40 32-40z" stroke="#000" stroke-opacity="0" fill="#ff741d"/><use xlink:href="#a" transform="matrix(1,0,0,1,961.9390733903983,254.42238802160136) translate(42.55 38.6)"/><path d="M957.42 579.67a8 8 0 0 1 8-8h144a8 8 0 0 1 8 8v104a8 8 0 0 1-8 8h-144a8 8 0 0 1-8-8z" stroke="#000" stroke-opacity="0" stroke-width="2" fill="#ff8839"/><use xlink:href="#b" transform="matrix(1,0,0,1,962.4177663709982,576.6723880216178) translate(34.075 58.6)"/><path d="M610.56 148a8 8 0 0 1 8-8h836.75a8 8 0 0 1 8 8v25.16a8 8 0 0 1-8 8H618.57a8 8 0 0 1-8-8z" stroke="#000" stroke-opacity="0" stroke-width="2" fill="#fff" fill-opacity="0"/><use xlink:href="#c" transform="matrix(1,0,0,1,614.5643191563408,144) translate(260.0637037037037 23.657777777777778)"/><use xlink:href="#d" transform="matrix(1,0,0,1,614.5643191563408,144) translate(386.6587654320988 23.657777777777778)"/><use xlink:href="#e" transform="matrix(1,0,0,1,614.5643191563408,144) translate(424.46246913580245 23.657777777777778)"/><path d="M892.2 179.8h300.53M892.24 179.8h-1.03M1192.7 179.8h1.03" stroke="#a9afb8" stroke-width="2" fill="none"/><path d="M610.56 189.16a8 8 0 0 1 8-8h837.7a8 8 0 0 1 8 8V192a8 8 0 0 1-8 8h-837.7a8 8 0 0 1-8-8z" stroke="#000" stroke-opacity="0" stroke-width="2" fill="#fff" fill-opacity="0"/><use xlink:href="#f" transform="matrix(1,0,0,1,614.5643191563413,185.1552239568988) translate(316.49533950617285 14.917037037037037)"/><use xlink:href="#g" transform="matrix(1,0,0,1,614.5643191563413,185.1552239568988) translate(381.0372119341564 14.917037037037037)"/><use xlink:href="#h" transform="matrix(1,0,0,1,614.5643191563413,185.1552239568988) translate(431.0900925925926 14.917037037037037)"/><use xlink:href="#i" transform="matrix(1,0,0,1,614.5643191563413,185.1552239568988) translate(443.5395781893004 14.917037037037037)"/><use xlink:href="#j" transform="matrix(1,0,0,1,614.5643191563413,185.1552239568988) translate(476.63906378600825 14.917037037037037)"/><use xlink:href="#k" transform="matrix(1,0,0,1,614.5643191563413,185.1552239568988) translate(502.132890946502 14.917037037037037)"/><path d="M457.42 557.42a8 8 0 0 1 8-8h144a8 8 0 0 1 8 8v104a8 8 0 0 1-8 8h-144a8 8 0 0 1-8-8z" stroke="#000" stroke-opacity="0" stroke-width="2" fill="#ff8839"/><use xlink:href="#l" transform="matrix(1,0,0,1,462.4177663709977,554.4223880216014) translate(47.075 58.6)"/><path d="M956.94 837.42a8 8 0 0 1 8-8h144a8 8 0 0 1 8 8v104a8 8 0 0 1-8 8h-144a8 8 0 0 1-8-8z" stroke="#000" stroke-opacity="0" stroke-width="2" fill="#ff8839"/><use xlink:href="#m" transform="matrix(1,0,0,1,961.9390733903983,834.4223880216014) translate(33.074999999999996 58.6)"/><path d="M277.42 857.42a8 8 0 0 1 8-8h144a8 8 0 0 1 8 8v104a8 8 0 0 1-8 8h-144a8 8 0 0 1-8-8z" stroke="#000" stroke-opacity="0" stroke-width="2" fill="#ff8839"/><use xlink:href="#n" transform="matrix(1,0,0,1,282.41776637099764,854.4223880216014) translate(7.549999999999997 58.6)"/><use xlink:href="#o" transform="matrix(1,0,0,1,282.41776637099764,854.4223880216014) translate(77.45 58.6)"/><use xlink:href="#p" transform="matrix(1,0,0,1,282.41776637099764,854.4223880216014) translate(102.45 58.6)"/><path d="M357.5 842.55l.8-71.68 1.6-26.1 1.94-18.6 2.12-14.47 2.24-11.76 2.3-9.8 2.32-8.35 2.34-7.22 2.34-6.3 2.33-5.57 2.33-4.94 2.32-4.45 2.32-4 2.3-3.64 2.32-3.33 2.32-3.05 2.32-2.8 2.34-2.6 2.35-2.4 2.38-2.25 2.4-2.08 2.46-1.94 2.48-1.8 2.55-1.7 2.6-1.57 2.7-1.48 2.75-1.37 2.86-1.27 2.97-1.17 3.1-1.07 3.24-.98 3.4-.87 3.57-.75 3.8-.64 4.03-.5 4.3-.36 4.64-.2h1.95" stroke="#333" stroke-linejoin="round" fill="none"/><path d="M357.43 848.44l-7.5-13 15.28.17z" stroke="#333" fill="#333"/><path d="M457.42 609.9h-.5l-.02-.95h.52z" stroke="#333" stroke-width=".05" fill="#333"/><path d="M537.43 669.92l.43 19.7.93 13.08 1.12 9.5 1.25 7.34 1.3 5.92 1.32 4.92 1.34 4.18 1.36 3.6 1.37 3.2 1.4 2.8 1.4 2.55 1.4 2.3 1.46 2.12 1.47 1.95 1.5 1.8 1.56 1.68 1.6 1.58 1.67 1.5 1.73 1.4 1.82 1.33 1.92 1.27 2.03 1.2L571 766l2.34 1.1 2.52 1.04 2.76 1 3.04.92 3.4.86 3.8.78 4.36.66 5.05.53 5.96.32 7.2.05 9-.36 11.6-1.03 9.4-1.2 17.6-2.93 27.94-5.87 52.73-13.46 202.24-58.23" stroke="#333" stroke-linejoin="round" fill="none"/><path d="M537.9 669.93l-.95.02v-.53h.94z" stroke="#333" stroke-width=".05" fill="#333"/><path d="M956.13 686.1l-12.42 8.4-2.56-8.92z" stroke="#333" fill="#333"/><path d="M278.52 852.45l-9.1-5.82-8.3-5.84-7.34-5.62-6.5-5.4-5.74-5.24-5.14-5.07-4.6-4.93-4.1-4.8L224 805l-3.33-4.62-3-4.54-2.68-4.5-2.43-4.44-2.16-4.4-1.93-4.4-1.7-4.4-1.52-4.4-1.32-4.4-1.12-4.47-.93-4.5-.75-4.58-.56-4.64-.38-4.75-.18-4.86.02-5 .24-5.13.47-5.33.73-5.5 1-5.76 1.3-6 1.65-6.3 2.05-6.63 2.48-7 2.98-7.45 3.6-7.93 4.25-8.5 5.07-9.1 6.03-9.85L239 631l8.52-11.6 10.13-12.66 12.1-13.86 14.42-15.22 17.24-16.7L322 542.6l24.47-20.05 28.94-21.73 33.82-23.27 38.9-24.43 43.72-24.95 47.63-24.63 50.1-23.3 50.78-21.08 49.6-18.22 46.96-15.03 43.33-11.9 39.22-9.03 35.07-6.54 31.15-4.47 27.55-2.78 24.36-1.43 2.98-.07" stroke="#333" stroke-linejoin="round" fill="none"/><path d="M279.26 852.36l-.3.36-.26.4-.45-.28.5-.8z" stroke="#333" stroke-width=".05" fill="#333"/><path d="M955.32 289.45l-14.17 4.9-.18-9.26z" stroke="#333" fill="#333"/><path d="M444.3 909.28l7.85-.16 13.73-.86 12.88-1.36 12.18-1.8 11.6-2.2 11.12-2.6 10.74-3 10.44-3.4 10.22-3.8 10.08-4.24 10.03-4.72 10.07-5.27 10.22-5.9 10.5-6.67 10.98-7.63 11.72-8.9L631.63 836l15.26-13.76 21.03-20.68 80-82.74 15.27-13.76 12.97-10.75 11.73-8.9 10.97-7.64 10.5-6.68 10.22-5.9 10.06-5.26 10.03-4.73 10.08-4.23 10.22-3.8 10.43-3.4 10.74-3 11.12-2.6 11.6-2.2 12.18-1.8 12.88-1.36 12.08-.76" stroke="#333" stroke-linejoin="round" fill="none"/><path d="M438.4 909.4l12.75-7.9.33 15.26zM955.8 631.7l-14.15 5-.23-9.27z" stroke="#333" fill="#333"/><path d="M257.42 699.67a8 8 0 0 1 8-8h224a8 8 0 0 1 8 8v44a8 8 0 0 1-8 8h-224a8 8 0 0 1-8-8z" fill="none"/><use xlink:href="#q" transform="matrix(1,0,0,1,257.41776637099764,691.6723880216178) translate(71.075 33.6)"/><use xlink:href="#r" transform="matrix(1,0,0,1,257.41776637099764,691.6723880216178) translate(128.925 33.6)"/><path d="M657.42 677.42a8 8 0 0 1 8-8h224a8 8 0 0 1 8 8v44a8 8 0 0 1-8 8h-224a8 8 0 0 1-8-8z" fill="none"/><use xlink:href="#s" transform="matrix(1,0,0,1,657.4177663709977,669.4223880216014) translate(53.599999999999994 33.6)"/><use xlink:href="#t" transform="matrix(1,0,0,1,657.4177663709977,669.4223880216014) translate(127.45 33.6)"/><use xlink:href="#r" transform="matrix(1,0,0,1,657.4177663709977,669.4223880216014) translate(146.4 33.6)"/><path d="M437.42 728a8 8 0 0 1 8-8h224a8 8 0 0 1 8 8v44a8 8 0 0 1-8 8h-224a8 8 0 0 1-8-8z" fill="none"/><use xlink:href="#s" transform="matrix(1,0,0,1,437.4177663709977,720) translate(50.650000000000006 33.6)"/><use xlink:href="#u" transform="matrix(1,0,0,1,437.4177663709977,720) translate(124.50000000000001 33.6)"/><path d="M623.86 553.95l28.75-7.44 29.06-8.82 24.84-8.7 21.93-8.74 19.9-8.9 18.45-9.22 17.5-9.68 16.94-10.32 16.74-11.18 16.93-12.37 17.56-14 18.84-16.36 21.1-19.9 25.2-25.95 34.18-38.25 8.08-9.57" stroke="#333" stroke-linejoin="round" fill="none"/><path d="M618.15 555.42l10.6-10.63 3.82 14.78zM969.4 323.24l-5.67 13.9-7.1-6z" stroke="#333" fill="#333"/><path d="M637.42 438.25a8 8 0 0 1 8-8h224a8 8 0 0 1 8 8v44a8 8 0 0 1-8 8h-224a8 8 0 0 1-8-8z" fill="none"/><use xlink:href="#v" transform="matrix(1,0,0,1,637.4177663709977,430.2500000000165) translate(63.55 33.6)"/><use xlink:href="#w" transform="matrix(1,0,0,1,637.4177663709977,430.2500000000165) translate(133.45 33.6)"/><path d="M617.92 609.43l32.63.66 26.2 1.62 21.98 2.3 19.64 2.9 19.1 3.64 22 5.2 77.9 20.44 19.1 3.64 19.64 2.9 22 2.3 26.2 1.63 16.74.34" stroke="#333" stroke-linejoin="round" fill="none"/><path d="M617.95 608.96l-.02.95h-.5v-.95z" stroke="#333" stroke-width=".05" fill="#333"/><path d="M955.8 657.3l-14.36 4.35.2-9.27z" stroke="#333" fill="#333"/><path d="M617.42 579.67a8 8 0 0 1 8-8h224a8 8 0 0 1 8 8v44a8 8 0 0 1-8 8h-224a8 8 0 0 1-8-8z" fill="none"/><use xlink:href="#x" transform="matrix(1,0,0,1,617.4177663709977,571.672388021618) translate(6.125 33.6)"/><use xlink:href="#y" transform="matrix(1,0,0,1,617.4177663709977,571.672388021618) translate(69.125 33.6)"/><use xlink:href="#z" transform="matrix(1,0,0,1,617.4177663709977,571.672388021618) translate(84.125 33.6)"/><use xlink:href="#t" transform="matrix(1,0,0,1,617.4177663709977,571.672388021618) translate(149.925 33.6)"/><use xlink:href="#A" transform="matrix(1,0,0,1,617.4177663709977,571.672388021618) translate(168.875 33.6)"/><path d="M1036.94 329.92V555.3" stroke="#333" fill="none"/><path d="M1037.4 329.94h-.94v-.52h.95z" stroke="#333" stroke-width=".05" fill="#333"/><path d="M1036.94 570.05l-4.64-14.26h9.27z" stroke="#333" fill="#333"/><path d="M917.42 438.25a8 8 0 0 1 8-8h224a8 8 0 0 1 8 8v44a8 8 0 0 1-8 8h-224a8 8 0 0 1-8-8z" fill="none"/><use xlink:href="#B" transform="matrix(1,0,0,1,917.4177663709982,430.2500000000165) translate(11.625 33.6)"/><use xlink:href="#C" transform="matrix(1,0,0,1,917.4177663709982,430.2500000000165) translate(72.575 33.6)"/><use xlink:href="#D" transform="matrix(1,0,0,1,917.4177663709982,430.2500000000165) translate(142.425 33.6)"/><use xlink:href="#E" transform="matrix(1,0,0,1,917.4177663709982,430.2500000000165) translate(167.425 33.6)"/><path d="M1108.42 317.35l14.72 11.48 52.1 39.08 10.4 8.88 7.8 7.23 6.25 6.3 5.18 5.7 4.4 5.26 3.8 4.94 3.3 4.7 2.88 4.5 2.55 4.34 2.26 4.24 1.98 4.16 1.75 4.1 1.53 4.06 1.34 4.05 1.15 4.06 1 4.1.8 4.1.64 4.2.47 4.27.02.26.3 4.5.1 4.85-.1 5.24-.33 5.65-.62 6.08-.95 6.53-1.3 6.97-1.73 7.4-2.15 7.8-2.6 8.1-3.08 8.32-3.52 8.42-3.92 8.37-4.25 8.2-4.52 7.9-4.7 7.45-4.8 6.96-4.84 6.4-4.8 5.83-4.7 5.26-4.57 4.7-4.43 4.2-4.27 3.7-4.1 3.27-3.93 2.88-3.77 2.53-3.6 2.2-3.48 1.92-3.34 1.67-3.2 1.44-3.1 1.23-2.97 1.04-2.9.88-1 .26" stroke="#333" stroke-linejoin="round" fill="none"/><path d="M1108.72 316.98l-.58.75-.42-.32.6-.73z" stroke="#333" stroke-width=".05" fill="#333"/><path d="M1119.02 631.46l13.52-6.5 1.24 9.17z" stroke="#333" fill="#333"/><path d="M1197.42 468a8 8 0 0 1 8-8h224a8 8 0 0 1 8 8v44a8 8 0 0 1-8 8h-224a8 8 0 0 1-8-8z" fill="none"/><use xlink:href="#F" transform="matrix(1,0,0,1,1197.4177663709977,460) translate(49.099999999999994 33.6)"/><use xlink:href="#G" transform="matrix(1,0,0,1,1197.4177663709977,460) translate(107.05 33.6)"/><path d="M1123.8 289.7l1.52.1 6.52.7 9.07 1.35 12.85 2.47 18.2 4.3 25 7 31.8 10.36 35.84 13.34 35.45 14.9 31.62 14.86 26.4 13.8 21.36 12.3 17.05 10.8 13.6 9.44 10.9 8.25 8.77 7.26 7.13 6.4 5.84 5.73 4.82 5.12 4 4.63 3.34 4.22 2.8 3.85 2.35 3.55 2 3.28 1.68 3.06 1.43 2.86 1.2 2.7 1 2.55.85 2.42.7 2.3.57 2.2.45 2.13.35 2.05.25 2 .16 1.93.08 1.9v.87l-.03 1.86-.1 1.87-.2 1.9-.28 1.92-.37 1.96-.47 2-.57 2.06-.68 2.12-.8 2.2-.96 2.27-1.12 2.37-1.3 2.48-1.5 2.6-1.74 2.76-2.02 2.93-2.36 3.1-2.76 3.35-3.24 3.6-3.8 3.9-4.53 4.25-5.4 4.67-6.5 5.15-7.88 5.72-9.62 6.4-11.88 7.2-14.76 8.14-18.48 9.18-23.12 10.3-28.62 11.36-34.3 11.97-38.2 11.58-37.56 9.7-31.4 6.76-22.7 3.9-15.1 1.96-2.6.23" stroke="#333" stroke-linejoin="round" fill="none"/><path d="M1117.92 289.5l13.43-6.7-1.1 15.24zM1119.03 653.24l13.98-5.45.54 9.24z" stroke="#333" fill="#333"/><path d="M1437.42 468a8 8 0 0 1 8-8h224a8 8 0 0 1 8 8v44a8 8 0 0 1-8 8h-224a8 8 0 0 1-8-8z" fill="none"/><g><use xlink:href="#v" transform="matrix(1,0,0,1,1437.4177663709977,460) translate(32.675 22.799999999999997)"/><use xlink:href="#H" transform="matrix(1,0,0,1,1437.4177663709977,460) translate(102.575 22.799999999999997)"/><use xlink:href="#I" transform="matrix(1,0,0,1,1437.4177663709977,460) translate(187.325 22.799999999999997)"/><use xlink:href="#J" transform="matrix(1,0,0,1,1437.4177663709977,460) translate(39.57499999999999 44.4)"/><use xlink:href="#K" transform="matrix(1,0,0,1,1437.4177663709977,460) translate(106.475 44.4)"/><use xlink:href="#A" transform="matrix(1,0,0,1,1437.4177663709977,460) translate(135.425 44.4)"/></g><path d="M1117.92 674.65l2.42-.05 5.15-.34 10.3-1.1 24.25-3.67 64.8-12.6 132.44-31.26 131.37-36.53 83.74-27.04 49.63-18.36 30.5-12.76 19.72-9.25 13.37-7 9.43-5.4 6.86-4.36 5.15-3.57 3.93-2.98 3.07-2.54 2.43-2.18 1.95-1.9 1.58-1.7 1.32-1.5 1.07-1.36.9-1.24.74-1.12.63-1.04.53-.97.44-.9.38-.84.32-.8.26-.74.22-.72.17-.68.13-.66.1-.64.1-.62.04-.6.02-.58v-.57l-.03-.58-.05-.55-.07-.55-.1-.55-.1-.55-.14-.54-.15-.5-.43-1.26-.53-1.36-.67-1.5-.82-1.63-.98-1.82-1.22-2-1.5-2.26-1.8-2.5-2.22-2.83-2.7-3.14-3.3-3.53-4.02-3.94-4.86-4.4-5.86-4.87-7-5.34-8.33-5.82-9.76-6.24-11.37-6.6-13.05-6.85-14.82-7.03-16.62-7.03-18.44-6.9-20.24-6.63-22.03-6.2-23.8-5.64-25.5-4.93-27.24-4.1-8.22-1-33.77-3.18-50.16-2.6-117.24-.7-107.9-.03-22.82-1.16-12.64-1.2-8.12-1.1-5.63-1-4.1-.93-3.1-.83-2.42-.76-1.18-.42" stroke="#333" stroke-linejoin="round" fill="none"/><path d="M1117.94 675.13h-.52v-.94l.5-.02z" stroke="#333" stroke-width=".05" fill="#333"/><path d="M1089.8 330.18l13.78 5.95-6.13 6.96z" stroke="#333" fill="#333"/><path d="M1657.42 438.25a8 8 0 0 1 8-8h224a8 8 0 0 1 8 8v44a8 8 0 0 1-8 8h-224a8 8 0 0 1-8-8z" fill="none"/><g><use xlink:href="#L" transform="matrix(1,0,0,1,1657.4177663709977,430.2500000000165) translate(7.724999999999994 22.799999999999997)"/><use xlink:href="#M" transform="matrix(1,0,0,1,1657.4177663709977,430.2500000000165) translate(64.57499999999999 22.799999999999997)"/><use xlink:href="#N" transform="matrix(1,0,0,1,1657.4177663709977,430.2500000000165) translate(162.375 22.799999999999997)"/><use xlink:href="#O" transform="matrix(1,0,0,1,1657.4177663709977,430.2500000000165) translate(176.375 22.799999999999997)"/><use xlink:href="#w" transform="matrix(1,0,0,1,1657.4177663709977,430.2500000000165) translate(98.5 44.4)"/></g><path d="M1037.42 692.17v120.87" stroke="#333" fill="none"/><path d="M1037.9 692.18h-.96v-.5h.95z" stroke="#333" stroke-width=".05" fill="#333"/><path d="M1037.42 827.8l-4.64-14.26h9.27z" stroke="#333" fill="#333"/><path d="M937.92 738.55a8 8 0 0 1 8-8h224a8 8 0 0 1 8 8v44a8 8 0 0 1-8 8h-224a8 8 0 0 1-8-8z" fill="none"/><g><use xlink:href="#P" transform="matrix(1,0,0,1,937.9177663709979,730.5473880216095) translate(29.549999999999997 33.6)"/><use xlink:href="#D" transform="matrix(1,0,0,1,937.9177663709979,730.5473880216095) translate(120.45 33.6)"/><use xlink:href="#A" transform="matrix(1,0,0,1,937.9177663709979,730.5473880216095) translate(145.45 33.6)"/></g><path d="M977.4 692.18l-.06 3.28-.23 3.65-.36 3.53-.5 3.4-.64 3.33-.76 3.24-.88 3.16-1 3.1-1.14 3.05-1.27 3-1.4 2.98-1.53 2.95-1.7 2.9-1.83 2.9-2.02 2.9-2.2 2.9-2.38 2.9-2.6 2.88-2.86 2.9-3.1 2.93-3.4 2.93-3.72 2.95-4.07 2.97-4.48 2.97-4.92 2.98-5.43 2.98-5.97 2.96-6.6 2.94-7.3 2.88-8.03 2.8-8.86 2.67-9.75 2.5-10.66 2.26-11.62 1.98-12.55 1.58-13.4 1.12-14.14.6h-14.68l-15-.64-15.02-1.27-14.8-1.87-14.32-2.42-13.62-2.9-12.8-3.27-11.87-3.58-10.9-3.8-9.96-3.94-9.05-4.02-8.2-4.07-7.4-4.08-6.7-4.04-6.02-4-5.43-3.95-4.9-3.9-4.45-3.82-4-3.75-3.64-3.7-3.28-3.65-2.98-3.6-2.7-3.55-2.43-3.5-2.2-3.48-2-3.45-1.8-3.44-1.6-3.42-1.44-3.42-1.28-3.42-1.1-3.44-.98-3.46-.82-3.5-.38-2" stroke="#333" stroke-linejoin="round" fill="none"/><path d="M977.88 692.2l-.95-.02v-.5h.96z" stroke="#333" stroke-width=".05" fill="#333"/><path d="M594.9 671.03l5.94 13.78-9.23.87z" stroke="#333" fill="#333"/><path d="M677.42 797.42a8 8 0 0 1 8-8h224a8 8 0 0 1 8 8v44a8 8 0 0 1-8 8h-224a8 8 0 0 1-8-8z" fill="none"/><g><use xlink:href="#Q" transform="matrix(1,0,0,1,677.4177663709977,789.4223880216014) translate(10.149999999999991 22.799999999999997)"/><use xlink:href="#R" transform="matrix(1,0,0,1,677.4177663709977,789.4223880216014) translate(105 22.799999999999997)"/><use xlink:href="#J" transform="matrix(1,0,0,1,677.4177663709977,789.4223880216014) translate(139 22.799999999999997)"/><use xlink:href="#S" transform="matrix(1,0,0,1,677.4177663709977,789.4223880216014) translate(205.90000000000003 22.799999999999997)"/><use xlink:href="#G" transform="matrix(1,0,0,1,677.4177663709977,789.4223880216014) translate(78.07499999999999 44.4)"/></g><path d="M577.43 548.92l.1-5.44.33-5.08.46-4.4.56-3.82.64-3.38.7-3 .76-2.7.8-2.44.8-2.2.86-2.04.87-1.85.9-1.7.93-1.6.93-1.48.96-1.4 1-1.3 1-1.2 1.03-1.16 1.07-1.1 1.1-1.02 1.13-.98 1.18-.93 1.22-.88 1.27-.84 1.33-.8 1.4-.78 1.47-.73 1.56-.7 1.65-.64 1.76-.62 1.88-.56 2.04-.52 2.2-.47 2.4-.4 2.66-.34 2.92-.23 3.27-.14h3.7l4.2.18 4.86.43 5.73.72 6.88 1.17 8.5 1.82 10.96 2.82 15.08 4.58 24.08 8.44 148.35 57.2 22.73 6.88 17.78 4.58 14.67 3.13 12.46 2.1 10.83 1.4 5.7.47" stroke="#333" stroke-linejoin="round" fill="none"/><path d="M577.9 548.9v.52h-.96v-.52z" stroke="#333" stroke-width=".05" fill="#333"/><path d="M955.8 586.6l-14.46 4 .42-9.27z" stroke="#333" fill="#333"/><path d="M716.94 528a8 8 0 0 1 8-8h224a8 8 0 0 1 8 8v44a8 8 0 0 1-8 8h-224a8 8 0 0 1-8-8z" fill="none"/><g><use xlink:href="#T" transform="matrix(1,0,0,1,716.9390733903983,520) translate(14.699999999999989 22.799999999999997)"/><use xlink:href="#t" transform="matrix(1,0,0,1,716.9390733903983,520) translate(92.6 22.799999999999997)"/><use xlink:href="#H" transform="matrix(1,0,0,1,716.9390733903983,520) translate(111.55 22.799999999999997)"/><use xlink:href="#U" transform="matrix(1,0,0,1,716.9390733903983,520) translate(196.3 22.799999999999997)"/><use xlink:href="#V" transform="matrix(1,0,0,1,716.9390733903983,520) translate(89.05 44.4)"/></g><defs><path fill="#fff" d="M194-120c59 52 2 134-86 124-53-6-90-18-98-63l31-7c8 30 29 43 70 43 46 0 84-17 71-62-32-43-135-20-137-98-3-89 178-90 191-16l-30 9c-8-48-127-53-127 5 0 53 81 35 115 65" id="W"/><path fill="#fff" d="M50-231l6-30h32l-6 30H50zM6 0l37-190h31L37 0H6" id="X"/><path fill="#fff" d="M55-144c13 50 104 24 104 88C159 21 15 23 1-39l26-10c6 40 102 42 102-4-13-50-104-23-104-87 0-71 143-71 148-8l-29 4c-5-35-85-37-89 0" id="Y"/><path fill="#fff" d="M51-54c-9 22 5 41 31 30L79-1C43 14 10-4 19-52l22-115H19l5-23h22l19-43h21l-9 43h35l-4 23H73" id="Z"/><path fill="#fff" d="M111-194c62-3 86 47 72 106H45c-7 38 6 69 45 68 27-1 43-14 53-32l24 11C152-15 129 4 87 4 38 3 12-23 12-71c0-70 32-119 99-123zm44 81c14-66-71-72-95-28-4 8-8 17-11 28h106" id="aa"/><path fill="#fff" d="M248-111c6-24 9-61-24-58-72 9-57 108-77 169h-31l26-142c3-37-50-30-64-10C52-115 50-51 37 0H6l36-190h30c-1 10-6 24-4 32 13-43 101-52 105 5 13-22 29-41 61-41 90 0 28 129 23 194h-31" id="ab"/><path fill="#fff" d="M165-48c-4 18 1 34 23 27l-3 20c-29 8-62 0-52-35h-2C116-14 99 4 63 4 30 4 8-16 8-49c0-68 71-67 138-67 10-26 0-56-31-54-26 1-42 9-47 31l-32-5c8-67 160-71 144 15-5 28-9 54-15 81zM42-50c3 52 80 24 89-6 7-12 7-24 11-38-47 1-103-4-100 44" id="ac"/><g id="a"><use transform="matrix(0.05,0,0,0.05,0,0)" xlink:href="#W"/><use transform="matrix(0.05,0,0,0.05,12,0)" xlink:href="#X"/><use transform="matrix(0.05,0,0,0.05,15.949999999999998,0)" xlink:href="#Y"/><use transform="matrix(0.05,0,0,0.05,24.95,0)" xlink:href="#Z"/><use transform="matrix(0.05,0,0,0.05,29.950000000000003,0)" xlink:href="#aa"/><use transform="matrix(0.05,0,0,0.05,39.95,0)" xlink:href="#ab"/><use transform="matrix(0.05,0,0,0.05,54.900000000000006,0)" xlink:href="#ac"/></g><path fill="#fff" d="M187 0l-14-72H61L19 0h-37l149-248h38L221 0h-34zm-19-99l-22-123L76-99h92" id="ad"/><path fill="#fff" d="M67-162c32-53 139-36 121 50C175-51 163 2 97 4 68 4 52-11 42-31 38 6 28 39 22 75H-9l50-265h29c-1 10 0 20-3 28zm89 36c0-26-10-43-35-43-54 0-67 50-69 103-1 29 14 45 42 46 53 0 62-58 62-106" id="ae"/><path fill="#fff" d="M6 0l50-261h32L37 0H6" id="af"/><path fill="#fff" d="M44-68c0 29 11 47 38 47 30 0 42-19 51-41l28 9C148-21 126 4 82 4 31 4 10-29 12-85c3-77 74-140 146-93 12 8 15 23 18 40l-31 5c-1-22-13-36-36-36-52 0-65 49-65 101" id="ag"/><path fill="#fff" d="M30-147c31-64 166-65 159 27C183-49 158 1 86 4 9 8 1-88 30-147zM88-20c53 0 68-48 68-100 0-31-11-51-44-50-52 1-68 46-68 97 0 32 13 53 44 53" id="ah"/><path fill="#fff" d="M67-158c22-48 132-52 116 29L158 0h-32l25-140c3-38-53-32-70-12C52-117 51-52 38 0H6l36-190h30" id="ai"/><g id="b"><use transform="matrix(0.05,0,0,0.05,0,0)" xlink:href="#ad"/><use transform="matrix(0.05,0,0,0.05,12,0)" xlink:href="#ae"/><use transform="matrix(0.05,0,0,0.05,22,0)" xlink:href="#af"/><use transform="matrix(0.05,0,0,0.05,25.950000000000003,0)" xlink:href="#X"/><use transform="matrix(0.05,0,0,0.05,29.899999999999995,0)" xlink:href="#ag"/><use transform="matrix(0.05,0,0,0.05,38.9,0)" xlink:href="#ac"/><use transform="matrix(0.05,0,0,0.05,48.9,0)" xlink:href="#ag"/><use transform="matrix(0.05,0,0,0.05,57.900000000000006,0)" xlink:href="#X"/><use transform="matrix(0.05,0,0,0.05,61.85,0)" xlink:href="#ah"/><use transform="matrix(0.05,0,0,0.05,71.85,0)" xlink:href="#ai"/></g><path fill="#a9afb8" d="M24-248c120-7 223 5 221 122C244-46 201 0 124 0H24v-248zM76-40c74 7 117-18 117-86 0-67-45-88-117-82v168" id="aj"/><path fill="#a9afb8" d="M25-224v-37h50v37H25zM25 0v-190h50V0H25" id="ak"/><path fill="#a9afb8" d="M133-34C117-15 103 5 69 4 32 3 11-16 11-54c-1-60 55-63 116-61 1-26-3-47-28-47-18 1-26 9-28 27l-52-2c7-38 36-58 82-57s74 22 75 68l1 82c-1 14 12 18 25 15v27c-30 8-71 5-69-32zm-48 3c29 0 43-24 42-57-32 0-66-3-65 30 0 17 8 27 23 27" id="al"/><path fill="#a9afb8" d="M195-6C206 82 75 100 31 46c-4-6-6-13-8-21l49-6c3 16 16 24 34 25 40 0 42-37 40-79-11 22-30 35-61 35-53 0-70-43-70-97 0-56 18-96 73-97 30 0 46 14 59 34l2-30h47zm-90-29c32 0 41-27 41-63 0-35-9-62-40-62-32 0-39 29-40 63 0 36 9 62 39 62" id="am"/><path fill="#a9afb8" d="M135-150c-39-12-60 13-60 57V0H25l-1-190h47c2 13-1 29 3 40 6-28 27-53 61-41v41" id="an"/><path fill="#a9afb8" d="M220-157c-53 9-28 100-34 157h-49v-107c1-27-5-49-29-50C55-147 81-57 75 0H25l-1-190h47c2 12-1 28 3 38 10-53 101-56 108 0 13-22 24-43 59-42 82 1 51 116 57 194h-49v-107c-1-25-5-48-29-50" id="ao"/><g id="c"><use transform="matrix(0.0728395061728395,0,0,0.0728395061728395,0,0)" xlink:href="#aj"/><use transform="matrix(0.0728395061728395,0,0,0.0728395061728395,18.86543209876543,0)" xlink:href="#ak"/><use transform="matrix(0.0728395061728395,0,0,0.0728395061728395,26.14938271604938,0)" xlink:href="#al"/><use transform="matrix(0.0728395061728395,0,0,0.0728395061728395,40.717283950617286,0)" xlink:href="#am"/><use transform="matrix(0.0728395061728395,0,0,0.0728395061728395,56.66913580246913,0)" xlink:href="#an"/><use transform="matrix(0.0728395061728395,0,0,0.0728395061728395,66.86666666666666,0)" xlink:href="#al"/><use transform="matrix(0.0728395061728395,0,0,0.0728395061728395,81.43456790123457,0)" xlink:href="#ao"/><use transform="matrix(0.0728395061728395,0,0,0.0728395061728395,104.7432098765432,0)" xlink:href="#al"/></g><path fill="#a9afb8" d="M88-194c31-1 46 15 58 34l-1-101h50l1 261h-48c-2-10 0-23-3-31C134-8 116 4 84 4 32 4 16-41 15-95c0-56 19-97 73-99zm17 164c33 0 40-30 41-66 1-37-9-64-41-64s-38 30-39 65c0 43 13 65 39 65" id="ap"/><path fill="#a9afb8" d="M185-48c-13 30-37 53-82 52C43 2 14-33 14-96s30-98 90-98c62 0 83 45 84 108H66c0 31 8 55 39 56 18 0 30-7 34-22zm-45-69c5-46-57-63-70-21-2 6-4 13-4 21h74" id="aq"/><g id="d"><use transform="matrix(0.0728395061728395,0,0,0.0728395061728395,0,0)" xlink:href="#ap"/><use transform="matrix(0.0728395061728395,0,0,0.0728395061728395,15.95185185185185,0)" xlink:href="#aq"/></g><path fill="#a9afb8" d="M67-125c0 53 21 87 73 88 37 1 54-22 65-47l45 17C233-25 199 4 140 4 58 4 20-42 15-125 8-235 124-281 211-232c18 10 29 29 36 50l-46 12c-8-25-30-41-62-41-52 0-71 34-72 86" id="ar"/><path fill="#a9afb8" d="M110-194c64 0 96 36 96 99 0 64-35 99-97 99-61 0-95-36-95-99 0-62 34-99 96-99zm-1 164c35 0 45-28 45-65 0-40-10-65-43-65-34 0-45 26-45 65 0 36 10 65 43 65" id="as"/><path fill="#a9afb8" d="M25 0v-261h50V0H25" id="at"/><path fill="#a9afb8" d="M135-194c52 0 70 43 70 98 0 56-19 99-73 100-30 1-46-15-58-35L72 0H24l1-261h50v104c11-23 29-37 60-37zM114-30c31 0 40-27 40-66 0-37-7-63-39-63s-41 28-41 65c0 36 8 64 40 64" id="au"/><path fill="#a9afb8" d="M190-63c-7 42-38 67-86 67-59 0-84-38-90-98-12-110 154-137 174-36l-49 2c-2-19-15-32-35-32-30 0-35 28-38 64-6 74 65 87 74 30" id="av"/><path fill="#a9afb8" d="M135-194c87-1 58 113 63 194h-50c-7-57 23-157-34-157-59 0-34 97-39 157H25l-1-190h47c2 12-1 28 3 38 12-26 28-41 61-42" id="aw"/><g id="e"><use transform="matrix(0.0728395061728395,0,0,0.0728395061728395,0,0)" xlink:href="#ar"/><use transform="matrix(0.0728395061728395,0,0,0.0728395061728395,18.86543209876543,0)" xlink:href="#as"/><use transform="matrix(0.0728395061728395,0,0,0.0728395061728395,34.81728395061728,0)" xlink:href="#at"/><use transform="matrix(0.0728395061728395,0,0,0.0728395061728395,42.10123456790124,0)" xlink:href="#al"/><use transform="matrix(0.0728395061728395,0,0,0.0728395061728395,56.66913580246913,0)" xlink:href="#au"/><use transform="matrix(0.0728395061728395,0,0,0.0728395061728395,72.62098765432098,0)" xlink:href="#as"/><use transform="matrix(0.0728395061728395,0,0,0.0728395061728395,88.57283950617284,0)" xlink:href="#an"/><use transform="matrix(0.0728395061728395,0,0,0.0728395061728395,98.77037037037037,0)" xlink:href="#al"/><use transform="matrix(0.0728395061728395,0,0,0.0728395061728395,113.33827160493827,0)" xlink:href="#av"/><use transform="matrix(0.0728395061728395,0,0,0.0728395061728395,127.90617283950617,0)" xlink:href="#ak"/><use transform="matrix(0.0728395061728395,0,0,0.0728395061728395,135.19012345679013,0)" xlink:href="#as"/><use transform="matrix(0.0728395061728395,0,0,0.0728395061728395,151.14197530864197,0)" xlink:href="#aw"/></g><path fill="#a9afb8" d="M185-189c-5-48-123-54-124 2 14 75 158 14 163 119 3 78-121 87-175 55-17-10-28-26-33-46l33-7c5 56 141 63 141-1 0-78-155-14-162-118-5-82 145-84 179-34 5 7 8 16 11 25" id="ax"/><path fill="#a9afb8" d="M141-36C126-15 110 5 73 4 37 3 15-17 15-53c-1-64 63-63 125-63 3-35-9-54-41-54-24 1-41 7-42 31l-33-3c5-37 33-52 76-52 45 0 72 20 72 64v82c-1 20 7 32 28 27v20c-31 9-61-2-59-35zM48-53c0 20 12 33 32 33 41-3 63-29 60-74-43 2-92-5-92 41" id="ay"/><path fill="#a9afb8" d="M117-194c89-4 53 116 60 194h-32v-121c0-31-8-49-39-48C34-167 62-67 57 0H25l-1-190h30c1 10-1 24 2 32 11-22 29-35 61-36" id="az"/><path fill="#a9afb8" d="M59-47c-2 24 18 29 38 22v24C64 9 27 4 27-40v-127H5v-23h24l9-43h21v43h35v23H59v120" id="aA"/><path fill="#a9afb8" d="M24-231v-30h32v30H24zM24 0v-190h32V0H24" id="aB"/><path fill="#a9afb8" d="M177-190C167-65 218 103 67 71c-23-6-38-20-44-43l32-5c15 47 100 32 89-28v-30C133-14 115 1 83 1 29 1 15-40 15-95c0-56 16-97 71-98 29-1 48 16 59 35 1-10 0-23 2-32h30zM94-22c36 0 50-32 50-73 0-42-14-75-50-75-39 0-46 34-46 75s6 73 46 73" id="aC"/><path fill="#a9afb8" d="M100-194c62-1 85 37 85 99 1 63-27 99-86 99S16-35 15-95c0-66 28-99 85-99zM99-20c44 1 53-31 53-75 0-43-8-75-51-75s-53 32-53 75 10 74 51 75" id="aD"/><g id="f"><use transform="matrix(0.04248971193415638,0,0,0.04248971193415638,0,0)" xlink:href="#ax"/><use transform="matrix(0.04248971193415638,0,0,0.04248971193415638,10.19753086419753,0)" xlink:href="#ay"/><use transform="matrix(0.04248971193415638,0,0,0.04248971193415638,18.695473251028805,0)" xlink:href="#az"/><use transform="matrix(0.04248971193415638,0,0,0.04248971193415638,27.193415637860078,0)" xlink:href="#aA"/><use transform="matrix(0.04248971193415638,0,0,0.04248971193415638,31.442386831275712,0)" xlink:href="#aB"/><use transform="matrix(0.04248971193415638,0,0,0.04248971193415638,34.79907407407407,0)" xlink:href="#ay"/><use transform="matrix(0.04248971193415638,0,0,0.04248971193415638,43.29701646090535,0)" xlink:href="#aC"/><use transform="matrix(0.04248971193415638,0,0,0.04248971193415638,51.79495884773662,0)" xlink:href="#aD"/></g><path fill="#a9afb8" d="M30-248c118-7 216 8 213 122C240-48 200 0 122 0H30v-248zM63-27c89 8 146-16 146-99s-60-101-146-95v194" id="aE"/><path fill="#a9afb8" d="M84 4C-5 8 30-112 23-190h32v120c0 31 7 50 39 49 72-2 45-101 50-169h31l1 190h-30c-1-10 1-25-2-33-11 22-28 36-60 37" id="aF"/><path fill="#a9afb8" d="M114-163C36-179 61-72 57 0H25l-1-190h30c1 12-1 29 2 39 6-27 23-49 58-41v29" id="aG"/><path fill="#a9afb8" d="M141-36C126-15 110 5 73 4 37 3 15-17 15-53c-1-64 63-63 125-63 3-35-9-54-41-54-24 1-41 7-42 31l-33-3c5-37 33-52 76-52 45 0 72 20 72 64v82c-1 20 7 32 28 27v20c-31 9-61-2-59-35zM48-53c0 20 12 33 32 33 41-3 63-29 60-74-43 2-92-5-92 41zm25-158c8-23 27-35 38-54h36v5l-58 49H73" id="aH"/><g id="g"><use transform="matrix(0.04248971193415638,0,0,0.04248971193415638,0,0)" xlink:href="#aE"/><use transform="matrix(0.04248971193415638,0,0,0.04248971193415638,11.004835390946502,0)" xlink:href="#aF"/><use transform="matrix(0.04248971193415638,0,0,0.04248971193415638,19.502777777777776,0)" xlink:href="#aG"/><use transform="matrix(0.04248971193415638,0,0,0.04248971193415638,24.559053497942386,0)" xlink:href="#aH"/><use transform="matrix(0.04248971193415638,0,0,0.04248971193415638,33.05699588477366,0)" xlink:href="#az"/></g><path fill="#a9afb8" d="M32 76v-337h29V76H32" id="aI"/><use transform="matrix(0.04248971193415638,0,0,0.04248971193415638,0,0)" xlink:href="#aI" id="h"/><path fill="#a9afb8" d="M240 0l2-218c-23 76-54 145-80 218h-23L58-218 59 0H30v-248h44l77 211c21-75 51-140 76-211h43V0h-30" id="aJ"/><path fill="#a9afb8" d="M179-190L93 31C79 59 56 82 12 73V49c39 6 53-20 64-50L1-190h34L92-34l54-156h33" id="aK"/><g id="i"><use transform="matrix(0.04248971193415638,0,0,0.04248971193415638,0,0)" xlink:href="#aJ"/><use transform="matrix(0.04248971193415638,0,0,0.04248971193415638,12.704423868312757,0)" xlink:href="#ay"/><use transform="matrix(0.04248971193415638,0,0,0.04248971193415638,21.20236625514403,0)" xlink:href="#aK"/></g><path fill="#a9afb8" d="M101-251c82-7 93 87 43 132L82-64C71-53 59-42 53-27h129V0H18c2-99 128-94 128-182 0-28-16-43-45-43s-46 15-49 41l-32-3c6-41 34-60 81-64" id="aL"/><path fill="#a9afb8" d="M134-131c28 9 52 24 51 62-1 50-34 73-85 73S17-19 16-69c0-36 21-54 49-61-75-25-45-126 34-121 46 3 78 18 79 63 0 33-17 51-44 57zm-34-11c31 1 46-15 46-44 0-28-17-43-47-42-29 0-46 13-45 42 1 28 16 44 46 44zm1 122c35 0 51-18 51-52 0-30-18-46-53-46-33 0-51 17-51 47 0 34 19 51 53 51" id="aM"/><path fill="#a9afb8" d="M68-38c1 34 0 65-14 84H32c9-13 17-26 17-46H33v-38h35" id="aN"/><g id="j"><use transform="matrix(0.04248971193415638,0,0,0.04248971193415638,0,0)" xlink:href="#aL"/><use transform="matrix(0.04248971193415638,0,0,0.04248971193415638,8.497942386831275,0)" xlink:href="#aM"/><use transform="matrix(0.04248971193415638,0,0,0.04248971193415638,16.99588477366255,0)" xlink:href="#aN"/></g><path fill="#a9afb8" d="M101-251c68 0 85 55 85 127S166 4 100 4C33 4 14-52 14-124c0-73 17-127 87-127zm-1 229c47 0 54-49 54-102s-4-102-53-102c-51 0-55 48-55 102 0 53 5 102 54 102" id="aO"/><path fill="#a9afb8" d="M155-56V0h-30v-56H8v-25l114-167h33v167h35v25h-35zm-30-156c-27 46-58 90-88 131h88v-131" id="aP"/><g id="k"><use transform="matrix(0.04248971193415638,0,0,0.04248971193415638,0,0)" xlink:href="#aL"/><use transform="matrix(0.04248971193415638,0,0,0.04248971193415638,8.497942386831275,0)" xlink:href="#aO"/><use transform="matrix(0.04248971193415638,0,0,0.04248971193415638,16.99588477366255,0)" xlink:href="#aL"/><use transform="matrix(0.04248971193415638,0,0,0.04248971193415638,25.493827160493822,0)" xlink:href="#aP"/></g><path fill="#fff" d="M125-24c46 0 70-25 89-51l25 16C214-24 183 4 123 4 8 4-5-146 60-208c32-50 158-61 191-5 5 7 9 14 11 22l-32 10c-9-28-33-43-69-43-74 0-108 51-108 125 0 46 24 75 72 75" id="aQ"/><g id="l"><use transform="matrix(0.05,0,0,0.05,0,0)" xlink:href="#aQ"/><use transform="matrix(0.05,0,0,0.05,12.950000000000001,0)" xlink:href="#af"/><use transform="matrix(0.05,0,0,0.05,16.900000000000002,0)" xlink:href="#X"/><use transform="matrix(0.05,0,0,0.05,20.85,0)" xlink:href="#aa"/><use transform="matrix(0.05,0,0,0.05,30.85,0)" xlink:href="#ai"/><use transform="matrix(0.05,0,0,0.05,40.85,0)" xlink:href="#Z"/><use transform="matrix(0.05,0,0,0.05,45.85,0)" xlink:href="#aa"/></g><path fill="#fff" d="M222 0l43-216c-8 16-17 34-26 49L143 0h-22L81-216 41 0H11l48-248h42l38 208 116-208h45L252 0h-30" id="aR"/><path fill="#fff" d="M51-231l6-30h31l-6 30H51zM33 24C28 60 2 84-40 72c3-12-1-29 18-22C-5 49-1 37 2 19l41-209h32" id="aS"/><path fill="#fff" d="M66-151c12-25 30-51 66-40l-6 26C45-176 58-65 38 0H6l36-190h30" id="aT"/><g id="m"><use transform="matrix(0.05,0,0,0.05,0,0)" xlink:href="#aR"/><use transform="matrix(0.05,0,0,0.05,14.950000000000001,0)" xlink:href="#aa"/><use transform="matrix(0.05,0,0,0.05,24.950000000000003,0)" xlink:href="#ai"/><use transform="matrix(0.05,0,0,0.05,34.95,0)" xlink:href="#Y"/><use transform="matrix(0.05,0,0,0.05,43.95,0)" xlink:href="#ac"/><use transform="matrix(0.05,0,0,0.05,53.95,0)" xlink:href="#aS"/><use transform="matrix(0.05,0,0,0.05,57.900000000000006,0)" xlink:href="#aa"/><use transform="matrix(0.05,0,0,0.05,67.9,0)" xlink:href="#aT"/><use transform="matrix(0.05,0,0,0.05,73.85000000000001,0)" xlink:href="#ah"/></g><g id="n"><use transform="matrix(0.05,0,0,0.05,0,0)" xlink:href="#W"/><use transform="matrix(0.05,0,0,0.05,12,0)" xlink:href="#X"/><use transform="matrix(0.05,0,0,0.05,15.949999999999998,0)" xlink:href="#Y"/><use transform="matrix(0.05,0,0,0.05,24.95,0)" xlink:href="#Z"/><use transform="matrix(0.05,0,0,0.05,29.950000000000003,0)" xlink:href="#aa"/><use transform="matrix(0.05,0,0,0.05,39.95,0)" xlink:href="#ab"/><use transform="matrix(0.05,0,0,0.05,54.900000000000006,0)" xlink:href="#ac"/></g><path fill="#fff" d="M133-28C103 26-5 8 13-77c13-62 24-115 90-117 29-1 46 15 56 35l19-102h32L160 0h-30zM45-64c-2 27 10 43 35 43 54-1 69-50 69-103 0-29-15-46-42-46-53-1-58 58-62 106" id="aU"/><g id="o"><use transform="matrix(0.05,0,0,0.05,0,0)" xlink:href="#aU"/><use transform="matrix(0.05,0,0,0.05,10,0)" xlink:href="#aa"/></g><path fill="#fff" d="M103-194c29 0 47 14 56 36 2-11 5-23 8-32h30L160-5C157 61 82 97 21 62 9 55 4 45 1 30l28-7c7 42 83 31 92-3 4-16 9-38 13-55-13 20-29 36-62 36-40 0-60-25-60-64 0-71 23-131 91-131zm4 24c-53 0-58 54-61 104-2 27 10 44 36 44 49 0 65-50 67-102 1-29-15-46-42-46" id="aV"/><g id="p"><use transform="matrix(0.05,0,0,0.05,0,0)" xlink:href="#ae"/><use transform="matrix(0.05,0,0,0.05,10,0)" xlink:href="#ac"/><use transform="matrix(0.05,0,0,0.05,20,0)" xlink:href="#aV"/><use transform="matrix(0.05,0,0,0.05,30,0)" xlink:href="#ah"/></g><path fill="#666" d="M114-163C36-179 61-72 57 0H25l-1-190h30c1 12-1 29 2 39 6-27 23-49 58-41v29" id="aW"/><path fill="#666" d="M100-194c63 0 86 42 84 106H49c0 40 14 67 53 68 26 1 43-12 49-29l28 8c-11 28-37 45-77 45C44 4 14-33 15-96c1-61 26-98 85-98zm52 81c6-60-76-77-97-28-3 7-6 17-6 28h103" id="aX"/><path fill="#666" d="M141-36C126-15 110 5 73 4 37 3 15-17 15-53c-1-64 63-63 125-63 3-35-9-54-41-54-24 1-41 7-42 31l-33-3c5-37 33-52 76-52 45 0 72 20 72 64v82c-1 20 7 32 28 27v20c-31 9-61-2-59-35zM48-53c0 20 12 33 32 33 41-3 63-29 60-74-43 2-92-5-92 41" id="aY"/><path fill="#666" d="M24 0v-261h32V0H24" id="aZ"/><path fill="#666" d="M24-231v-30h32v30H24zM24 0v-190h32V0H24" id="ba"/><path fill="#666" d="M9 0v-24l116-142H16v-24h144v24L44-24h123V0H9" id="bb"/><g id="q"><use transform="matrix(0.05,0,0,0.05,0,0)" xlink:href="#aW"/><use transform="matrix(0.05,0,0,0.05,5.95,0)" xlink:href="#aX"/><use transform="matrix(0.05,0,0,0.05,15.949999999999998,0)" xlink:href="#aY"/><use transform="matrix(0.05,0,0,0.05,25.950000000000003,0)" xlink:href="#aZ"/><use transform="matrix(0.05,0,0,0.05,29.899999999999995,0)" xlink:href="#ba"/><use transform="matrix(0.05,0,0,0.05,33.85,0)" xlink:href="#bb"/><use transform="matrix(0.05,0,0,0.05,42.85,0)" xlink:href="#aY"/></g><path fill="#666" d="M115-194c55 1 70 41 70 98S169 2 115 4C84 4 66-9 55-30l1 105H24l-1-265h31l2 30c10-21 28-34 59-34zm-8 174c40 0 45-34 45-75s-6-73-45-74c-42 0-51 32-51 76 0 43 10 73 51 73" id="bc"/><path fill="#666" d="M177-190C167-65 218 103 67 71c-23-6-38-20-44-43l32-5c15 47 100 32 89-28v-30C133-14 115 1 83 1 29 1 15-40 15-95c0-56 16-97 71-98 29-1 48 16 59 35 1-10 0-23 2-32h30zM94-22c36 0 50-32 50-73 0-42-14-75-50-75-39 0-46 34-46 75s6 73 46 73" id="bd"/><path fill="#666" d="M100-194c62-1 85 37 85 99 1 63-27 99-86 99S16-35 15-95c0-66 28-99 85-99zM99-20c44 1 53-31 53-75 0-43-8-75-51-75s-53 32-53 75 10 74 51 75" id="be"/><g id="r"><use transform="matrix(0.05,0,0,0.05,0,0)" xlink:href="#bc"/><use transform="matrix(0.05,0,0,0.05,10,0)" xlink:href="#aY"/><use transform="matrix(0.05,0,0,0.05,20,0)" xlink:href="#bd"/><use transform="matrix(0.05,0,0,0.05,30,0)" xlink:href="#be"/></g><path fill="#666" d="M96-169c-40 0-48 33-48 73s9 75 48 75c24 0 41-14 43-38l32 2c-6 37-31 61-74 61-59 0-76-41-82-99-10-93 101-131 147-64 4 7 5 14 7 22l-32 3c-4-21-16-35-41-35" id="bf"/><path fill="#666" d="M117-194c89-4 53 116 60 194h-32v-121c0-31-8-49-39-48C34-167 62-67 57 0H25l-1-190h30c1 10-1 24 2 32 11-22 29-35 61-36" id="bg"/><path fill="#666" d="M101-234c-31-9-42 10-38 44h38v23H63V0H32v-167H5v-23h27c-7-52 17-82 69-68v24" id="bh"/><path fill="#666" d="M210-169c-67 3-38 105-44 169h-31v-121c0-29-5-50-35-48C34-165 62-65 56 0H25l-1-190h30c1 10-1 24 2 32 10-44 99-50 107 0 11-21 27-35 58-36 85-2 47 119 55 194h-31v-121c0-29-5-49-35-48" id="bi"/><g id="s"><use transform="matrix(0.05,0,0,0.05,0,0)" xlink:href="#bf"/><use transform="matrix(0.05,0,0,0.05,9,0)" xlink:href="#be"/><use transform="matrix(0.05,0,0,0.05,19,0)" xlink:href="#bg"/><use transform="matrix(0.05,0,0,0.05,29,0)" xlink:href="#bh"/><use transform="matrix(0.05,0,0,0.05,34,0)" xlink:href="#ba"/><use transform="matrix(0.05,0,0,0.05,37.95,0)" xlink:href="#aW"/><use transform="matrix(0.05,0,0,0.05,43.900000000000006,0)" xlink:href="#bi"/><use transform="matrix(0.05,0,0,0.05,58.85,0)" xlink:href="#aY"/></g><g id="t"><use transform="matrix(0.05,0,0,0.05,0,0)" xlink:href="#aX"/><use transform="matrix(0.05,0,0,0.05,10,0)" xlink:href="#aZ"/></g><path fill="#666" d="M135-143c-3-34-86-38-87 0 15 53 115 12 119 90S17 21 10-45l28-5c4 36 97 45 98 0-10-56-113-15-118-90-4-57 82-63 122-42 12 7 21 19 24 35" id="bj"/><path fill="#666" d="M59-47c-2 24 18 29 38 22v24C64 9 27 4 27-40v-127H5v-23h24l9-43h21v43h35v23H59v120" id="bk"/><path fill="#666" d="M84 4C-5 8 30-112 23-190h32v120c0 31 7 50 39 49 72-2 45-101 50-169h31l1 190h-30c-1-10 1-25-2-33-11 22-28 36-60 37" id="bl"/><path fill="#666" d="M85-194c31 0 48 13 60 33l-1-100h32l1 261h-30c-2-10 0-23-3-31C134-8 116 4 85 4 32 4 16-35 15-94c0-66 23-100 70-100zm9 24c-40 0-46 34-46 75 0 40 6 74 45 74 42 0 51-32 51-76 0-42-9-74-50-73" id="bm"/><g id="u"><use transform="matrix(0.05,0,0,0.05,0,0)" xlink:href="#bj"/><use transform="matrix(0.05,0,0,0.05,9,0)" xlink:href="#be"/><use transform="matrix(0.05,0,0,0.05,19,0)" xlink:href="#aZ"/><use transform="matrix(0.05,0,0,0.05,22.95,0)" xlink:href="#ba"/><use transform="matrix(0.05,0,0,0.05,26.899999999999995,0)" xlink:href="#bf"/><use transform="matrix(0.05,0,0,0.05,35.9,0)" xlink:href="#ba"/><use transform="matrix(0.05,0,0,0.05,39.85,0)" xlink:href="#bk"/><use transform="matrix(0.05,0,0,0.05,44.85,0)" xlink:href="#bl"/><use transform="matrix(0.05,0,0,0.05,54.85,0)" xlink:href="#bm"/></g><g id="v"><use transform="matrix(0.05,0,0,0.05,0,0)" xlink:href="#bi"/><use transform="matrix(0.05,0,0,0.05,14.950000000000001,0)" xlink:href="#bl"/><use transform="matrix(0.05,0,0,0.05,24.950000000000003,0)" xlink:href="#aX"/><use transform="matrix(0.05,0,0,0.05,34.95,0)" xlink:href="#bj"/><use transform="matrix(0.05,0,0,0.05,43.95,0)" xlink:href="#bk"/><use transform="matrix(0.05,0,0,0.05,48.95,0)" xlink:href="#aW"/><use transform="matrix(0.05,0,0,0.05,54.900000000000006,0)" xlink:href="#aY"/></g><g id="w"><use transform="matrix(0.05,0,0,0.05,0,0)" xlink:href="#bf"/><use transform="matrix(0.05,0,0,0.05,9,0)" xlink:href="#be"/><use transform="matrix(0.05,0,0,0.05,19,0)" xlink:href="#bj"/><use transform="matrix(0.05,0,0,0.05,28,0)" xlink:href="#bk"/><use transform="matrix(0.05,0,0,0.05,33,0)" xlink:href="#be"/></g><g id="x"><use transform="matrix(0.05,0,0,0.05,0,0)" xlink:href="#aY"/><use transform="matrix(0.05,0,0,0.05,10,0)" xlink:href="#bf"/><use transform="matrix(0.05,0,0,0.05,19,0)" xlink:href="#bf"/><use transform="matrix(0.05,0,0,0.05,28,0)" xlink:href="#aX"/><use transform="matrix(0.05,0,0,0.05,38,0)" xlink:href="#bm"/><use transform="matrix(0.05,0,0,0.05,48,0)" xlink:href="#aX"/></g><use transform="matrix(0.05,0,0,0.05,0,0)" xlink:href="#aY" id="y"/><g id="z"><use transform="matrix(0.05,0,0,0.05,0,0)" xlink:href="#bj"/><use transform="matrix(0.05,0,0,0.05,9,0)" xlink:href="#be"/><use transform="matrix(0.05,0,0,0.05,19,0)" xlink:href="#aZ"/><use transform="matrix(0.05,0,0,0.05,22.95,0)" xlink:href="#ba"/><use transform="matrix(0.05,0,0,0.05,26.899999999999995,0)" xlink:href="#bf"/><use transform="matrix(0.05,0,0,0.05,35.9,0)" xlink:href="#ba"/><use transform="matrix(0.05,0,0,0.05,39.85,0)" xlink:href="#bk"/><use transform="matrix(0.05,0,0,0.05,44.85,0)" xlink:href="#aY"/><use transform="matrix(0.05,0,0,0.05,54.85,0)" xlink:href="#aW"/></g><path fill="#666" d="M145-31C134-9 116 4 85 4 32 4 16-35 15-94c0-59 17-99 70-100 32-1 48 14 60 33 0-11-1-24 2-32h30l-1 268h-32zM93-21c41 0 51-33 51-76s-8-73-50-73c-40 0-46 35-46 75s5 74 45 74" id="bn"/><g id="A"><use transform="matrix(0.05,0,0,0.05,0,0)" xlink:href="#bc"/><use transform="matrix(0.05,0,0,0.05,10,0)" xlink:href="#aY"/><use transform="matrix(0.05,0,0,0.05,20,0)" xlink:href="#bn"/><use transform="matrix(0.05,0,0,0.05,30,0)" xlink:href="#bl"/><use transform="matrix(0.05,0,0,0.05,40,0)" xlink:href="#aX"/><use transform="matrix(0.05,0,0,0.05,50,0)" xlink:href="#bk"/><use transform="matrix(0.05,0,0,0.05,55,0)" xlink:href="#aX"/></g><g id="B"><use transform="matrix(0.05,0,0,0.05,0,0)" xlink:href="#bd"/><use transform="matrix(0.05,0,0,0.05,10,0)" xlink:href="#aX"/><use transform="matrix(0.05,0,0,0.05,20,0)" xlink:href="#bg"/><use transform="matrix(0.05,0,0,0.05,30,0)" xlink:href="#aX"/><use transform="matrix(0.05,0,0,0.05,40,0)" xlink:href="#aW"/><use transform="matrix(0.05,0,0,0.05,45.95,0)" xlink:href="#aY"/></g><g id="C"><use transform="matrix(0.05,0,0,0.05,0,0)" xlink:href="#bj"/><use transform="matrix(0.05,0,0,0.05,9,0)" xlink:href="#be"/><use transform="matrix(0.05,0,0,0.05,19,0)" xlink:href="#aZ"/><use transform="matrix(0.05,0,0,0.05,22.95,0)" xlink:href="#ba"/><use transform="matrix(0.05,0,0,0.05,26.899999999999995,0)" xlink:href="#bf"/><use transform="matrix(0.05,0,0,0.05,35.9,0)" xlink:href="#ba"/><use transform="matrix(0.05,0,0,0.05,39.85,0)" xlink:href="#bk"/><use transform="matrix(0.05,0,0,0.05,44.85,0)" xlink:href="#bl"/><use transform="matrix(0.05,0,0,0.05,54.85,0)" xlink:href="#bm"/></g><g id="D"><use transform="matrix(0.05,0,0,0.05,0,0)" xlink:href="#bm"/><use transform="matrix(0.05,0,0,0.05,10,0)" xlink:href="#aX"/></g><g id="E"><use transform="matrix(0.05,0,0,0.05,0,0)" xlink:href="#aX"/><use transform="matrix(0.05,0,0,0.05,10,0)" xlink:href="#bg"/><use transform="matrix(0.05,0,0,0.05,20,0)" xlink:href="#bk"/><use transform="matrix(0.05,0,0,0.05,25,0)" xlink:href="#aW"/><use transform="matrix(0.05,0,0,0.05,30.950000000000003,0)" xlink:href="#aX"/><use transform="matrix(0.05,0,0,0.05,40.95,0)" xlink:href="#bd"/><use transform="matrix(0.05,0,0,0.05,50.95,0)" xlink:href="#aY"/></g><g id="F"><use transform="matrix(0.05,0,0,0.05,0,0)" xlink:href="#aY"/><use transform="matrix(0.05,0,0,0.05,10,0)" xlink:href="#bj"/><use transform="matrix(0.05,0,0,0.05,19,0)" xlink:href="#ba"/><use transform="matrix(0.05,0,0,0.05,22.95,0)" xlink:href="#bd"/><use transform="matrix(0.05,0,0,0.05,32.95,0)" xlink:href="#bg"/><use transform="matrix(0.05,0,0,0.05,42.95,0)" xlink:href="#aY"/></g><path fill="#666" d="M24-231v-30h32v30H24zM-9 49c24 4 33-6 33-30v-209h32V24c2 40-23 58-65 49V49" id="bo"/><g id="G"><use transform="matrix(0.05,0,0,0.05,0,0)" xlink:href="#bi"/><use transform="matrix(0.05,0,0,0.05,14.950000000000001,0)" xlink:href="#aX"/><use transform="matrix(0.05,0,0,0.05,24.950000000000003,0)" xlink:href="#bg"/><use transform="matrix(0.05,0,0,0.05,34.95,0)" xlink:href="#bj"/><use transform="matrix(0.05,0,0,0.05,43.95,0)" xlink:href="#aY"/><use transform="matrix(0.05,0,0,0.05,53.95,0)" xlink:href="#bo"/><use transform="matrix(0.05,0,0,0.05,57.900000000000006,0)" xlink:href="#aX"/><use transform="matrix(0.05,0,0,0.05,67.9,0)" xlink:href="#aW"/><use transform="matrix(0.05,0,0,0.05,73.85000000000001,0)" xlink:href="#be"/></g><g id="H"><use transform="matrix(0.05,0,0,0.05,0,0)" xlink:href="#bh"/><use transform="matrix(0.05,0,0,0.05,5,0)" xlink:href="#be"/><use transform="matrix(0.05,0,0,0.05,15,0)" xlink:href="#aW"/><use transform="matrix(0.05,0,0,0.05,20.95,0)" xlink:href="#bi"/><use transform="matrix(0.05,0,0,0.05,35.9,0)" xlink:href="#bl"/><use transform="matrix(0.05,0,0,0.05,45.9,0)" xlink:href="#aZ"/><use transform="matrix(0.05,0,0,0.05,49.85,0)" xlink:href="#aY"/><use transform="matrix(0.05,0,0,0.05,59.85,0)" xlink:href="#aW"/><use transform="matrix(0.05,0,0,0.05,65.8,0)" xlink:href="#ba"/><use transform="matrix(0.05,0,0,0.05,69.75,0)" xlink:href="#be"/></g><g id="I"><use transform="matrix(0.05,0,0,0.05,0,0)" xlink:href="#bm"/><use transform="matrix(0.05,0,0,0.05,10,0)" xlink:href="#aX"/></g><g id="J"><use transform="matrix(0.05,0,0,0.05,0,0)" xlink:href="#bm"/><use transform="matrix(0.05,0,0,0.05,10,0)" xlink:href="#aX"/><use transform="matrix(0.05,0,0,0.05,20,0)" xlink:href="#bk"/><use transform="matrix(0.05,0,0,0.05,25,0)" xlink:href="#aY"/><use transform="matrix(0.05,0,0,0.05,35,0)" xlink:href="#aZ"/><use transform="matrix(0.05,0,0,0.05,38.95,0)" xlink:href="#aZ"/><use transform="matrix(0.05,0,0,0.05,42.900000000000006,0)" xlink:href="#aX"/><use transform="matrix(0.05,0,0,0.05,52.900000000000006,0)" xlink:href="#bj"/></g><g id="K"><use transform="matrix(0.05,0,0,0.05,0,0)" xlink:href="#bm"/><use transform="matrix(0.05,0,0,0.05,10,0)" xlink:href="#aX"/><use transform="matrix(0.05,0,0,0.05,20,0)" xlink:href="#aZ"/></g><path fill="#666" d="M108 0H70L1-190h34L89-25l56-165h34" id="bp"/><g id="L"><use transform="matrix(0.05,0,0,0.05,0,0)" xlink:href="#bp"/><use transform="matrix(0.05,0,0,0.05,9,0)" xlink:href="#aX"/><use transform="matrix(0.05,0,0,0.05,19,0)" xlink:href="#aW"/><use transform="matrix(0.05,0,0,0.05,24.95,0)" xlink:href="#ba"/><use transform="matrix(0.05,0,0,0.05,28.899999999999995,0)" xlink:href="#ba"/><use transform="matrix(0.05,0,0,0.05,32.85,0)" xlink:href="#bf"/><use transform="matrix(0.05,0,0,0.05,41.85,0)" xlink:href="#aY"/></g><g id="M"><use transform="matrix(0.05,0,0,0.05,0,0)" xlink:href="#ba"/><use transform="matrix(0.05,0,0,0.05,3.95,0)" xlink:href="#bg"/><use transform="matrix(0.05,0,0,0.05,13.949999999999998,0)" xlink:href="#bh"/><use transform="matrix(0.05,0,0,0.05,18.95,0)" xlink:href="#be"/><use transform="matrix(0.05,0,0,0.05,28.950000000000003,0)" xlink:href="#aW"/><use transform="matrix(0.05,0,0,0.05,34.9,0)" xlink:href="#bi"/><use transform="matrix(0.05,0,0,0.05,49.85,0)" xlink:href="#aY"/><use transform="matrix(0.05,0,0,0.05,59.85,0)" xlink:href="#bf"/><use transform="matrix(0.05,0,0,0.05,68.85,0)" xlink:href="#ba"/><use transform="matrix(0.05,0,0,0.05,72.8,0)" xlink:href="#be"/><use transform="matrix(0.05,0,0,0.05,82.8,0)" xlink:href="#bg"/></g><path fill="#666" d="M179-190L93 31C79 59 56 82 12 73V49c39 6 53-20 64-50L1-190h34L92-34l54-156h33" id="bq"/><use transform="matrix(0.05,0,0,0.05,0,0)" xlink:href="#bq" id="N"/><g id="O"><use transform="matrix(0.05,0,0,0.05,0,0)" xlink:href="#bf"/><use transform="matrix(0.05,0,0,0.05,9,0)" xlink:href="#aY"/><use transform="matrix(0.05,0,0,0.05,19,0)" xlink:href="#aZ"/><use transform="matrix(0.05,0,0,0.05,22.95,0)" xlink:href="#bf"/><use transform="matrix(0.05,0,0,0.05,31.950000000000003,0)" xlink:href="#bl"/><use transform="matrix(0.05,0,0,0.05,41.95,0)" xlink:href="#aZ"/><use transform="matrix(0.05,0,0,0.05,45.900000000000006,0)" xlink:href="#aY"/></g><g id="P"><use transform="matrix(0.05,0,0,0.05,0,0)" xlink:href="#aY"/><use transform="matrix(0.05,0,0,0.05,10,0)" xlink:href="#bj"/><use transform="matrix(0.05,0,0,0.05,19,0)" xlink:href="#ba"/><use transform="matrix(0.05,0,0,0.05,22.95,0)" xlink:href="#bd"/><use transform="matrix(0.05,0,0,0.05,32.95,0)" xlink:href="#bg"/><use transform="matrix(0.05,0,0,0.05,42.95,0)" xlink:href="#aY"/><use transform="matrix(0.05,0,0,0.05,52.95,0)" xlink:href="#bf"/><use transform="matrix(0.05,0,0,0.05,61.95,0)" xlink:href="#ba"/><use transform="matrix(0.05,0,0,0.05,65.9,0)" xlink:href="#be"/><use transform="matrix(0.05,0,0,0.05,75.9,0)" xlink:href="#bg"/></g><g id="Q"><use transform="matrix(0.05,0,0,0.05,0,0)" xlink:href="#bg"/><use transform="matrix(0.05,0,0,0.05,10,0)" xlink:href="#be"/><use transform="matrix(0.05,0,0,0.05,20,0)" xlink:href="#bk"/><use transform="matrix(0.05,0,0,0.05,25,0)" xlink:href="#ba"/><use transform="matrix(0.05,0,0,0.05,28.950000000000003,0)" xlink:href="#bh"/><use transform="matrix(0.05,0,0,0.05,33.95,0)" xlink:href="#ba"/><use transform="matrix(0.05,0,0,0.05,37.900000000000006,0)" xlink:href="#bf"/><use transform="matrix(0.05,0,0,0.05,46.900000000000006,0)" xlink:href="#aY"/><use transform="matrix(0.05,0,0,0.05,56.900000000000006,0)" xlink:href="#bf"/><use transform="matrix(0.05,0,0,0.05,65.9,0)" xlink:href="#ba"/><use transform="matrix(0.05,0,0,0.05,69.85000000000001,0)" xlink:href="#be"/><use transform="matrix(0.05,0,0,0.05,79.85000000000001,0)" xlink:href="#bg"/></g><g id="R"><use transform="matrix(0.05,0,0,0.05,0,0)" xlink:href="#bf"/><use transform="matrix(0.05,0,0,0.05,9,0)" xlink:href="#be"/><use transform="matrix(0.05,0,0,0.05,19,0)" xlink:href="#bg"/></g><g id="S"><use transform="matrix(0.05,0,0,0.05,0,0)" xlink:href="#bm"/><use transform="matrix(0.05,0,0,0.05,10,0)" xlink:href="#aX"/><use transform="matrix(0.05,0,0,0.05,20,0)" xlink:href="#aZ"/></g><g id="T"><use transform="matrix(0.05,0,0,0.05,0,0)" xlink:href="#bf"/><use transform="matrix(0.05,0,0,0.05,9,0)" xlink:href="#be"/><use transform="matrix(0.05,0,0,0.05,19,0)" xlink:href="#bi"/><use transform="matrix(0.05,0,0,0.05,33.95,0)" xlink:href="#bc"/><use transform="matrix(0.05,0,0,0.05,43.95,0)" xlink:href="#aZ"/><use transform="matrix(0.05,0,0,0.05,47.900000000000006,0)" xlink:href="#aX"/><use transform="matrix(0.05,0,0,0.05,57.900000000000006,0)" xlink:href="#bk"/><use transform="matrix(0.05,0,0,0.05,62.900000000000006,0)" xlink:href="#aY"/></g><g id="U"><use transform="matrix(0.05,0,0,0.05,0,0)" xlink:href="#bf"/><use transform="matrix(0.05,0,0,0.05,9,0)" xlink:href="#be"/><use transform="matrix(0.05,0,0,0.05,19,0)" xlink:href="#bg"/></g><g id="V"><use transform="matrix(0.05,0,0,0.05,0,0)" xlink:href="#bm"/><use transform="matrix(0.05,0,0,0.05,10,0)" xlink:href="#aX"/><use transform="matrix(0.05,0,0,0.05,20,0)" xlink:href="#bk"/><use transform="matrix(0.05,0,0,0.05,25,0)" xlink:href="#aY"/><use transform="matrix(0.05,0,0,0.05,35,0)" xlink:href="#aZ"/><use transform="matrix(0.05,0,0,0.05,38.95,0)" xlink:href="#aZ"/><use transform="matrix(0.05,0,0,0.05,42.900000000000006,0)" xlink:href="#aX"/><use transform="matrix(0.05,0,0,0.05,52.900000000000006,0)" xlink:href="#bj"/></g></defs></g></svg>