<svg xmlns="http://www.w3.org/2000/svg" xmlns:xlink="http://www.w3.org/1999/xlink" xmlns:lucid="lucid" width="1633.73" height="2996.65"><g transform="translate(0 0)" lucid:page-tab-id="0_0"><path d="M0 0h1633.73v2996.65H0z" fill="#fff"/><path d="M160 2328a8 8 0 0 1 8-8h99a8 8 0 0 1 8 8v4.93a17.07 17.07 0 0 1-5 12.07 17.07 17.07 0 0 1-12.07 5H168a8 8 0 0 1-8-8z" fill="#fff"/><path d="M275 2320v20l-10 10H160" stroke="#333" fill="none"/><path d="M160 2328a8 8 0 0 1 8-8h444a8 8 0 0 1 8 8v524a8 8 0 0 1-8 8H168a8 8 0 0 1-8-8z" stroke="#333" fill="none"/><use xlink:href="#a" transform="matrix(1,0,0,1,168,2320) translate(1.0499999999999972 18.6)"/><path d="M260 240c0 11.05-8.95 20-20 20s-20-8.95-20-20 8.95-20 20-20 20 8.95 20 20z" stroke="#666"/><path d="M436 200c-8.84 0-16 7.16-16 16v48c0 8.84 7.16 16 16 16h128c8.84 0 16-7.16 16-16v-48c0-8.84-7.16-16-16-16z" stroke="#000" fill="#b8f5ed"/><use xlink:href="#b" transform="matrix(1,0,0,1,428,208) translate(23.654320987654327 26.488888888888887)"/><use xlink:href="#c" transform="matrix(1,0,0,1,428,208) translate(91.7530864197531 26.488888888888887)"/><use xlink:href="#d" transform="matrix(1,0,0,1,428,208) translate(106.56790123456791 26.488888888888887)"/><use xlink:href="#e" transform="matrix(1,0,0,1,428,208) translate(32.56790123456791 47.822222222222216)"/><path d="M453.15 76a8 8 0 0 1 8-8h836.75a8 8 0 0 1 8 8v25.16a8 8 0 0 1-8 8H461.15a8 8 0 0 1-8-8z" stroke="#000" stroke-opacity="0" stroke-width="2" fill="#fff" fill-opacity="0"/><use xlink:href="#f" transform="matrix(1,0,0,1,457.14655278534315,71.99999999994924) translate(272.3371604938272 25.782777777777778)"/><use xlink:href="#g" transform="matrix(1,0,0,1,457.14655278534315,71.99999999994924) translate(398.9322222222222 25.782777777777778)"/><use xlink:href="#h" transform="matrix(1,0,0,1,457.14655278534315,71.99999999994924) translate(436.7359259259259 25.782777777777778)"/><path d="M692.78 109.16h381.65M692.8 109.16h-1.02M1074.4 109.16h1.03" stroke="#a9afb8" stroke-width="2" fill="none"/><path d="M453.15 117.16a8 8 0 0 1 8-8h837.7a8 8 0 0 1 8 8V120a8 8 0 0 1-8 8h-837.7a8 8 0 0 1-8-8z" stroke="#000" stroke-opacity="0" stroke-width="2" fill="#fff" fill-opacity="0"/><use xlink:href="#i" transform="matrix(1,0,0,1,457.1465527853436,113.15522395684805) translate(316.49533950617285 14.917037037037037)"/><use xlink:href="#j" transform="matrix(1,0,0,1,457.1465527853436,113.15522395684805) translate(381.0372119341564 14.917037037037037)"/><use xlink:href="#k" transform="matrix(1,0,0,1,457.1465527853436,113.15522395684805) translate(431.0900925925926 14.917037037037037)"/><use xlink:href="#l" transform="matrix(1,0,0,1,457.1465527853436,113.15522395684805) translate(443.5395781893004 14.917037037037037)"/><use xlink:href="#m" transform="matrix(1,0,0,1,457.1465527853436,113.15522395684805) translate(476.63906378600825 14.917037037037037)"/><use xlink:href="#n" transform="matrix(1,0,0,1,457.1465527853436,113.15522395684805) translate(502.132890946502 14.917037037037037)"/><path d="M261 240h142.12" stroke="#333" fill="none"/><path d="M261 240.47h-.56l.06-.45-.02-.5h.53z" stroke="#333" stroke-width=".05" fill="#333"/><path d="M417.88 240l-14.26 4.63v-9.26z" stroke="#333" fill="#333"/><path d="M436 340c-8.84 0-16 7.16-16 16v48c0 8.84 7.16 16 16 16h128c8.84 0 16-7.16 16-16v-48c0-8.84-7.16-16-16-16z" stroke="#000" fill="#b8f5ed"/><use xlink:href="#o" transform="matrix(1,0,0,1,428,348) translate(20.765432098765434 37.15555555555556)"/><use xlink:href="#p" transform="matrix(1,0,0,1,428,348) translate(71.92592592592592 37.15555555555556)"/><path d="M500 281v42.12" stroke="#000" fill="none"/><path d="M500.48 281h-.96v-.5h.96z" stroke="#000" stroke-width=".05"/><path d="M500 337.88l-4.63-14.26h9.26z" stroke="#000"/><path d="M60 218a8 8 0 0 1 8-8h224a8 8 0 0 1 8 8v44a8 8 0 0 1-8 8H68a8 8 0 0 1-8-8z" fill="none"/><use xlink:href="#q" transform="matrix(1,0,0,1,60,210) translate(92.075 33.6)"/><path d="M416 480c-8.84 0-16 7.16-16 16v48c0 8.84 7.16 16 16 16h168c8.84 0 16-7.16 16-16v-48c0-8.84-7.16-16-16-16z" stroke="#000" fill="#b8f5ed"/><use xlink:href="#r" transform="matrix(1,0,0,1,408,488) translate(18.518518518518515 26.488888888888887)"/><use xlink:href="#s" transform="matrix(1,0,0,1,408,488) translate(113.18518518518518 26.488888888888887)"/><use xlink:href="#t" transform="matrix(1,0,0,1,408,488) translate(23.185185185185187 47.822222222222216)"/><use xlink:href="#u" transform="matrix(1,0,0,1,408,488) translate(94.44444444444446 47.822222222222216)"/><path d="M500 421v42.12" stroke="#333" fill="none"/><path d="M500.48 421h-.96v-.5h.96z" stroke="#333" stroke-width=".05" fill="#333"/><path d="M500 477.88l-4.63-14.26h9.26z" stroke="#333" fill="#333"/><path d="M336 630c-8.84 0-16 7.16-16 16v48c0 8.84 7.16 16 16 16h328c8.84 0 16-7.16 16-16v-48c0-8.84-7.16-16-16-16z" stroke="#000" fill="#b8f5ed"/><use xlink:href="#v" transform="matrix(1,0,0,1,328,638) translate(27.086419753086414 26.488888888888887)"/><use xlink:href="#w" transform="matrix(1,0,0,1,328,638) translate(109.90123456790123 26.488888888888887)"/><use xlink:href="#x" transform="matrix(1,0,0,1,328,638) translate(193.60493827160494 26.488888888888887)"/><use xlink:href="#y" transform="matrix(1,0,0,1,328,638) translate(227.1851851851852 26.488888888888887)"/><use xlink:href="#z" transform="matrix(1,0,0,1,328,638) translate(293.25925925925924 26.488888888888887)"/><use xlink:href="#A" transform="matrix(1,0,0,1,328,638) translate(139.9012345679012 47.822222222222216)"/><path d="M500 561V613.12" stroke="#333" fill="none"/><path d="M500.48 561h-.96v-.5h.96z" stroke="#333" stroke-width=".05" fill="#333"/><path d="M500 627.88l-4.63-14.26h9.26z" stroke="#333" fill="#333"/><path d="M416 780c-8.84 0-16 7.16-16 16v48c0 8.84 7.16 16 16 16h168c8.84 0 16-7.16 16-16v-48c0-8.84-7.16-16-16-16z" stroke="#000" fill="#b8f5ed"/><use xlink:href="#B" transform="matrix(1,0,0,1,408,788) translate(20.56790123456788 37.15555555555556)"/><use xlink:href="#C" transform="matrix(1,0,0,1,408,788) translate(99.38271604938272 37.15555555555556)"/><path d="M500 711v52.12" stroke="#333" fill="none"/><path d="M500.48 711h-.96v-.5h.96z" stroke="#333" stroke-width=".05" fill="#333"/><path d="M500 777.88l-4.63-14.26h9.26z" stroke="#333" fill="#333"/><path d="M999.5 908a8 8 0 0 1 8-8h184a8 8 0 0 1 8 8v4a8 8 0 0 1-8 8h-184a8 8 0 0 1-8-8z" stroke="#000"/><path d="M601 820h381.62" stroke="#333" fill="none"/><path d="M601 820.48h-.5v-.96h.5z" stroke="#333" stroke-width=".05" fill="#333"/><path d="M997.38 820l-14.26 4.63v-9.26z" stroke="#333" fill="#333"/><path d="M1015.5 780c-8.84 0-16 7.16-16 16v48c0 8.84 7.16 16 16 16h168c8.84 0 16-7.16 16-16v-48c0-8.84-7.16-16-16-16z" stroke="#000" fill="#b8f5ed"/><use xlink:href="#D" transform="matrix(1,0,0,1,1007.5,788) translate(12.69135802469135 26.488888888888887)"/><use xlink:href="#E" transform="matrix(1,0,0,1,1007.5,788) translate(79.65432098765432 26.488888888888887)"/><use xlink:href="#F" transform="matrix(1,0,0,1,1007.5,788) translate(45.60493827160494 47.822222222222216)"/><use xlink:href="#A" transform="matrix(1,0,0,1,1007.5,788) translate(74.19753086419753 47.822222222222216)"/><path d="M979.5 868a8 8 0 0 1 8-8h224a8 8 0 0 1 8 8v44a8 8 0 0 1-8 8h-224a8 8 0 0 1-8-8z" fill="none"/><use xlink:href="#G" transform="matrix(1,0,0,1,979.5,860) translate(33.650000000000006 33.6)"/><use xlink:href="#H" transform="matrix(1,0,0,1,979.5,860) translate(131.45 33.6)"/><path d="M795.5 960c-8.84 0-16 7.16-16 16v48c0 8.84 7.16 16 16 16h168c8.84 0 16-7.16 16-16v-48c0-8.84-7.16-16-16-16z" stroke="#000" fill="#b8f5ed"/><use xlink:href="#I" transform="matrix(1,0,0,1,787.5,968) translate(23.45679012345678 26.488888888888887)"/><use xlink:href="#J" transform="matrix(1,0,0,1,787.5,968) translate(89.48148148148148 26.488888888888887)"/><use xlink:href="#z" transform="matrix(1,0,0,1,787.5,968) translate(136.8888888888889 26.488888888888887)"/><use xlink:href="#K" transform="matrix(1,0,0,1,787.5,968) translate(70.79012345679013 47.822222222222216)"/><path d="M998.5 907.84h-107a12 12 0 0 0-12 12v23.28" stroke="#333" fill="none"/><path d="M999 907.98v.33h-.5v-.94h.55z" stroke="#333" stroke-width=".05" fill="#333"/><path d="M879.5 957.88l-4.63-14.26h9.26z" stroke="#333" fill="#333"/><path d="M840 868a8 8 0 0 1 8-8h224a8 8 0 0 1 8 8v44a8 8 0 0 1-8 8H848a8 8 0 0 1-8-8z" fill="none"/><use xlink:href="#L" transform="matrix(1,0,0,1,840,860) translate(113.525 33.6)"/><path d="M1200.5 912.02h107a12 12 0 0 1 12 12v19.1" stroke="#333" fill="none"/><path d="M1200.5 912.5h-.54l.04-.48v-.48h.5z" stroke="#333" stroke-width=".05" fill="#333"/><path d="M1319.5 957.88l-4.63-14.26h9.27z" stroke="#333" fill="#333"/><path d="M1140 868a8 8 0 0 1 8-8h224a8 8 0 0 1 8 8v44a8 8 0 0 1-8 8h-224a8 8 0 0 1-8-8z" fill="none"/><use xlink:href="#M" transform="matrix(1,0,0,1,1140,860) translate(110 33.6)"/><path d="M1235.5 960c-8.84 0-16 7.16-16 16v48c0 8.84 7.16 16 16 16h168c8.84 0 16-7.16 16-16v-48c0-8.84-7.16-16-16-16z" stroke="#000" fill="#b8f5ed"/><use xlink:href="#N" transform="matrix(1,0,0,1,1227.5,968) translate(18.543209876543212 26.488888888888887)"/><use xlink:href="#O" transform="matrix(1,0,0,1,1227.5,968) translate(83.58024691358025 26.488888888888887)"/><use xlink:href="#P" transform="matrix(1,0,0,1,1227.5,968) translate(145.7037037037037 26.488888888888887)"/><use xlink:href="#Q" transform="matrix(1,0,0,1,1227.5,968) translate(73.30864197530865 47.822222222222216)"/><path d="M792.02 1120c-8.84 0-16 7.16-16 16v48c0 8.84 7.16 16 16 16h168c8.84 0 16-7.16 16-16v-48c0-8.84-7.16-16-16-16z" stroke="#000" fill="#b8f5ed"/><use xlink:href="#N" transform="matrix(1,0,0,1,784.0194555188286,1128) translate(23.950617283950617 26.488888888888887)"/><use xlink:href="#J" transform="matrix(1,0,0,1,784.0194555188286,1128) translate(88.98765432098766 26.488888888888887)"/><use xlink:href="#z" transform="matrix(1,0,0,1,784.0194555188286,1128) translate(136.39506172839506 26.488888888888887)"/><use xlink:href="#R" transform="matrix(1,0,0,1,784.0194555188286,1128) translate(33.33333333333334 47.822222222222216)"/><use xlink:href="#S" transform="matrix(1,0,0,1,784.0194555188286,1128) translate(80.69135802469137 47.822222222222216)"/><use xlink:href="#T" transform="matrix(1,0,0,1,784.0194555188286,1128) translate(99.40740740740742 47.822222222222216)"/><path d="M879.5 1041v62.12" stroke="#333" fill="none"/><path d="M879.98 1041H879v-.5h.96z" stroke="#333" stroke-width=".05" fill="#333"/><path d="M879.5 1117.88l-4.63-14.26h9.26z" stroke="#333" fill="#333"/><path d="M1235.5 1120c-8.84 0-16 7.16-16 16v48c0 8.84 7.16 16 16 16h168c8.84 0 16-7.16 16-16v-48c0-8.84-7.16-16-16-16z" stroke="#000" fill="#b8f5ed"/><use xlink:href="#U" transform="matrix(1,0,0,1,1227.5,1128) translate(13.67901234567901 37.15555555555556)"/><use xlink:href="#V" transform="matrix(1,0,0,1,1227.5,1128) translate(78.66666666666667 37.15555555555556)"/><path d="M1319.5 1041v62.12" stroke="#333" fill="none"/><path d="M1319.97 1041h-.94v-.5h.94z" stroke="#333" stroke-width=".05" fill="#333"/><path d="M1319.5 1117.88l-4.63-14.26h9.27z" stroke="#333" fill="#333"/><path d="M796 1280c-8.84 0-16 7.16-16 16v48c0 8.84 7.16 16 16 16h168c8.84 0 16-7.16 16-16v-48c0-8.84-7.16-16-16-16z" stroke="#000" fill="#b8f5ed"/><use xlink:href="#W" transform="matrix(1,0,0,1,788.0000000000002,1288) translate(40.74074074074075 37.15555555555556)"/><use xlink:href="#X" transform="matrix(1,0,0,1,788.0000000000002,1288) translate(103.75308641975309 37.15555555555556)"/><path d="M880 1361v38.75a.25.25 0 0 1-.25.25.25.25 0 0 0-.25.25v22.87" stroke="#333" fill="none"/><path d="M880.48 1361h-.96v-.5h.96z" stroke="#333" stroke-width=".05" fill="#333"/><path d="M879.5 1437.88l-4.63-14.26h9.26z" stroke="#333" fill="#333"/><path d="M876.02 1201v62.12" stroke="#333" fill="none"/><path d="M876.5 1201h-.96v-.5h.95z" stroke="#333" stroke-width=".05" fill="#333"/><path d="M876.02 1277.88l-4.64-14.26h9.27z" stroke="#333" fill="#333"/><path d="M779.5 1568a8 8 0 0 1 8-8h184a8 8 0 0 1 8 8v4a8 8 0 0 1-8 8h-184a8 8 0 0 1-8-8z" stroke="#000"/><path d="M795.5 1440c-8.84 0-16 7.16-16 16v48c0 8.84 7.16 16 16 16h168c8.84 0 16-7.16 16-16v-48c0-8.84-7.16-16-16-16z" stroke="#000" fill="#b8f5ed"/><use xlink:href="#Y" transform="matrix(1,0,0,1,787.5,1448) translate(35.25925925925925 37.15555555555556)"/><use xlink:href="#X" transform="matrix(1,0,0,1,787.5,1448) translate(109.23456790123458 37.15555555555556)"/><path d="M759.5 1528a8 8 0 0 1 8-8h224a8 8 0 0 1 8 8v44a8 8 0 0 1-8 8h-224a8 8 0 0 1-8-8z" fill="none"/><use xlink:href="#Z" transform="matrix(1,0,0,1,759.5,1520) translate(64.025 33.6)"/><use xlink:href="#aa" transform="matrix(1,0,0,1,759.5,1520) translate(109.025 33.6)"/><path d="M778.5 1567.84h-90.48a12 12 0 0 0-12 12v43.28" stroke="#333" fill="none"/><path d="M779 1567.98v.33h-.5v-.94h.55z" stroke="#333" stroke-width=".05" fill="#333"/><path d="M676.02 1637.88l-4.64-14.26h9.27z" stroke="#333" fill="#333"/><path d="M620 1528a8 8 0 0 1 8-8h224a8 8 0 0 1 8 8v44a8 8 0 0 1-8 8H628a8 8 0 0 1-8-8z" fill="none"/><use xlink:href="#L" transform="matrix(1,0,0,1,620,1520) translate(113.525 33.6)"/><path d="M920 1528a8 8 0 0 1 8-8h224a8 8 0 0 1 8 8v44a8 8 0 0 1-8 8H928a8 8 0 0 1-8-8z" fill="none"/><use xlink:href="#M" transform="matrix(1,0,0,1,920,1520) translate(110 33.6)"/><path d="M592.02 1640c-8.84 0-16 7.16-16 16v48c0 8.84 7.16 16 16 16h168c8.84 0 16-7.16 16-16v-48c0-8.84-7.16-16-16-16z" stroke="#000" fill="#b8f5ed"/><use xlink:href="#B" transform="matrix(1,0,0,1,584.0194555188286,1648) translate(32.839506172839506 37.15555555555556)"/><use xlink:href="#X" transform="matrix(1,0,0,1,584.0194555188286,1648) translate(111.65432098765434 37.15555555555556)"/><path d="M980.5 1570.67h104a12 12 0 0 1 12 12v40.45" stroke="#333" fill="none"/><path d="M980.5 1571.14h-.5v-.95h.5z" stroke="#333" stroke-width=".05" fill="#333"/><path d="M1096.5 1637.88l-4.63-14.26h9.27z" stroke="#333" fill="#333"/><path d="M1012.5 1640c-8.83 0-16 7.16-16 16v48c0 8.84 7.17 16 16 16h168c8.85 0 16-7.16 16-16v-48c0-8.84-7.15-16-16-16z" stroke="#000" fill="#b8f5ed"/><use xlink:href="#N" transform="matrix(1,0,0,1,1004.5080686549975,1648) translate(26.49382716049382 26.488888888888887)"/><use xlink:href="#ab" transform="matrix(1,0,0,1,1004.5080686549975,1648) translate(91.53086419753086 26.488888888888887)"/><use xlink:href="#z" transform="matrix(1,0,0,1,1004.5080686549975,1648) translate(133.85185185185185 26.488888888888887)"/><use xlink:href="#ac" transform="matrix(1,0,0,1,1004.5080686549975,1648) translate(72.24691358024691 47.822222222222216)"/><path d="M595.5 1810.7c-8.84 0-16 7.15-16 16v48c0 8.82 7.16 16 16 16h168c8.84 0 16-7.18 16-16v-48c0-8.85-7.16-16-16-16z" stroke="#000" fill="#b8f5ed"/><g><use xlink:href="#ad" transform="matrix(1,0,0,1,587.5,1818.6878481025192) translate(14.592592592592577 26.488888888888887)"/><use xlink:href="#ae" transform="matrix(1,0,0,1,587.5,1818.6878481025192) translate(80.66666666666666 26.488888888888887)"/><use xlink:href="#P" transform="matrix(1,0,0,1,587.5,1818.6878481025192) translate(149.65432098765433 26.488888888888887)"/><use xlink:href="#af" transform="matrix(1,0,0,1,587.5,1818.6878481025192) translate(61.90123456790124 47.822222222222216)"/></g><path d="M676.02 1721v72.8" stroke="#333" fill="none"/><path d="M676.5 1721h-.96v-.5h.95z" stroke="#333" stroke-width=".05" fill="#333"/><path d="M676.02 1808.57l-4.64-14.27h9.27z" stroke="#333" fill="#333"/><path d="M595.5 1980.88c-8.84 0-16 7.16-16 16v48c0 8.83 7.16 16 16 16h168c8.84 0 16-7.17 16-16v-48c0-8.84-7.16-16-16-16z" stroke="#000" fill="#b8f5ed"/><g><use xlink:href="#ag" transform="matrix(1,0,0,1,587.5,1988.8756962050384) translate(19.03703703703705 37.15555555555556)"/><use xlink:href="#ah" transform="matrix(1,0,0,1,587.5,1988.8756962050384) translate(82.14814814814817 37.15555555555556)"/></g><path d="M676.02 1891.2v72.8M676.02 1891.2v-.5" stroke="#333" fill="none"/><path d="M676.02 1978.76l-4.64-14.27h9.27z" stroke="#333" fill="#333"/><path d="M596 2151.06c-8.84 0-16 7.17-16 16v48c0 8.84 7.16 16 16 16h168c8.84 0 16-7.16 16-16v-48c0-8.83-7.16-16-16-16z" stroke="#000" fill="#b8f5ed"/><g><use xlink:href="#ai" transform="matrix(1,0,0,1,588.0000000000002,2159.063544307558) translate(23.506172839506174 37.15555555555556)"/><use xlink:href="#aj" transform="matrix(1,0,0,1,588.0000000000002,2159.063544307558) translate(90.51851851851853 37.15555555555556)"/><use xlink:href="#T" transform="matrix(1,0,0,1,588.0000000000002,2159.063544307558) translate(109.23456790123458 37.15555555555556)"/></g><path d="M676.52 2061.38v72.8M676.52 2061.4v-.52" stroke="#333" fill="none"/><path d="M676.52 2148.95l-4.64-14.27h9.27z" stroke="#333" fill="#333"/><path d="M1015.5 1810.7c-8.84 0-16 7.15-16 16v48c0 8.82 7.16 16 16 16h168c8.84 0 16-7.18 16-16v-48c0-8.85-7.16-16-16-16z" stroke="#000" fill="#b8f5ed"/><g><use xlink:href="#ak" transform="matrix(1,0,0,1,1007.5,1818.6878481025192) translate(32.320987654321 37.15555555555556)"/><use xlink:href="#X" transform="matrix(1,0,0,1,1007.5,1818.6878481025192) translate(112.17283950617285 37.15555555555556)"/></g><path d="M1096.02 1721v72.8M1096.02 1721v-.5" stroke="#333" fill="none"/><path d="M1096.02 1808.57l-4.64-14.27h9.27z" stroke="#333" fill="#333"/><path d="M373.98 2126.33a9.14 9.14 0 0 1 12.04 0l67.96 59.47a7 7 0 0 1 0 10.53l-67.96 59.47a9.14 9.14 0 0 1-12.04 0l-67.96-59.47a7 7 0 0 1 0-10.53z" stroke="#333" fill="#fff"/><g><use xlink:href="#al" transform="matrix(1,0,0,1,300,2121.063544307558) translate(45.08 75.65)"/></g><path d="M579 2191.06H473.26" stroke="#333" fill="none"/><path d="M579.5 2191.54h-.5v-.95h.5z" stroke="#333" stroke-width=".05" fill="#333"/><path d="M458.5 2191.06l14.26-4.63v9.27z" stroke="#333" fill="#333"/><path d="M299.48 2360c-8.84 0-16 7.16-16 16v48c0 8.84 7.16 16 16 16h168c8.84 0 16-7.16 16-16v-48c0-8.84-7.16-16-16-16z" stroke="#000" fill="#b8f5ed"/><g><use xlink:href="#am" transform="matrix(1,0,0,1,291.48054448117136,2368) translate(21.999999999999996 26.488888888888887)"/><use xlink:href="#an" transform="matrix(1,0,0,1,291.48054448117136,2368) translate(51.58024691358025 26.488888888888887)"/><use xlink:href="#ao" transform="matrix(1,0,0,1,291.48054448117136,2368) translate(79.18518518518519 26.488888888888887)"/><use xlink:href="#ap" transform="matrix(1,0,0,1,291.48054448117136,2368) translate(64.37037037037037 47.822222222222216)"/></g><path d="M380 2259.06v84.06" stroke="#333" fill="none"/><path d="M380 2258.56l.48-.03v.54h-.96v-.55z" stroke="#333" stroke-width=".05" fill="#333"/><path d="M380 2357.88l-4.63-14.26h9.26z" stroke="#333" fill="#333"/><path d="M299.48 2541.44c-8.84 0-16 7.16-16 16v48c0 8.84 7.16 16 16 16h168c8.84 0 16-7.16 16-16v-48c0-8.84-7.16-16-16-16z" stroke="#000" fill="#b8f5ed"/><g><use xlink:href="#r" transform="matrix(1,0,0,1,291.48054448117136,2549.441068054319) translate(12.641975308641985 26.488888888888887)"/><use xlink:href="#aq" transform="matrix(1,0,0,1,291.48054448117136,2549.441068054319) translate(107.30864197530865 26.488888888888887)"/><use xlink:href="#ar" transform="matrix(1,0,0,1,291.48054448117136,2549.441068054319) translate(51.061728395061735 47.822222222222216)"/><use xlink:href="#as" transform="matrix(1,0,0,1,291.48054448117136,2549.441068054319) translate(65.87654320987654 47.822222222222216)"/></g><path d="M380 2440.5v84.06M380 2440.5v-.5" stroke="#333" fill="none"/><path d="M380 2539.32l-4.63-14.26h9.26z" stroke="#333" fill="#333"/><path d="M296 2724.14c-8.84 0-16 7.16-16 16v48c0 8.83 7.16 16 16 16h168c8.84 0 16-7.17 16-16v-48c0-8.84-7.16-16-16-16z" stroke="#000" fill="#b8f5ed"/><g><use xlink:href="#at" transform="matrix(1,0,0,1,288.00000000000006,2732.137200693827) translate(17.03703703703702 37.15555555555556)"/><use xlink:href="#au" transform="matrix(1,0,0,1,288.00000000000006,2732.137200693827) translate(86.0246913580247 37.15555555555556)"/></g><path d="M376.52 2623.2v84.05M376.52 2623.2v-.5" stroke="#333" fill="none"/><path d="M376.52 2722.02l-4.64-14.27h9.27z" stroke="#333" fill="#333"/><defs><path fill="#666" d="M96-169c-40 0-48 33-48 73s9 75 48 75c24 0 41-14 43-38l32 2c-6 37-31 61-74 61-59 0-76-41-82-99-10-93 101-131 147-64 4 7 5 14 7 22l-32 3c-4-21-16-35-41-35" id="av"/><path fill="#666" d="M141-36C126-15 110 5 73 4 37 3 15-17 15-53c-1-64 63-63 125-63 3-35-9-54-41-54-24 1-41 7-42 31l-33-3c5-37 33-52 76-52 45 0 72 20 72 64v82c-1 20 7 32 28 27v20c-31 9-61-2-59-35zM48-53c0 20 12 33 32 33 41-3 63-29 60-74-43 2-92-5-92 41" id="aw"/><path fill="#666" d="M117-194c89-4 53 116 60 194h-32v-121c0-31-8-49-39-48C34-167 62-67 57 0H25l-1-190h30c1 10-1 24 2 32 11-22 29-35 61-36" id="ax"/><path fill="#666" d="M100-194c63 0 86 42 84 106H49c0 40 14 67 53 68 26 1 43-12 49-29l28 8c-11 28-37 45-77 45C44 4 14-33 15-96c1-61 26-98 85-98zm52 81c6-60-76-77-97-28-3 7-6 17-6 28h103" id="ay"/><path fill="#666" d="M24 0v-261h32V0H24" id="az"/><path fill="#666" d="M24-231v-30h32v30H24zM24 0v-190h32V0H24" id="aA"/><path fill="#666" d="M100-194c62-1 85 37 85 99 1 63-27 99-86 99S16-35 15-95c0-66 28-99 85-99zM99-20c44 1 53-31 53-75 0-43-8-75-51-75s-53 32-53 75 10 74 51 75" id="aB"/><g id="a"><use transform="matrix(0.05,0,0,0.05,0,0)" xlink:href="#av"/><use transform="matrix(0.05,0,0,0.05,9,0)" xlink:href="#aw"/><use transform="matrix(0.05,0,0,0.05,19,0)" xlink:href="#ax"/><use transform="matrix(0.05,0,0,0.05,29,0)" xlink:href="#av"/><use transform="matrix(0.05,0,0,0.05,38,0)" xlink:href="#ay"/><use transform="matrix(0.05,0,0,0.05,48,0)" xlink:href="#az"/><use transform="matrix(0.05,0,0,0.05,51.95,0)" xlink:href="#aw"/><use transform="matrix(0.05,0,0,0.05,61.95,0)" xlink:href="#av"/><use transform="matrix(0.05,0,0,0.05,70.95,0)" xlink:href="#aA"/><use transform="matrix(0.05,0,0,0.05,74.9,0)" xlink:href="#aB"/><use transform="matrix(0.05,0,0,0.05,84.9,0)" xlink:href="#ax"/></g><path d="M165-48c-4 18 1 34 23 27l-3 20c-29 8-62 0-52-35h-2C116-14 99 4 63 4 30 4 8-16 8-49c0-68 71-67 138-67 10-26 0-56-31-54-26 1-42 9-47 31l-32-5c8-67 160-71 144 15-5 28-9 54-15 81zM42-50c3 52 80 24 89-6 7-12 7-24 11-38-47 1-103-4-100 44" id="aC"/><path d="M44-68c0 29 11 47 38 47 30 0 42-19 51-41l28 9C148-21 126 4 82 4 31 4 10-29 12-85c3-77 74-140 146-93 12 8 15 23 18 40l-31 5c-1-22-13-36-36-36-52 0-65 49-65 101" id="aD"/><path d="M111-194c62-3 86 47 72 106H45c-7 38 6 69 45 68 27-1 43-14 53-32l24 11C152-15 129 4 87 4 38 3 12-23 12-71c0-70 32-119 99-123zm44 81c14-66-71-72-95-28-4 8-8 17-11 28h106" id="aE"/><path d="M133-28C103 26-5 8 13-77c13-62 24-115 90-117 29-1 46 15 56 35l19-102h32L160 0h-30zM45-64c-2 27 10 43 35 43 54-1 69-50 69-103 0-29-15-46-42-46-53-1-58 58-62 106" id="aF"/><path d="M66-151c12-25 30-51 66-40l-6 26C45-176 58-65 38 0H6l36-190h30" id="aG"/><g id="b"><use transform="matrix(0.04938271604938272,0,0,0.04938271604938272,0,0)" xlink:href="#aC"/><use transform="matrix(0.04938271604938272,0,0,0.04938271604938272,9.876543209876544,0)" xlink:href="#aD"/><use transform="matrix(0.04938271604938272,0,0,0.04938271604938272,18.765432098765434,0)" xlink:href="#aD"/><use transform="matrix(0.04938271604938272,0,0,0.04938271604938272,27.654320987654323,0)" xlink:href="#aE"/><use transform="matrix(0.04938271604938272,0,0,0.04938271604938272,37.53086419753087,0)" xlink:href="#aF"/><use transform="matrix(0.04938271604938272,0,0,0.04938271604938272,47.40740740740741,0)" xlink:href="#aE"/><use transform="matrix(0.04938271604938272,0,0,0.04938271604938272,57.283950617283956,0)" xlink:href="#aG"/></g><use transform="matrix(0.04938271604938272,0,0,0.04938271604938272,0,0)" xlink:href="#aC" id="c"/><path d="M6 0l50-261h32L37 0H6" id="aH"/><g id="d"><use transform="matrix(0.04938271604938272,0,0,0.04938271604938272,0,0)" xlink:href="#aH"/><use transform="matrix(0.04938271604938272,0,0,0.04938271604938272,3.901234567901235,0)" xlink:href="#aC"/></g><path d="M67-162c32-53 139-36 121 50C175-51 163 2 97 4 68 4 52-11 42-31 38 6 28 39 22 75H-9l50-265h29c-1 10 0 20-3 28zm89 36c0-26-10-43-35-43-54 0-67 50-69 103-1 29 14 45 42 46 53 0 62-58 62-106" id="aI"/><path d="M50-231l6-30h32l-6 30H50zM6 0l37-190h31L37 0H6" id="aJ"/><path d="M30-147c31-64 166-65 159 27C183-49 158 1 86 4 9 8 1-88 30-147zM88-20c53 0 68-48 68-100 0-31-11-51-44-50-52 1-68 46-68 97 0 32 13 53 44 53" id="aK"/><path d="M67-158c22-48 132-52 116 29L158 0h-32l25-140c3-38-53-32-70-12C52-117 51-52 38 0H6l36-190h30" id="aL"/><g id="e"><use transform="matrix(0.04938271604938272,0,0,0.04938271604938272,0,0)" xlink:href="#aC"/><use transform="matrix(0.04938271604938272,0,0,0.04938271604938272,9.876543209876544,0)" xlink:href="#aI"/><use transform="matrix(0.04938271604938272,0,0,0.04938271604938272,19.75308641975309,0)" xlink:href="#aH"/><use transform="matrix(0.04938271604938272,0,0,0.04938271604938272,23.654320987654323,0)" xlink:href="#aJ"/><use transform="matrix(0.04938271604938272,0,0,0.04938271604938272,27.555555555555557,0)" xlink:href="#aD"/><use transform="matrix(0.04938271604938272,0,0,0.04938271604938272,36.44444444444444,0)" xlink:href="#aC"/><use transform="matrix(0.04938271604938272,0,0,0.04938271604938272,46.32098765432099,0)" xlink:href="#aD"/><use transform="matrix(0.04938271604938272,0,0,0.04938271604938272,55.20987654320987,0)" xlink:href="#aJ"/><use transform="matrix(0.04938271604938272,0,0,0.04938271604938272,59.11111111111111,0)" xlink:href="#aK"/><use transform="matrix(0.04938271604938272,0,0,0.04938271604938272,68.98765432098764,0)" xlink:href="#aL"/></g><path fill="#a9afb8" d="M24-248c120-7 223 5 221 122C244-46 201 0 124 0H24v-248zM76-40c74 7 117-18 117-86 0-67-45-88-117-82v168" id="aM"/><path fill="#a9afb8" d="M25-224v-37h50v37H25zM25 0v-190h50V0H25" id="aN"/><path fill="#a9afb8" d="M133-34C117-15 103 5 69 4 32 3 11-16 11-54c-1-60 55-63 116-61 1-26-3-47-28-47-18 1-26 9-28 27l-52-2c7-38 36-58 82-57s74 22 75 68l1 82c-1 14 12 18 25 15v27c-30 8-71 5-69-32zm-48 3c29 0 43-24 42-57-32 0-66-3-65 30 0 17 8 27 23 27" id="aO"/><path fill="#a9afb8" d="M195-6C206 82 75 100 31 46c-4-6-6-13-8-21l49-6c3 16 16 24 34 25 40 0 42-37 40-79-11 22-30 35-61 35-53 0-70-43-70-97 0-56 18-96 73-97 30 0 46 14 59 34l2-30h47zm-90-29c32 0 41-27 41-63 0-35-9-62-40-62-32 0-39 29-40 63 0 36 9 62 39 62" id="aP"/><path fill="#a9afb8" d="M135-150c-39-12-60 13-60 57V0H25l-1-190h47c2 13-1 29 3 40 6-28 27-53 61-41v41" id="aQ"/><path fill="#a9afb8" d="M220-157c-53 9-28 100-34 157h-49v-107c1-27-5-49-29-50C55-147 81-57 75 0H25l-1-190h47c2 12-1 28 3 38 10-53 101-56 108 0 13-22 24-43 59-42 82 1 51 116 57 194h-49v-107c-1-25-5-48-29-50" id="aR"/><g id="f"><use transform="matrix(0.0728395061728395,0,0,0.0728395061728395,0,0)" xlink:href="#aM"/><use transform="matrix(0.0728395061728395,0,0,0.0728395061728395,18.86543209876543,0)" xlink:href="#aN"/><use transform="matrix(0.0728395061728395,0,0,0.0728395061728395,26.14938271604938,0)" xlink:href="#aO"/><use transform="matrix(0.0728395061728395,0,0,0.0728395061728395,40.717283950617286,0)" xlink:href="#aP"/><use transform="matrix(0.0728395061728395,0,0,0.0728395061728395,56.66913580246913,0)" xlink:href="#aQ"/><use transform="matrix(0.0728395061728395,0,0,0.0728395061728395,66.86666666666666,0)" xlink:href="#aO"/><use transform="matrix(0.0728395061728395,0,0,0.0728395061728395,81.43456790123457,0)" xlink:href="#aR"/><use transform="matrix(0.0728395061728395,0,0,0.0728395061728395,104.7432098765432,0)" xlink:href="#aO"/></g><path fill="#a9afb8" d="M88-194c31-1 46 15 58 34l-1-101h50l1 261h-48c-2-10 0-23-3-31C134-8 116 4 84 4 32 4 16-41 15-95c0-56 19-97 73-99zm17 164c33 0 40-30 41-66 1-37-9-64-41-64s-38 30-39 65c0 43 13 65 39 65" id="aS"/><path fill="#a9afb8" d="M185-48c-13 30-37 53-82 52C43 2 14-33 14-96s30-98 90-98c62 0 83 45 84 108H66c0 31 8 55 39 56 18 0 30-7 34-22zm-45-69c5-46-57-63-70-21-2 6-4 13-4 21h74" id="aT"/><g id="g"><use transform="matrix(0.0728395061728395,0,0,0.0728395061728395,0,0)" xlink:href="#aS"/><use transform="matrix(0.0728395061728395,0,0,0.0728395061728395,15.95185185185185,0)" xlink:href="#aT"/></g><path fill="#a9afb8" d="M190-63c-7 42-38 67-86 67-59 0-84-38-90-98-12-110 154-137 174-36l-49 2c-2-19-15-32-35-32-30 0-35 28-38 64-6 74 65 87 74 30" id="aU"/><path fill="#a9afb8" d="M115-3C79 11 28 4 28-45v-112H4v-33h27l15-45h31v45h36v33H77v99c-1 23 16 31 38 25v30" id="aV"/><path fill="#a9afb8" d="M128 0H69L1-190h53L99-40l48-150h52" id="aW"/><path fill="#a9afb8" d="M137-138c1-29-70-34-71-4 15 46 118 7 119 86 1 83-164 76-172 9l43-7c4 19 20 25 44 25 33 8 57-30 24-41C81-84 22-81 20-136c-2-80 154-74 161-7" id="aX"/><g id="h"><use transform="matrix(0.0728395061728395,0,0,0.0728395061728395,0,0)" xlink:href="#aO"/><use transform="matrix(0.0728395061728395,0,0,0.0728395061728395,14.5679012345679,0)" xlink:href="#aU"/><use transform="matrix(0.0728395061728395,0,0,0.0728395061728395,29.1358024691358,0)" xlink:href="#aV"/><use transform="matrix(0.0728395061728395,0,0,0.0728395061728395,37.803703703703704,0)" xlink:href="#aN"/><use transform="matrix(0.0728395061728395,0,0,0.0728395061728395,45.08765432098765,0)" xlink:href="#aW"/><use transform="matrix(0.0728395061728395,0,0,0.0728395061728395,59.65555555555555,0)" xlink:href="#aN"/><use transform="matrix(0.0728395061728395,0,0,0.0728395061728395,66.9395061728395,0)" xlink:href="#aS"/><use transform="matrix(0.0728395061728395,0,0,0.0728395061728395,82.89135802469136,0)" xlink:href="#aO"/><use transform="matrix(0.0728395061728395,0,0,0.0728395061728395,97.45925925925926,0)" xlink:href="#aS"/><use transform="matrix(0.0728395061728395,0,0,0.0728395061728395,113.41111111111111,0)" xlink:href="#aT"/><use transform="matrix(0.0728395061728395,0,0,0.0728395061728395,127.97901234567901,0)" xlink:href="#aX"/></g><path fill="#a9afb8" d="M185-189c-5-48-123-54-124 2 14 75 158 14 163 119 3 78-121 87-175 55-17-10-28-26-33-46l33-7c5 56 141 63 141-1 0-78-155-14-162-118-5-82 145-84 179-34 5 7 8 16 11 25" id="aY"/><path fill="#a9afb8" d="M141-36C126-15 110 5 73 4 37 3 15-17 15-53c-1-64 63-63 125-63 3-35-9-54-41-54-24 1-41 7-42 31l-33-3c5-37 33-52 76-52 45 0 72 20 72 64v82c-1 20 7 32 28 27v20c-31 9-61-2-59-35zM48-53c0 20 12 33 32 33 41-3 63-29 60-74-43 2-92-5-92 41" id="aZ"/><path fill="#a9afb8" d="M117-194c89-4 53 116 60 194h-32v-121c0-31-8-49-39-48C34-167 62-67 57 0H25l-1-190h30c1 10-1 24 2 32 11-22 29-35 61-36" id="ba"/><path fill="#a9afb8" d="M59-47c-2 24 18 29 38 22v24C64 9 27 4 27-40v-127H5v-23h24l9-43h21v43h35v23H59v120" id="bb"/><path fill="#a9afb8" d="M24-231v-30h32v30H24zM24 0v-190h32V0H24" id="bc"/><path fill="#a9afb8" d="M177-190C167-65 218 103 67 71c-23-6-38-20-44-43l32-5c15 47 100 32 89-28v-30C133-14 115 1 83 1 29 1 15-40 15-95c0-56 16-97 71-98 29-1 48 16 59 35 1-10 0-23 2-32h30zM94-22c36 0 50-32 50-73 0-42-14-75-50-75-39 0-46 34-46 75s6 73 46 73" id="bd"/><path fill="#a9afb8" d="M100-194c62-1 85 37 85 99 1 63-27 99-86 99S16-35 15-95c0-66 28-99 85-99zM99-20c44 1 53-31 53-75 0-43-8-75-51-75s-53 32-53 75 10 74 51 75" id="be"/><g id="i"><use transform="matrix(0.04248971193415638,0,0,0.04248971193415638,0,0)" xlink:href="#aY"/><use transform="matrix(0.04248971193415638,0,0,0.04248971193415638,10.19753086419753,0)" xlink:href="#aZ"/><use transform="matrix(0.04248971193415638,0,0,0.04248971193415638,18.695473251028805,0)" xlink:href="#ba"/><use transform="matrix(0.04248971193415638,0,0,0.04248971193415638,27.193415637860078,0)" xlink:href="#bb"/><use transform="matrix(0.04248971193415638,0,0,0.04248971193415638,31.442386831275712,0)" xlink:href="#bc"/><use transform="matrix(0.04248971193415638,0,0,0.04248971193415638,34.79907407407407,0)" xlink:href="#aZ"/><use transform="matrix(0.04248971193415638,0,0,0.04248971193415638,43.29701646090535,0)" xlink:href="#bd"/><use transform="matrix(0.04248971193415638,0,0,0.04248971193415638,51.79495884773662,0)" xlink:href="#be"/></g><path fill="#a9afb8" d="M30-248c118-7 216 8 213 122C240-48 200 0 122 0H30v-248zM63-27c89 8 146-16 146-99s-60-101-146-95v194" id="bf"/><path fill="#a9afb8" d="M84 4C-5 8 30-112 23-190h32v120c0 31 7 50 39 49 72-2 45-101 50-169h31l1 190h-30c-1-10 1-25-2-33-11 22-28 36-60 37" id="bg"/><path fill="#a9afb8" d="M114-163C36-179 61-72 57 0H25l-1-190h30c1 12-1 29 2 39 6-27 23-49 58-41v29" id="bh"/><path fill="#a9afb8" d="M141-36C126-15 110 5 73 4 37 3 15-17 15-53c-1-64 63-63 125-63 3-35-9-54-41-54-24 1-41 7-42 31l-33-3c5-37 33-52 76-52 45 0 72 20 72 64v82c-1 20 7 32 28 27v20c-31 9-61-2-59-35zM48-53c0 20 12 33 32 33 41-3 63-29 60-74-43 2-92-5-92 41zm25-158c8-23 27-35 38-54h36v5l-58 49H73" id="bi"/><g id="j"><use transform="matrix(0.04248971193415638,0,0,0.04248971193415638,0,0)" xlink:href="#bf"/><use transform="matrix(0.04248971193415638,0,0,0.04248971193415638,11.004835390946502,0)" xlink:href="#bg"/><use transform="matrix(0.04248971193415638,0,0,0.04248971193415638,19.502777777777776,0)" xlink:href="#bh"/><use transform="matrix(0.04248971193415638,0,0,0.04248971193415638,24.559053497942386,0)" xlink:href="#bi"/><use transform="matrix(0.04248971193415638,0,0,0.04248971193415638,33.05699588477366,0)" xlink:href="#ba"/></g><path fill="#a9afb8" d="M32 76v-337h29V76H32" id="bj"/><use transform="matrix(0.04248971193415638,0,0,0.04248971193415638,0,0)" xlink:href="#bj" id="k"/><path fill="#a9afb8" d="M240 0l2-218c-23 76-54 145-80 218h-23L58-218 59 0H30v-248h44l77 211c21-75 51-140 76-211h43V0h-30" id="bk"/><path fill="#a9afb8" d="M179-190L93 31C79 59 56 82 12 73V49c39 6 53-20 64-50L1-190h34L92-34l54-156h33" id="bl"/><g id="l"><use transform="matrix(0.04248971193415638,0,0,0.04248971193415638,0,0)" xlink:href="#bk"/><use transform="matrix(0.04248971193415638,0,0,0.04248971193415638,12.704423868312757,0)" xlink:href="#aZ"/><use transform="matrix(0.04248971193415638,0,0,0.04248971193415638,21.20236625514403,0)" xlink:href="#bl"/></g><path fill="#a9afb8" d="M101-251c82-7 93 87 43 132L82-64C71-53 59-42 53-27h129V0H18c2-99 128-94 128-182 0-28-16-43-45-43s-46 15-49 41l-32-3c6-41 34-60 81-64" id="bm"/><path fill="#a9afb8" d="M134-131c28 9 52 24 51 62-1 50-34 73-85 73S17-19 16-69c0-36 21-54 49-61-75-25-45-126 34-121 46 3 78 18 79 63 0 33-17 51-44 57zm-34-11c31 1 46-15 46-44 0-28-17-43-47-42-29 0-46 13-45 42 1 28 16 44 46 44zm1 122c35 0 51-18 51-52 0-30-18-46-53-46-33 0-51 17-51 47 0 34 19 51 53 51" id="bn"/><path fill="#a9afb8" d="M68-38c1 34 0 65-14 84H32c9-13 17-26 17-46H33v-38h35" id="bo"/><g id="m"><use transform="matrix(0.04248971193415638,0,0,0.04248971193415638,0,0)" xlink:href="#bm"/><use transform="matrix(0.04248971193415638,0,0,0.04248971193415638,8.497942386831275,0)" xlink:href="#bn"/><use transform="matrix(0.04248971193415638,0,0,0.04248971193415638,16.99588477366255,0)" xlink:href="#bo"/></g><path fill="#a9afb8" d="M101-251c68 0 85 55 85 127S166 4 100 4C33 4 14-52 14-124c0-73 17-127 87-127zm-1 229c47 0 54-49 54-102s-4-102-53-102c-51 0-55 48-55 102 0 53 5 102 54 102" id="bp"/><path fill="#a9afb8" d="M155-56V0h-30v-56H8v-25l114-167h33v167h35v25h-35zm-30-156c-27 46-58 90-88 131h88v-131" id="bq"/><g id="n"><use transform="matrix(0.04248971193415638,0,0,0.04248971193415638,0,0)" xlink:href="#bm"/><use transform="matrix(0.04248971193415638,0,0,0.04248971193415638,8.497942386831275,0)" xlink:href="#bp"/><use transform="matrix(0.04248971193415638,0,0,0.04248971193415638,16.99588477366255,0)" xlink:href="#bm"/><use transform="matrix(0.04248971193415638,0,0,0.04248971193415638,25.493827160493822,0)" xlink:href="#bq"/></g><g id="o"><use transform="matrix(0.04938271604938272,0,0,0.04938271604938272,0,0)" xlink:href="#aJ"/><use transform="matrix(0.04938271604938272,0,0,0.04938271604938272,3.901234567901235,0)" xlink:href="#aL"/><use transform="matrix(0.04938271604938272,0,0,0.04938271604938272,13.777777777777779,0)" xlink:href="#aJ"/><use transform="matrix(0.04938271604938272,0,0,0.04938271604938272,17.679012345679013,0)" xlink:href="#aD"/><use transform="matrix(0.04938271604938272,0,0,0.04938271604938272,26.567901234567902,0)" xlink:href="#aJ"/><use transform="matrix(0.04938271604938272,0,0,0.04938271604938272,30.46913580246914,0)" xlink:href="#aC"/><use transform="matrix(0.04938271604938272,0,0,0.04938271604938272,40.345679012345684,0)" xlink:href="#aG"/></g><path d="M55-144c13 50 104 24 104 88C159 21 15 23 1-39l26-10c6 40 102 42 102-4-13-50-104-23-104-87 0-71 143-71 148-8l-29 4c-5-35-85-37-89 0" id="br"/><g id="p"><use transform="matrix(0.04938271604938272,0,0,0.04938271604938272,0,0)" xlink:href="#br"/><use transform="matrix(0.04938271604938272,0,0,0.04938271604938272,8.88888888888889,0)" xlink:href="#aE"/><use transform="matrix(0.04938271604938272,0,0,0.04938271604938272,18.765432098765434,0)" xlink:href="#br"/><use transform="matrix(0.04938271604938272,0,0,0.04938271604938272,27.654320987654323,0)" xlink:href="#aJ"/><use transform="matrix(0.04938271604938272,0,0,0.04938271604938272,31.555555555555557,0)" xlink:href="#aK"/><use transform="matrix(0.04938271604938272,0,0,0.04938271604938272,41.4320987654321,0)" xlink:href="#aL"/></g><path fill="#666" d="M212-179c-10-28-35-45-73-45-59 0-87 40-87 99 0 60 29 101 89 101 43 0 62-24 78-52l27 14C228-24 195 4 139 4 59 4 22-46 18-125c-6-104 99-153 187-111 19 9 31 26 39 46" id="bs"/><path fill="#666" d="M59-47c-2 24 18 29 38 22v24C64 9 27 4 27-40v-127H5v-23h24l9-43h21v43h35v23H59v120" id="bt"/><g id="q"><use transform="matrix(0.05,0,0,0.05,0,0)" xlink:href="#bs"/><use transform="matrix(0.05,0,0,0.05,12.950000000000001,0)" xlink:href="#az"/><use transform="matrix(0.05,0,0,0.05,16.900000000000002,0)" xlink:href="#aA"/><use transform="matrix(0.05,0,0,0.05,20.85,0)" xlink:href="#ay"/><use transform="matrix(0.05,0,0,0.05,30.85,0)" xlink:href="#ax"/><use transform="matrix(0.05,0,0,0.05,40.85,0)" xlink:href="#bt"/><use transform="matrix(0.05,0,0,0.05,45.85,0)" xlink:href="#ay"/></g><g id="r"><use transform="matrix(0.04938271604938272,0,0,0.04938271604938272,0,0)" xlink:href="#br"/><use transform="matrix(0.04938271604938272,0,0,0.04938271604938272,8.88888888888889,0)" xlink:href="#aE"/><use transform="matrix(0.04938271604938272,0,0,0.04938271604938272,18.765432098765434,0)" xlink:href="#aH"/><use transform="matrix(0.04938271604938272,0,0,0.04938271604938272,22.666666666666668,0)" xlink:href="#aE"/><use transform="matrix(0.04938271604938272,0,0,0.04938271604938272,32.543209876543216,0)" xlink:href="#aD"/><use transform="matrix(0.04938271604938272,0,0,0.04938271604938272,41.4320987654321,0)" xlink:href="#aD"/><use transform="matrix(0.04938271604938272,0,0,0.04938271604938272,50.32098765432099,0)" xlink:href="#aJ"/><use transform="matrix(0.04938271604938272,0,0,0.04938271604938272,54.22222222222223,0)" xlink:href="#aK"/><use transform="matrix(0.04938271604938272,0,0,0.04938271604938272,64.09876543209876,0)" xlink:href="#aL"/><use transform="matrix(0.04938271604938272,0,0,0.04938271604938272,73.9753086419753,0)" xlink:href="#aC"/><use transform="matrix(0.04938271604938272,0,0,0.04938271604938272,83.85185185185185,0)" xlink:href="#aG"/></g><g id="s"><use transform="matrix(0.04938271604938272,0,0,0.04938271604938272,0,0)" xlink:href="#aK"/><use transform="matrix(0.04938271604938272,0,0,0.04938271604938272,9.876543209876544,0)" xlink:href="#aI"/><use transform="matrix(0.04938271604938272,0,0,0.04938271604938272,19.75308641975309,0)" xlink:href="#aD"/><use transform="matrix(0.04938271604938272,0,0,0.04938271604938272,28.641975308641978,0)" xlink:href="#aJ"/><use transform="matrix(0.04938271604938272,0,0,0.04938271604938272,32.543209876543216,0)" xlink:href="#aK"/><use transform="matrix(0.04938271604938272,0,0,0.04938271604938272,42.41975308641976,0)" xlink:href="#aL"/></g><path d="M123-170H98l11-78h32zm-65 0H33l11-78h32" id="bu"/><path d="M51-54c-9 22 5 41 31 30L79-1C43 14 10-4 19-52l22-115H19l5-23h22l19-43h21l-9 43h35l-4 23H73" id="bv"/><g id="t"><use transform="matrix(0.04938271604938272,0,0,0.04938271604938272,0,0)" xlink:href="#bu"/><use transform="matrix(0.04938271604938272,0,0,0.04938271604938272,6.271604938271605,0)" xlink:href="#br"/><use transform="matrix(0.04938271604938272,0,0,0.04938271604938272,15.160493827160492,0)" xlink:href="#aK"/><use transform="matrix(0.04938271604938272,0,0,0.04938271604938272,25.037037037037038,0)" xlink:href="#aH"/><use transform="matrix(0.04938271604938272,0,0,0.04938271604938272,28.938271604938276,0)" xlink:href="#aJ"/><use transform="matrix(0.04938271604938272,0,0,0.04938271604938272,32.839506172839506,0)" xlink:href="#aD"/><use transform="matrix(0.04938271604938272,0,0,0.04938271604938272,41.72839506172839,0)" xlink:href="#aJ"/><use transform="matrix(0.04938271604938272,0,0,0.04938271604938272,45.629629629629626,0)" xlink:href="#bv"/><use transform="matrix(0.04938271604938272,0,0,0.04938271604938272,50.5679012345679,0)" xlink:href="#aC"/><use transform="matrix(0.04938271604938272,0,0,0.04938271604938272,60.444444444444436,0)" xlink:href="#aG"/></g><path d="M89 0H52L20-190h33L74-25l89-165h34" id="bw"/><g id="u"><use transform="matrix(0.04938271604938272,0,0,0.04938271604938272,0,0)" xlink:href="#br"/><use transform="matrix(0.04938271604938272,0,0,0.04938271604938272,8.88888888888889,0)" xlink:href="#aE"/><use transform="matrix(0.04938271604938272,0,0,0.04938271604938272,18.765432098765434,0)" xlink:href="#aG"/><use transform="matrix(0.04938271604938272,0,0,0.04938271604938272,24.641975308641978,0)" xlink:href="#bw"/><use transform="matrix(0.04938271604938272,0,0,0.04938271604938272,33.53086419753087,0)" xlink:href="#aJ"/><use transform="matrix(0.04938271604938272,0,0,0.04938271604938272,37.4320987654321,0)" xlink:href="#aD"/><use transform="matrix(0.04938271604938272,0,0,0.04938271604938272,46.32098765432099,0)" xlink:href="#aJ"/><use transform="matrix(0.04938271604938272,0,0,0.04938271604938272,50.22222222222222,0)" xlink:href="#aK"/><use transform="matrix(0.04938271604938272,0,0,0.04938271604938272,60.09876543209877,0)" xlink:href="#bu"/></g><path d="M248-111c6-24 9-61-24-58-72 9-57 108-77 169h-31l26-142c3-37-50-30-64-10C52-115 50-51 37 0H6l36-190h30c-1 10-6 24-4 32 13-43 101-52 105 5 13-22 29-41 61-41 90 0 28 129 23 194h-31" id="bx"/><g id="v"><use transform="matrix(0.04938271604938272,0,0,0.04938271604938272,0,0)" xlink:href="#aD"/><use transform="matrix(0.04938271604938272,0,0,0.04938271604938272,8.88888888888889,0)" xlink:href="#aK"/><use transform="matrix(0.04938271604938272,0,0,0.04938271604938272,18.765432098765434,0)" xlink:href="#bx"/><use transform="matrix(0.04938271604938272,0,0,0.04938271604938272,33.53086419753087,0)" xlink:href="#aI"/><use transform="matrix(0.04938271604938272,0,0,0.04938271604938272,43.40740740740741,0)" xlink:href="#aH"/><use transform="matrix(0.04938271604938272,0,0,0.04938271604938272,47.308641975308646,0)" xlink:href="#aE"/><use transform="matrix(0.04938271604938272,0,0,0.04938271604938272,57.18518518518519,0)" xlink:href="#bv"/><use transform="matrix(0.04938271604938272,0,0,0.04938271604938272,62.12345679012346,0)" xlink:href="#aC"/><use transform="matrix(0.04938271604938272,0,0,0.04938271604938272,72,0)" xlink:href="#aG"/></g><path d="M76-167L44 0H12l33-167H18l4-23h27c3-47 25-81 82-69l-4 24c-35-8-44 15-46 45h37l-5 23H76" id="by"/><path d="M67 3c-93-2-31-127-26-193h32L48-50c-3 39 53 32 70 12 30-34 30-101 43-152h32L157 0h-30c1-10 6-24 4-33-14 20-29 37-64 36" id="bz"/><g id="w"><use transform="matrix(0.04938271604938272,0,0,0.04938271604938272,0,0)" xlink:href="#by"/><use transform="matrix(0.04938271604938272,0,0,0.04938271604938272,4.938271604938272,0)" xlink:href="#aK"/><use transform="matrix(0.04938271604938272,0,0,0.04938271604938272,14.814814814814817,0)" xlink:href="#aG"/><use transform="matrix(0.04938271604938272,0,0,0.04938271604938272,20.69135802469136,0)" xlink:href="#bx"/><use transform="matrix(0.04938271604938272,0,0,0.04938271604938272,35.4567901234568,0)" xlink:href="#bz"/><use transform="matrix(0.04938271604938272,0,0,0.04938271604938272,45.33333333333334,0)" xlink:href="#aH"/><use transform="matrix(0.04938271604938272,0,0,0.04938271604938272,49.23456790123458,0)" xlink:href="#aC"/><use transform="matrix(0.04938271604938272,0,0,0.04938271604938272,59.111111111111114,0)" xlink:href="#aG"/><use transform="matrix(0.04938271604938272,0,0,0.04938271604938272,64.98765432098766,0)" xlink:href="#aJ"/><use transform="matrix(0.04938271604938272,0,0,0.04938271604938272,68.8888888888889,0)" xlink:href="#aK"/></g><g id="x"><use transform="matrix(0.04938271604938272,0,0,0.04938271604938272,0,0)" xlink:href="#aD"/><use transform="matrix(0.04938271604938272,0,0,0.04938271604938272,8.88888888888889,0)" xlink:href="#aK"/><use transform="matrix(0.04938271604938272,0,0,0.04938271604938272,18.765432098765434,0)" xlink:href="#aL"/></g><g id="y"><use transform="matrix(0.04938271604938272,0,0,0.04938271604938272,0,0)" xlink:href="#aF"/><use transform="matrix(0.04938271604938272,0,0,0.04938271604938272,9.876543209876544,0)" xlink:href="#aE"/><use transform="matrix(0.04938271604938272,0,0,0.04938271604938272,19.75308641975309,0)" xlink:href="#bv"/><use transform="matrix(0.04938271604938272,0,0,0.04938271604938272,24.69135802469136,0)" xlink:href="#aC"/><use transform="matrix(0.04938271604938272,0,0,0.04938271604938272,34.567901234567906,0)" xlink:href="#aH"/><use transform="matrix(0.04938271604938272,0,0,0.04938271604938272,38.46913580246914,0)" xlink:href="#aH"/><use transform="matrix(0.04938271604938272,0,0,0.04938271604938272,42.370370370370374,0)" xlink:href="#aE"/><use transform="matrix(0.04938271604938272,0,0,0.04938271604938272,52.24691358024692,0)" xlink:href="#br"/></g><g id="z"><use transform="matrix(0.04938271604938272,0,0,0.04938271604938272,0,0)" xlink:href="#aF"/><use transform="matrix(0.04938271604938272,0,0,0.04938271604938272,9.876543209876544,0)" xlink:href="#aE"/><use transform="matrix(0.04938271604938272,0,0,0.04938271604938272,19.75308641975309,0)" xlink:href="#aH"/></g><path d="M133-28C103 26-5 8 13-77c13-62 24-115 90-117 29-1 46 15 56 35 2-12 6-24 8-34h31L144 75h-31zM45-64c-2 27 10 43 35 43 54-1 69-50 69-103 0-29-15-46-42-46-53-1-58 58-62 106" id="bA"/><g id="A"><use transform="matrix(0.04938271604938272,0,0,0.04938271604938272,0,0)" xlink:href="#aI"/><use transform="matrix(0.04938271604938272,0,0,0.04938271604938272,9.876543209876544,0)" xlink:href="#aC"/><use transform="matrix(0.04938271604938272,0,0,0.04938271604938272,19.75308641975309,0)" xlink:href="#bA"/><use transform="matrix(0.04938271604938272,0,0,0.04938271604938272,29.629629629629633,0)" xlink:href="#bz"/><use transform="matrix(0.04938271604938272,0,0,0.04938271604938272,39.50617283950618,0)" xlink:href="#aE"/><use transform="matrix(0.04938271604938272,0,0,0.04938271604938272,49.38271604938272,0)" xlink:href="#bv"/><use transform="matrix(0.04938271604938272,0,0,0.04938271604938272,54.320987654320994,0)" xlink:href="#aE"/></g><g id="B"><use transform="matrix(0.04938271604938272,0,0,0.04938271604938272,0,0)" xlink:href="#aD"/><use transform="matrix(0.04938271604938272,0,0,0.04938271604938272,8.88888888888889,0)" xlink:href="#aK"/><use transform="matrix(0.04938271604938272,0,0,0.04938271604938272,18.765432098765434,0)" xlink:href="#aL"/><use transform="matrix(0.04938271604938272,0,0,0.04938271604938272,28.641975308641978,0)" xlink:href="#by"/><use transform="matrix(0.04938271604938272,0,0,0.04938271604938272,33.580246913580254,0)" xlink:href="#aJ"/><use transform="matrix(0.04938271604938272,0,0,0.04938271604938272,37.48148148148149,0)" xlink:href="#aG"/><use transform="matrix(0.04938271604938272,0,0,0.04938271604938272,43.35802469135803,0)" xlink:href="#bx"/><use transform="matrix(0.04938271604938272,0,0,0.04938271604938272,58.12345679012347,0)" xlink:href="#aC"/><use transform="matrix(0.04938271604938272,0,0,0.04938271604938272,68.00000000000001,0)" xlink:href="#aG"/></g><g id="C"><use transform="matrix(0.04938271604938272,0,0,0.04938271604938272,0,0)" xlink:href="#br"/><use transform="matrix(0.04938271604938272,0,0,0.04938271604938272,8.88888888888889,0)" xlink:href="#aK"/><use transform="matrix(0.04938271604938272,0,0,0.04938271604938272,18.765432098765434,0)" xlink:href="#aH"/><use transform="matrix(0.04938271604938272,0,0,0.04938271604938272,22.666666666666668,0)" xlink:href="#aJ"/><use transform="matrix(0.04938271604938272,0,0,0.04938271604938272,26.567901234567902,0)" xlink:href="#aD"/><use transform="matrix(0.04938271604938272,0,0,0.04938271604938272,35.45679012345679,0)" xlink:href="#aJ"/><use transform="matrix(0.04938271604938272,0,0,0.04938271604938272,39.358024691358025,0)" xlink:href="#bv"/><use transform="matrix(0.04938271604938272,0,0,0.04938271604938272,44.2962962962963,0)" xlink:href="#bz"/><use transform="matrix(0.04938271604938272,0,0,0.04938271604938272,54.17283950617284,0)" xlink:href="#aF"/></g><g id="D"><use transform="matrix(0.04938271604938272,0,0,0.04938271604938272,0,0)" xlink:href="#bw"/><use transform="matrix(0.04938271604938272,0,0,0.04938271604938272,8.88888888888889,0)" xlink:href="#aE"/><use transform="matrix(0.04938271604938272,0,0,0.04938271604938272,18.765432098765434,0)" xlink:href="#aG"/><use transform="matrix(0.04938271604938272,0,0,0.04938271604938272,24.641975308641978,0)" xlink:href="#aJ"/><use transform="matrix(0.04938271604938272,0,0,0.04938271604938272,28.543209876543212,0)" xlink:href="#by"/><use transform="matrix(0.04938271604938272,0,0,0.04938271604938272,33.48148148148148,0)" xlink:href="#aJ"/><use transform="matrix(0.04938271604938272,0,0,0.04938271604938272,37.382716049382715,0)" xlink:href="#aD"/><use transform="matrix(0.04938271604938272,0,0,0.04938271604938272,46.27160493827161,0)" xlink:href="#aC"/><use transform="matrix(0.04938271604938272,0,0,0.04938271604938272,56.14814814814815,0)" xlink:href="#aG"/></g><g id="E"><use transform="matrix(0.04938271604938272,0,0,0.04938271604938272,0,0)" xlink:href="#aJ"/><use transform="matrix(0.04938271604938272,0,0,0.04938271604938272,3.901234567901235,0)" xlink:href="#aL"/><use transform="matrix(0.04938271604938272,0,0,0.04938271604938272,13.777777777777779,0)" xlink:href="#by"/><use transform="matrix(0.04938271604938272,0,0,0.04938271604938272,18.71604938271605,0)" xlink:href="#aK"/><use transform="matrix(0.04938271604938272,0,0,0.04938271604938272,28.592592592592595,0)" xlink:href="#aG"/><use transform="matrix(0.04938271604938272,0,0,0.04938271604938272,34.46913580246914,0)" xlink:href="#bx"/><use transform="matrix(0.04938271604938272,0,0,0.04938271604938272,49.23456790123457,0)" xlink:href="#aC"/><use transform="matrix(0.04938271604938272,0,0,0.04938271604938272,59.111111111111114,0)" xlink:href="#aD"/><use transform="matrix(0.04938271604938272,0,0,0.04938271604938272,68,0)" xlink:href="#aJ"/><use transform="matrix(0.04938271604938272,0,0,0.04938271604938272,71.90123456790124,0)" xlink:href="#aK"/><use transform="matrix(0.04938271604938272,0,0,0.04938271604938272,81.77777777777779,0)" xlink:href="#aL"/></g><g id="F"><use transform="matrix(0.04938271604938272,0,0,0.04938271604938272,0,0)" xlink:href="#aF"/><use transform="matrix(0.04938271604938272,0,0,0.04938271604938272,9.876543209876544,0)" xlink:href="#aE"/><use transform="matrix(0.04938271604938272,0,0,0.04938271604938272,19.75308641975309,0)" xlink:href="#aH"/></g><path fill="#666" d="M101-234c-31-9-42 10-38 44h38v23H63V0H32v-167H5v-23h27c-7-52 17-82 69-68v24" id="bB"/><path fill="#666" d="M114-163C36-179 61-72 57 0H25l-1-190h30c1 12-1 29 2 39 6-27 23-49 58-41v29" id="bC"/><path fill="#666" d="M210-169c-67 3-38 105-44 169h-31v-121c0-29-5-50-35-48C34-165 62-65 56 0H25l-1-190h30c1 10-1 24 2 32 10-44 99-50 107 0 11-21 27-35 58-36 85-2 47 119 55 194h-31v-121c0-29-5-49-35-48" id="bD"/><g id="G"><use transform="matrix(0.05,0,0,0.05,0,0)" xlink:href="#aA"/><use transform="matrix(0.05,0,0,0.05,3.95,0)" xlink:href="#ax"/><use transform="matrix(0.05,0,0,0.05,13.949999999999998,0)" xlink:href="#bB"/><use transform="matrix(0.05,0,0,0.05,18.95,0)" xlink:href="#aB"/><use transform="matrix(0.05,0,0,0.05,28.950000000000003,0)" xlink:href="#bC"/><use transform="matrix(0.05,0,0,0.05,34.9,0)" xlink:href="#bD"/><use transform="matrix(0.05,0,0,0.05,49.85,0)" xlink:href="#aw"/><use transform="matrix(0.05,0,0,0.05,59.85,0)" xlink:href="#av"/><use transform="matrix(0.05,0,0,0.05,68.85,0)" xlink:href="#aA"/><use transform="matrix(0.05,0,0,0.05,72.8,0)" xlink:href="#aB"/><use transform="matrix(0.05,0,0,0.05,82.8,0)" xlink:href="#ax"/></g><path fill="#666" d="M103-251c84 0 111 97 45 133-19 10-37 24-39 52H78c0-63 77-55 77-114 0-30-21-42-52-43-32 0-53 17-56 46l-32-2c7-45 34-72 88-72zM77 0v-35h34V0H77" id="bE"/><g id="H"><use transform="matrix(0.05,0,0,0.05,0,0)" xlink:href="#av"/><use transform="matrix(0.05,0,0,0.05,9,0)" xlink:href="#aB"/><use transform="matrix(0.05,0,0,0.05,19,0)" xlink:href="#bC"/><use transform="matrix(0.05,0,0,0.05,24.95,0)" xlink:href="#bC"/><use transform="matrix(0.05,0,0,0.05,30.899999999999995,0)" xlink:href="#ay"/><use transform="matrix(0.05,0,0,0.05,40.9,0)" xlink:href="#av"/><use transform="matrix(0.05,0,0,0.05,49.9,0)" xlink:href="#bt"/><use transform="matrix(0.05,0,0,0.05,54.900000000000006,0)" xlink:href="#aw"/><use transform="matrix(0.05,0,0,0.05,64.9,0)" xlink:href="#bE"/></g><g id="I"><use transform="matrix(0.04938271604938272,0,0,0.04938271604938272,0,0)" xlink:href="#aD"/><use transform="matrix(0.04938271604938272,0,0,0.04938271604938272,8.88888888888889,0)" xlink:href="#aC"/><use transform="matrix(0.04938271604938272,0,0,0.04938271604938272,18.765432098765434,0)" xlink:href="#aH"/><use transform="matrix(0.04938271604938272,0,0,0.04938271604938272,22.666666666666668,0)" xlink:href="#aD"/><use transform="matrix(0.04938271604938272,0,0,0.04938271604938272,31.555555555555557,0)" xlink:href="#bz"/><use transform="matrix(0.04938271604938272,0,0,0.04938271604938272,41.4320987654321,0)" xlink:href="#aH"/><use transform="matrix(0.04938271604938272,0,0,0.04938271604938272,45.333333333333336,0)" xlink:href="#aC"/><use transform="matrix(0.04938271604938272,0,0,0.04938271604938272,55.20987654320988,0)" xlink:href="#aG"/></g><g id="J"><use transform="matrix(0.04938271604938272,0,0,0.04938271604938272,0,0)" xlink:href="#aD"/><use transform="matrix(0.04938271604938272,0,0,0.04938271604938272,8.88888888888889,0)" xlink:href="#aK"/><use transform="matrix(0.04938271604938272,0,0,0.04938271604938272,18.765432098765434,0)" xlink:href="#br"/><use transform="matrix(0.04938271604938272,0,0,0.04938271604938272,27.654320987654323,0)" xlink:href="#bv"/><use transform="matrix(0.04938271604938272,0,0,0.04938271604938272,32.592592592592595,0)" xlink:href="#aK"/></g><g id="K"><use transform="matrix(0.04938271604938272,0,0,0.04938271604938272,0,0)" xlink:href="#aE"/><use transform="matrix(0.04938271604938272,0,0,0.04938271604938272,9.876543209876544,0)" xlink:href="#aL"/><use transform="matrix(0.04938271604938272,0,0,0.04938271604938272,19.75308641975309,0)" xlink:href="#bw"/><use transform="matrix(0.04938271604938272,0,0,0.04938271604938272,28.641975308641978,0)" xlink:href="#aJ"/><use transform="matrix(0.04938271604938272,0,0,0.04938271604938272,32.543209876543216,0)" xlink:href="#aK"/></g><path fill="#666" d="M135-143c-3-34-86-38-87 0 15 53 115 12 119 90S17 21 10-45l28-5c4 36 97 45 98 0-10-56-113-15-118-90-4-57 82-63 122-42 12 7 21 19 24 35" id="bF"/><g id="L"><use transform="matrix(0.05,0,0,0.05,0,0)" xlink:href="#bF"/><use transform="matrix(0.05,0,0,0.05,9,0)" xlink:href="#aA"/></g><g id="M"><use transform="matrix(0.05,0,0,0.05,0,0)" xlink:href="#ax"/><use transform="matrix(0.05,0,0,0.05,10,0)" xlink:href="#aB"/></g><g id="N"><use transform="matrix(0.04938271604938272,0,0,0.04938271604938272,0,0)" xlink:href="#bx"/><use transform="matrix(0.04938271604938272,0,0,0.04938271604938272,14.765432098765434,0)" xlink:href="#aK"/><use transform="matrix(0.04938271604938272,0,0,0.04938271604938272,24.641975308641978,0)" xlink:href="#br"/><use transform="matrix(0.04938271604938272,0,0,0.04938271604938272,33.53086419753087,0)" xlink:href="#bv"/><use transform="matrix(0.04938271604938272,0,0,0.04938271604938272,38.46913580246914,0)" xlink:href="#aG"/><use transform="matrix(0.04938271604938272,0,0,0.04938271604938272,44.345679012345684,0)" xlink:href="#aC"/><use transform="matrix(0.04938271604938272,0,0,0.04938271604938272,54.22222222222223,0)" xlink:href="#aG"/></g><path d="M51-231l6-30h31l-6 30H51zM33 24C28 60 2 84-40 72c3-12-1-29 18-22C-5 49-1 37 2 19l41-209h32" id="bG"/><g id="O"><use transform="matrix(0.04938271604938272,0,0,0.04938271604938272,0,0)" xlink:href="#bx"/><use transform="matrix(0.04938271604938272,0,0,0.04938271604938272,14.765432098765434,0)" xlink:href="#aE"/><use transform="matrix(0.04938271604938272,0,0,0.04938271604938272,24.641975308641978,0)" xlink:href="#br"/><use transform="matrix(0.04938271604938272,0,0,0.04938271604938272,33.53086419753087,0)" xlink:href="#aC"/><use transform="matrix(0.04938271604938272,0,0,0.04938271604938272,43.40740740740741,0)" xlink:href="#bG"/><use transform="matrix(0.04938271604938272,0,0,0.04938271604938272,47.308641975308646,0)" xlink:href="#aE"/></g><g id="P"><use transform="matrix(0.04938271604938272,0,0,0.04938271604938272,0,0)" xlink:href="#aF"/><use transform="matrix(0.04938271604938272,0,0,0.04938271604938272,9.876543209876544,0)" xlink:href="#aE"/></g><g id="Q"><use transform="matrix(0.04938271604938272,0,0,0.04938271604938272,0,0)" xlink:href="#aE"/><use transform="matrix(0.04938271604938272,0,0,0.04938271604938272,9.876543209876544,0)" xlink:href="#aG"/><use transform="matrix(0.04938271604938272,0,0,0.04938271604938272,15.753086419753087,0)" xlink:href="#aG"/><use transform="matrix(0.04938271604938272,0,0,0.04938271604938272,21.629629629629633,0)" xlink:href="#aK"/><use transform="matrix(0.04938271604938272,0,0,0.04938271604938272,31.506172839506174,0)" xlink:href="#aG"/></g><g id="R"><use transform="matrix(0.04938271604938272,0,0,0.04938271604938272,0,0)" xlink:href="#aE"/><use transform="matrix(0.04938271604938272,0,0,0.04938271604938272,9.876543209876544,0)" xlink:href="#aL"/><use transform="matrix(0.04938271604938272,0,0,0.04938271604938272,19.75308641975309,0)" xlink:href="#bw"/><use transform="matrix(0.04938271604938272,0,0,0.04938271604938272,28.641975308641978,0)" xlink:href="#aJ"/><use transform="matrix(0.04938271604938272,0,0,0.04938271604938272,32.543209876543216,0)" xlink:href="#aK"/></g><g id="S"><use transform="matrix(0.04938271604938272,0,0,0.04938271604938272,0,0)" xlink:href="#aC"/><use transform="matrix(0.04938271604938272,0,0,0.04938271604938272,9.876543209876544,0)" xlink:href="#aH"/></g><g id="T"><use transform="matrix(0.04938271604938272,0,0,0.04938271604938272,0,0)" xlink:href="#aD"/><use transform="matrix(0.04938271604938272,0,0,0.04938271604938272,8.88888888888889,0)" xlink:href="#aH"/><use transform="matrix(0.04938271604938272,0,0,0.04938271604938272,12.790123456790125,0)" xlink:href="#aJ"/><use transform="matrix(0.04938271604938272,0,0,0.04938271604938272,16.691358024691358,0)" xlink:href="#aE"/><use transform="matrix(0.04938271604938272,0,0,0.04938271604938272,26.567901234567902,0)" xlink:href="#aL"/><use transform="matrix(0.04938271604938272,0,0,0.04938271604938272,36.44444444444444,0)" xlink:href="#bv"/><use transform="matrix(0.04938271604938272,0,0,0.04938271604938272,41.382716049382715,0)" xlink:href="#aE"/></g><path d="M103-194c29 0 47 14 56 36 2-11 5-23 8-32h30L160-5C157 61 82 97 21 62 9 55 4 45 1 30l28-7c7 42 83 31 92-3 4-16 9-38 13-55-13 20-29 36-62 36-40 0-60-25-60-64 0-71 23-131 91-131zm4 24c-53 0-58 54-61 104-2 27 10 44 36 44 49 0 65-50 67-102 1-29-15-46-42-46" id="bH"/><g id="U"><use transform="matrix(0.04938271604938272,0,0,0.04938271604938272,0,0)" xlink:href="#aD"/><use transform="matrix(0.04938271604938272,0,0,0.04938271604938272,8.88888888888889,0)" xlink:href="#aK"/><use transform="matrix(0.04938271604938272,0,0,0.04938271604938272,18.765432098765434,0)" xlink:href="#aG"/><use transform="matrix(0.04938271604938272,0,0,0.04938271604938272,24.641975308641978,0)" xlink:href="#aG"/><use transform="matrix(0.04938271604938272,0,0,0.04938271604938272,30.518518518518523,0)" xlink:href="#aE"/><use transform="matrix(0.04938271604938272,0,0,0.04938271604938272,40.39506172839506,0)" xlink:href="#bH"/><use transform="matrix(0.04938271604938272,0,0,0.04938271604938272,50.27160493827161,0)" xlink:href="#aJ"/><use transform="matrix(0.04938271604938272,0,0,0.04938271604938272,54.17283950617284,0)" xlink:href="#aG"/></g><g id="V"><use transform="matrix(0.04938271604938272,0,0,0.04938271604938272,0,0)" xlink:href="#aJ"/><use transform="matrix(0.04938271604938272,0,0,0.04938271604938272,3.901234567901235,0)" xlink:href="#aL"/><use transform="matrix(0.04938271604938272,0,0,0.04938271604938272,13.777777777777779,0)" xlink:href="#by"/><use transform="matrix(0.04938271604938272,0,0,0.04938271604938272,18.71604938271605,0)" xlink:href="#aK"/><use transform="matrix(0.04938271604938272,0,0,0.04938271604938272,28.592592592592595,0)" xlink:href="#aG"/><use transform="matrix(0.04938271604938272,0,0,0.04938271604938272,34.46913580246914,0)" xlink:href="#bx"/><use transform="matrix(0.04938271604938272,0,0,0.04938271604938272,49.23456790123457,0)" xlink:href="#aC"/><use transform="matrix(0.04938271604938272,0,0,0.04938271604938272,59.111111111111114,0)" xlink:href="#aD"/><use transform="matrix(0.04938271604938272,0,0,0.04938271604938272,68,0)" xlink:href="#aJ"/><use transform="matrix(0.04938271604938272,0,0,0.04938271604938272,71.90123456790124,0)" xlink:href="#aK"/><use transform="matrix(0.04938271604938272,0,0,0.04938271604938272,81.77777777777779,0)" xlink:href="#aL"/></g><path d="M-8 0l5-24 140-142H31l5-24h145l-5 24L36-24h119l-5 24H-8" id="bI"/><g id="W"><use transform="matrix(0.04938271604938272,0,0,0.04938271604938272,0,0)" xlink:href="#aG"/><use transform="matrix(0.04938271604938272,0,0,0.04938271604938272,5.8765432098765435,0)" xlink:href="#aE"/><use transform="matrix(0.04938271604938272,0,0,0.04938271604938272,15.753086419753087,0)" xlink:href="#aC"/><use transform="matrix(0.04938271604938272,0,0,0.04938271604938272,25.629629629629633,0)" xlink:href="#aH"/><use transform="matrix(0.04938271604938272,0,0,0.04938271604938272,29.530864197530867,0)" xlink:href="#aJ"/><use transform="matrix(0.04938271604938272,0,0,0.04938271604938272,33.4320987654321,0)" xlink:href="#bI"/><use transform="matrix(0.04938271604938272,0,0,0.04938271604938272,42.32098765432099,0)" xlink:href="#aC"/><use transform="matrix(0.04938271604938272,0,0,0.04938271604938272,52.19753086419754,0)" xlink:href="#aG"/></g><g id="X"><use transform="matrix(0.04938271604938272,0,0,0.04938271604938272,0,0)" xlink:href="#aI"/><use transform="matrix(0.04938271604938272,0,0,0.04938271604938272,9.876543209876544,0)" xlink:href="#aC"/><use transform="matrix(0.04938271604938272,0,0,0.04938271604938272,19.75308641975309,0)" xlink:href="#bH"/><use transform="matrix(0.04938271604938272,0,0,0.04938271604938272,29.629629629629633,0)" xlink:href="#aK"/></g><g id="Y"><use transform="matrix(0.04938271604938272,0,0,0.04938271604938272,0,0)" xlink:href="#aI"/><use transform="matrix(0.04938271604938272,0,0,0.04938271604938272,9.876543209876544,0)" xlink:href="#aG"/><use transform="matrix(0.04938271604938272,0,0,0.04938271604938272,15.753086419753087,0)" xlink:href="#aK"/><use transform="matrix(0.04938271604938272,0,0,0.04938271604938272,25.629629629629633,0)" xlink:href="#aD"/><use transform="matrix(0.04938271604938272,0,0,0.04938271604938272,34.51851851851852,0)" xlink:href="#aE"/><use transform="matrix(0.04938271604938272,0,0,0.04938271604938272,44.39506172839506,0)" xlink:href="#br"/><use transform="matrix(0.04938271604938272,0,0,0.04938271604938272,53.28395061728394,0)" xlink:href="#aC"/><use transform="matrix(0.04938271604938272,0,0,0.04938271604938272,63.1604938271605,0)" xlink:href="#aG"/></g><path fill="#666" d="M115-194c55 1 70 41 70 98S169 2 115 4C84 4 66-9 55-30l1 105H24l-1-265h31l2 30c10-21 28-34 59-34zm-8 174c40 0 45-34 45-75s-6-73-45-74c-42 0-51 32-51 76 0 43 10 73 51 73" id="bJ"/><path fill="#666" d="M177-190C167-65 218 103 67 71c-23-6-38-20-44-43l32-5c15 47 100 32 89-28v-30C133-14 115 1 83 1 29 1 15-40 15-95c0-56 16-97 71-98 29-1 48 16 59 35 1-10 0-23 2-32h30zM94-22c36 0 50-32 50-73 0-42-14-75-50-75-39 0-46 34-46 75s6 73 46 73" id="bK"/><g id="Z"><use transform="matrix(0.05,0,0,0.05,0,0)" xlink:href="#bJ"/><use transform="matrix(0.05,0,0,0.05,10,0)" xlink:href="#aw"/><use transform="matrix(0.05,0,0,0.05,20,0)" xlink:href="#bK"/><use transform="matrix(0.05,0,0,0.05,30,0)" xlink:href="#aB"/></g><path fill="#666" d="M141 0L90-78 38 0H4l68-98-65-92h35l48 74 47-74h35l-64 92 68 98h-35" id="bL"/><g id="aa"><use transform="matrix(0.05,0,0,0.05,0,0)" xlink:href="#ay"/><use transform="matrix(0.05,0,0,0.05,10,0)" xlink:href="#bL"/><use transform="matrix(0.05,0,0,0.05,19,0)" xlink:href="#aA"/><use transform="matrix(0.05,0,0,0.05,22.95,0)" xlink:href="#bt"/><use transform="matrix(0.05,0,0,0.05,27.950000000000003,0)" xlink:href="#aB"/><use transform="matrix(0.05,0,0,0.05,37.95,0)" xlink:href="#bF"/><use transform="matrix(0.05,0,0,0.05,46.95,0)" xlink:href="#aB"/><use transform="matrix(0.05,0,0,0.05,56.95,0)" xlink:href="#bE"/></g><g id="ab"><use transform="matrix(0.04938271604938272,0,0,0.04938271604938272,0,0)" xlink:href="#aE"/><use transform="matrix(0.04938271604938272,0,0,0.04938271604938272,9.876543209876544,0)" xlink:href="#aG"/><use transform="matrix(0.04938271604938272,0,0,0.04938271604938272,15.753086419753087,0)" xlink:href="#aG"/><use transform="matrix(0.04938271604938272,0,0,0.04938271604938272,21.629629629629633,0)" xlink:href="#aK"/><use transform="matrix(0.04938271604938272,0,0,0.04938271604938272,31.506172839506174,0)" xlink:href="#aG"/></g><g id="ac"><use transform="matrix(0.04938271604938272,0,0,0.04938271604938272,0,0)" xlink:href="#aI"/><use transform="matrix(0.04938271604938272,0,0,0.04938271604938272,9.876543209876544,0)" xlink:href="#aC"/><use transform="matrix(0.04938271604938272,0,0,0.04938271604938272,19.75308641975309,0)" xlink:href="#bH"/><use transform="matrix(0.04938271604938272,0,0,0.04938271604938272,29.629629629629633,0)" xlink:href="#aK"/></g><g id="ad"><use transform="matrix(0.04938271604938272,0,0,0.04938271604938272,0,0)" xlink:href="#bH"/><use transform="matrix(0.04938271604938272,0,0,0.04938271604938272,9.876543209876544,0)" xlink:href="#aE"/><use transform="matrix(0.04938271604938272,0,0,0.04938271604938272,19.75308641975309,0)" xlink:href="#aL"/><use transform="matrix(0.04938271604938272,0,0,0.04938271604938272,29.629629629629633,0)" xlink:href="#aE"/><use transform="matrix(0.04938271604938272,0,0,0.04938271604938272,39.50617283950618,0)" xlink:href="#aG"/><use transform="matrix(0.04938271604938272,0,0,0.04938271604938272,45.38271604938272,0)" xlink:href="#aC"/><use transform="matrix(0.04938271604938272,0,0,0.04938271604938272,55.25925925925927,0)" xlink:href="#aG"/></g><g id="ae"><use transform="matrix(0.04938271604938272,0,0,0.04938271604938272,0,0)" xlink:href="#br"/><use transform="matrix(0.04938271604938272,0,0,0.04938271604938272,8.88888888888889,0)" xlink:href="#aK"/><use transform="matrix(0.04938271604938272,0,0,0.04938271604938272,18.765432098765434,0)" xlink:href="#aH"/><use transform="matrix(0.04938271604938272,0,0,0.04938271604938272,22.666666666666668,0)" xlink:href="#aJ"/><use transform="matrix(0.04938271604938272,0,0,0.04938271604938272,26.567901234567902,0)" xlink:href="#aD"/><use transform="matrix(0.04938271604938272,0,0,0.04938271604938272,35.45679012345679,0)" xlink:href="#aJ"/><use transform="matrix(0.04938271604938272,0,0,0.04938271604938272,39.358024691358025,0)" xlink:href="#bv"/><use transform="matrix(0.04938271604938272,0,0,0.04938271604938272,44.2962962962963,0)" xlink:href="#bz"/><use transform="matrix(0.04938271604938272,0,0,0.04938271604938272,54.17283950617284,0)" xlink:href="#aF"/></g><g id="af"><use transform="matrix(0.04938271604938272,0,0,0.04938271604938272,0,0)" xlink:href="#aE"/><use transform="matrix(0.04938271604938272,0,0,0.04938271604938272,9.876543209876544,0)" xlink:href="#aL"/><use transform="matrix(0.04938271604938272,0,0,0.04938271604938272,19.75308641975309,0)" xlink:href="#bv"/><use transform="matrix(0.04938271604938272,0,0,0.04938271604938272,24.69135802469136,0)" xlink:href="#aG"/><use transform="matrix(0.04938271604938272,0,0,0.04938271604938272,30.567901234567906,0)" xlink:href="#aE"/><use transform="matrix(0.04938271604938272,0,0,0.04938271604938272,40.44444444444445,0)" xlink:href="#bH"/><use transform="matrix(0.04938271604938272,0,0,0.04938271604938272,50.320987654320994,0)" xlink:href="#aC"/></g><g id="ag"><use transform="matrix(0.04938271604938272,0,0,0.04938271604938272,0,0)" xlink:href="#aC"/><use transform="matrix(0.04938271604938272,0,0,0.04938271604938272,9.876543209876544,0)" xlink:href="#br"/><use transform="matrix(0.04938271604938272,0,0,0.04938271604938272,18.765432098765434,0)" xlink:href="#aJ"/><use transform="matrix(0.04938271604938272,0,0,0.04938271604938272,22.666666666666668,0)" xlink:href="#bH"/><use transform="matrix(0.04938271604938272,0,0,0.04938271604938272,32.543209876543216,0)" xlink:href="#aL"/><use transform="matrix(0.04938271604938272,0,0,0.04938271604938272,42.41975308641976,0)" xlink:href="#aC"/><use transform="matrix(0.04938271604938272,0,0,0.04938271604938272,52.2962962962963,0)" xlink:href="#aG"/></g><g id="ah"><use transform="matrix(0.04938271604938272,0,0,0.04938271604938272,0,0)" xlink:href="#bx"/><use transform="matrix(0.04938271604938272,0,0,0.04938271604938272,14.765432098765434,0)" xlink:href="#aE"/><use transform="matrix(0.04938271604938272,0,0,0.04938271604938272,24.641975308641978,0)" xlink:href="#aL"/><use transform="matrix(0.04938271604938272,0,0,0.04938271604938272,34.51851851851852,0)" xlink:href="#br"/><use transform="matrix(0.04938271604938272,0,0,0.04938271604938272,43.407407407407405,0)" xlink:href="#aC"/><use transform="matrix(0.04938271604938272,0,0,0.04938271604938272,53.28395061728394,0)" xlink:href="#bG"/><use transform="matrix(0.04938271604938272,0,0,0.04938271604938272,57.185185185185176,0)" xlink:href="#aE"/><use transform="matrix(0.04938271604938272,0,0,0.04938271604938272,67.06172839506172,0)" xlink:href="#aG"/><use transform="matrix(0.04938271604938272,0,0,0.04938271604938272,72.93827160493827,0)" xlink:href="#aK"/></g><g id="ai"><use transform="matrix(0.04938271604938272,0,0,0.04938271604938272,0,0)" xlink:href="#aL"/><use transform="matrix(0.04938271604938272,0,0,0.04938271604938272,9.876543209876544,0)" xlink:href="#aK"/><use transform="matrix(0.04938271604938272,0,0,0.04938271604938272,19.75308641975309,0)" xlink:href="#bv"/><use transform="matrix(0.04938271604938272,0,0,0.04938271604938272,24.69135802469136,0)" xlink:href="#aJ"/><use transform="matrix(0.04938271604938272,0,0,0.04938271604938272,28.592592592592595,0)" xlink:href="#by"/><use transform="matrix(0.04938271604938272,0,0,0.04938271604938272,33.53086419753087,0)" xlink:href="#aJ"/><use transform="matrix(0.04938271604938272,0,0,0.04938271604938272,37.4320987654321,0)" xlink:href="#aD"/><use transform="matrix(0.04938271604938272,0,0,0.04938271604938272,46.32098765432099,0)" xlink:href="#aC"/><use transform="matrix(0.04938271604938272,0,0,0.04938271604938272,56.19753086419754,0)" xlink:href="#aG"/></g><g id="aj"><use transform="matrix(0.04938271604938272,0,0,0.04938271604938272,0,0)" xlink:href="#aC"/><use transform="matrix(0.04938271604938272,0,0,0.04938271604938272,9.876543209876544,0)" xlink:href="#aH"/></g><g id="ak"><use transform="matrix(0.04938271604938272,0,0,0.04938271604938272,0,0)" xlink:href="#aG"/><use transform="matrix(0.04938271604938272,0,0,0.04938271604938272,5.8765432098765435,0)" xlink:href="#aE"/><use transform="matrix(0.04938271604938272,0,0,0.04938271604938272,15.753086419753087,0)" xlink:href="#aJ"/><use transform="matrix(0.04938271604938272,0,0,0.04938271604938272,19.654320987654323,0)" xlink:href="#aL"/><use transform="matrix(0.04938271604938272,0,0,0.04938271604938272,29.530864197530867,0)" xlink:href="#bv"/><use transform="matrix(0.04938271604938272,0,0,0.04938271604938272,34.46913580246914,0)" xlink:href="#aE"/><use transform="matrix(0.04938271604938272,0,0,0.04938271604938272,44.345679012345684,0)" xlink:href="#aL"/><use transform="matrix(0.04938271604938272,0,0,0.04938271604938272,54.22222222222223,0)" xlink:href="#bv"/><use transform="matrix(0.04938271604938272,0,0,0.04938271604938272,59.1604938271605,0)" xlink:href="#aC"/><use transform="matrix(0.04938271604938272,0,0,0.04938271604938272,69.03703703703704,0)" xlink:href="#aG"/></g><path fill="#666" d="M233-177c-1 41-23 64-60 70L243 0h-38l-65-103H63V0H30v-248c88 3 205-21 203 71zM63-129c60-2 137 13 137-47 0-61-80-42-137-45v92" id="bM"/><path fill="#666" d="M100-194c62-1 85 37 85 99 1 63-27 99-86 99S16-35 15-95c0-66 28-99 85-99zM99-20c44 1 53-31 53-75 0-43-8-75-51-75s-53 32-53 75 10 74 51 75zM76-211c8-23 27-35 38-54h36v5l-58 49H76" id="bN"/><g id="al"><use transform="matrix(0.05,0,0,0.05,0,0)" xlink:href="#bM"/><use transform="matrix(0.05,0,0,0.05,12.950000000000001,0)" xlink:href="#ay"/><use transform="matrix(0.05,0,0,0.05,22.950000000000003,0)" xlink:href="#az"/><use transform="matrix(0.05,0,0,0.05,26.900000000000002,0)" xlink:href="#aw"/><use transform="matrix(0.05,0,0,0.05,36.900000000000006,0)" xlink:href="#av"/><use transform="matrix(0.05,0,0,0.05,45.900000000000006,0)" xlink:href="#aA"/><use transform="matrix(0.05,0,0,0.05,49.85000000000001,0)" xlink:href="#bN"/><use transform="matrix(0.05,0,0,0.05,59.85,0)" xlink:href="#ax"/></g><g id="am"><use transform="matrix(0.04938271604938272,0,0,0.04938271604938272,0,0)" xlink:href="#bw"/><use transform="matrix(0.04938271604938272,0,0,0.04938271604938272,8.88888888888889,0)" xlink:href="#aE"/><use transform="matrix(0.04938271604938272,0,0,0.04938271604938272,18.765432098765434,0)" xlink:href="#aG"/></g><g id="an"><use transform="matrix(0.04938271604938272,0,0,0.04938271604938272,0,0)" xlink:href="#aH"/><use transform="matrix(0.04938271604938272,0,0,0.04938271604938272,3.901234567901235,0)" xlink:href="#aC"/><use transform="matrix(0.04938271604938272,0,0,0.04938271604938272,13.777777777777779,0)" xlink:href="#br"/></g><g id="ao"><use transform="matrix(0.04938271604938272,0,0,0.04938271604938272,0,0)" xlink:href="#br"/><use transform="matrix(0.04938271604938272,0,0,0.04938271604938272,8.88888888888889,0)" xlink:href="#aK"/><use transform="matrix(0.04938271604938272,0,0,0.04938271604938272,18.765432098765434,0)" xlink:href="#aH"/><use transform="matrix(0.04938271604938272,0,0,0.04938271604938272,22.666666666666668,0)" xlink:href="#aJ"/><use transform="matrix(0.04938271604938272,0,0,0.04938271604938272,26.567901234567902,0)" xlink:href="#aD"/><use transform="matrix(0.04938271604938272,0,0,0.04938271604938272,35.45679012345679,0)" xlink:href="#aJ"/><use transform="matrix(0.04938271604938272,0,0,0.04938271604938272,39.358024691358025,0)" xlink:href="#bv"/><use transform="matrix(0.04938271604938272,0,0,0.04938271604938272,44.2962962962963,0)" xlink:href="#bz"/><use transform="matrix(0.04938271604938272,0,0,0.04938271604938272,54.17283950617284,0)" xlink:href="#aF"/><use transform="matrix(0.04938271604938272,0,0,0.04938271604938272,64.0493827160494,0)" xlink:href="#aE"/><use transform="matrix(0.04938271604938272,0,0,0.04938271604938272,73.92592592592594,0)" xlink:href="#br"/></g><g id="ap"><use transform="matrix(0.04938271604938272,0,0,0.04938271604938272,0,0)" xlink:href="#aC"/><use transform="matrix(0.04938271604938272,0,0,0.04938271604938272,9.876543209876544,0)" xlink:href="#aD"/><use transform="matrix(0.04938271604938272,0,0,0.04938271604938272,18.765432098765434,0)" xlink:href="#bv"/><use transform="matrix(0.04938271604938272,0,0,0.04938271604938272,23.703703703703706,0)" xlink:href="#aJ"/><use transform="matrix(0.04938271604938272,0,0,0.04938271604938272,27.60493827160494,0)" xlink:href="#bw"/><use transform="matrix(0.04938271604938272,0,0,0.04938271604938272,36.49382716049383,0)" xlink:href="#aC"/><use transform="matrix(0.04938271604938272,0,0,0.04938271604938272,46.370370370370374,0)" xlink:href="#br"/></g><g id="aq"><use transform="matrix(0.04938271604938272,0,0,0.04938271604938272,0,0)" xlink:href="#br"/><use transform="matrix(0.04938271604938272,0,0,0.04938271604938272,8.88888888888889,0)" xlink:href="#aK"/><use transform="matrix(0.04938271604938272,0,0,0.04938271604938272,18.765432098765434,0)" xlink:href="#aH"/><use transform="matrix(0.04938271604938272,0,0,0.04938271604938272,22.666666666666668,0)" xlink:href="#aJ"/><use transform="matrix(0.04938271604938272,0,0,0.04938271604938272,26.567901234567902,0)" xlink:href="#aD"/><use transform="matrix(0.04938271604938272,0,0,0.04938271604938272,35.45679012345679,0)" xlink:href="#aJ"/><use transform="matrix(0.04938271604938272,0,0,0.04938271604938272,39.358024691358025,0)" xlink:href="#bv"/><use transform="matrix(0.04938271604938272,0,0,0.04938271604938272,44.2962962962963,0)" xlink:href="#bz"/><use transform="matrix(0.04938271604938272,0,0,0.04938271604938272,54.17283950617284,0)" xlink:href="#aF"/></g><use transform="matrix(0.04938271604938272,0,0,0.04938271604938272,0,0)" xlink:href="#aC" id="ar"/><g id="as"><use transform="matrix(0.04938271604938272,0,0,0.04938271604938272,0,0)" xlink:href="#aD"/><use transform="matrix(0.04938271604938272,0,0,0.04938271604938272,8.88888888888889,0)" xlink:href="#aC"/><use transform="matrix(0.04938271604938272,0,0,0.04938271604938272,18.765432098765434,0)" xlink:href="#aL"/><use transform="matrix(0.04938271604938272,0,0,0.04938271604938272,28.641975308641978,0)" xlink:href="#aD"/><use transform="matrix(0.04938271604938272,0,0,0.04938271604938272,37.53086419753087,0)" xlink:href="#aE"/><use transform="matrix(0.04938271604938272,0,0,0.04938271604938272,47.40740740740741,0)" xlink:href="#aH"/><use transform="matrix(0.04938271604938272,0,0,0.04938271604938272,51.308641975308646,0)" xlink:href="#aC"/><use transform="matrix(0.04938271604938272,0,0,0.04938271604938272,61.18518518518519,0)" xlink:href="#aG"/></g><g id="at"><use transform="matrix(0.04938271604938272,0,0,0.04938271604938272,0,0)" xlink:href="#br"/><use transform="matrix(0.04938271604938272,0,0,0.04938271604938272,8.88888888888889,0)" xlink:href="#aK"/><use transform="matrix(0.04938271604938272,0,0,0.04938271604938272,18.765432098765434,0)" xlink:href="#aH"/><use transform="matrix(0.04938271604938272,0,0,0.04938271604938272,22.666666666666668,0)" xlink:href="#aJ"/><use transform="matrix(0.04938271604938272,0,0,0.04938271604938272,26.567901234567902,0)" xlink:href="#aD"/><use transform="matrix(0.04938271604938272,0,0,0.04938271604938272,35.45679012345679,0)" xlink:href="#aJ"/><use transform="matrix(0.04938271604938272,0,0,0.04938271604938272,39.358024691358025,0)" xlink:href="#bv"/><use transform="matrix(0.04938271604938272,0,0,0.04938271604938272,44.2962962962963,0)" xlink:href="#bz"/><use transform="matrix(0.04938271604938272,0,0,0.04938271604938272,54.17283950617284,0)" xlink:href="#aF"/></g><g id="au"><use transform="matrix(0.04938271604938272,0,0,0.04938271604938272,0,0)" xlink:href="#aD"/><use transform="matrix(0.04938271604938272,0,0,0.04938271604938272,8.88888888888889,0)" xlink:href="#aC"/><use transform="matrix(0.04938271604938272,0,0,0.04938271604938272,18.765432098765434,0)" xlink:href="#aL"/><use transform="matrix(0.04938271604938272,0,0,0.04938271604938272,28.641975308641978,0)" xlink:href="#aD"/><use transform="matrix(0.04938271604938272,0,0,0.04938271604938272,37.53086419753087,0)" xlink:href="#aE"/><use transform="matrix(0.04938271604938272,0,0,0.04938271604938272,47.40740740740741,0)" xlink:href="#aH"/><use transform="matrix(0.04938271604938272,0,0,0.04938271604938272,51.308641975308646,0)" xlink:href="#aC"/><use transform="matrix(0.04938271604938272,0,0,0.04938271604938272,61.18518518518519,0)" xlink:href="#aF"/><use transform="matrix(0.04938271604938272,0,0,0.04938271604938272,71.06172839506173,0)" xlink:href="#aC"/></g></defs></g></svg>