<svg xmlns="http://www.w3.org/2000/svg" xmlns:xlink="http://www.w3.org/1999/xlink" xmlns:lucid="lucid" width="1606.75" height="871.84"><g transform="translate(0 0)" lucid:page-tab-id="0_0"><path d="M0 0h1606.76v871.84H0z" fill="#fff"/><path d="M944.94 229.42c17.67 0 32 17.9 32 40s-14.33 40-32 40h-96c-17.67 0-32-17.9-32-40s14.33-40 32-40z" stroke="#000" stroke-opacity="0" fill="#ff741d"/><use xlink:href="#a" transform="matrix(1,0,0,1,821.9390733903984,234.42238802160136) translate(35.075 38.6)"/><path d="M470.56 128a8 8 0 0 1 8-8h836.75a8 8 0 0 1 8 8v25.16a8 8 0 0 1-8 8H478.57a8 8 0 0 1-8-8z" stroke="#000" stroke-opacity="0" stroke-width="2" fill="#fff" fill-opacity="0"/><use xlink:href="#b" transform="matrix(1,0,0,1,474.56431915634084,124) translate(260.0637037037037 23.657777777777778)"/><use xlink:href="#c" transform="matrix(1,0,0,1,474.56431915634084,124) translate(386.6587654320988 23.657777777777778)"/><use xlink:href="#d" transform="matrix(1,0,0,1,474.56431915634084,124) translate(424.46246913580245 23.657777777777778)"/><path d="M752.2 159.8h300.53M752.24 159.8h-1.03M1052.7 159.8h1.03" stroke="#a9afb8" stroke-width="2" fill="none"/><path d="M470.56 169.16a8 8 0 0 1 8-8h837.7a8 8 0 0 1 8 8V172a8 8 0 0 1-8 8h-837.7a8 8 0 0 1-8-8z" stroke="#000" stroke-opacity="0" stroke-width="2" fill="#fff" fill-opacity="0"/><use xlink:href="#e" transform="matrix(1,0,0,1,474.5643191563413,165.1552239568988) translate(316.49533950617285 14.917037037037037)"/><use xlink:href="#f" transform="matrix(1,0,0,1,474.5643191563413,165.1552239568988) translate(381.0372119341564 14.917037037037037)"/><use xlink:href="#g" transform="matrix(1,0,0,1,474.5643191563413,165.1552239568988) translate(431.0900925925926 14.917037037037037)"/><use xlink:href="#h" transform="matrix(1,0,0,1,474.5643191563413,165.1552239568988) translate(443.5395781893004 14.917037037037037)"/><use xlink:href="#i" transform="matrix(1,0,0,1,474.5643191563413,165.1552239568988) translate(476.63906378600825 14.917037037037037)"/><use xlink:href="#j" transform="matrix(1,0,0,1,474.5643191563413,165.1552239568988) translate(502.132890946502 14.917037037037037)"/><path d="M380 468a8 8 0 0 1 8-8h144a8 8 0 0 1 8 8v104a8 8 0 0 1-8 8H388a8 8 0 0 1-8-8z" stroke="#000" stroke-opacity="0" stroke-width="2" fill="#ff8839"/><use xlink:href="#k" transform="matrix(1,0,0,1,385,465) translate(44.05 58.6)"/><path d="M820 608a8 8 0 0 1 8-8h144a8 8 0 0 1 8 8v104a8 8 0 0 1-8 8H828a8 8 0 0 1-8-8z" stroke="#000" stroke-opacity="0" stroke-width="2" fill="#ff8839"/><use xlink:href="#l" transform="matrix(1,0,0,1,825,605) translate(49.05 58.6)"/><path d="M819.38 286.1l-12.9 4.82-15.5 5.06-18.68 5.23-23.88 5.63-36.04 6.86-122.54 20.24-18.6 4.38-13.8 3.85-10.95 3.57-9.08 3.4-7.72 3.25-6.7 3.15-5.9 3.1-5.24 3.03-4.72 3-4.27 2.98-3.9 2.97-3.58 2.97-3.3 2.98-3.07 3-2.85 3.05-2.65 3.08-2.48 3.16-2.33 3.2-2.2 3.3-2.04 3.4-1.92 3.53-1.8 3.64-1.7 3.8-1.56 4-1.46 4.18-1.33 4.44-1.2 4.7-1.04 5.03-.9 5.38-.73 5.83-.03.34" stroke="#333" stroke-linejoin="round" fill="none"/><path d="M820.02 286.37l-.5.2-.32-.9.47-.18z" stroke="#333" stroke-width=".05" fill="#333"/><path d="M460.08 458.38l-3.93-14.47 9.26.46z" stroke="#333" fill="#333"/><path d="M440 328a8 8 0 0 1 8-8h224a8 8 0 0 1 8 8v44a8 8 0 0 1-8 8H448a8 8 0 0 1-8-8z" fill="none"/><use xlink:href="#m" transform="matrix(1,0,0,1,440,320) translate(6.599999999999994 33.6)"/><use xlink:href="#n" transform="matrix(1,0,0,1,440,320) translate(73.55 33.6)"/><use xlink:href="#o" transform="matrix(1,0,0,1,440,320) translate(143.4 33.6)"/><use xlink:href="#p" transform="matrix(1,0,0,1,440,320) translate(168.4 33.6)"/><path d="M816.44 269.43l-134.78 2.52-87 5.37-60.83 6.32-43.68 6.4-32.25 6.12-24.45 5.7-18.95 5.28-14.98 4.86-12.06 4.48-9.85 4.13-1.6.73-8.2 3.94-7.4 3.94-6.68 3.93-6.03 3.9-5.46 3.84-4.92 3.8-4.44 3.72-4 3.65-3.6 3.58-3.26 3.5-2.92 3.45-2.62 3.36-2.34 3.27-2.1 3.2-1.85 3.14-1.66 3.04-1.45 2.98-1.27 2.9-1.1 2.84-.94 2.77-.8 2.7-.66 2.65-.53 2.58-.4 2.53-.3 2.47-.18 2.42-.08 2.38.02 2.32.1 2.28.22 2.24.3 2.2.37 2.16.47 2.12.56 2.1.63 2.04.73 2.02.8 2 .9 1.96.98 1.93 1.08 1.9 1.16 1.9 1.25 1.84 1.34 1.83 1.44 1.8 1.56 1.77 1.66 1.74 1.77 1.72 1.9 1.68 2.03 1.65 2.16 1.6 2.3 1.57 2.46 1.54 2.6 1.5 2.8 1.42 2.98 1.38 3.18 1.3 3.4 1.23 3.6 1.15 3.88 1.04 4.14.94 4.42.8 3.64.52" stroke="#333" stroke-linejoin="round" fill="none"/><path d="M816.94 269.42l.02.48h-.53v-.94h.54z" stroke="#333" stroke-width=".05" fill="#333"/><path d="M378.4 467.9l-14.54 3.73.58-9.25z" stroke="#333" fill="#333"/><path d="M120 368a8 8 0 0 1 8-8h224a8 8 0 0 1 8 8v44a8 8 0 0 1-8 8H128a8 8 0 0 1-8-8z" fill="none"/><use xlink:href="#q" transform="matrix(1,0,0,1,120,360) translate(12.174999999999997 22.799999999999997)"/><use xlink:href="#r" transform="matrix(1,0,0,1,120,360) translate(82.075 22.799999999999997)"/><use xlink:href="#o" transform="matrix(1,0,0,1,120,360) translate(118.97500000000001 22.799999999999997)"/><use xlink:href="#s" transform="matrix(1,0,0,1,120,360) translate(143.97500000000002 22.799999999999997)"/><use xlink:href="#o" transform="matrix(1,0,0,1,120,360) translate(40.025000000000006 44.4)"/><use xlink:href="#t" transform="matrix(1,0,0,1,120,360) translate(65.025 44.4)"/><use xlink:href="#u" transform="matrix(1,0,0,1,120,360) translate(144.025 44.4)"/><path d="M837.13 307.12l-40.17 90.96-18.1 46.52-11.26 33.02-7.37 25-4.9 19.66-3.27 15.85-2.12 13.05-1.3 10.93-.72 9.3-.27 7.97.04 6.94.3 6.1.48 5.4.64 4.82.77 4.33.85 3.9.94 3.58 1 3.27 1.08 3 1.12 2.78 1.17 2.58 1.22 2.4 1.25 2.26 1.3 2.12 1.35 2 1.4 1.88 1.42 1.78 1.5 1.7 1.53 1.62 1.6 1.54 1.66 1.47 1.74 1.4 1.8 1.37 1.9 1.3 2 1.23 2.08 1.2 2.2 1.12 2.35 1.08 2.5 1.03 2.66.96 2.86.9 3.06.84 3.33.76 3.62.66 1.25.17" stroke="#333" stroke-linejoin="round" fill="none"/><path d="M837.77 306.86l-.2.46-.88-.38.2-.5z" stroke="#333" stroke-width=".05" fill="#333"/><path d="M818.4 659.9l-14.57 3.6.65-9.24z" stroke="#333" fill="#333"/><path d="M540 588a8 8 0 0 1 8-8h224a8 8 0 0 1 8 8v44a8 8 0 0 1-8 8H548a8 8 0 0 1-8-8z" fill="none"/><use xlink:href="#v" transform="matrix(1,0,0,1,540,580) translate(26.674999999999997 22.799999999999997)"/><use xlink:href="#w" transform="matrix(1,0,0,1,540,580) translate(86.525 22.799999999999997)"/><use xlink:href="#x" transform="matrix(1,0,0,1,540,580) translate(193.325 22.799999999999997)"/><use xlink:href="#y" transform="matrix(1,0,0,1,540,580) translate(72.55 44.4)"/><path d="M460 580.5l.12 5.27.36 5.74.6 5.74.85 5.73 1.1 5.74 1.35 5.78 1.62 5.8 1.9 5.83 2.18 5.9 2.5 5.93 2.83 6 3.2 6.08 3.53 6.16 3.95 6.2 4.38 6.3 4.82 6.36 5.3 6.4 5.83 6.48 6.37 6.48 6.9 6.5 7.5 6.46 8.07 6.4 8.65 6.27 9.2 6.13 9.74 5.9 10.22 5.6 10.63 5.3 10.95 4.87 11.2 4.44 11.35 3.94 11.37 3.44 11.32 2.9 11.14 2.38 10.93 1.85 10.63 1.34 10.28.85 9.9.42h9.5l9.1-.38 8.66-.74 8.26-1.04 7.86-1.33 7.48-1.6 7.1-1.82 6.78-2.04 6.44-2.25 6.14-2.43 5.85-2.6 5.58-2.78 5.33-2.94 5.1-3.08 4.87-3.24 4.67-3.4 4.48-3.54 4.3-3.72.9-.86" stroke="#333" stroke-linejoin="round" fill="none"/><path d="M460.5 580.5l-.96.03-.02-.53h.96z" stroke="#333" stroke-width=".05" fill="#333"/><path d="M821.45 719.02l-6.6 13.48-6.65-6.45z" stroke="#333" fill="#333"/><path d="M520 728a8 8 0 0 1 8-8h224a8 8 0 0 1 8 8v44a8 8 0 0 1-8 8H528a8 8 0 0 1-8-8z" fill="none"/><g><use xlink:href="#z" transform="matrix(1,0,0,1,520,720) translate(12.625 33.6)"/><use xlink:href="#o" transform="matrix(1,0,0,1,520,720) translate(107.47500000000001 33.6)"/><use xlink:href="#y" transform="matrix(1,0,0,1,520,720) translate(132.47500000000002 33.6)"/></g><path d="M901.67 599.5V325.8" stroke="#333" stroke-linejoin="round" fill="none"/><path d="M902.14 600h-.95v-.52h.94z" stroke="#333" stroke-width=".05" fill="#333"/><path d="M901.67 311.04l4.63 14.27h-9.27z" stroke="#333" fill="#333"/><path d="M800 432.7a8 8 0 0 1 8-8h224a8 8 0 0 1 8 8v44a8 8 0 0 1-8 8H808a8 8 0 0 1-8-8z" fill="none"/><g><use xlink:href="#A" transform="matrix(1,0,0,1,800,424.7111940108007) translate(32.55 22.799999999999997)"/><use xlink:href="#B" transform="matrix(1,0,0,1,800,424.7111940108007) translate(95.55 22.799999999999997)"/><use xlink:href="#C" transform="matrix(1,0,0,1,800,424.7111940108007) translate(110.55 22.799999999999997)"/><use xlink:href="#D" transform="matrix(1,0,0,1,800,424.7111940108007) translate(129.5 22.799999999999997)"/><use xlink:href="#x" transform="matrix(1,0,0,1,800,424.7111940108007) translate(187.45 22.799999999999997)"/><use xlink:href="#E" transform="matrix(1,0,0,1,800,424.7111940108007) translate(38.55 44.4)"/><use xlink:href="#F" transform="matrix(1,0,0,1,800,424.7111940108007) translate(111.45 44.4)"/><use xlink:href="#p" transform="matrix(1,0,0,1,800,424.7111940108007) translate(136.45 44.4)"/></g><path d="M980.5 660l3.37-.08 3.74-.24 3.65-.38 3.54-.52 3.47-.66 3.4-.8 3.34-.94 3.3-1.07 3.28-1.2 3.23-1.36 3.22-1.5 3.2-1.7 3.2-1.83 3.18-2 3.2-2.24 3.2-2.44 3.24-2.67 3.25-2.93 3.27-3.2 3.3-3.54 3.36-3.88 3.37-4.26 3.4-4.7 3.45-5.18 3.46-5.7 3.5-6.33 3.45-7 3.43-7.7 3.38-8.54 3.27-9.4 3.1-10.33 2.9-11.27 2.6-12.25 2.22-13.16 1.77-14 1.23-14.67.63-15.12v-15.3l-.64-15.25-1.25-14.9-1.82-14.3-2.3-13.55-2.67-12.65-3-11.7-3.24-10.75-3.4-9.8-3.52-8.88-3.6-8.06-3.6-7.3-3.63-6.58-3.6-5.95-3.57-5.4-3.55-4.88-3.5-4.42-3.47-4.02-3.42-3.64-3.4-3.32-3.34-3.02-3.33-2.75-3.3-2.5-3.27-2.3-3.27-2.07-3.27-1.88-3.27-1.7-3.28-1.55-3.28-1.38-3.32-1.25-3.34-1.08-3.38-.95-3.44-.8-2.05-.4" stroke="#333" stroke-linejoin="round" fill="none"/><path d="M980.53 660.46H980v-.94h.5z" stroke="#333" stroke-width=".05" fill="#333"/><path d="M978.55 269.57l14.63-3.3-.85 9.23z" stroke="#333" fill="#333"/><path d="M1020 468a8 8 0 0 1 8-8h224a8 8 0 0 1 8 8v44a8 8 0 0 1-8 8h-224a8 8 0 0 1-8-8z" fill="none"/><g><use xlink:href="#G" transform="matrix(1,0,0,1,1020,459.99999999999994) translate(25.650000000000006 22.799999999999997)"/><use xlink:href="#C" transform="matrix(1,0,0,1,1020,459.99999999999994) translate(115.55000000000001 22.799999999999997)"/><use xlink:href="#n" transform="matrix(1,0,0,1,1020,459.99999999999994) translate(134.5 22.799999999999997)"/><use xlink:href="#H" transform="matrix(1,0,0,1,1020,459.99999999999994) translate(204.35 22.799999999999997)"/><use xlink:href="#I" transform="matrix(1,0,0,1,1020,459.99999999999994) translate(86.05 44.4)"/></g><path d="M980.5 689.32l4.55-.1 6.4-.4 8.17-.87 10.54-1.57 13.57-2.6 17.28-4.07 21.33-5.96 25-8.14 27.43-10.2 28-11.78 26.76-12.6 24.34-12.7 21.4-12.34 18.4-11.66 15.65-10.88 13.26-10.05 11.2-9.27 9.5-8.53 8.03-7.86 6.83-7.28 5.83-6.76 5-6.3 4.27-5.87 3.67-5.53 3.16-5.2 2.72-4.94 2.32-4.7 2-4.46 1.7-4.3 1.43-4.1 1.2-3.98 1-3.86.78-3.74.63-3.65.45-3.57.3-3.5.14-3.46v-3.42l-.05-1.8-.22-3.42-.38-3.53-.54-3.64-.73-3.77-.92-3.9-1.15-4.1-1.4-4.26-1.66-4.48-2-4.72-2.35-5-2.78-5.28-3.26-5.64-3.84-6.02-4.5-6.45-5.27-6.92-6.2-7.46-7.26-8.04-8.5-8.67-9.98-9.32-11.62-10-13.45-10.63-15.4-11.15-17.35-11.5-19.1-11.5-20.4-11.2-21.04-10.4-20.9-9.3-20-7.9-18.47-6.4-16.65-5-14.68-3.77-12.8-2.7-11.06-1.88-9.56-1.2-8.25-.7-7.17-.28h-6.22l-5.43.24-4.78.4-4.23.55-3.74.64-3.34.7-.28.07" stroke="#333" stroke-linejoin="round" fill="none"/><path d="M980.53 689.8H980v-.94h.5z" stroke="#333" stroke-width=".05" fill="#333"/><path d="M972.06 244.98l11.7-9.4 3.28 8.68z" stroke="#333" fill="#333"/><path d="M1240 448a8 8 0 0 1 8-8h224a8 8 0 0 1 8 8v44a8 8 0 0 1-8 8h-224a8 8 0 0 1-8-8z" fill="none"/><g><use xlink:href="#J" transform="matrix(1,0,0,1,1240,440) translate(26.14999999999999 33.6)"/><use xlink:href="#C" transform="matrix(1,0,0,1,1240,440) translate(100 33.6)"/><use xlink:href="#y" transform="matrix(1,0,0,1,1240,440) translate(118.95 33.6)"/></g><defs><path fill="#fff" d="M165-48c-4 18 1 34 23 27l-3 20c-29 8-62 0-52-35h-2C116-14 99 4 63 4 30 4 8-16 8-49c0-68 71-67 138-67 10-26 0-56-31-54-26 1-42 9-47 31l-32-5c8-67 160-71 144 15-5 28-9 54-15 81zM42-50c3 52 80 24 89-6 7-12 7-24 11-38-47 1-103-4-100 44" id="K"/><path fill="#fff" d="M67-162c32-53 139-36 121 50C175-51 163 2 97 4 68 4 52-11 42-31 38 6 28 39 22 75H-9l50-265h29c-1 10 0 20-3 28zm89 36c0-26-10-43-35-43-54 0-67 50-69 103-1 29 14 45 42 46 53 0 62-58 62-106" id="L"/><path fill="#fff" d="M6 0l50-261h32L37 0H6" id="M"/><path fill="#fff" d="M50-231l6-30h32l-6 30H50zM6 0l37-190h31L37 0H6" id="N"/><path fill="#fff" d="M44-68c0 29 11 47 38 47 30 0 42-19 51-41l28 9C148-21 126 4 82 4 31 4 10-29 12-85c3-77 74-140 146-93 12 8 15 23 18 40l-31 5c-1-22-13-36-36-36-52 0-65 49-65 101" id="O"/><path fill="#fff" d="M30-147c31-64 166-65 159 27C183-49 158 1 86 4 9 8 1-88 30-147zM88-20c53 0 68-48 68-100 0-31-11-51-44-50-52 1-68 46-68 97 0 32 13 53 44 53" id="P"/><path fill="#fff" d="M67-158c22-48 132-52 116 29L158 0h-32l25-140c3-38-53-32-70-12C52-117 51-52 38 0H6l36-190h30" id="Q"/><g id="a"><use transform="matrix(0.05,0,0,0.05,0,0)" xlink:href="#K"/><use transform="matrix(0.05,0,0,0.05,10,0)" xlink:href="#L"/><use transform="matrix(0.05,0,0,0.05,20,0)" xlink:href="#M"/><use transform="matrix(0.05,0,0,0.05,23.95,0)" xlink:href="#N"/><use transform="matrix(0.05,0,0,0.05,27.899999999999995,0)" xlink:href="#O"/><use transform="matrix(0.05,0,0,0.05,36.9,0)" xlink:href="#K"/><use transform="matrix(0.05,0,0,0.05,46.9,0)" xlink:href="#O"/><use transform="matrix(0.05,0,0,0.05,55.900000000000006,0)" xlink:href="#N"/><use transform="matrix(0.05,0,0,0.05,59.85,0)" xlink:href="#P"/><use transform="matrix(0.05,0,0,0.05,69.85,0)" xlink:href="#Q"/></g><path fill="#a9afb8" d="M24-248c120-7 223 5 221 122C244-46 201 0 124 0H24v-248zM76-40c74 7 117-18 117-86 0-67-45-88-117-82v168" id="R"/><path fill="#a9afb8" d="M25-224v-37h50v37H25zM25 0v-190h50V0H25" id="S"/><path fill="#a9afb8" d="M133-34C117-15 103 5 69 4 32 3 11-16 11-54c-1-60 55-63 116-61 1-26-3-47-28-47-18 1-26 9-28 27l-52-2c7-38 36-58 82-57s74 22 75 68l1 82c-1 14 12 18 25 15v27c-30 8-71 5-69-32zm-48 3c29 0 43-24 42-57-32 0-66-3-65 30 0 17 8 27 23 27" id="T"/><path fill="#a9afb8" d="M195-6C206 82 75 100 31 46c-4-6-6-13-8-21l49-6c3 16 16 24 34 25 40 0 42-37 40-79-11 22-30 35-61 35-53 0-70-43-70-97 0-56 18-96 73-97 30 0 46 14 59 34l2-30h47zm-90-29c32 0 41-27 41-63 0-35-9-62-40-62-32 0-39 29-40 63 0 36 9 62 39 62" id="U"/><path fill="#a9afb8" d="M135-150c-39-12-60 13-60 57V0H25l-1-190h47c2 13-1 29 3 40 6-28 27-53 61-41v41" id="V"/><path fill="#a9afb8" d="M220-157c-53 9-28 100-34 157h-49v-107c1-27-5-49-29-50C55-147 81-57 75 0H25l-1-190h47c2 12-1 28 3 38 10-53 101-56 108 0 13-22 24-43 59-42 82 1 51 116 57 194h-49v-107c-1-25-5-48-29-50" id="W"/><g id="b"><use transform="matrix(0.0728395061728395,0,0,0.0728395061728395,0,0)" xlink:href="#R"/><use transform="matrix(0.0728395061728395,0,0,0.0728395061728395,18.86543209876543,0)" xlink:href="#S"/><use transform="matrix(0.0728395061728395,0,0,0.0728395061728395,26.14938271604938,0)" xlink:href="#T"/><use transform="matrix(0.0728395061728395,0,0,0.0728395061728395,40.717283950617286,0)" xlink:href="#U"/><use transform="matrix(0.0728395061728395,0,0,0.0728395061728395,56.66913580246913,0)" xlink:href="#V"/><use transform="matrix(0.0728395061728395,0,0,0.0728395061728395,66.86666666666666,0)" xlink:href="#T"/><use transform="matrix(0.0728395061728395,0,0,0.0728395061728395,81.43456790123457,0)" xlink:href="#W"/><use transform="matrix(0.0728395061728395,0,0,0.0728395061728395,104.7432098765432,0)" xlink:href="#T"/></g><path fill="#a9afb8" d="M88-194c31-1 46 15 58 34l-1-101h50l1 261h-48c-2-10 0-23-3-31C134-8 116 4 84 4 32 4 16-41 15-95c0-56 19-97 73-99zm17 164c33 0 40-30 41-66 1-37-9-64-41-64s-38 30-39 65c0 43 13 65 39 65" id="X"/><path fill="#a9afb8" d="M185-48c-13 30-37 53-82 52C43 2 14-33 14-96s30-98 90-98c62 0 83 45 84 108H66c0 31 8 55 39 56 18 0 30-7 34-22zm-45-69c5-46-57-63-70-21-2 6-4 13-4 21h74" id="Y"/><g id="c"><use transform="matrix(0.0728395061728395,0,0,0.0728395061728395,0,0)" xlink:href="#X"/><use transform="matrix(0.0728395061728395,0,0,0.0728395061728395,15.95185185185185,0)" xlink:href="#Y"/></g><path fill="#a9afb8" d="M67-125c0 53 21 87 73 88 37 1 54-22 65-47l45 17C233-25 199 4 140 4 58 4 20-42 15-125 8-235 124-281 211-232c18 10 29 29 36 50l-46 12c-8-25-30-41-62-41-52 0-71 34-72 86" id="Z"/><path fill="#a9afb8" d="M110-194c64 0 96 36 96 99 0 64-35 99-97 99-61 0-95-36-95-99 0-62 34-99 96-99zm-1 164c35 0 45-28 45-65 0-40-10-65-43-65-34 0-45 26-45 65 0 36 10 65 43 65" id="aa"/><path fill="#a9afb8" d="M25 0v-261h50V0H25" id="ab"/><path fill="#a9afb8" d="M135-194c52 0 70 43 70 98 0 56-19 99-73 100-30 1-46-15-58-35L72 0H24l1-261h50v104c11-23 29-37 60-37zM114-30c31 0 40-27 40-66 0-37-7-63-39-63s-41 28-41 65c0 36 8 64 40 64" id="ac"/><path fill="#a9afb8" d="M190-63c-7 42-38 67-86 67-59 0-84-38-90-98-12-110 154-137 174-36l-49 2c-2-19-15-32-35-32-30 0-35 28-38 64-6 74 65 87 74 30" id="ad"/><path fill="#a9afb8" d="M135-194c87-1 58 113 63 194h-50c-7-57 23-157-34-157-59 0-34 97-39 157H25l-1-190h47c2 12-1 28 3 38 12-26 28-41 61-42" id="ae"/><g id="d"><use transform="matrix(0.0728395061728395,0,0,0.0728395061728395,0,0)" xlink:href="#Z"/><use transform="matrix(0.0728395061728395,0,0,0.0728395061728395,18.86543209876543,0)" xlink:href="#aa"/><use transform="matrix(0.0728395061728395,0,0,0.0728395061728395,34.81728395061728,0)" xlink:href="#ab"/><use transform="matrix(0.0728395061728395,0,0,0.0728395061728395,42.10123456790124,0)" xlink:href="#T"/><use transform="matrix(0.0728395061728395,0,0,0.0728395061728395,56.66913580246913,0)" xlink:href="#ac"/><use transform="matrix(0.0728395061728395,0,0,0.0728395061728395,72.62098765432098,0)" xlink:href="#aa"/><use transform="matrix(0.0728395061728395,0,0,0.0728395061728395,88.57283950617284,0)" xlink:href="#V"/><use transform="matrix(0.0728395061728395,0,0,0.0728395061728395,98.77037037037037,0)" xlink:href="#T"/><use transform="matrix(0.0728395061728395,0,0,0.0728395061728395,113.33827160493827,0)" xlink:href="#ad"/><use transform="matrix(0.0728395061728395,0,0,0.0728395061728395,127.90617283950617,0)" xlink:href="#S"/><use transform="matrix(0.0728395061728395,0,0,0.0728395061728395,135.19012345679013,0)" xlink:href="#aa"/><use transform="matrix(0.0728395061728395,0,0,0.0728395061728395,151.14197530864197,0)" xlink:href="#ae"/></g><path fill="#a9afb8" d="M185-189c-5-48-123-54-124 2 14 75 158 14 163 119 3 78-121 87-175 55-17-10-28-26-33-46l33-7c5 56 141 63 141-1 0-78-155-14-162-118-5-82 145-84 179-34 5 7 8 16 11 25" id="af"/><path fill="#a9afb8" d="M141-36C126-15 110 5 73 4 37 3 15-17 15-53c-1-64 63-63 125-63 3-35-9-54-41-54-24 1-41 7-42 31l-33-3c5-37 33-52 76-52 45 0 72 20 72 64v82c-1 20 7 32 28 27v20c-31 9-61-2-59-35zM48-53c0 20 12 33 32 33 41-3 63-29 60-74-43 2-92-5-92 41" id="ag"/><path fill="#a9afb8" d="M117-194c89-4 53 116 60 194h-32v-121c0-31-8-49-39-48C34-167 62-67 57 0H25l-1-190h30c1 10-1 24 2 32 11-22 29-35 61-36" id="ah"/><path fill="#a9afb8" d="M59-47c-2 24 18 29 38 22v24C64 9 27 4 27-40v-127H5v-23h24l9-43h21v43h35v23H59v120" id="ai"/><path fill="#a9afb8" d="M24-231v-30h32v30H24zM24 0v-190h32V0H24" id="aj"/><path fill="#a9afb8" d="M177-190C167-65 218 103 67 71c-23-6-38-20-44-43l32-5c15 47 100 32 89-28v-30C133-14 115 1 83 1 29 1 15-40 15-95c0-56 16-97 71-98 29-1 48 16 59 35 1-10 0-23 2-32h30zM94-22c36 0 50-32 50-73 0-42-14-75-50-75-39 0-46 34-46 75s6 73 46 73" id="ak"/><path fill="#a9afb8" d="M100-194c62-1 85 37 85 99 1 63-27 99-86 99S16-35 15-95c0-66 28-99 85-99zM99-20c44 1 53-31 53-75 0-43-8-75-51-75s-53 32-53 75 10 74 51 75" id="al"/><g id="e"><use transform="matrix(0.04248971193415638,0,0,0.04248971193415638,0,0)" xlink:href="#af"/><use transform="matrix(0.04248971193415638,0,0,0.04248971193415638,10.19753086419753,0)" xlink:href="#ag"/><use transform="matrix(0.04248971193415638,0,0,0.04248971193415638,18.695473251028805,0)" xlink:href="#ah"/><use transform="matrix(0.04248971193415638,0,0,0.04248971193415638,27.193415637860078,0)" xlink:href="#ai"/><use transform="matrix(0.04248971193415638,0,0,0.04248971193415638,31.442386831275712,0)" xlink:href="#aj"/><use transform="matrix(0.04248971193415638,0,0,0.04248971193415638,34.79907407407407,0)" xlink:href="#ag"/><use transform="matrix(0.04248971193415638,0,0,0.04248971193415638,43.29701646090535,0)" xlink:href="#ak"/><use transform="matrix(0.04248971193415638,0,0,0.04248971193415638,51.79495884773662,0)" xlink:href="#al"/></g><path fill="#a9afb8" d="M30-248c118-7 216 8 213 122C240-48 200 0 122 0H30v-248zM63-27c89 8 146-16 146-99s-60-101-146-95v194" id="am"/><path fill="#a9afb8" d="M84 4C-5 8 30-112 23-190h32v120c0 31 7 50 39 49 72-2 45-101 50-169h31l1 190h-30c-1-10 1-25-2-33-11 22-28 36-60 37" id="an"/><path fill="#a9afb8" d="M114-163C36-179 61-72 57 0H25l-1-190h30c1 12-1 29 2 39 6-27 23-49 58-41v29" id="ao"/><path fill="#a9afb8" d="M141-36C126-15 110 5 73 4 37 3 15-17 15-53c-1-64 63-63 125-63 3-35-9-54-41-54-24 1-41 7-42 31l-33-3c5-37 33-52 76-52 45 0 72 20 72 64v82c-1 20 7 32 28 27v20c-31 9-61-2-59-35zM48-53c0 20 12 33 32 33 41-3 63-29 60-74-43 2-92-5-92 41zm25-158c8-23 27-35 38-54h36v5l-58 49H73" id="ap"/><g id="f"><use transform="matrix(0.04248971193415638,0,0,0.04248971193415638,0,0)" xlink:href="#am"/><use transform="matrix(0.04248971193415638,0,0,0.04248971193415638,11.004835390946502,0)" xlink:href="#an"/><use transform="matrix(0.04248971193415638,0,0,0.04248971193415638,19.502777777777776,0)" xlink:href="#ao"/><use transform="matrix(0.04248971193415638,0,0,0.04248971193415638,24.559053497942386,0)" xlink:href="#ap"/><use transform="matrix(0.04248971193415638,0,0,0.04248971193415638,33.05699588477366,0)" xlink:href="#ah"/></g><path fill="#a9afb8" d="M32 76v-337h29V76H32" id="aq"/><use transform="matrix(0.04248971193415638,0,0,0.04248971193415638,0,0)" xlink:href="#aq" id="g"/><path fill="#a9afb8" d="M240 0l2-218c-23 76-54 145-80 218h-23L58-218 59 0H30v-248h44l77 211c21-75 51-140 76-211h43V0h-30" id="ar"/><path fill="#a9afb8" d="M179-190L93 31C79 59 56 82 12 73V49c39 6 53-20 64-50L1-190h34L92-34l54-156h33" id="as"/><g id="h"><use transform="matrix(0.04248971193415638,0,0,0.04248971193415638,0,0)" xlink:href="#ar"/><use transform="matrix(0.04248971193415638,0,0,0.04248971193415638,12.704423868312757,0)" xlink:href="#ag"/><use transform="matrix(0.04248971193415638,0,0,0.04248971193415638,21.20236625514403,0)" xlink:href="#as"/></g><path fill="#a9afb8" d="M101-251c82-7 93 87 43 132L82-64C71-53 59-42 53-27h129V0H18c2-99 128-94 128-182 0-28-16-43-45-43s-46 15-49 41l-32-3c6-41 34-60 81-64" id="at"/><path fill="#a9afb8" d="M134-131c28 9 52 24 51 62-1 50-34 73-85 73S17-19 16-69c0-36 21-54 49-61-75-25-45-126 34-121 46 3 78 18 79 63 0 33-17 51-44 57zm-34-11c31 1 46-15 46-44 0-28-17-43-47-42-29 0-46 13-45 42 1 28 16 44 46 44zm1 122c35 0 51-18 51-52 0-30-18-46-53-46-33 0-51 17-51 47 0 34 19 51 53 51" id="au"/><path fill="#a9afb8" d="M68-38c1 34 0 65-14 84H32c9-13 17-26 17-46H33v-38h35" id="av"/><g id="i"><use transform="matrix(0.04248971193415638,0,0,0.04248971193415638,0,0)" xlink:href="#at"/><use transform="matrix(0.04248971193415638,0,0,0.04248971193415638,8.497942386831275,0)" xlink:href="#au"/><use transform="matrix(0.04248971193415638,0,0,0.04248971193415638,16.99588477366255,0)" xlink:href="#av"/></g><path fill="#a9afb8" d="M101-251c68 0 85 55 85 127S166 4 100 4C33 4 14-52 14-124c0-73 17-127 87-127zm-1 229c47 0 54-49 54-102s-4-102-53-102c-51 0-55 48-55 102 0 53 5 102 54 102" id="aw"/><path fill="#a9afb8" d="M155-56V0h-30v-56H8v-25l114-167h33v167h35v25h-35zm-30-156c-27 46-58 90-88 131h88v-131" id="ax"/><g id="j"><use transform="matrix(0.04248971193415638,0,0,0.04248971193415638,0,0)" xlink:href="#at"/><use transform="matrix(0.04248971193415638,0,0,0.04248971193415638,8.497942386831275,0)" xlink:href="#aw"/><use transform="matrix(0.04248971193415638,0,0,0.04248971193415638,16.99588477366255,0)" xlink:href="#at"/><use transform="matrix(0.04248971193415638,0,0,0.04248971193415638,25.493827160493822,0)" xlink:href="#ax"/></g><path fill="#fff" d="M55-144c13 50 104 24 104 88C159 21 15 23 1-39l26-10c6 40 102 42 102-4-13-50-104-23-104-87 0-71 143-71 148-8l-29 4c-5-35-85-37-89 0" id="ay"/><path fill="#fff" d="M51-54c-9 22 5 41 31 30L79-1C43 14 10-4 19-52l22-115H19l5-23h22l19-43h21l-9 43h35l-4 23H73" id="az"/><path fill="#fff" d="M111-194c62-3 86 47 72 106H45c-7 38 6 69 45 68 27-1 43-14 53-32l24 11C152-15 129 4 87 4 38 3 12-23 12-71c0-70 32-119 99-123zm44 81c14-66-71-72-95-28-4 8-8 17-11 28h106" id="aA"/><path fill="#fff" d="M248-111c6-24 9-61-24-58-72 9-57 108-77 169h-31l26-142c3-37-50-30-64-10C52-115 50-51 37 0H6l36-190h30c-1 10-6 24-4 32 13-43 101-52 105 5 13-22 29-41 61-41 90 0 28 129 23 194h-31" id="aB"/><g id="k"><use transform="matrix(0.05,0,0,0.05,0,0)" xlink:href="#ay"/><use transform="matrix(0.05,0,0,0.05,9,0)" xlink:href="#N"/><use transform="matrix(0.05,0,0,0.05,12.949999999999998,0)" xlink:href="#ay"/><use transform="matrix(0.05,0,0,0.05,21.95,0)" xlink:href="#az"/><use transform="matrix(0.05,0,0,0.05,26.950000000000003,0)" xlink:href="#aA"/><use transform="matrix(0.05,0,0,0.05,36.95,0)" xlink:href="#aB"/><use transform="matrix(0.05,0,0,0.05,51.900000000000006,0)" xlink:href="#K"/></g><g id="l"><use transform="matrix(0.05,0,0,0.05,0,0)" xlink:href="#O"/><use transform="matrix(0.05,0,0,0.05,9,0)" xlink:href="#M"/><use transform="matrix(0.05,0,0,0.05,12.949999999999998,0)" xlink:href="#N"/><use transform="matrix(0.05,0,0,0.05,16.9,0)" xlink:href="#aA"/><use transform="matrix(0.05,0,0,0.05,26.899999999999995,0)" xlink:href="#Q"/><use transform="matrix(0.05,0,0,0.05,36.9,0)" xlink:href="#az"/><use transform="matrix(0.05,0,0,0.05,41.9,0)" xlink:href="#aA"/></g><path fill="#666" d="M96-169c-40 0-48 33-48 73s9 75 48 75c24 0 41-14 43-38l32 2c-6 37-31 61-74 61-59 0-76-41-82-99-10-93 101-131 147-64 4 7 5 14 7 22l-32 3c-4-21-16-35-41-35" id="aC"/><path fill="#666" d="M141-36C126-15 110 5 73 4 37 3 15-17 15-53c-1-64 63-63 125-63 3-35-9-54-41-54-24 1-41 7-42 31l-33-3c5-37 33-52 76-52 45 0 72 20 72 64v82c-1 20 7 32 28 27v20c-31 9-61-2-59-35zM48-53c0 20 12 33 32 33 41-3 63-29 60-74-43 2-92-5-92 41" id="aD"/><path fill="#666" d="M117-194c89-4 53 116 60 194h-32v-121c0-31-8-49-39-48C34-167 62-67 57 0H25l-1-190h30c1 10-1 24 2 32 11-22 29-35 61-36" id="aE"/><path fill="#666" d="M100-194c63 0 86 42 84 106H49c0 40 14 67 53 68 26 1 43-12 49-29l28 8c-11 28-37 45-77 45C44 4 14-33 15-96c1-61 26-98 85-98zm52 81c6-60-76-77-97-28-3 7-6 17-6 28h103" id="aF"/><path fill="#666" d="M24 0v-261h32V0H24" id="aG"/><g id="m"><use transform="matrix(0.05,0,0,0.05,0,0)" xlink:href="#aC"/><use transform="matrix(0.05,0,0,0.05,9,0)" xlink:href="#aD"/><use transform="matrix(0.05,0,0,0.05,19,0)" xlink:href="#aE"/><use transform="matrix(0.05,0,0,0.05,29,0)" xlink:href="#aC"/><use transform="matrix(0.05,0,0,0.05,38,0)" xlink:href="#aF"/><use transform="matrix(0.05,0,0,0.05,48,0)" xlink:href="#aG"/><use transform="matrix(0.05,0,0,0.05,51.95,0)" xlink:href="#aD"/></g><path fill="#666" d="M135-143c-3-34-86-38-87 0 15 53 115 12 119 90S17 21 10-45l28-5c4 36 97 45 98 0-10-56-113-15-118-90-4-57 82-63 122-42 12 7 21 19 24 35" id="aH"/><path fill="#666" d="M100-194c62-1 85 37 85 99 1 63-27 99-86 99S16-35 15-95c0-66 28-99 85-99zM99-20c44 1 53-31 53-75 0-43-8-75-51-75s-53 32-53 75 10 74 51 75" id="aI"/><path fill="#666" d="M24-231v-30h32v30H24zM24 0v-190h32V0H24" id="aJ"/><path fill="#666" d="M59-47c-2 24 18 29 38 22v24C64 9 27 4 27-40v-127H5v-23h24l9-43h21v43h35v23H59v120" id="aK"/><path fill="#666" d="M84 4C-5 8 30-112 23-190h32v120c0 31 7 50 39 49 72-2 45-101 50-169h31l1 190h-30c-1-10 1-25-2-33-11 22-28 36-60 37" id="aL"/><path fill="#666" d="M85-194c31 0 48 13 60 33l-1-100h32l1 261h-30c-2-10 0-23-3-31C134-8 116 4 85 4 32 4 16-35 15-94c0-66 23-100 70-100zm9 24c-40 0-46 34-46 75 0 40 6 74 45 74 42 0 51-32 51-76 0-42-9-74-50-73" id="aM"/><g id="n"><use transform="matrix(0.05,0,0,0.05,0,0)" xlink:href="#aH"/><use transform="matrix(0.05,0,0,0.05,9,0)" xlink:href="#aI"/><use transform="matrix(0.05,0,0,0.05,19,0)" xlink:href="#aG"/><use transform="matrix(0.05,0,0,0.05,22.95,0)" xlink:href="#aJ"/><use transform="matrix(0.05,0,0,0.05,26.899999999999995,0)" xlink:href="#aC"/><use transform="matrix(0.05,0,0,0.05,35.9,0)" xlink:href="#aJ"/><use transform="matrix(0.05,0,0,0.05,39.85,0)" xlink:href="#aK"/><use transform="matrix(0.05,0,0,0.05,44.85,0)" xlink:href="#aL"/><use transform="matrix(0.05,0,0,0.05,54.85,0)" xlink:href="#aM"/></g><g id="o"><use transform="matrix(0.05,0,0,0.05,0,0)" xlink:href="#aM"/><use transform="matrix(0.05,0,0,0.05,10,0)" xlink:href="#aF"/></g><path fill="#666" d="M115-194c55 1 70 41 70 98S169 2 115 4C84 4 66-9 55-30l1 105H24l-1-265h31l2 30c10-21 28-34 59-34zm-8 174c40 0 45-34 45-75s-6-73-45-74c-42 0-51 32-51 76 0 43 10 73 51 73" id="aN"/><path fill="#666" d="M145-31C134-9 116 4 85 4 32 4 16-35 15-94c0-59 17-99 70-100 32-1 48 14 60 33 0-11-1-24 2-32h30l-1 268h-32zM93-21c41 0 51-33 51-76s-8-73-50-73c-40 0-46 35-46 75s5 74 45 74" id="aO"/><g id="p"><use transform="matrix(0.05,0,0,0.05,0,0)" xlink:href="#aN"/><use transform="matrix(0.05,0,0,0.05,10,0)" xlink:href="#aD"/><use transform="matrix(0.05,0,0,0.05,20,0)" xlink:href="#aO"/><use transform="matrix(0.05,0,0,0.05,30,0)" xlink:href="#aL"/><use transform="matrix(0.05,0,0,0.05,40,0)" xlink:href="#aF"/><use transform="matrix(0.05,0,0,0.05,50,0)" xlink:href="#aK"/><use transform="matrix(0.05,0,0,0.05,55,0)" xlink:href="#aF"/></g><path fill="#666" d="M210-169c-67 3-38 105-44 169h-31v-121c0-29-5-50-35-48C34-165 62-65 56 0H25l-1-190h30c1 10-1 24 2 32 10-44 99-50 107 0 11-21 27-35 58-36 85-2 47 119 55 194h-31v-121c0-29-5-49-35-48" id="aP"/><path fill="#666" d="M114-163C36-179 61-72 57 0H25l-1-190h30c1 12-1 29 2 39 6-27 23-49 58-41v29" id="aQ"/><g id="q"><use transform="matrix(0.05,0,0,0.05,0,0)" xlink:href="#aP"/><use transform="matrix(0.05,0,0,0.05,14.950000000000001,0)" xlink:href="#aL"/><use transform="matrix(0.05,0,0,0.05,24.950000000000003,0)" xlink:href="#aF"/><use transform="matrix(0.05,0,0,0.05,34.95,0)" xlink:href="#aH"/><use transform="matrix(0.05,0,0,0.05,43.95,0)" xlink:href="#aK"/><use transform="matrix(0.05,0,0,0.05,48.95,0)" xlink:href="#aQ"/><use transform="matrix(0.05,0,0,0.05,54.900000000000006,0)" xlink:href="#aD"/></g><g id="r"><use transform="matrix(0.05,0,0,0.05,0,0)" xlink:href="#aG"/><use transform="matrix(0.05,0,0,0.05,3.95,0)" xlink:href="#aJ"/><use transform="matrix(0.05,0,0,0.05,7.9,0)" xlink:href="#aH"/><use transform="matrix(0.05,0,0,0.05,16.9,0)" xlink:href="#aK"/><use transform="matrix(0.05,0,0,0.05,21.9,0)" xlink:href="#aD"/></g><g id="s"><use transform="matrix(0.05,0,0,0.05,0,0)" xlink:href="#aH"/><use transform="matrix(0.05,0,0,0.05,9,0)" xlink:href="#aI"/><use transform="matrix(0.05,0,0,0.05,19,0)" xlink:href="#aG"/><use transform="matrix(0.05,0,0,0.05,22.95,0)" xlink:href="#aJ"/><use transform="matrix(0.05,0,0,0.05,26.899999999999995,0)" xlink:href="#aC"/><use transform="matrix(0.05,0,0,0.05,35.9,0)" xlink:href="#aJ"/><use transform="matrix(0.05,0,0,0.05,39.85,0)" xlink:href="#aK"/><use transform="matrix(0.05,0,0,0.05,44.85,0)" xlink:href="#aL"/><use transform="matrix(0.05,0,0,0.05,54.85,0)" xlink:href="#aM"/><use transform="matrix(0.05,0,0,0.05,64.85,0)" xlink:href="#aF"/><use transform="matrix(0.05,0,0,0.05,74.85,0)" xlink:href="#aH"/></g><g id="t"><use transform="matrix(0.05,0,0,0.05,0,0)" xlink:href="#aN"/><use transform="matrix(0.05,0,0,0.05,10,0)" xlink:href="#aD"/><use transform="matrix(0.05,0,0,0.05,20,0)" xlink:href="#aO"/><use transform="matrix(0.05,0,0,0.05,30,0)" xlink:href="#aL"/><use transform="matrix(0.05,0,0,0.05,40,0)" xlink:href="#aF"/><use transform="matrix(0.05,0,0,0.05,50,0)" xlink:href="#aK"/><use transform="matrix(0.05,0,0,0.05,55,0)" xlink:href="#aF"/><use transform="matrix(0.05,0,0,0.05,65,0)" xlink:href="#aH"/></g><path fill="#666" d="M108 0H70L1-190h34L89-25l56-165h34" id="aR"/><g id="u"><use transform="matrix(0.05,0,0,0.05,0,0)" xlink:href="#aD"/><use transform="matrix(0.05,0,0,0.05,10,0)" xlink:href="#aC"/><use transform="matrix(0.05,0,0,0.05,19,0)" xlink:href="#aK"/><use transform="matrix(0.05,0,0,0.05,24,0)" xlink:href="#aJ"/><use transform="matrix(0.05,0,0,0.05,27.950000000000003,0)" xlink:href="#aR"/><use transform="matrix(0.05,0,0,0.05,36.95,0)" xlink:href="#aD"/><use transform="matrix(0.05,0,0,0.05,46.95,0)" xlink:href="#aH"/></g><g id="v"><use transform="matrix(0.05,0,0,0.05,0,0)" xlink:href="#aH"/><use transform="matrix(0.05,0,0,0.05,9,0)" xlink:href="#aI"/><use transform="matrix(0.05,0,0,0.05,19,0)" xlink:href="#aG"/><use transform="matrix(0.05,0,0,0.05,22.95,0)" xlink:href="#aJ"/><use transform="matrix(0.05,0,0,0.05,26.899999999999995,0)" xlink:href="#aC"/><use transform="matrix(0.05,0,0,0.05,35.9,0)" xlink:href="#aJ"/><use transform="matrix(0.05,0,0,0.05,39.85,0)" xlink:href="#aK"/><use transform="matrix(0.05,0,0,0.05,44.85,0)" xlink:href="#aD"/></g><path fill="#666" d="M101-234c-31-9-42 10-38 44h38v23H63V0H32v-167H5v-23h27c-7-52 17-82 69-68v24" id="aS"/><g id="w"><use transform="matrix(0.05,0,0,0.05,0,0)" xlink:href="#aC"/><use transform="matrix(0.05,0,0,0.05,9,0)" xlink:href="#aI"/><use transform="matrix(0.05,0,0,0.05,19,0)" xlink:href="#aE"/><use transform="matrix(0.05,0,0,0.05,29,0)" xlink:href="#aS"/><use transform="matrix(0.05,0,0,0.05,34,0)" xlink:href="#aJ"/><use transform="matrix(0.05,0,0,0.05,37.95,0)" xlink:href="#aQ"/><use transform="matrix(0.05,0,0,0.05,43.900000000000006,0)" xlink:href="#aP"/><use transform="matrix(0.05,0,0,0.05,58.85,0)" xlink:href="#aD"/><use transform="matrix(0.05,0,0,0.05,68.85000000000001,0)" xlink:href="#aC"/><use transform="matrix(0.05,0,0,0.05,77.85000000000001,0)" xlink:href="#aJ"/><use transform="matrix(0.05,0,0,0.05,81.80000000000001,0)" xlink:href="#aI"/><use transform="matrix(0.05,0,0,0.05,91.80000000000001,0)" xlink:href="#aE"/></g><g id="x"><use transform="matrix(0.05,0,0,0.05,0,0)" xlink:href="#aM"/><use transform="matrix(0.05,0,0,0.05,10,0)" xlink:href="#aF"/></g><g id="y"><use transform="matrix(0.05,0,0,0.05,0,0)" xlink:href="#aC"/><use transform="matrix(0.05,0,0,0.05,9,0)" xlink:href="#aD"/><use transform="matrix(0.05,0,0,0.05,19,0)" xlink:href="#aE"/><use transform="matrix(0.05,0,0,0.05,29,0)" xlink:href="#aC"/><use transform="matrix(0.05,0,0,0.05,38,0)" xlink:href="#aF"/><use transform="matrix(0.05,0,0,0.05,48,0)" xlink:href="#aG"/><use transform="matrix(0.05,0,0,0.05,51.95,0)" xlink:href="#aD"/><use transform="matrix(0.05,0,0,0.05,61.95,0)" xlink:href="#aC"/><use transform="matrix(0.05,0,0,0.05,70.95,0)" xlink:href="#aJ"/><use transform="matrix(0.05,0,0,0.05,74.9,0)" xlink:href="#aI"/><use transform="matrix(0.05,0,0,0.05,84.9,0)" xlink:href="#aE"/></g><g id="z"><use transform="matrix(0.05,0,0,0.05,0,0)" xlink:href="#aE"/><use transform="matrix(0.05,0,0,0.05,10,0)" xlink:href="#aI"/><use transform="matrix(0.05,0,0,0.05,20,0)" xlink:href="#aK"/><use transform="matrix(0.05,0,0,0.05,25,0)" xlink:href="#aJ"/><use transform="matrix(0.05,0,0,0.05,28.950000000000003,0)" xlink:href="#aS"/><use transform="matrix(0.05,0,0,0.05,33.95,0)" xlink:href="#aJ"/><use transform="matrix(0.05,0,0,0.05,37.900000000000006,0)" xlink:href="#aC"/><use transform="matrix(0.05,0,0,0.05,46.900000000000006,0)" xlink:href="#aD"/><use transform="matrix(0.05,0,0,0.05,56.900000000000006,0)" xlink:href="#aC"/><use transform="matrix(0.05,0,0,0.05,65.9,0)" xlink:href="#aJ"/><use transform="matrix(0.05,0,0,0.05,69.85000000000001,0)" xlink:href="#aI"/><use transform="matrix(0.05,0,0,0.05,79.85000000000001,0)" xlink:href="#aE"/></g><g id="A"><use transform="matrix(0.05,0,0,0.05,0,0)" xlink:href="#aD"/><use transform="matrix(0.05,0,0,0.05,10,0)" xlink:href="#aC"/><use transform="matrix(0.05,0,0,0.05,19,0)" xlink:href="#aC"/><use transform="matrix(0.05,0,0,0.05,28,0)" xlink:href="#aF"/><use transform="matrix(0.05,0,0,0.05,38,0)" xlink:href="#aM"/><use transform="matrix(0.05,0,0,0.05,48,0)" xlink:href="#aF"/></g><use transform="matrix(0.05,0,0,0.05,0,0)" xlink:href="#aD" id="B"/><g id="C"><use transform="matrix(0.05,0,0,0.05,0,0)" xlink:href="#aG"/><use transform="matrix(0.05,0,0,0.05,3.95,0)" xlink:href="#aD"/></g><g id="D"><use transform="matrix(0.05,0,0,0.05,0,0)" xlink:href="#aI"/><use transform="matrix(0.05,0,0,0.05,10,0)" xlink:href="#aN"/><use transform="matrix(0.05,0,0,0.05,20,0)" xlink:href="#aC"/><use transform="matrix(0.05,0,0,0.05,29,0)" xlink:href="#aJ"/><use transform="matrix(0.05,0,0,0.05,32.95,0)" xlink:href="#aI"/><use transform="matrix(0.05,0,0,0.05,42.95,0)" xlink:href="#aE"/></g><g id="E"><use transform="matrix(0.05,0,0,0.05,0,0)" xlink:href="#aC"/><use transform="matrix(0.05,0,0,0.05,9,0)" xlink:href="#aD"/><use transform="matrix(0.05,0,0,0.05,19,0)" xlink:href="#aE"/><use transform="matrix(0.05,0,0,0.05,29,0)" xlink:href="#aC"/><use transform="matrix(0.05,0,0,0.05,38,0)" xlink:href="#aF"/><use transform="matrix(0.05,0,0,0.05,48,0)" xlink:href="#aG"/><use transform="matrix(0.05,0,0,0.05,51.95,0)" xlink:href="#aD"/><use transform="matrix(0.05,0,0,0.05,61.95,0)" xlink:href="#aQ"/></g><g id="F"><use transform="matrix(0.05,0,0,0.05,0,0)" xlink:href="#aL"/><use transform="matrix(0.05,0,0,0.05,10,0)" xlink:href="#aE"/></g><g id="G"><use transform="matrix(0.05,0,0,0.05,0,0)" xlink:href="#aH"/><use transform="matrix(0.05,0,0,0.05,9,0)" xlink:href="#aF"/><use transform="matrix(0.05,0,0,0.05,19,0)" xlink:href="#aG"/><use transform="matrix(0.05,0,0,0.05,22.95,0)" xlink:href="#aF"/><use transform="matrix(0.05,0,0,0.05,32.95,0)" xlink:href="#aC"/><use transform="matrix(0.05,0,0,0.05,41.95,0)" xlink:href="#aC"/><use transform="matrix(0.05,0,0,0.05,50.95,0)" xlink:href="#aJ"/><use transform="matrix(0.05,0,0,0.05,54.900000000000006,0)" xlink:href="#aI"/><use transform="matrix(0.05,0,0,0.05,64.9,0)" xlink:href="#aE"/><use transform="matrix(0.05,0,0,0.05,74.9,0)" xlink:href="#aD"/></g><use transform="matrix(0.05,0,0,0.05,0,0)" xlink:href="#aD" id="H"/><g id="I"><use transform="matrix(0.05,0,0,0.05,0,0)" xlink:href="#aC"/><use transform="matrix(0.05,0,0,0.05,9,0)" xlink:href="#aD"/><use transform="matrix(0.05,0,0,0.05,19,0)" xlink:href="#aE"/><use transform="matrix(0.05,0,0,0.05,29,0)" xlink:href="#aC"/><use transform="matrix(0.05,0,0,0.05,38,0)" xlink:href="#aF"/><use transform="matrix(0.05,0,0,0.05,48,0)" xlink:href="#aG"/><use transform="matrix(0.05,0,0,0.05,51.95,0)" xlink:href="#aD"/><use transform="matrix(0.05,0,0,0.05,61.95,0)" xlink:href="#aQ"/></g><g id="J"><use transform="matrix(0.05,0,0,0.05,0,0)" xlink:href="#aC"/><use transform="matrix(0.05,0,0,0.05,9,0)" xlink:href="#aI"/><use transform="matrix(0.05,0,0,0.05,19,0)" xlink:href="#aE"/><use transform="matrix(0.05,0,0,0.05,29,0)" xlink:href="#aS"/><use transform="matrix(0.05,0,0,0.05,34,0)" xlink:href="#aJ"/><use transform="matrix(0.05,0,0,0.05,37.95,0)" xlink:href="#aQ"/><use transform="matrix(0.05,0,0,0.05,43.900000000000006,0)" xlink:href="#aP"/><use transform="matrix(0.05,0,0,0.05,58.85,0)" xlink:href="#aD"/></g></defs></g></svg>